<?xml version="1.0" encoding="utf-8"?>
<!-- Generator: Adobe Illustrator 23.0.4, SVG Export Plug-In . SVG Version: 6.00 Build 0)  -->
<svg version="1.1" id="Layer_1" xmlns="http://www.w3.org/2000/svg" xmlns:xlink="http://www.w3.org/1999/xlink" x="0px" y="0px"
	 viewBox="0 0 1331 634.5" style="enable-background:new 0 0 1331 634.5;" xml:space="preserve">
<style type="text/css">
	.st0{opacity:0.38;}
	.st1{opacity:6.000000e-02;fill:#4976D1;enable-background:new    ;}
	.st2{opacity:0.1;fill:#4976D1;enable-background:new    ;}
	.st3{opacity:0.65;}
	.st4{opacity:6.000000e-02;}
	.st5{fill:#4976D1;}
	.st6{opacity:3.000000e-02;}
	.st7{opacity:7.000000e-02;}
</style>
<g id="Group_737" transform="translate(-284.65 -1027.932)">
	<g id="Group_544" transform="translate(1422.445 19.151)" class="st0">
		<g transform="matrix(1, 0, 0, 1, -1137.79, 1008.78)">
			<circle id="Ellipse_19-3" class="st1" cx="1220.5" cy="107.3" r="46.3"/>
		</g>
		<g transform="matrix(1, 0, 0, 1, -1137.79, 1008.78)">
			<circle id="Ellipse_18-3" class="st2" cx="1220.5" cy="107.3" r="30.3"/>
		</g>
	</g>
	<g id="Group_545" transform="translate(312.445 367.828)" class="st3">
		<g transform="matrix(1, 0, 0, 1, -27.79, 660.1)">
			<circle id="Ellipse_19-4" class="st1" cx="139.5" cy="485" r="66.8"/>
		</g>
		<g transform="matrix(1, 0, 0, 1, -27.79, 660.1)">
			<circle id="Ellipse_18-4" class="st1" cx="139.5" cy="485" r="40.1"/>
		</g>
	</g>
	<g id="Group_537" transform="translate(-1554.102 463.938)" class="st4">
		<g id="Group_536" transform="translate(2017.102 786.995)">
			<g id="Group_530">
				<path id="Path_789" class="st5" d="M12.3,30.1c0.5,3.4-1.8,6.5-5.1,7.1c-3.4,0.5-6.5-1.8-7.1-5.1c-0.5-3.4,1.8-6.5,5.1-7.1
					C8.6,24.4,11.7,26.7,12.3,30.1C12.3,30.1,12.3,30.1,12.3,30.1z"/>
				<path id="Path_790" class="st5" d="M72.1,25.1c0.5,3.4-1.8,6.5-5.1,7.1c-3.4,0.5-6.5-1.8-7.1-5.1c-0.5-3.4,1.8-6.5,5.1-7.1
					C68.4,19.5,71.6,21.8,72.1,25.1C72.1,25.1,72.1,25.1,72.1,25.1z"/>
				<path id="Path_791" class="st5" d="M131.9,20.1c0.5,3.4-1.8,6.5-5.1,7.1c-3.4,0.5-6.5-1.8-7.1-5.1c-0.5-3.4,1.8-6.5,5.1-7.1
					C128.2,14.5,131.4,16.8,131.9,20.1z"/>
				<path id="Path_792" class="st5" d="M191.8,15.2c0.5,3.4-1.8,6.5-5.1,7.1c-3.4,0.5-6.5-1.8-7.1-5.1c-0.5-3.4,1.8-6.5,5.1-7.1
					C188.1,9.5,191.2,11.8,191.8,15.2z"/>
				<path id="Path_793" class="st5" d="M251.6,10.2c0.5,3.4-1.8,6.5-5.1,7.1s-6.5-1.8-7.1-5.1s1.8-6.5,5.1-7.1l0,0
					C247.9,4.5,251,6.8,251.6,10.2C251.6,10.2,251.6,10.2,251.6,10.2z"/>
				<path id="Path_794" class="st5" d="M311.4,5.2c0.5,3.4-1.8,6.5-5.1,7.1c-3.4,0.5-6.5-1.8-7.1-5.1c-0.5-3.4,1.8-6.5,5.1-7.1
					c0,0,0,0,0,0C307.7-0.5,310.9,1.8,311.4,5.2z"/>
			</g>
			<g id="Group_531" transform="translate(4.978 55.951)">
				<path id="Path_795" class="st5" d="M12.3,30.1c0.5,3.4-1.8,6.5-5.1,7.1c-3.4,0.5-6.5-1.8-7.1-5.1c-0.5-3.4,1.8-6.5,5.1-7.1
					C8.6,24.4,11.7,26.7,12.3,30.1C12.3,30.1,12.3,30.1,12.3,30.1z"/>
				<path id="Path_796" class="st5" d="M72.1,25.1c0.5,3.4-1.8,6.5-5.1,7.1c-3.4,0.5-6.5-1.8-7.1-5.1c-0.5-3.4,1.8-6.5,5.1-7.1
					c0,0,0,0,0,0C68.4,19.5,71.6,21.8,72.1,25.1C72.1,25.1,72.1,25.1,72.1,25.1z"/>
				<path id="Path_797" class="st5" d="M131.9,20.1c0.5,3.4-1.8,6.5-5.1,7.1c-3.4,0.5-6.5-1.8-7.1-5.1c-0.5-3.4,1.8-6.5,5.1-7.1
					C128.2,14.5,131.4,16.8,131.9,20.1C131.9,20.1,131.9,20.1,131.9,20.1z"/>
				<path id="Path_798" class="st5" d="M191.8,15.2c0.5,3.4-1.8,6.5-5.1,7.1s-6.5-1.8-7.1-5.1c-0.5-3.4,1.8-6.5,5.1-7.1
					C188.1,9.5,191.2,11.8,191.8,15.2C191.8,15.2,191.8,15.2,191.8,15.2z"/>
				<path id="Path_799" class="st5" d="M251.6,10.2c0.5,3.4-1.8,6.5-5.1,7.1c-3.4,0.5-6.5-1.8-7.1-5.1c-0.5-3.4,1.8-6.5,5.1-7.1
					C247.9,4.5,251,6.8,251.6,10.2C251.6,10.2,251.6,10.2,251.6,10.2z"/>
				<path id="Path_800" class="st5" d="M311.4,5.2c0.5,3.4-1.8,6.5-5.1,7.1c-3.4,0.5-6.5-1.8-7.1-5.1c-0.5-3.4,1.8-6.5,5.1-7.1
					C307.7-0.5,310.9,1.8,311.4,5.2C311.4,5.2,311.4,5.2,311.4,5.2z"/>
			</g>
			<g id="Group_532" transform="translate(9.957 111.9)">
				<path id="Path_801" class="st5" d="M12.3,30.1c0.5,3.4-1.8,6.5-5.1,7.1c-3.4,0.5-6.5-1.8-7.1-5.1c-0.5-3.4,1.8-6.5,5.1-7.1
					C8.6,24.4,11.7,26.7,12.3,30.1C12.3,30.1,12.3,30.1,12.3,30.1z"/>
				<path id="Path_802" class="st5" d="M72.1,25.1c0.5,3.4-1.8,6.5-5.1,7.1c-3.4,0.5-6.5-1.8-7.1-5.1c-0.5-3.4,1.8-6.5,5.1-7.1
					C68.4,19.5,71.6,21.8,72.1,25.1C72.1,25.1,72.1,25.1,72.1,25.1z"/>
				<path id="Path_803" class="st5" d="M131.9,20.1c0.5,3.4-1.8,6.5-5.1,7.1c-3.4,0.5-6.5-1.8-7.1-5.1c-0.5-3.4,1.8-6.5,5.1-7.1
					C128.2,14.5,131.4,16.8,131.9,20.1C131.9,20.1,131.9,20.1,131.9,20.1z"/>
				<path id="Path_804" class="st5" d="M191.8,15.2c0.5,3.4-1.8,6.5-5.1,7.1c-3.4,0.5-6.5-1.8-7.1-5.1c-0.5-3.4,1.8-6.5,5.1-7.1
					C188.1,9.5,191.2,11.8,191.8,15.2C191.8,15.2,191.8,15.2,191.8,15.2z"/>
				<path id="Path_805" class="st5" d="M251.6,10.2c0.5,3.4-1.8,6.5-5.1,7.1s-6.5-1.8-7.1-5.1c-0.5-3.4,1.8-6.5,5.1-7.1
					C247.9,4.5,251,6.8,251.6,10.2C251.6,10.2,251.6,10.2,251.6,10.2z"/>
				<path id="Path_806" class="st5" d="M311.4,5.2c0.5,3.4-1.8,6.5-5.1,7.1c-3.4,0.5-6.5-1.8-7.1-5.1c-0.5-3.4,1.8-6.5,5.1-7.1
					C307.7-0.5,310.9,1.8,311.4,5.2C311.4,5.2,311.4,5.2,311.4,5.2z"/>
			</g>
			<g id="Group_533" transform="translate(14.936 167.852)">
				<path id="Path_807" class="st5" d="M12.3,30.1c0.5,3.4-1.8,6.5-5.1,7.1c-3.4,0.5-6.5-1.8-7.1-5.1c-0.5-3.4,1.8-6.5,5.1-7.1
					c0,0,0,0,0,0C8.6,24.4,11.7,26.7,12.3,30.1z"/>
				<path id="Path_808" class="st5" d="M72.1,25.1c0.5,3.4-1.8,6.5-5.1,7.1s-6.5-1.8-7.1-5.1s1.8-6.5,5.1-7.1l0,0
					C68.4,19.5,71.6,21.8,72.1,25.1z"/>
				<path id="Path_809" class="st5" d="M131.9,20.1c0.5,3.4-1.8,6.5-5.1,7.1c-3.4,0.5-6.5-1.8-7.1-5.1s1.8-6.5,5.1-7.1l0,0
					C128.2,14.5,131.4,16.8,131.9,20.1z"/>
				<path id="Path_810" class="st5" d="M191.8,15.2c0.5,3.4-1.8,6.5-5.1,7.1s-6.5-1.8-7.1-5.1c-0.5-3.4,1.8-6.5,5.1-7.1
					C188.1,9.5,191.2,11.8,191.8,15.2z"/>
				<path id="Path_811" class="st5" d="M251.6,10.2c0.5,3.4-1.8,6.5-5.1,7.1c-3.4,0.5-6.5-1.8-7.1-5.1c-0.5-3.4,1.8-6.5,5.1-7.1
					c0,0,0,0,0,0C247.9,4.5,251,6.8,251.6,10.2z"/>
				<path id="Path_812" class="st5" d="M311.4,5.2c0.5,3.4-1.8,6.5-5.1,7.1c-3.4,0.5-6.5-1.8-7.1-5.1c-0.5-3.4,1.8-6.5,5.1-7.1
					C307.7-0.5,310.9,1.8,311.4,5.2z"/>
			</g>
			<g id="Group_534" transform="translate(19.914 223.802)">
				<path id="Path_813" class="st5" d="M12.3,30.1c0.5,3.4-1.8,6.5-5.1,7.1c-3.4,0.5-6.5-1.8-7.1-5.1c-0.5-3.4,1.8-6.5,5.1-7.1
					C8.6,24.4,11.7,26.7,12.3,30.1C12.3,30.1,12.3,30.1,12.3,30.1z"/>
				<path id="Path_814" class="st5" d="M72.1,25.1c0.5,3.4-1.8,6.5-5.1,7.1c-3.4,0.5-6.5-1.8-7.1-5.1c-0.5-3.4,1.8-6.5,5.1-7.1
					C68.4,19.5,71.6,21.8,72.1,25.1z"/>
				<path id="Path_815" class="st5" d="M131.9,20.1c0.5,3.4-1.8,6.5-5.1,7.1c-3.4,0.5-6.5-1.8-7.1-5.1c-0.5-3.4,1.8-6.5,5.1-7.1
					C128.2,14.5,131.4,16.8,131.9,20.1z"/>
				<path id="Path_816" class="st5" d="M191.8,15.2c0.5,3.4-1.8,6.5-5.1,7.1c-3.4,0.5-6.5-1.8-7.1-5.1c-0.5-3.4,1.8-6.5,5.1-7.1
					C188.1,9.5,191.2,11.8,191.8,15.2C191.8,15.2,191.8,15.2,191.8,15.2z"/>
				<path id="Path_817" class="st5" d="M251.6,10.2c0.5,3.4-1.8,6.5-5.1,7.1c-3.4,0.5-6.5-1.8-7.1-5.1c-0.5-3.4,1.8-6.5,5.1-7.1
					C247.9,4.5,251,6.8,251.6,10.2C251.6,10.2,251.6,10.2,251.6,10.2z"/>
				<path id="Path_818" class="st5" d="M311.4,5.2c0.5,3.4-1.8,6.5-5.1,7.1c-3.4,0.5-6.5-1.8-7.1-5.1c-0.5-3.4,1.8-6.5,5.1-7.1
					C307.7-0.5,310.9,1.8,311.4,5.2z"/>
			</g>
			<g id="Group_535" transform="translate(24.893 279.754)">
				<path id="Path_819" class="st5" d="M12.3,30.1c0.5,3.4-1.8,6.5-5.1,7.1c-3.4,0.5-6.5-1.8-7.1-5.1c-0.5-3.4,1.8-6.5,5.1-7.1
					C8.6,24.4,11.7,26.7,12.3,30.1z"/>
				<path id="Path_820" class="st5" d="M72.1,25.1c0.5,3.4-1.8,6.5-5.1,7.1c-3.4,0.5-6.5-1.8-7.1-5.1c-0.5-3.4,1.8-6.5,5.1-7.1
					c0,0,0,0,0,0C68.4,19.5,71.6,21.8,72.1,25.1C72.1,25.1,72.1,25.1,72.1,25.1z"/>
				<path id="Path_821" class="st5" d="M131.9,20.1c0.5,3.4-1.8,6.5-5.1,7.1c-3.4,0.5-6.5-1.8-7.1-5.1c-0.5-3.4,1.8-6.5,5.1-7.1
					C128.2,14.5,131.4,16.8,131.9,20.1z"/>
				<path id="Path_822" class="st5" d="M191.8,15.2c0.5,3.4-1.8,6.5-5.1,7.1s-6.5-1.8-7.1-5.1c-0.5-3.4,1.8-6.5,5.1-7.1
					C188.1,9.5,191.2,11.8,191.8,15.2C191.8,15.2,191.8,15.2,191.8,15.2z"/>
				<path id="Path_823" class="st5" d="M251.6,10.2c0.5,3.4-1.8,6.5-5.1,7.1c-3.4,0.5-6.5-1.8-7.1-5.1c-0.5-3.4,1.8-6.5,5.1-7.1
					C247.9,4.5,251,6.8,251.6,10.2C251.6,10.2,251.6,10.2,251.6,10.2z"/>
				<path id="Path_824" class="st5" d="M311.4,5.2c0.5,3.4-1.8,6.5-5.1,7.1c-3.4,0.5-6.5-1.8-7.1-5.1c-0.5-3.4,1.8-6.5,5.1-7.1
					c0,0,0,0,0,0C307.7-0.5,310.9,1.8,311.4,5.2z"/>
			</g>
		</g>
	</g>
	<g id="Group_539" transform="translate(-908.102 240.938)" class="st4">
		<g id="Group_536-2" transform="translate(2017.102 786.995)">
			<g id="Group_530-2">
				<path id="Path_789-2" class="st5" d="M12.3,30.1c0.5,3.4-1.8,6.5-5.1,7.1c-3.4,0.5-6.5-1.8-7.1-5.1c-0.5-3.4,1.8-6.5,5.1-7.1
					C8.6,24.4,11.7,26.7,12.3,30.1C12.3,30.1,12.3,30.1,12.3,30.1z"/>
				<path id="Path_790-2" class="st5" d="M72.1,25.1c0.5,3.4-1.8,6.5-5.1,7.1c-3.4,0.5-6.5-1.8-7.1-5.1c-0.5-3.4,1.8-6.5,5.1-7.1
					C68.4,19.5,71.6,21.8,72.1,25.1C72.1,25.1,72.1,25.1,72.1,25.1z"/>
				<path id="Path_791-2" class="st5" d="M131.9,20.1c0.5,3.4-1.8,6.5-5.1,7.1c-3.4,0.5-6.5-1.8-7.1-5.1c-0.5-3.4,1.8-6.5,5.1-7.1
					C128.2,14.5,131.4,16.8,131.9,20.1z"/>
				<path id="Path_792-2" class="st5" d="M191.8,15.2c0.5,3.4-1.8,6.5-5.1,7.1c-3.4,0.5-6.5-1.8-7.1-5.1c-0.5-3.4,1.8-6.5,5.1-7.1
					C188.1,9.5,191.2,11.8,191.8,15.2z"/>
				<path id="Path_793-2" class="st5" d="M251.6,10.2c0.5,3.4-1.8,6.5-5.1,7.1s-6.5-1.8-7.1-5.1s1.8-6.5,5.1-7.1l0,0
					C247.9,4.5,251,6.8,251.6,10.2C251.6,10.2,251.6,10.2,251.6,10.2z"/>
				<path id="Path_794-2" class="st5" d="M311.4,5.2c0.5,3.4-1.8,6.5-5.1,7.1c-3.4,0.5-6.5-1.8-7.1-5.1c-0.5-3.4,1.8-6.5,5.1-7.1
					c0,0,0,0,0,0C307.7-0.5,310.9,1.8,311.4,5.2z"/>
			</g>
			<g id="Group_531-2" transform="translate(4.978 55.951)">
				<path id="Path_795-2" class="st5" d="M12.3,30.1c0.5,3.4-1.8,6.5-5.1,7.1c-3.4,0.5-6.5-1.8-7.1-5.1c-0.5-3.4,1.8-6.5,5.1-7.1
					C8.6,24.4,11.7,26.7,12.3,30.1C12.3,30.1,12.3,30.1,12.3,30.1z"/>
				<path id="Path_796-2" class="st5" d="M72.1,25.1c0.5,3.4-1.8,6.5-5.1,7.1c-3.4,0.5-6.5-1.8-7.1-5.1c-0.5-3.4,1.8-6.5,5.1-7.1
					c0,0,0,0,0,0C68.4,19.5,71.6,21.8,72.1,25.1C72.1,25.1,72.1,25.1,72.1,25.1z"/>
				<path id="Path_797-2" class="st5" d="M131.9,20.1c0.5,3.4-1.8,6.5-5.1,7.1c-3.4,0.5-6.5-1.8-7.1-5.1c-0.5-3.4,1.8-6.5,5.1-7.1
					C128.2,14.5,131.4,16.8,131.9,20.1C131.9,20.1,131.9,20.1,131.9,20.1z"/>
				<path id="Path_798-2" class="st5" d="M191.8,15.2c0.5,3.4-1.8,6.5-5.1,7.1s-6.5-1.8-7.1-5.1c-0.5-3.4,1.8-6.5,5.1-7.1
					C188.1,9.5,191.2,11.8,191.8,15.2C191.8,15.2,191.8,15.2,191.8,15.2z"/>
				<path id="Path_799-2" class="st5" d="M251.6,10.2c0.5,3.4-1.8,6.5-5.1,7.1c-3.4,0.5-6.5-1.8-7.1-5.1c-0.5-3.4,1.8-6.5,5.1-7.1
					C247.9,4.5,251,6.8,251.6,10.2C251.6,10.2,251.6,10.2,251.6,10.2z"/>
				<path id="Path_800-2" class="st5" d="M311.4,5.2c0.5,3.4-1.8,6.5-5.1,7.1c-3.4,0.5-6.5-1.8-7.1-5.1c-0.5-3.4,1.8-6.5,5.1-7.1
					C307.7-0.5,310.9,1.8,311.4,5.2C311.4,5.2,311.4,5.2,311.4,5.2z"/>
			</g>
			<g id="Group_532-2" transform="translate(9.957 111.9)">
				<path id="Path_801-2" class="st5" d="M12.3,30.1c0.5,3.4-1.8,6.5-5.1,7.1c-3.4,0.5-6.5-1.8-7.1-5.1c-0.5-3.4,1.8-6.5,5.1-7.1
					C8.6,24.4,11.7,26.7,12.3,30.1C12.3,30.1,12.3,30.1,12.3,30.1z"/>
				<path id="Path_802-2" class="st5" d="M72.1,25.1c0.5,3.4-1.8,6.5-5.1,7.1c-3.4,0.5-6.5-1.8-7.1-5.1c-0.5-3.4,1.8-6.5,5.1-7.1
					C68.4,19.5,71.6,21.8,72.1,25.1C72.1,25.1,72.1,25.1,72.1,25.1z"/>
				<path id="Path_803-2" class="st5" d="M131.9,20.1c0.5,3.4-1.8,6.5-5.1,7.1c-3.4,0.5-6.5-1.8-7.1-5.1c-0.5-3.4,1.8-6.5,5.1-7.1
					C128.2,14.5,131.4,16.8,131.9,20.1C131.9,20.1,131.9,20.1,131.9,20.1z"/>
				<path id="Path_804-2" class="st5" d="M191.8,15.2c0.5,3.4-1.8,6.5-5.1,7.1c-3.4,0.5-6.5-1.8-7.1-5.1c-0.5-3.4,1.8-6.5,5.1-7.1
					C188.1,9.5,191.2,11.8,191.8,15.2C191.8,15.2,191.8,15.2,191.8,15.2z"/>
				<path id="Path_805-2" class="st5" d="M251.6,10.2c0.5,3.4-1.8,6.5-5.1,7.1s-6.5-1.8-7.1-5.1c-0.5-3.4,1.8-6.5,5.1-7.1
					C247.9,4.5,251,6.8,251.6,10.2C251.6,10.2,251.6,10.2,251.6,10.2z"/>
				<path id="Path_806-2" class="st5" d="M311.4,5.2c0.5,3.4-1.8,6.5-5.1,7.1c-3.4,0.5-6.5-1.8-7.1-5.1c-0.5-3.4,1.8-6.5,5.1-7.1
					C307.7-0.5,310.9,1.8,311.4,5.2C311.4,5.2,311.4,5.2,311.4,5.2z"/>
			</g>
			<g id="Group_533-2" transform="translate(14.936 167.852)">
				<path id="Path_807-2" class="st5" d="M12.3,30.1c0.5,3.4-1.8,6.5-5.1,7.1c-3.4,0.5-6.5-1.8-7.1-5.1c-0.5-3.4,1.8-6.5,5.1-7.1
					c0,0,0,0,0,0C8.6,24.4,11.7,26.7,12.3,30.1z"/>
				<path id="Path_808-2" class="st5" d="M72.1,25.1c0.5,3.4-1.8,6.5-5.1,7.1s-6.5-1.8-7.1-5.1s1.8-6.5,5.1-7.1l0,0
					C68.4,19.5,71.6,21.8,72.1,25.1z"/>
				<path id="Path_809-2" class="st5" d="M131.9,20.1c0.5,3.4-1.8,6.5-5.1,7.1c-3.4,0.5-6.5-1.8-7.1-5.1s1.8-6.5,5.1-7.1l0,0
					C128.2,14.5,131.4,16.8,131.9,20.1z"/>
				<path id="Path_810-2" class="st5" d="M191.8,15.2c0.5,3.4-1.8,6.5-5.1,7.1s-6.5-1.8-7.1-5.1c-0.5-3.4,1.8-6.5,5.1-7.1
					C188.1,9.5,191.2,11.8,191.8,15.2z"/>
				<path id="Path_811-2" class="st5" d="M251.6,10.2c0.5,3.4-1.8,6.5-5.1,7.1c-3.4,0.5-6.5-1.8-7.1-5.1c-0.5-3.4,1.8-6.5,5.1-7.1
					c0,0,0,0,0,0C247.9,4.5,251,6.8,251.6,10.2z"/>
				<path id="Path_812-2" class="st5" d="M311.4,5.2c0.5,3.4-1.8,6.5-5.1,7.1c-3.4,0.5-6.5-1.8-7.1-5.1c-0.5-3.4,1.8-6.5,5.1-7.1
					C307.7-0.5,310.9,1.8,311.4,5.2z"/>
			</g>
			<g id="Group_534-2" transform="translate(19.914 223.802)">
				<path id="Path_813-2" class="st5" d="M12.3,30.1c0.5,3.4-1.8,6.5-5.1,7.1c-3.4,0.5-6.5-1.8-7.1-5.1c-0.5-3.4,1.8-6.5,5.1-7.1
					C8.6,24.4,11.7,26.7,12.3,30.1C12.3,30.1,12.3,30.1,12.3,30.1z"/>
				<path id="Path_814-2" class="st5" d="M72.1,25.1c0.5,3.4-1.8,6.5-5.1,7.1c-3.4,0.5-6.5-1.8-7.1-5.1c-0.5-3.4,1.8-6.5,5.1-7.1
					C68.4,19.5,71.6,21.8,72.1,25.1z"/>
				<path id="Path_815-2" class="st5" d="M131.9,20.1c0.5,3.4-1.8,6.5-5.1,7.1c-3.4,0.5-6.5-1.8-7.1-5.1c-0.5-3.4,1.8-6.5,5.1-7.1
					C128.2,14.5,131.4,16.8,131.9,20.1z"/>
				<path id="Path_816-2" class="st5" d="M191.8,15.2c0.5,3.4-1.8,6.5-5.1,7.1c-3.4,0.5-6.5-1.8-7.1-5.1c-0.5-3.4,1.8-6.5,5.1-7.1
					C188.1,9.5,191.2,11.8,191.8,15.2C191.8,15.2,191.8,15.2,191.8,15.2z"/>
				<path id="Path_817-2" class="st5" d="M251.6,10.2c0.5,3.4-1.8,6.5-5.1,7.1c-3.4,0.5-6.5-1.8-7.1-5.1c-0.5-3.4,1.8-6.5,5.1-7.1
					C247.9,4.5,251,6.8,251.6,10.2C251.6,10.2,251.6,10.2,251.6,10.2z"/>
				<path id="Path_818-2" class="st5" d="M311.4,5.2c0.5,3.4-1.8,6.5-5.1,7.1c-3.4,0.5-6.5-1.8-7.1-5.1c-0.5-3.4,1.8-6.5,5.1-7.1
					C307.7-0.5,310.9,1.8,311.4,5.2z"/>
			</g>
			<g id="Group_535-2" transform="translate(24.893 279.754)">
				<path id="Path_819-2" class="st5" d="M12.3,30.1c0.5,3.4-1.8,6.5-5.1,7.1c-3.4,0.5-6.5-1.8-7.1-5.1c-0.5-3.4,1.8-6.5,5.1-7.1
					C8.6,24.4,11.7,26.7,12.3,30.1z"/>
				<path id="Path_820-2" class="st5" d="M72.1,25.1c0.5,3.4-1.8,6.5-5.1,7.1c-3.4,0.5-6.5-1.8-7.1-5.1c-0.5-3.4,1.8-6.5,5.1-7.1
					c0,0,0,0,0,0C68.4,19.5,71.6,21.8,72.1,25.1C72.1,25.1,72.1,25.1,72.1,25.1z"/>
				<path id="Path_821-2" class="st5" d="M131.9,20.1c0.5,3.4-1.8,6.5-5.1,7.1c-3.4,0.5-6.5-1.8-7.1-5.1c-0.5-3.4,1.8-6.5,5.1-7.1
					C128.2,14.5,131.4,16.8,131.9,20.1z"/>
				<path id="Path_822-2" class="st5" d="M191.8,15.2c0.5,3.4-1.8,6.5-5.1,7.1s-6.5-1.8-7.1-5.1c-0.5-3.4,1.8-6.5,5.1-7.1
					C188.1,9.5,191.2,11.8,191.8,15.2C191.8,15.2,191.8,15.2,191.8,15.2z"/>
				<path id="Path_823-2" class="st5" d="M251.6,10.2c0.5,3.4-1.8,6.5-5.1,7.1c-3.4,0.5-6.5-1.8-7.1-5.1c-0.5-3.4,1.8-6.5,5.1-7.1
					C247.9,4.5,251,6.8,251.6,10.2C251.6,10.2,251.6,10.2,251.6,10.2z"/>
				<path id="Path_824-2" class="st5" d="M311.4,5.2c0.5,3.4-1.8,6.5-5.1,7.1c-3.4,0.5-6.5-1.8-7.1-5.1c-0.5-3.4,1.8-6.5,5.1-7.1
					c0,0,0,0,0,0C307.7-0.5,310.9,1.8,311.4,5.2z"/>
			</g>
		</g>
	</g>
	<g id="Group_542" transform="translate(328.227 -255.767)" class="st6">
		<g id="Group_540" transform="translate(893.85 1433.685)">
			<path id="Path_825" class="st5" d="M149.1,289.5L0,236.5L84,0l149.1,52.9L149.1,289.5z M16.4,228.7l124.9,44.4l75.4-212.4
				L91.8,16.4L16.4,228.7z"/>
		</g>
		<g id="Group_541" transform="translate(848.273 1388.107)">
			<path id="Path_826" class="st5" d="M216.3,380.6L0,303.8L107.9,0l216.3,76.8L216.3,380.6z M25.6,291.6L204.1,355l94.5-266
				L120.1,25.6L25.6,291.6z"/>
		</g>
	</g>
	<g id="Group_543" transform="translate(-1211.994 1138.07) rotate(-50)" class="st7">
		<g id="Group_540-2" transform="translate(893.85 1433.685)">
			<path id="Path_825-2" class="st5" d="M149.1,289.5L0,236.5L84,0l149.1,52.9L149.1,289.5z M16.4,228.7l124.9,44.4l75.4-212.4
				L91.8,16.4L16.4,228.7z"/>
		</g>
		<g id="Group_541-2" transform="translate(848.273 1388.107)">
			<path id="Path_826-2" class="st5" d="M216.3,380.6L0,303.8L107.9,0l216.3,76.8L216.3,380.6z M25.6,291.6L204.1,355l94.5-266
				L120.1,25.6L25.6,291.6z"/>
		</g>
	</g>
</g>
</svg>
