<?xml version="1.0" encoding="utf-8"?>
<!-- Generator: Adobe Illustrator 23.0.4, SVG Export Plug-In . SVG Version: 6.00 Build 0)  -->
<svg version="1.1" id="Layer_1" xmlns="http://www.w3.org/2000/svg" xmlns:xlink="http://www.w3.org/1999/xlink" x="0px" y="0px"
	 viewBox="0 0 484 203" style="enable-background:new 0 0 484 203;" xml:space="preserve">
<style type="text/css">
	.st0{opacity:7.000000e-02;}
	.st1{fill:#4976D1;}
	.st2{opacity:6.000000e-02;fill:#4775D0;enable-background:new    ;}
	.st3{opacity:0.19;}
	.st4{fill:#4472CD;}
</style>
<g id="Group_542" transform="rotate(-53.98 -679.042 1657.537)" class="st0">
	<g id="Group_540" transform="translate(893.85 1433.685)">
		<path id="Path_825" class="st1" d="M151.3-62.5l-39.2-13.9l22.1-62.1l39.2,13.9L151.3-62.5z M116.5-78.5l32.8,11.7l19.8-55.8
			l-32.8-11.7L116.5-78.5z"/>
	</g>
	<g id="Group_541" transform="translate(848.273 1388.107)">
		<path id="Path_826" class="st1" d="M202.6-4.9l-56.8-20.2l28.3-79.8l56.8,20.2L202.6-4.9z M152.5-28.3l46.9,16.7l24.8-69.9
			l-46.9-16.7L152.5-28.3z"/>
	</g>
</g>
<g id="Group_542_1_" transform="rotate(-53.98 -679.042 1657.537)" class="st0">
	<g id="Group_540_1_" transform="translate(893.85 1433.685)">
		<path id="Path_825_1_" class="st1" d="M320.7,198.6l4.7-33.5l53.2,7.5l-4.7,33.5L320.7,198.6z M327.8,168.2l-4,28.1l47.8,6.7
			l4-28.1L327.8,168.2z"/>
	</g>
	<g id="Group_541_1_" transform="translate(848.273 1388.107)">
		<path id="Path_826_1_" class="st1" d="M357.7,250.7l6.9-48.7l68.3,9.6l-6.9,48.7L357.7,250.7z M368.2,206.9l-5.7,40.2l59.8,8.4
			l5.7-40.2L368.2,206.9z"/>
	</g>
</g>
<g id="Group_614">
	<g transform="translate(-.005)">
		<circle id="Ellipse_19-2" class="st2" cx="442.4" cy="180.8" r="14.2"/>
	</g>
	<g transform="translate(-.005)">
		<circle id="Ellipse_18-2" class="st2" cx="442.4" cy="180.8" r="8.5"/>
	</g>
</g>
<g id="Group_536" transform="rotate(-40 204.823 92.408)" class="st3">
	<g id="Group_530">
		<path id="Path_789" class="st4" d="M40.3,8.7c0.1,0.5-0.3,1-0.8,1.1c-0.5,0.1-1-0.3-1.1-0.8c-0.1-0.5,0.3-1,0.8-1.1
			C39.7,7.8,40.2,8.2,40.3,8.7C40.3,8.7,40.3,8.7,40.3,8.7z"/>
		<path id="Path_790" class="st4" d="M49.7,7.9c0.1,0.5-0.3,1-0.8,1.1c-0.5,0.1-1-0.3-1.1-0.8c-0.1-0.5,0.3-1,0.8-1.1
			C49.1,7,49.6,7.4,49.7,7.9C49.7,7.9,49.7,7.9,49.7,7.9z"/>
		<path id="Path_791" class="st4" d="M59.1,7.1c0.1,0.5-0.3,1-0.8,1.1c-0.5,0.1-1-0.3-1.1-0.8c-0.1-0.5,0.3-1,0.8-1.1
			C58.5,6.2,59,6.6,59.1,7.1C59.1,7.1,59.1,7.1,59.1,7.1z"/>
		<path id="Path_792" class="st4" d="M68.5,6.3c0.1,0.5-0.3,1-0.8,1.1c-0.5,0.1-1-0.3-1.1-0.8c-0.1-0.5,0.3-1,0.8-1.1
			C67.9,5.5,68.4,5.8,68.5,6.3C68.5,6.3,68.5,6.3,68.5,6.3z"/>
		<path id="Path_793" class="st4" d="M77.9,5.6c0.1,0.5-0.3,1-0.8,1.1c-0.5,0.1-1-0.3-1.1-0.8c-0.1-0.5,0.3-1,0.8-1.1
			C77.3,4.7,77.8,5,77.9,5.6C77.9,5.6,77.9,5.6,77.9,5.6z"/>
		<path id="Path_794" class="st4" d="M87.3,4.8c0.1,0.5-0.3,1-0.8,1.1c-0.5,0.1-1-0.3-1.1-0.8c-0.1-0.5,0.3-1,0.8-1.1
			C86.7,3.9,87.2,4.3,87.3,4.8C87.3,4.8,87.3,4.8,87.3,4.8z"/>
	</g>
	<g id="Group_531" transform="translate(3.793 42.633)">
		<path id="Path_795" class="st4" d="M37.3-25.2c0.1,0.5-0.3,1-0.8,1.1c-0.5,0.1-1-0.3-1.1-0.8c-0.1-0.5,0.3-1,0.8-1.1
			C36.7-26,37.2-25.7,37.3-25.2C37.3-25.2,37.3-25.2,37.3-25.2z"/>
		<path id="Path_796" class="st4" d="M46.7-25.9c0.1,0.5-0.3,1-0.8,1.1c-0.5,0.1-1-0.3-1.1-0.8c-0.1-0.5,0.3-1,0.8-1.1
			C46.1-26.8,46.6-26.5,46.7-25.9C46.7-25.9,46.7-25.9,46.7-25.9z"/>
		<path id="Path_797" class="st4" d="M56.1-26.7c0.1,0.5-0.3,1-0.8,1.1c-0.5,0.1-1-0.3-1.1-0.8c-0.1-0.5,0.3-1,0.8-1.1
			C55.5-27.6,56-27.3,56.1-26.7C56.1-26.7,56.1-26.7,56.1-26.7z"/>
		<path id="Path_798" class="st4" d="M65.5-27.5c0.1,0.5-0.3,1-0.8,1.1c-0.5,0.1-1-0.3-1.1-0.8c-0.1-0.5,0.3-1,0.8-1.1
			C64.9-28.4,65.4-28,65.5-27.5C65.5-27.5,65.5-27.5,65.5-27.5z"/>
		<path id="Path_799" class="st4" d="M74.9-28.3c0.1,0.5-0.3,1-0.8,1.1c-0.5,0.1-1-0.3-1.1-0.8c-0.1-0.5,0.3-1,0.8-1.1
			C74.3-29.2,74.8-28.8,74.9-28.3C74.9-28.3,74.9-28.3,74.9-28.3z"/>
		<path id="Path_800" class="st4" d="M84.2-29.1c0.1,0.5-0.3,1-0.8,1.1c-0.5,0.1-1-0.3-1.1-0.8c-0.1-0.5,0.3-1,0.8-1.1
			C83.7-30,84.2-29.6,84.2-29.1C84.2-29.1,84.2-29.1,84.2-29.1z"/>
	</g>
	<g id="Group_532" transform="translate(7.587 85.266)">
		<path id="Path_801" class="st4" d="M34.3-59c0.1,0.5-0.3,1-0.8,1.1c-0.5,0.1-1-0.3-1.1-0.8c-0.1-0.5,0.3-1,0.8-1.1
			C33.7-59.9,34.2-59.5,34.3-59C34.3-59,34.3-59,34.3-59z"/>
		<path id="Path_802" class="st4" d="M43.7-59.8c0.1,0.5-0.3,1-0.8,1.1c-0.5,0.1-1-0.3-1.1-0.8c-0.1-0.5,0.3-1,0.8-1.1
			C43.1-60.7,43.6-60.3,43.7-59.8C43.7-59.8,43.7-59.8,43.7-59.8z"/>
		<path id="Path_803" class="st4" d="M53.1-60.6c0.1,0.5-0.3,1-0.8,1.1c-0.5,0.1-1-0.3-1.1-0.8c-0.1-0.5,0.3-1,0.8-1.1
			C52.5-61.5,53-61.1,53.1-60.6C53.1-60.6,53.1-60.6,53.1-60.6z"/>
		<path id="Path_804" class="st4" d="M62.5-61.4c0.1,0.5-0.3,1-0.8,1.1c-0.5,0.1-1-0.3-1.1-0.8c-0.1-0.5,0.3-1,0.8-1.1
			C61.9-62.2,62.4-61.9,62.5-61.4C62.5-61.4,62.5-61.4,62.5-61.4z"/>
		<path id="Path_805" class="st4" d="M71.8-62.1c0.1,0.5-0.3,1-0.8,1.1c-0.5,0.1-1-0.3-1.1-0.8c-0.1-0.5,0.3-1,0.8-1.1
			C71.3-63,71.8-62.7,71.8-62.1C71.8-62.1,71.8-62.1,71.8-62.1z"/>
		<path id="Path_806" class="st4" d="M81.2-62.9c0.1,0.5-0.3,1-0.8,1.1c-0.5,0.1-1-0.3-1.1-0.8c-0.1-0.5,0.3-1,0.8-1.1
			C80.7-63.8,81.2-63.4,81.2-62.9C81.2-62.9,81.2-62.9,81.2-62.9z"/>
	</g>
	<g id="Group_533" transform="translate(11.381 127.9)">
		<path id="Path_807" class="st4" d="M31.3-92.9c0.1,0.5-0.3,1-0.8,1.1c-0.5,0.1-1-0.3-1.1-0.8c-0.1-0.5,0.3-1,0.8-1.1
			C30.7-93.8,31.2-93.4,31.3-92.9C31.3-92.9,31.3-92.9,31.3-92.9z"/>
		<path id="Path_808" class="st4" d="M40.7-93.6c0.1,0.5-0.3,1-0.8,1.1c-0.5,0.1-1-0.3-1.1-0.8c-0.1-0.5,0.3-1,0.8-1.1
			C40.1-94.5,40.6-94.2,40.7-93.6C40.7-93.6,40.7-93.6,40.7-93.6z"/>
		<path id="Path_809" class="st4" d="M50.1-94.4c0.1,0.5-0.3,1-0.8,1.1c-0.5,0.1-1-0.3-1.1-0.8c-0.1-0.5,0.3-1,0.8-1.1
			C49.5-95.3,50-95,50.1-94.4C50.1-94.4,50.1-94.4,50.1-94.4z"/>
		<path id="Path_810" class="st4" d="M59.4-95.2c0.1,0.5-0.3,1-0.8,1.1c-0.5,0.1-1-0.3-1.1-0.8c-0.1-0.5,0.3-1,0.8-1.1
			C58.9-96.1,59.4-95.7,59.4-95.2C59.4-95.2,59.4-95.2,59.4-95.2z"/>
		<path id="Path_811" class="st4" d="M68.8-96c0.1,0.5-0.3,1-0.8,1.1c-0.5,0.1-1-0.3-1.1-0.8c-0.1-0.5,0.3-1,0.8-1.1
			C68.3-96.9,68.8-96.5,68.8-96C68.8-96,68.8-96,68.8-96z"/>
		<path id="Path_812" class="st4" d="M78.2-96.8c0.1,0.5-0.3,1-0.8,1.1c-0.5,0.1-1-0.3-1.1-0.8c-0.1-0.5,0.3-1,0.8-1.1
			C77.6-97.7,78.1-97.3,78.2-96.8C78.2-96.8,78.2-96.8,78.2-96.8z"/>
	</g>
	<g id="Group_534" transform="translate(15.174 170.533)">
		<path id="Path_813" class="st4" d="M28.3-126.7c0.1,0.5-0.3,1-0.8,1.1c-0.5,0.1-1-0.3-1.1-0.8c-0.1-0.5,0.3-1,0.8-1.1
			C27.7-127.6,28.2-127.2,28.3-126.7C28.3-126.7,28.3-126.7,28.3-126.7z"/>
		<path id="Path_814" class="st4" d="M37.7-127.5c0.1,0.5-0.3,1-0.8,1.1c-0.5,0.1-1-0.3-1.1-0.8c-0.1-0.5,0.3-1,0.8-1.1
			C37.1-128.4,37.6-128,37.7-127.5C37.7-127.5,37.7-127.5,37.7-127.5z"/>
		<path id="Path_815" class="st4" d="M47-128.3c0.1,0.5-0.3,1-0.8,1.1c-0.5,0.1-1-0.3-1.1-0.8c-0.1-0.5,0.3-1,0.8-1.1
			C46.5-129.2,47-128.8,47-128.3C47-128.3,47-128.3,47-128.3z"/>
		<path id="Path_816" class="st4" d="M56.4-129.1c0.1,0.5-0.3,1-0.8,1.1c-0.5,0.1-1-0.3-1.1-0.8c-0.1-0.5,0.3-1,0.8-1.1
			C55.9-129.9,56.3-129.6,56.4-129.1C56.4-129.1,56.4-129.1,56.4-129.1z"/>
		<path id="Path_817" class="st4" d="M65.8-129.8c0.1,0.5-0.3,1-0.8,1.1c-0.5,0.1-1-0.3-1.1-0.8c-0.1-0.5,0.3-1,0.8-1.1
			C65.2-130.7,65.7-130.4,65.8-129.8C65.8-129.8,65.8-129.8,65.8-129.8z"/>
		<path id="Path_818" class="st4" d="M75.2-130.6c0.1,0.5-0.3,1-0.8,1.1c-0.5,0.1-1-0.3-1.1-0.8c-0.1-0.5,0.3-1,0.8-1.1
			C74.6-131.5,75.1-131.2,75.2-130.6C75.2-130.6,75.2-130.6,75.2-130.6z"/>
	</g>
	<g id="Group_535" transform="translate(18.968 213.167)">
		<path id="Path_819" class="st4" d="M25.2-160.6c0.1,0.5-0.3,1-0.8,1.1c-0.5,0.1-1-0.3-1.1-0.8c-0.1-0.5,0.3-1,0.8-1.1
			C24.7-161.5,25.2-161.1,25.2-160.6C25.2-160.6,25.2-160.6,25.2-160.6z"/>
		<path id="Path_820" class="st4" d="M34.6-161.3c0.1,0.5-0.3,1-0.8,1.1c-0.5,0.1-1-0.3-1.1-0.8c-0.1-0.5,0.3-1,0.8-1.1
			C34.1-162.2,34.6-161.9,34.6-161.3C34.6-161.3,34.6-161.3,34.6-161.3z"/>
		<path id="Path_821" class="st4" d="M44-162.1c0.1,0.5-0.3,1-0.8,1.1c-0.5,0.1-1-0.3-1.1-0.8c-0.1-0.5,0.3-1,0.8-1.1
			C43.4-163,43.9-162.7,44-162.1C44-162.1,44-162.1,44-162.1z"/>
		<path id="Path_822" class="st4" d="M53.4-162.9c0.1,0.5-0.3,1-0.8,1.1c-0.5,0.1-1-0.3-1.1-0.8c-0.1-0.5,0.3-1,0.8-1.1
			C52.8-163.8,53.3-163.4,53.4-162.9C53.4-162.9,53.4-162.9,53.4-162.9z"/>
		<path id="Path_823" class="st4" d="M62.8-163.7c0.1,0.5-0.3,1-0.8,1.1c-0.5,0.1-1-0.3-1.1-0.8c-0.1-0.5,0.3-1,0.8-1.1
			C62.2-164.6,62.7-164.2,62.8-163.7C62.8-163.7,62.8-163.7,62.8-163.7z"/>
		<path id="Path_824" class="st4" d="M72.2-164.5c0.1,0.5-0.3,1-0.8,1.1c-0.5,0.1-1-0.3-1.1-0.8c-0.1-0.5,0.3-1,0.8-1.1
			C71.6-165.4,72.1-165,72.2-164.5C72.2-164.5,72.2-164.5,72.2-164.5z"/>
	</g>
</g>
</svg>
