<svg xmlns="http://www.w3.org/2000/svg" xmlns:xlink="http://www.w3.org/1999/xlink" viewBox="0 0 129.91 117.4"><defs><style>.cls-1{opacity:0.4;fill:url(#linear-gradient);}.cls-2{fill:url(#linear-gradient-2);}.cls-3{fill:url(#linear-gradient-3);}.cls-4{fill:url(#linear-gradient-4);}.cls-5{fill:url(#linear-gradient-5);}.cls-6{fill:url(#linear-gradient-6);}.cls-7{fill:url(#linear-gradient-7);}.cls-8{fill:#c4def1;}.cls-9{fill:#fff;}.cls-10{fill:url(#linear-gradient-8);}.cls-11{fill:url(#linear-gradient-9);}.cls-12{fill:url(#linear-gradient-10);}.cls-13{fill:url(#linear-gradient-11);}.cls-14{fill:url(#linear-gradient-12);}.cls-15{fill:url(#linear-gradient-13);}.cls-16{fill:url(#linear-gradient-14);}.cls-17{fill:url(#linear-gradient-15);}.cls-18{fill:url(#linear-gradient-16);}.cls-19{fill:url(#linear-gradient-17);}.cls-20{fill:url(#linear-gradient-18);}.cls-21{fill:url(#linear-gradient-19);}.cls-22{fill:url(#linear-gradient-20);}.cls-23{fill:url(#linear-gradient-21);}</style><linearGradient id="linear-gradient" x1="50.55" y1="63.27" x2="72.18" y2="109.55" gradientUnits="userSpaceOnUse"><stop offset="0.38" stop-color="#e46266"/><stop offset="0.44" stop-color="#e5686c" stop-opacity="0.96"/><stop offset="0.53" stop-color="#e7777b" stop-opacity="0.86"/><stop offset="0.64" stop-color="#ea9195" stop-opacity="0.69"/><stop offset="0.78" stop-color="#efb4b8" stop-opacity="0.46"/><stop offset="0.92" stop-color="#f5e0e4" stop-opacity="0.17"/><stop offset="1" stop-color="#f9fafe" stop-opacity="0"/></linearGradient><linearGradient id="linear-gradient-2" x1="28.56" y1="40.97" x2="-65.92" y2="-17.63" gradientUnits="userSpaceOnUse"><stop offset="0" stop-color="#de3f3e"/><stop offset="0.25" stop-color="#e16263"/><stop offset="0.58" stop-color="#e58b8e"/><stop offset="0.85" stop-color="#e7a4a8"/><stop offset="1" stop-color="#e8adb2"/></linearGradient><linearGradient id="linear-gradient-3" x1="68.28" y1="77.31" x2="-36.06" y2="-37.16" gradientTransform="translate(70.48 -10.17) rotate(65.45)" gradientUnits="userSpaceOnUse"><stop offset="0" stop-color="#f74746"/><stop offset="0.21" stop-color="#f36263"/><stop offset="0.56" stop-color="#ed8b8e"/><stop offset="0.84" stop-color="#e9a4a8"/><stop offset="1" stop-color="#e8adb2"/></linearGradient><linearGradient id="linear-gradient-4" x1="44.13" y1="48.35" x2="-26.62" y2="4.47" xlink:href="#linear-gradient-2"/><linearGradient id="linear-gradient-5" x1="73.86" y1="75.56" x2="-4.26" y2="-10.16" gradientTransform="translate(82.14 -17.97) rotate(65.45)" xlink:href="#linear-gradient-3"/><linearGradient id="linear-gradient-6" x1="54.77" y1="54.64" x2="0.09" y2="20.72" xlink:href="#linear-gradient-2"/><linearGradient id="linear-gradient-7" x1="77.75" y1="75.67" x2="17.37" y2="9.42" gradientTransform="translate(91.27 -22.59) rotate(65.45)" xlink:href="#linear-gradient-3"/><linearGradient id="linear-gradient-8" x1="111.85" y1="79.19" x2="9.84" y2="48.66" gradientUnits="userSpaceOnUse"><stop offset="0" stop-color="#cc3a39"/><stop offset="0.28" stop-color="#d66263"/><stop offset="0.6" stop-color="#e08a8e"/><stop offset="0.85" stop-color="#e6a4a8"/><stop offset="1" stop-color="#e8adb2"/></linearGradient><linearGradient id="linear-gradient-9" x1="101.65" y1="87.96" x2="80.28" y2="78.62" xlink:href="#linear-gradient-8"/><linearGradient id="linear-gradient-10" x1="90.42" y1="67.97" x2="139.3" y2="97" xlink:href="#linear-gradient-2"/><linearGradient id="linear-gradient-11" x1="84.86" y1="77.33" x2="133.74" y2="106.36" xlink:href="#linear-gradient-2"/><linearGradient id="linear-gradient-12" x1="111.07" y1="39.5" x2="78.92" y2="9.41" xlink:href="#linear-gradient-2"/><linearGradient id="linear-gradient-13" x1="125.37" y1="48.84" x2="52.83" y2="12.32" gradientTransform="matrix(1, 0, 0, 1, 0, 0)" xlink:href="#linear-gradient-3"/><linearGradient id="linear-gradient-14" x1="106.71" y1="37.53" x2="159.02" y2="58.33" gradientUnits="userSpaceOnUse"><stop offset="0" stop-color="#fff"/><stop offset="0.38" stop-color="#e5e5e5"/><stop offset="0.74" stop-color="#d2d2d2"/><stop offset="1" stop-color="#ccc"/></linearGradient><linearGradient id="linear-gradient-15" x1="60.34" y1="109.22" x2="35.09" y2="66.91" xlink:href="#linear-gradient-2"/><linearGradient id="linear-gradient-16" x1="74.63" y1="100.69" x2="49.38" y2="58.38" xlink:href="#linear-gradient-2"/><linearGradient id="linear-gradient-17" x1="65.53" y1="106.12" x2="40.28" y2="63.81" xlink:href="#linear-gradient-2"/><linearGradient id="linear-gradient-18" x1="56.7" y1="111.39" x2="31.46" y2="69.08" xlink:href="#linear-gradient-2"/><linearGradient id="linear-gradient-19" x1="65.26" y1="117.79" x2="34.9" y2="55.36" gradientTransform="matrix(1, 0, 0, 1, 0, 0)" xlink:href="#linear-gradient-3"/><linearGradient id="linear-gradient-20" x1="80.17" y1="110.54" x2="49.8" y2="48.11" gradientTransform="matrix(1, 0, 0, 1, 0, 0)" xlink:href="#linear-gradient-3"/><linearGradient id="linear-gradient-21" x1="63.46" y1="118.67" x2="33.09" y2="56.24" gradientUnits="userSpaceOnUse"><stop offset="0" stop-color="#f2f2f2"/><stop offset="1" stop-color="#ccc"/></linearGradient></defs><title>Asset 15</title><g id="Layer_2" data-name="Layer 2"><g id="Layer_1-2" data-name="Layer 1"><polygon class="cls-1" points="61.54 109.46 13.17 85.72 64.39 65.86 110.6 89.34 61.54 109.46"/><path class="cls-2" d="M61.79,12.73l2-4L54.5,3.42a18.46,18.46,0,0,0-3.26-1.85l0,0h0C45.89-.76,39.4-.57,32.39,2.68,14.5,11,0,36,0,58.54,0,70.47,4.06,79.31,10.52,83.77l.06.16L22.44,90.8l2.07-4a28.63,28.63,0,0,0,7.88-2.43C50.28,76,64.79,51,64.79,28.48A38.8,38.8,0,0,0,61.79,12.73Z"/><ellipse class="cls-3" cx="43.16" cy="49.76" rx="45.99" ry="28.76" transform="translate(-20.03 68.34) rotate(-65.45)"/><path class="cls-4" d="M69,27.2l1.49-3-7-4a13.4,13.4,0,0,0-2.44-1.38l0,0h0c-4-1.73-8.83-1.59-14.08.85C33.6,25.9,22.74,44.62,22.74,61.51c0,8.92,3,15.55,7.88,18.89l0,.12,8.88,5.14,1.56-3A21.34,21.34,0,0,0,47,80.82C60.39,74.6,71.25,55.88,71.25,39A29.2,29.2,0,0,0,69,27.2Z"/><ellipse class="cls-5" cx="55.06" cy="54.93" rx="34.44" ry="21.53" transform="translate(-17.78 82.18) rotate(-65.45)"/><path class="cls-6" d="M74,38.29,75.15,36l-5.38-3.05a10,10,0,0,0-1.88-1.07l0,0h0C64.79,30.49,61,30.6,57,32.48,46.63,37.28,38.24,51.76,38.24,64.8c0,6.9,2.35,12,6.09,14.61l0,.09,6.86,4,1.2-2.33A16.76,16.76,0,0,0,57,79.73c10.36-4.8,18.75-19.27,18.75-32.32A22.68,22.68,0,0,0,74,38.29Z"/><ellipse class="cls-7" cx="63.21" cy="59.72" rx="26.61" ry="16.64" transform="translate(-17.37 92.4) rotate(-65.45)"/><path class="cls-8" d="M69.93,60.33c0,1-.17,4.47-.48,9.07L60.9,73.67l-2.06-.91c-.12-4.88-.18-6.59-.18-7.2,0-3.92,2.53-8.27,5.63-9.71a4.59,4.59,0,0,1,1.94-.47,3.31,3.31,0,0,1,1.34.27h0a3.25,3.25,0,0,1,.57.33l1.46.83.16.08h0l-.35.69A6.83,6.83,0,0,1,69.93,60.33Z"/><path class="cls-9" d="M71.8,61.42c0,.85-.11,3.44-.33,7l-2,1L60.9,73.67c-.24-3.52-.36-6.14-.36-7,0-3.93,2.52-8.27,5.63-9.72a3.86,3.86,0,0,1,3.43-.12,1.29,1.29,0,0,1,.16.09C71,57.62,71.8,59.21,71.8,61.42Z"/><path class="cls-8" d="M68.37,45.41l.26-.53-1.22-.68A2.22,2.22,0,0,0,67,44h0a2.93,2.93,0,0,0-2.45.15c-2.34,1.08-4.23,4.35-4.23,7.29a3.83,3.83,0,0,0,1.38,3.29v0l1.55.9.27-.53a3.68,3.68,0,0,0,1-.32c2.33-1.08,4.23-4.34,4.23-7.28A5.08,5.08,0,0,0,68.37,45.41Z"/><ellipse class="cls-9" cx="65.93" cy="50.24" rx="6" ry="3.75" transform="translate(-7.16 89.34) rotate(-65.45)"/><polygon class="cls-10" points="108.62 82.42 116.36 78.55 107.46 73.69 100.88 75.13 103.82 79.47 108.62 82.42"/><path class="cls-11" d="M107.36,86.81c.21.26,0,9.31,0,9.31l-10-5.81a12.84,12.84,0,0,1-5.73-7.08l-2-6.21Z"/><path class="cls-8" d="M108.29,81.28l-38.52-22-.35-.15a1.61,1.61,0,0,0-1.43,0,4.79,4.79,0,0,0-2.37,4.09,2.08,2.08,0,0,0,.86,1.89h0l38.48,22a3.37,3.37,0,0,0,3.34-5.85Z"/><path class="cls-12" d="M107.36,82.12V73l-3.25-1.63a8.63,8.63,0,0,0-5.93-.64L90,72.77Z"/><path class="cls-13" d="M105.47,84.84,97.73,89.7,94.2,87.32a11.21,11.21,0,0,1-4.68-6.8l-1.23-5.39Z"/><path class="cls-14" d="M121.93,23.51l-19.55,9.88c-2.8,1.42-5.08,4.84-5.08,7.64V55.88a3.15,3.15,0,0,0,1.06,2.57,28,28,0,0,0,3.36,1.93l2-2.64L103,63l2.91,1.65,8.68-11.31,7.31-4.78c2.8-1.41,5.07-4.84,5.07-7.64l1.57-15.95a22.17,22.17,0,0,0-3.38-1.87A4.31,4.31,0,0,0,121.93,23.51Z"/><path class="cls-15" d="M105.29,35l19.54-9.88c2.81-1.42,5.08-.29,5.08,2.51V42.52c0,2.8-2.27,6.22-5.08,7.64l-10,5.07-8.86,9.37.65-5.21-1.3.65c-2.81,1.42-5.08.29-5.08-2.51V42.68C100.21,39.88,102.48,36.46,105.29,35Z"/><path class="cls-16" d="M109.52,44.18a6.11,6.11,0,0,1,3.1-4.94c1.56-.79,2.86-.17,3.06,1.36l.07-.07a6.16,6.16,0,0,1,3.06-4.41c1.7-.87,3.09-.06,3.09,1.8a5.47,5.47,0,0,1-.84,2.73h0c-.16.26-5.35,7.69-5.35,7.69s-3.76-1.61-5-2.12A2,2,0,0,1,109.52,44.18Z"/><polygon class="cls-17" points="55.05 115.84 57.43 117.4 62.62 112.01 65 101.53 62.62 99.97 55.05 103.8 55.05 115.84"/><path class="cls-18" d="M80.75,92.33l.06-.33c.76-.5,3.55-1.11,3.77-1.82a17.83,17.83,0,0,0-2.22-1.32,1.49,1.49,0,0,0-1.29-.19l-8.24,4.17c.31-1.43.9-5.75.9-5.75-.07-1,1.3-1.42.94-2.12s-2.38-1.56-2.38-1.56A3,3,0,0,0,70,84.79s.07,3.07.07,3.79S66.56,96.83,65.7,98c-.46.62-1.29,1.58-2,2.34v9.26l2.38,1.56c.62-.31-.46-1.57.38-2l11.9-6c2.39-1.2,2.77-4.09,1.19-3.55l.08-.33c1.51-.93,2.43-3.79.5-3.3l.07-.34C81.68,94.75,82.76,91.89,80.75,92.33Z"/><polygon class="cls-19" points="66.12 101.91 63.74 100.35 63.74 100.71 65 101.53 65 110.44 66.12 111.17 66.12 101.91"/><polygon class="cls-20" points="57.43 105.36 55.05 103.8 55.05 115.84 57.43 117.4 57.43 105.36"/><polygon class="cls-21" points="65 113.57 57.43 117.4 57.43 105.36 65 101.53 65 113.57"/><path class="cls-22" d="M83.19,93.56l-.07.33c2-.44.94,2.42-.5,3.3l-.07.34c1.93-.49,1,2.37-.5,3.3l-.08.33c1.58-.54,1.2,2.35-1.19,3.55l-11.9,6c-.84.42-1.6-.16-2.22.16l-.54.27v-9.26c.67-.76,1.49-1.72,1.95-2.34.87-1.18,4.42-8.71,4.42-9.43s-.07-3.79-.07-3.79A3,3,0,0,1,74.67,85a8.29,8.29,0,0,1,1.44,3.68s-.59,4.32-.9,5.75l8.24-4.17c2-1,1.64,2.07-.26,3.33Z"/><path class="cls-23" d="M62.24,113.53a1.94,1.94,0,0,1-1,1.55c-.56.29-1,.06-1-.51a2,2,0,0,1,1-1.55C61.78,112.74,62.24,113,62.24,113.53Z"/></g></g></svg>