<?xml version="1.0" encoding="utf-8"?>
<!-- Generator: Adobe Illustrator 23.0.4, SVG Export Plug-In . SVG Version: 6.00 Build 0)  -->
<svg version="1.1" id="Layer_1" xmlns="http://www.w3.org/2000/svg" xmlns:xlink="http://www.w3.org/1999/xlink" x="0px" y="0px"
	 viewBox="0 0 821 316.56" style="enable-background:new 0 0 821 316.56;" xml:space="preserve">
<style type="text/css">
	.st0{opacity:0.15;fill:url(#Path_1102_1_);enable-background:new    ;}
	.st1{opacity:0.08;fill:url(#Path_1103_1_);enable-background:new    ;}
	.st2{opacity:0.1;}
	.st3{fill:url(#Path_848_2_);}
	.st4{fill:url(#Path_849_2_);}
	.st5{fill:url(#Path_850_2_);}
	.st6{fill:url(#Path_851_2_);}
	.st7{fill:url(#Path_852_2_);}
	.st8{fill:url(#Path_848_3_);}
	.st9{fill:url(#Path_849_3_);}
	.st10{fill:url(#Path_850_3_);}
	.st11{fill:url(#Path_851_3_);}
	.st12{fill:url(#Path_852_3_);}
	.st13{opacity:0.15;fill:url(#Path_1104_1_);enable-background:new    ;}
	.st14{opacity:0.08;fill:url(#Path_1105_1_);enable-background:new    ;}
</style>
<g id="left_circles" transform="translate(-62 -898.015)">
	
		<linearGradient id="Path_1102_1_" gradientUnits="userSpaceOnUse" x1="167.9339" y1="1457.0405" x2="168.1305" y2="1456.3997" gradientTransform="matrix(-6.9011 407.591 359.4966 6.0868 -522248.1562 -76268.6484)">
		<stop  offset="0" style="stop-color:#5A94FF"/>
		<stop  offset="1" style="stop-color:#2C6DE5"/>
	</linearGradient>
	<path id="Path_1102" class="st0" d="M331.09,1055.94c5.5,23.78,9.39,47.12,1.9,68.23c-7.46,21.13-26.28,40.09-47.6,47.29
		c-21.32,7.2-45.19,2.66-63.85-8.73s-32.08-29.62-36.62-50.02c-4.52-20.44-0.17-43.01,10.54-60.48
		c10.66-17.44,27.62-29.76,47.98-40.34s46.05-15.05,61.51-7.34C320.37,1012.28,325.59,1032.16,331.09,1055.94L331.09,1055.94z"/>
	
		<linearGradient id="Path_1103_1_" gradientUnits="userSpaceOnUse" x1="168.4312" y1="1457.9268" x2="168.6279" y2="1457.2859" gradientTransform="matrix(-196.2853 196.2853 208.7464 208.7464 -271003.75 -336251.5)">
		<stop  offset="0" style="stop-color:#5A94FF"/>
		<stop  offset="1" style="stop-color:#2C6DE5"/>
	</linearGradient>
	<path id="Path_1103" class="st1" d="M232.05,1113.81c-7.98,14.83-16.69,28.52-31.06,34.61c-14.35,6.11-34.38,4.66-50.32-4.01
		s-27.85-24.56-33.47-40.83c-5.61-16.28-4.92-32.91,2.03-45.53c6.98-12.63,20.19-21.23,34.73-23.68c14.5-2.47,30.29,1.19,47.27,7.64
		s34.2,18.96,39.67,31.6C246.32,1086.22,240.03,1098.98,232.05,1113.81L232.05,1113.81z"/>
</g>
<g id="inclined_lines_left" transform="translate(-7054.664 -3170.017)" class="st2">
	
		<linearGradient id="Path_848_2_" gradientUnits="userSpaceOnUse" x1="7158" y1="3728.8333" x2="7161.1841" y2="3730.8538" gradientTransform="matrix(171.1904 0 0 -171.1902 -1218354.5 641678.75)">
		<stop  offset="0" style="stop-color:#1764B5"/>
		<stop  offset="1" style="stop-color:#AAD9FF"/>
	</linearGradient>
	<path id="Path_848" class="st3" d="M7099.04,3312.14c2.28,0,4.47-0.9,6.08-2.52l56.81-56.81c3.36-3.36,3.36-8.8,0-12.16
		c-3.36-3.36-8.8-3.36-12.16,0l-56.81,56.81c-3.36,3.36-3.36,8.8,0,12.16C7094.57,3311.24,7096.75,3312.14,7099.04,3312.14
		L7099.04,3312.14z"/>
	
		<linearGradient id="Path_849_2_" gradientUnits="userSpaceOnUse" x1="7158.9048" y1="3728.979" x2="7160.7686" y2="3730.1621" gradientTransform="matrix(292.3354 0 0 -292.3352 -2085807.375 1093439.875)">
		<stop  offset="0" style="stop-color:#1764B5"/>
		<stop  offset="1" style="stop-color:#AAD9FF"/>
	</linearGradient>
	<path id="Path_849" class="st4" d="M7057.52,3316.14c2.19,0,4.29-0.87,5.83-2.42l109.89-109.89c3.21-3.23,3.2-8.45-0.02-11.67
		c-3.22-3.2-8.42-3.2-11.64,0l-109.89,109.89c-3.22,3.22-3.22,8.44,0,11.67C7053.24,3315.27,7055.33,3316.14,7057.52,3316.14
		L7057.52,3316.14z"/>
	
		<linearGradient id="Path_850_2_" gradientUnits="userSpaceOnUse" x1="7158.0449" y1="3728.2485" x2="7160.437" y2="3729.7668" gradientTransform="matrix(227.8174 0 0 -227.8201 -1623824.125 852710.8125)">
		<stop  offset="0" style="stop-color:#1764B5"/>
		<stop  offset="1" style="stop-color:#AAD9FF"/>
	</linearGradient>
	<path id="Path_850" class="st5" d="M7076.73,3250.88c0.91,0,1.79-0.36,2.43-1.01l91.63-91.63c1.33-1.36,1.31-3.53-0.05-4.86
		c-1.34-1.31-3.48-1.31-4.82,0l-91.63,91.63c-1.34,1.34-1.34,3.52,0,4.86C7074.95,3250.52,7075.82,3250.88,7076.73,3250.88
		L7076.73,3250.88z"/>
	
		<linearGradient id="Path_851_2_" gradientUnits="userSpaceOnUse" x1="7157.5615" y1="3728.4209" x2="7160.0854" y2="3730.0227" gradientTransform="matrix(215.9458 0 0 -215.9441 -1538707 808527.125)">
		<stop  offset="0" style="stop-color:#1764B5"/>
		<stop  offset="1" style="stop-color:#AAD9FF"/>
	</linearGradient>
	<path id="Path_851" class="st6" d="M7126.25,3294.97c0.23,0,0.45-0.09,0.61-0.25l91.63-91.63c0.34-0.34,0.34-0.88,0-1.22
		c-0.34-0.34-0.88-0.34-1.22,0l-91.63,91.63c-0.34,0.33-0.34,0.88,0,1.22C7125.8,3294.88,7126.02,3294.97,7126.25,3294.97
		L7126.25,3294.97z"/>
	
		<linearGradient id="Path_852_2_" gradientUnits="userSpaceOnUse" x1="7158.5562" y1="3728.8118" x2="7161.0801" y2="3730.4133" gradientTransform="matrix(215.9092 0 0 -215.9102 -1538677.5 808456.75)">
		<stop  offset="0" style="stop-color:#1764B5"/>
		<stop  offset="1" style="stop-color:#AAD9FF"/>
	</linearGradient>
	<path id="Path_852" class="st7" d="M7025.66,3319.27c0.23,0,0.45-0.09,0.61-0.25l91.63-91.63c0.33-0.34,0.31-0.89-0.03-1.22
		c-0.33-0.32-0.85-0.32-1.19,0l-91.63,91.63c-0.34,0.33-0.34,0.88,0,1.22C7025.21,3319.18,7025.43,3319.27,7025.66,3319.27
		L7025.66,3319.27z"/>
</g>
<g id="inclined_lines_left_1_" transform="translate(-7054.664 -3170.017)" class="st2">
	
		<linearGradient id="Path_848_3_" gradientUnits="userSpaceOnUse" x1="7162.3594" y1="3727.9001" x2="7165.5435" y2="3729.9207" gradientTransform="matrix(171.1904 0 0 -171.1902 -1218354.5 641678.75)">
		<stop  offset="0" style="stop-color:#1764B5"/>
		<stop  offset="1" style="stop-color:#AAD9FF"/>
	</linearGradient>
	<path id="Path_848_1_" class="st8" d="M7845.28,3471.89c2.28,0,4.47-0.9,6.08-2.52l56.81-56.81c3.36-3.36,3.36-8.8,0-12.16
		s-8.8-3.36-12.16,0l-56.81,56.81c-3.36,3.36-3.36,8.8,0,12.16C7840.81,3470.99,7842.99,3471.89,7845.28,3471.89L7845.28,3471.89z"
		/>
	
		<linearGradient id="Path_849_3_" gradientUnits="userSpaceOnUse" x1="7161.4575" y1="3728.4326" x2="7163.3213" y2="3729.6157" gradientTransform="matrix(292.3354 0 0 -292.3352 -2085807.375 1093439.875)">
		<stop  offset="0" style="stop-color:#1764B5"/>
		<stop  offset="1" style="stop-color:#AAD9FF"/>
	</linearGradient>
	<path id="Path_849_1_" class="st9" d="M7803.76,3475.88c2.19,0,4.29-0.87,5.83-2.42l109.89-109.89c3.21-3.23,3.2-8.45-0.02-11.67
		c-3.22-3.2-8.42-3.2-11.64,0l-109.89,109.89c-3.22,3.22-3.22,8.44,0,11.67C7799.48,3475.01,7801.57,3475.88,7803.76,3475.88
		L7803.76,3475.88z"/>
	
		<linearGradient id="Path_850_3_" gradientUnits="userSpaceOnUse" x1="7161.3208" y1="3727.5474" x2="7163.7124" y2="3729.0654" gradientTransform="matrix(227.8174 0 0 -227.8201 -1623824.125 852710.8125)">
		<stop  offset="0" style="stop-color:#1764B5"/>
		<stop  offset="1" style="stop-color:#AAD9FF"/>
	</linearGradient>
	<path id="Path_850_1_" class="st10" d="M7822.97,3410.63c0.91,0,1.79-0.36,2.43-1.01l91.63-91.63c1.33-1.36,1.31-3.53-0.05-4.86
		c-1.34-1.31-3.48-1.31-4.82,0l-91.63,91.63c-1.34,1.34-1.34,3.52,0,4.86C7821.19,3410.26,7822.06,3410.63,7822.97,3410.63
		L7822.97,3410.63z"/>
	
		<linearGradient id="Path_851_3_" gradientUnits="userSpaceOnUse" x1="7161.0171" y1="3727.6812" x2="7163.541" y2="3729.283" gradientTransform="matrix(215.9458 0 0 -215.9441 -1538707 808527.125)">
		<stop  offset="0" style="stop-color:#1764B5"/>
		<stop  offset="1" style="stop-color:#AAD9FF"/>
	</linearGradient>
	<path id="Path_851_1_" class="st11" d="M7872.49,3454.72c0.23,0,0.45-0.09,0.61-0.25l91.63-91.63c0.34-0.34,0.34-0.88,0-1.22
		s-0.88-0.34-1.22,0l-91.63,91.63c-0.34,0.33-0.34,0.88,0,1.22C7872.04,3454.63,7872.26,3454.72,7872.49,3454.72L7872.49,3454.72z"
		/>
	
		<linearGradient id="Path_852_3_" gradientUnits="userSpaceOnUse" x1="7162.0122" y1="3728.0718" x2="7164.5366" y2="3729.6736" gradientTransform="matrix(215.9092 0 0 -215.9102 -1538677.5 808456.75)">
		<stop  offset="0" style="stop-color:#1764B5"/>
		<stop  offset="1" style="stop-color:#AAD9FF"/>
	</linearGradient>
	<path id="Path_852_1_" class="st12" d="M7771.9,3479.01c0.23,0,0.45-0.09,0.61-0.25l91.63-91.63c0.33-0.34,0.31-0.89-0.03-1.22
		c-0.33-0.32-0.85-0.32-1.19,0l-91.63,91.63c-0.34,0.33-0.34,0.88,0,1.22C7771.45,3478.93,7771.67,3479.02,7771.9,3479.01
		L7771.9,3479.01z"/>
</g>
<g id="right_circles" transform="translate(-1351.285 -883.349)">
	
		<linearGradient id="Path_1104_1_" gradientUnits="userSpaceOnUse" x1="1456.4414" y1="1444.5088" x2="1456.6351" y2="1443.8772" gradientTransform="matrix(-242.6467 269.4865 213.8434 192.5455 46624.918 -669500.5625)">
		<stop  offset="0" style="stop-color:#5A94FF"/>
		<stop  offset="1" style="stop-color:#2C6DE5"/>
	</linearGradient>
	<path id="Path_1104" class="st13" d="M2077.65,1097.39c-9.89,19.55-20.45,37.9-36.19,48.46c-15.74,10.59-36.69,13.45-52.63,6.76
		c-15.94-6.69-26.9-22.94-31.18-41.09c-4.29-18.15-1.89-38.18,6.7-54.85c8.62-16.68,23.4-29.98,38.97-36.24
		c15.53-6.28,31.81-5.53,49.05-1.72s34.15,14.8,38.65,28.64C2095.46,1061.17,2087.54,1077.85,2077.65,1097.39z"/>
	
		<linearGradient id="Path_1105_1_" gradientUnits="userSpaceOnUse" x1="1457.6501" y1="1442.5739" x2="1457.8439" y2="1441.9424" gradientTransform="matrix(320.499 50.7621 44.7724 -282.6819 -529718.0625 334735.9062)">
		<stop  offset="0" style="stop-color:#5A94FF"/>
		<stop  offset="1" style="stop-color:#2C6DE5"/>
	</linearGradient>
	<path id="Path_1105" class="st14" d="M2043.88,989.47c19.07-1.67,37.63-2.13,53.2,6c15.6,8.1,28.26,24.8,31.52,42.15
		s-2.89,35.39-13.78,48.63c-10.89,13.25-26.52,21.67-42.86,22.96c-16.37,1.27-33.43-4.58-45.82-14.81
		c-12.38-10.19-20.09-24.71-26.08-41.68c-5.99-16.97-6.64-37.42,1.04-48.58C2008.79,993.01,2024.8,991.13,2043.88,989.47z"/>
</g>
</svg>
