<svg xmlns="http://www.w3.org/2000/svg" width="330.213" height="332.802" viewBox="0 0 330.213 332.802">
    <defs>
        <style>
            .cls-1{opacity:.17}.cls-2{fill:#204ea7}
        </style>
    </defs>
    <g id="Group_660" class="cls-1" data-name="Group 660" transform="rotate(52 2424.86 -898.847)">
        <g id="Group_536" data-name="Group 536" transform="translate(1742.744 1414.906)">
            <g id="Group_530" data-name="Group 530">
                <path id="Path_789" d="M2026.606 815.919a4.781 4.781 0 1 1-5.474-3.972 4.781 4.781 0 0 1 5.474 3.972z" class="cls-2" data-name="Path 789" transform="translate(-2017.102 -792.603)"/>
                <path id="Path_790" d="M2057.943 810.94a4.781 4.781 0 1 1-5.473-3.972 4.781 4.781 0 0 1 5.473 3.972z" class="cls-2" data-name="Path 790" transform="translate(-2002.089 -791.481)"/>
                <path id="Path_791" d="M2089.281 805.962a4.78 4.78 0 1 1-5.471-3.973 4.782 4.782 0 0 1 5.471 3.973z" class="cls-2" data-name="Path 791" transform="translate(-1987.076 -790.359)"/>
                <path id="Path_792" d="M2120.618 800.984a4.78 4.78 0 1 1-5.473-3.972 4.782 4.782 0 0 1 5.473 3.972z" class="cls-2" data-name="Path 792" transform="translate(-1972.064 -789.238)"/>
                <path id="Path_793" d="M2151.955 796a4.781 4.781 0 1 1-5.473-3.972 4.78 4.78 0 0 1 5.473 3.972z" class="cls-2" data-name="Path 793" transform="translate(-1957.052 -788.116)"/>
                <path id="Path_794" d="M2183.293 791.026a4.782 4.782 0 1 1-5.473-3.971 4.782 4.782 0 0 1 5.473 3.971z" class="cls-2" data-name="Path 794" transform="translate(-1942.039 -786.995)"/>
            </g>
            <g id="Group_531" data-name="Group 531" transform="translate(3.857 43.346)">
                <path id="Path_795" d="M2031.584 847.257a4.782 4.782 0 1 1-5.474-3.971 4.781 4.781 0 0 1 5.474 3.971z" class="cls-2" data-name="Path 795" transform="translate(-2022.08 -823.94)"/>
                <path id="Path_796" d="M2062.922 842.278a4.782 4.782 0 1 1-5.473-3.971 4.782 4.782 0 0 1 5.473 3.971z" class="cls-2" data-name="Path 796" transform="translate(-2007.067 -822.818)"/>
                <path id="Path_797" d="M2094.259 837.3a4.78 4.78 0 1 1-5.47-3.972 4.78 4.78 0 0 1 5.47 3.972z" class="cls-2" data-name="Path 797" transform="translate(-1992.055 -821.697)"/>
                <path id="Path_798" d="M2125.6 832.321a4.78 4.78 0 1 1-5.473-3.971 4.782 4.782 0 0 1 5.473 3.971z" class="cls-2" data-name="Path 798" transform="translate(-1977.042 -820.575)"/>
                <path id="Path_799" d="M2156.934 827.342a4.781 4.781 0 1 1-5.473-3.971 4.781 4.781 0 0 1 5.473 3.971z" class="cls-2" data-name="Path 799" transform="translate(-1962.03 -819.453)"/>
                <path id="Path_800" d="M2188.271 822.364a4.781 4.781 0 1 1-5.472-3.972 4.78 4.78 0 0 1 5.472 3.972z" class="cls-2" data-name="Path 800" transform="translate(-1947.017 -818.332)"/>
            </g>
            <g id="Group_532" data-name="Group 532" transform="translate(7.714 86.691)">
                <path id="Path_801" d="M2036.563 878.594a4.781 4.781 0 1 1-5.474-3.973 4.781 4.781 0 0 1 5.474 3.973z" class="cls-2" data-name="Path 801" transform="translate(-2027.058 -855.276)"/>
                <path id="Path_802" d="M2067.9 873.615a4.782 4.782 0 1 1-5.474-3.973 4.782 4.782 0 0 1 5.474 3.973z" class="cls-2" data-name="Path 802" transform="translate(-2012.046 -854.154)"/>
                <path id="Path_803" d="M2099.238 868.636a4.78 4.78 0 1 1-5.471-3.973 4.781 4.781 0 0 1 5.471 3.973z" class="cls-2" data-name="Path 803" transform="translate(-1997.033 -853.032)"/>
                <path id="Path_804" d="M2130.576 863.658a4.781 4.781 0 1 1-5.474-3.973 4.783 4.783 0 0 1 5.474 3.973z" class="cls-2" data-name="Path 804" transform="translate(-1982.021 -851.911)"/>
                <path id="Path_805" d="M2161.912 858.679a4.781 4.781 0 1 1-5.473-3.973 4.78 4.78 0 0 1 5.473 3.973z" class="cls-2" data-name="Path 805" transform="translate(-1967.009 -850.789)"/>
                <path id="Path_806" d="M2193.25 853.7a4.781 4.781 0 1 1-5.474-3.973 4.781 4.781 0 0 1 5.474 3.973z" class="cls-2" data-name="Path 806" transform="translate(-1951.996 -849.668)"/>
            </g>
            <g id="Group_533" data-name="Group 533" transform="translate(11.571 130.038)">
                <path id="Path_807" d="M2041.542 909.93a4.781 4.781 0 1 1-5.474-3.97 4.783 4.783 0 0 1 5.474 3.97z" class="cls-2" data-name="Path 807" transform="translate(-2032.038 -886.614)"/>
                <path id="Path_808" d="M2072.879 904.952a4.782 4.782 0 1 1-5.473-3.972 4.783 4.783 0 0 1 5.473 3.972z" class="cls-2" data-name="Path 808" transform="translate(-2017.025 -885.492)"/>
                <path id="Path_809" d="M2104.216 899.973a4.78 4.78 0 1 1-5.47-3.971 4.782 4.782 0 0 1 5.47 3.971z" class="cls-2" data-name="Path 809" transform="translate(-2002.013 -884.371)"/>
                <path id="Path_810" d="M2135.554 894.994a4.78 4.78 0 1 1-5.472-3.971 4.783 4.783 0 0 1 5.472 3.971z" class="cls-2" data-name="Path 810" transform="translate(-1987 -883.249)"/>
                <path id="Path_811" d="M2166.892 890.016a4.782 4.782 0 1 1-5.473-3.971 4.782 4.782 0 0 1 5.473 3.971z" class="cls-2" data-name="Path 811" transform="translate(-1971.987 -882.127)"/>
                <path id="Path_812" d="M2198.228 885.037a4.781 4.781 0 1 1-5.473-3.971 4.782 4.782 0 0 1 5.473 3.971z" class="cls-2" data-name="Path 812" transform="translate(-1956.975 -881.006)"/>
            </g>
            <g id="Group_534" data-name="Group 534" transform="translate(15.428 173.383)">
                <path id="Path_813" d="M2046.52 941.268a4.781 4.781 0 1 1-5.474-3.972 4.78 4.78 0 0 1 5.474 3.972z" class="cls-2" data-name="Path 813" transform="translate(-2037.016 -917.951)"/>
                <path id="Path_814" d="M2077.858 936.289a4.782 4.782 0 1 1-5.474-3.971 4.783 4.783 0 0 1 5.474 3.971z" class="cls-2" data-name="Path 814" transform="translate(-2022.003 -916.829)"/>
                <path id="Path_815" d="M2109.195 931.311a4.78 4.78 0 1 1-5.471-3.972 4.78 4.78 0 0 1 5.471 3.972z" class="cls-2" data-name="Path 815" transform="translate(-2006.99 -915.707)"/>
                <path id="Path_816" d="M2140.533 926.332a4.781 4.781 0 1 1-5.474-3.972 4.781 4.781 0 0 1 5.474 3.972z" class="cls-2" data-name="Path 816" transform="translate(-1991.977 -914.586)"/>
                <path id="Path_817" d="M2171.87 921.354a4.781 4.781 0 1 1-5.473-3.972 4.779 4.779 0 0 1 5.473 3.972z" class="cls-2" data-name="Path 817" transform="translate(-1976.966 -913.464)"/>
                <path id="Path_818" d="M2203.207 916.375a4.781 4.781 0 1 1-5.472-3.972 4.781 4.781 0 0 1 5.472 3.972z" class="cls-2" data-name="Path 818" transform="translate(-1961.953 -912.343)"/>
            </g>
            <g id="Group_535" data-name="Group 535" transform="translate(19.285 216.73)">
                <path id="Path_819" d="M2051.5 972.6a4.782 4.782 0 1 1-5.474-3.971 4.781 4.781 0 0 1 5.474 3.971z" class="cls-2" data-name="Path 819" transform="translate(-2041.994 -949.289)"/>
                <path id="Path_820" d="M2082.836 967.626a4.781 4.781 0 1 1-5.473-3.971 4.781 4.781 0 0 1 5.473 3.971z" class="cls-2" data-name="Path 820" transform="translate(-2026.982 -948.167)"/>
                <path id="Path_821" d="M2114.174 962.647a4.78 4.78 0 1 1-5.471-3.972 4.78 4.78 0 0 1 5.471 3.972z" class="cls-2" data-name="Path 821" transform="translate(-2011.969 -947.045)"/>
                <path id="Path_822" d="M2145.511 957.669a4.78 4.78 0 1 1-5.473-3.971 4.781 4.781 0 0 1 5.473 3.971z" class="cls-2" data-name="Path 822" transform="translate(-1996.958 -945.924)"/>
                <path id="Path_823" d="M2176.848 952.69a4.781 4.781 0 1 1-5.472-3.971 4.78 4.78 0 0 1 5.472 3.971z" class="cls-2" data-name="Path 823" transform="translate(-1981.945 -944.802)"/>
                <path id="Path_824" d="M2208.186 947.712a4.782 4.782 0 1 1-5.473-3.971 4.783 4.783 0 0 1 5.473 3.971z" class="cls-2" data-name="Path 824" transform="translate(-1966.932 -943.68)"/>
            </g>
        </g>
    </g>
</svg>
