<svg xmlns="http://www.w3.org/2000/svg" xmlns:xlink="http://www.w3.org/1999/xlink" width="845.879" height="681.921" viewBox="0 0 845.879 681.921">
  <defs>
    <style>
      .cls-1 {
        opacity: 0.09;
      }

      .cls-10, .cls-12, .cls-2, .cls-9 {
        opacity: 0.5;
      }

      .cls-2, .cls-4 {
        fill: url(#linear-gradient);
      }

      .cls-11, .cls-3 {
        opacity: 0.2;
      }

      .cls-3 {
        fill: url(#linear-gradient-3);
      }

      .cls-5 {
        fill: url(#linear-gradient-14);
      }

      .cls-6 {
        fill: url(#linear-gradient-15);
      }

      .cls-7 {
        fill: url(#linear-gradient-16);
      }

      .cls-8 {
        fill: url(#linear-gradient-17);
      }

      .cls-9 {
        fill: url(#linear-gradient-19);
      }

      .cls-10 {
        fill: url(#linear-gradient-20);
      }

      .cls-11 {
        fill: url(#linear-gradient-21);
      }

      .cls-12 {
        fill: url(#linear-gradient-24);
      }
    </style>
    <linearGradient id="linear-gradient" y1="0.5" x2="1" y2="0.5" gradientUnits="objectBoundingBox">
      <stop offset="0" stop-color="#fff"/>
      <stop offset="1" stop-color="#fffcfb"/>
    </linearGradient>
    <linearGradient id="linear-gradient-3" x1="-1.024" y1="2.648" x2="-0.024" y2="2.648" gradientUnits="objectBoundingBox">
      <stop offset="0" stop-color="#fff"/>
      <stop offset="1" stop-color="#f6e7e4"/>
    </linearGradient>
    <linearGradient id="linear-gradient-14" x1="-31.897" y1="-27.208" x2="-30.897" y2="-27.208" xlink:href="#linear-gradient"/>
    <linearGradient id="linear-gradient-15" x1="-57.784" y1="-48.78" x2="-56.784" y2="-48.78" xlink:href="#linear-gradient"/>
    <linearGradient id="linear-gradient-16" x1="-46.946" y1="-27.994" x2="-45.946" y2="-27.994" xlink:href="#linear-gradient"/>
    <linearGradient id="linear-gradient-17" x1="-125.113" y1="-117.502" x2="-124.113" y2="-117.502" xlink:href="#linear-gradient"/>
    <linearGradient id="linear-gradient-19" x1="-31.953" y1="-25.291" x2="-30.953" y2="-25.291" xlink:href="#linear-gradient"/>
    <linearGradient id="linear-gradient-20" x1="-35.291" y1="-22.489" x2="-34.291" y2="-22.489" xlink:href="#linear-gradient"/>
    <linearGradient id="linear-gradient-21" x1="-1.024" y1="2.648" x2="-0.024" y2="2.648" xlink:href="#linear-gradient"/>
    <linearGradient id="linear-gradient-24" x1="-30.329" y1="-29.023" x2="-29.329" y2="-29.023" xlink:href="#linear-gradient"/>
  </defs>
  <g id="Group_920" data-name="Group 920" class="cls-1" transform="translate(-1996.423 -1366.612)">
    <path id="Path_1013" data-name="Path 1013" class="cls-2" d="M2279.341,1475.9l-23.9,23.853a12.677,12.677,0,0,0,0,17.956h0a12.739,12.739,0,0,0,17.992,0l23.9-23.853a12.678,12.678,0,0,0,0-17.956h0A12.739,12.739,0,0,0,2279.341,1475.9Z" transform="translate(98.518 40.74)"/>
    <path id="Path_1014" data-name="Path 1014" class="cls-2" d="M2277.687,1706.193l-23.51,23.464a12.679,12.679,0,0,0,0,17.956h0a12.74,12.74,0,0,0,17.992,0l23.509-23.463a12.679,12.679,0,0,0,0-17.956h0A12.739,12.739,0,0,0,2277.687,1706.193Z" transform="translate(98.031 129.611)"/>
    <path id="Path_1015" data-name="Path 1015" class="cls-3" d="M2218.4,1648.591h0a11.781,11.781,0,0,0,16.636,0l136.594-136.323a11.724,11.724,0,0,0,0-16.6h0a11.781,11.781,0,0,0-16.636,0L2218.4,1631.986A11.725,11.725,0,0,0,2218.4,1648.591Z" transform="translate(84.332 48.475)"/>
    <path id="Path_1016" data-name="Path 1016" class="cls-3" d="M2225.505,1820.8h0a11.781,11.781,0,0,0,16.636,0l136.594-136.322a11.723,11.723,0,0,0,0-16.6h0a11.778,11.778,0,0,0-16.636,0L2225.505,1804.2A11.723,11.723,0,0,0,2225.505,1820.8Z" transform="translate(87.075 114.934)"/>
    <g id="Group_919" data-name="Group 919" transform="translate(1996.422 1366.612)">
      <path id="Path_1017" data-name="Path 1017" class="cls-4" d="M2283.586,1787.7l10.2,10.18a12.738,12.738,0,0,0,17.99,0l23.051-23a12.679,12.679,0,0,0,0-17.956l-10.2-10.18a12.743,12.743,0,0,0-17.992,0l-23.05,23A12.677,12.677,0,0,0,2283.586,1787.7Z" transform="translate(-1887.042 -1221.353)"/>
      <path id="Path_1018" data-name="Path 1018" class="cls-4" d="M2216.03,1747.066l-23.9,23.853a12.678,12.678,0,0,0,0,17.956h0a12.742,12.742,0,0,0,17.992,0l23.9-23.854a12.678,12.678,0,0,0,0-17.956h0A12.739,12.739,0,0,0,2216.03,1747.066Z" transform="translate(-1922.336 -1221.228)"/>
      <path id="Path_1019" data-name="Path 1019" class="cls-4" d="M2534.069,1669.666h0a12.677,12.677,0,0,1,0-17.956l65.226-65.1a12.679,12.679,0,0,0,0-17.956l-11.589-11.565a12.742,12.742,0,0,0-17.992,0l-83.048,82.884a12.679,12.679,0,0,0,0,17.956l11.589,11.565a12.679,12.679,0,0,1,0,17.956l-18.773,18.736a12.74,12.74,0,0,1-17.992,0l-11.589-11.565a12.678,12.678,0,0,1,0-17.956l18.773-18.736a12.678,12.678,0,0,0,0-17.956l-11.587-11.567a12.678,12.678,0,0,1,0-17.956l77.4-77.25a12.679,12.679,0,0,0,0-17.956l-11.589-11.565a12.739,12.739,0,0,0-17.992,0l-101.083,100.883a12.739,12.739,0,0,1-17.992,0h0a12.678,12.678,0,0,1,0-17.956l69.961-69.823a12.678,12.678,0,0,0,0-17.956l-17.992-17.956a12.739,12.739,0,0,0-17.992,0l-120.033,119.8a12.742,12.742,0,0,1-17.992,0l-6.591-6.579a12.739,12.739,0,0,0-17.992,0l-23.511,23.463a12.681,12.681,0,0,0,0,17.956l6.593,6.578a12.682,12.682,0,0,1,0,17.957l-4.561,4.55a12.681,12.681,0,0,0,0,17.957l17.992,17.956a12.679,12.679,0,0,1,0,17.956l-69.962,69.823a12.678,12.678,0,0,0,0,17.956h0a12.739,12.739,0,0,0,17.992,0l101.084-100.884a12.74,12.74,0,0,1,17.992,0l11.589,11.565a12.679,12.679,0,0,1,0,17.956l-56.9,56.786a12.681,12.681,0,0,0,0,17.956l11.589,11.565a12.739,12.739,0,0,0,17.992,0l25.776-25.725a12.74,12.74,0,0,1,17.992,0l11.588,11.565a12.74,12.74,0,0,0,17.992,0l54.631-54.523a12.739,12.739,0,0,1,17.992,0h0a12.739,12.739,0,0,0,17.992,0l65.012-64.882A12.679,12.679,0,0,0,2534.069,1669.666Z" transform="translate(-1925.567 -1323.953)"/>
      <path id="Path_1020" data-name="Path 1020" class="cls-2" d="M2682.709,1744.271h0a19.72,19.72,0,0,1,0-27.926l101.443-101.24a19.72,19.72,0,0,0,0-27.926l-18.022-17.988a19.814,19.814,0,0,0-27.981,0l-129.161,128.9a19.72,19.72,0,0,0,0,27.926l18.024,17.988a19.72,19.72,0,0,1,0,27.926l-29.2,29.139a19.815,19.815,0,0,1-27.982,0l-18.022-17.986a19.717,19.717,0,0,1,0-27.926l29.2-29.14a19.717,19.717,0,0,0,0-27.926l-18.022-17.986a19.72,19.72,0,0,1,0-27.926l120.384-120.144a19.72,19.72,0,0,0,0-27.926l-18.024-17.988a19.814,19.814,0,0,0-27.981,0l-157.212,156.9a19.814,19.814,0,0,1-27.981,0h0a19.72,19.72,0,0,1,0-27.926L2560.978,1506.5a19.72,19.72,0,0,0,0-27.926L2533,1450.653a19.814,19.814,0,0,0-27.981,0l-186.683,186.311a19.814,19.814,0,0,1-27.981,0l-10.251-10.231a19.811,19.811,0,0,0-27.981,0l-36.563,36.491a19.718,19.718,0,0,0,0,27.925l10.251,10.232a19.72,19.72,0,0,1,0,27.926l-7.092,7.078a19.718,19.718,0,0,0,0,27.926l27.981,27.926a19.72,19.72,0,0,1,0,27.926l-108.809,108.593a19.716,19.716,0,0,0,0,27.925h0a19.814,19.814,0,0,0,27.981,0l157.212-156.9a19.814,19.814,0,0,1,27.982,0l18.022,17.988a19.72,19.72,0,0,1,0,27.926l-88.492,88.315a19.72,19.72,0,0,0,0,27.926l18.023,17.986a19.816,19.816,0,0,0,27.983,0l40.089-40.008a19.812,19.812,0,0,1,27.981,0l18.022,17.986a19.815,19.815,0,0,0,27.982,0l84.966-84.8a19.814,19.814,0,0,1,27.981,0h0a19.815,19.815,0,0,0,27.982,0L2682.709,1772.2A19.719,19.719,0,0,0,2682.709,1744.271Z" transform="translate(-1944.067 -1336.413)"/>
      <path id="Path_1021" data-name="Path 1021" class="cls-4" d="M2332.868,1468.011h0a12.738,12.738,0,0,0-17.99,0l-23.51,23.464a12.678,12.678,0,0,0,0,17.956h0a12.739,12.739,0,0,0,17.992,0l23.509-23.463A12.677,12.677,0,0,0,2332.868,1468.011Z" transform="translate(-1884.039 -1328.917)"/>
      <g id="Group_917" data-name="Group 917" transform="translate(486.8 261.847)">
        <path id="Path_1022" data-name="Path 1022" class="cls-4" d="M2351.411,1780.442h0a12.781,12.781,0,0,0,18.047,0l69.917-69.778a12.718,12.718,0,0,0,0-18.011h0a12.779,12.779,0,0,0-18.047,0l-69.916,69.776A12.719,12.719,0,0,0,2351.411,1780.442Z" transform="translate(-2347.673 -1504.078)"/>
        <path id="Path_1023" data-name="Path 1023" class="cls-4" d="M2475.329,1730.49h0a17.051,17.051,0,0,0-24.082,0l-63.882,63.754a16.972,16.972,0,0,0,0,24.034h0a16.971,16.971,0,0,1,0,24.033L2370.643,1859a16.972,16.972,0,0,0,0,24.034h0a17.051,17.051,0,0,0,24.082,0l63.883-63.754a16.973,16.973,0,0,0,0-24.034h0a16.971,16.971,0,0,1,0-24.034l16.722-16.689A16.967,16.967,0,0,0,2475.329,1730.49Z" transform="translate(-2340.733 -1489.958)"/>
        <path id="Path_1024" data-name="Path 1024" class="cls-4" d="M2536.15,1596.624l-2.388-2.384a8.572,8.572,0,0,1,0-12.143h0a8.574,8.574,0,0,0,0-12.142l-11.915-11.891a8.616,8.616,0,0,0-12.168,0l-22.463,22.418a8.616,8.616,0,0,1-12.167,0l-11.915-11.891a8.614,8.614,0,0,0-12.167,0l-22.644,22.6a8.575,8.575,0,0,0,0,12.143l11.915,11.891a8.575,8.575,0,0,1,0,12.143l-6.356,6.342a8.575,8.575,0,0,0,0,12.143l11.916,11.891a8.616,8.616,0,0,0,12.167,0l28.817-28.762a8.618,8.618,0,0,1,12.168,0l2.388,2.384a8.614,8.614,0,0,0,12.167,0l22.644-22.6A8.576,8.576,0,0,0,2536.15,1596.624Z" transform="translate(-2317.522 -1555.548)"/>
        <path id="Path_1025" data-name="Path 1025" class="cls-4" d="M2400.865,1677.74h0a10.306,10.306,0,0,0,14.557,0l20.255-20.215a10.256,10.256,0,0,0,0-14.527h0a10.307,10.307,0,0,0-14.555,0l-20.257,20.216A10.257,10.257,0,0,0,2400.865,1677.74Z" transform="translate(-2328.309 -1522.961)"/>
      </g>
      <g id="Group_918" data-name="Group 918" transform="translate(0 302.351)">
        <path id="Path_1026" data-name="Path 1026" class="cls-5" d="M2252.146,1642.157h0a11.781,11.781,0,0,0-16.637,0l-136.593,136.322a11.724,11.724,0,0,0,0,16.6h0a11.78,11.78,0,0,0,16.636,0l136.594-136.323A11.726,11.726,0,0,0,2252.146,1642.157Z" transform="translate(-1958.2 -1563.956)"/>
        <path id="Path_1027" data-name="Path 1027" class="cls-6" d="M2197.518,1631.7h0a11.78,11.78,0,0,0-16.636,0l-64.451,64.323a11.724,11.724,0,0,0,0,16.6h0a11.779,11.779,0,0,0,16.637,0l64.45-64.321A11.725,11.725,0,0,0,2197.518,1631.7Z" transform="translate(-1951.44 -1567.99)"/>
        <path id="Path_1028" data-name="Path 1028" class="cls-7" d="M2067.312,1729.983h0a15.717,15.717,0,0,0,22.2,0l58.888-58.771a15.645,15.645,0,0,0,0-22.155h0a15.644,15.644,0,0,1,0-22.155l15.416-15.384a15.645,15.645,0,0,0,0-22.155h0a15.719,15.719,0,0,0-22.2,0l-58.888,58.771a15.644,15.644,0,0,0,0,22.155h0a15.641,15.641,0,0,1,0,22.154l-15.414,15.385A15.642,15.642,0,0,0,2067.312,1729.983Z" transform="translate(-1970.841 -1584.774)"/>
        <path id="Path_1029" data-name="Path 1029" class="cls-8" d="M2031.291,1687.623h0a9.5,9.5,0,0,0-13.417,0l-18.672,18.635a9.454,9.454,0,0,0,0,13.391h0a9.5,9.5,0,0,0,13.417,0l18.672-18.635A9.454,9.454,0,0,0,2031.291,1687.623Z" transform="translate(-1996.423 -1546.154)"/>
      </g>
      <path id="Path_1030" data-name="Path 1030" class="cls-4" d="M2263.583,1551.21l-2.388-2.384a8.576,8.576,0,0,1,0-12.143h0a8.574,8.574,0,0,0,0-12.142l-11.915-11.891a8.614,8.614,0,0,0-12.167,0l-22.463,22.418a8.618,8.618,0,0,1-12.168,0l-11.915-11.891a8.614,8.614,0,0,0-12.167,0l-22.645,22.6a8.576,8.576,0,0,0,0,12.143l11.915,11.891a8.573,8.573,0,0,1,0,12.143l-6.355,6.342a8.576,8.576,0,0,0,0,12.143l11.915,11.891a8.617,8.617,0,0,0,12.167,0l28.818-28.762a8.617,8.617,0,0,1,12.167,0l2.387,2.384a8.615,8.615,0,0,0,12.168,0l22.643-22.6A8.573,8.573,0,0,0,2263.583,1551.21Z" transform="translate(-1935.907 -1311.227)"/>
      <path id="Path_1031" data-name="Path 1031" class="cls-9" d="M2255.375,1531.622h0a11.779,11.779,0,0,0-16.635,0l-136.595,136.322a11.726,11.726,0,0,0,0,16.6h0a11.781,11.781,0,0,0,16.636,0l136.594-136.323A11.723,11.723,0,0,0,2255.375,1531.622Z" transform="translate(-1956.953 -1304.261)"/>
      <path id="Path_1032" data-name="Path 1032" class="cls-10" d="M2448.25,1370.052h0a11.779,11.779,0,0,0-16.637,0L2295.02,1506.374a11.723,11.723,0,0,0,0,16.6h0a11.781,11.781,0,0,0,16.636,0l136.594-136.322A11.723,11.723,0,0,0,2448.25,1370.052Z" transform="translate(-1882.522 -1366.612)"/>
      <path id="Path_1033" data-name="Path 1033" class="cls-11" d="M2264.922,1634.384h0a11.781,11.781,0,0,0,16.636,0l136.593-136.323a11.723,11.723,0,0,0,0-16.6h0a11.78,11.78,0,0,0-16.636,0l-136.594,136.323A11.723,11.723,0,0,0,2264.922,1634.384Z" transform="translate(-1894.137 -1323.62)"/>
      <path id="Path_1034" data-name="Path 1034" class="cls-11" d="M2134.081,1770.749h0a11.78,11.78,0,0,0,16.636,0l136.594-136.322a11.723,11.723,0,0,0,0-16.6h0a11.779,11.779,0,0,0-16.637,0l-136.593,136.322A11.723,11.723,0,0,0,2134.081,1770.749Z" transform="translate(-1944.629 -1270.995)"/>
      <path id="Path_1035" data-name="Path 1035" class="cls-11" d="M2247.9,1831.21h0a11.778,11.778,0,0,0,16.636,0l136.594-136.322a11.725,11.725,0,0,0,0-16.6h0a11.78,11.78,0,0,0-16.636,0L2247.9,1814.606A11.723,11.723,0,0,0,2247.9,1831.21Z" transform="translate(-1900.706 -1247.663)"/>
      <path id="Path_1036" data-name="Path 1036" class="cls-12" d="M2161.622,1746.786h0a11.779,11.779,0,0,0-16.636,0l-136.594,136.322a11.723,11.723,0,0,0,0,16.6h0a11.781,11.781,0,0,0,16.636,0l136.594-136.322A11.723,11.723,0,0,0,2161.622,1746.786Z" transform="translate(-1993.133 -1221.228)"/>
    </g>
  </g>
</svg>
