<svg xmlns="http://www.w3.org/2000/svg" width="73.04" height="89.886" viewBox="0 0 73.04 89.886">
    <defs>
        <style>
            .cls-1{fill:#407eeb}
        </style>
    </defs>
    <g id="boy" transform="translate(.001 .001)">
        <path id="Path_1047" d="M182.3 286.957a1.347 1.347 0 0 0-1.826.378 1.089 1.089 0 0 1-.9.486 1.068 1.068 0 0 1-.9-.486 1.318 1.318 0 0 0-2.2 1.448 3.715 3.715 0 0 0 6.21 0 1.319 1.319 0 0 0-.379-1.826zm0 0" class="cls-1" data-name="Path 1047" transform="translate(-145.309 -236.401)"/>
        <path id="Path_1048" d="M120.729 277.633a3.208 3.208 0 0 0-2.284.946 1.319 1.319 0 0 0 1.865 1.865.591.591 0 0 1 .42-.174.683.683 0 0 1 .42.174 1.346 1.346 0 0 0 1.865 0 1.319 1.319 0 0 0 0-1.865 3.211 3.211 0 0 0-2.285-.946zm0 0" class="cls-1" data-name="Path 1048" transform="translate(-97.333 -228.893)"/>
        <path id="Path_1049" d="M244.528 277.633a3.21 3.21 0 0 0-2.285.946 1.319 1.319 0 0 0 1.865 1.865.591.591 0 0 1 .42-.174.683.683 0 0 1 .42.174 1.346 1.346 0 0 0 1.865 0 1.32 1.32 0 0 0 0-1.865 3.211 3.211 0 0 0-2.285-.946zm0 0" class="cls-1" data-name="Path 1049" transform="translate(-199.399 -228.893)"/>
        <path id="Path_1050" d="M66.8 36.36a10.109 10.109 0 0 1-2.77-3.366 17.68 17.68 0 0 0 9.006-15.368 1.317 1.317 0 1 0-2.633 0 15.023 15.023 0 0 1-13.02 14.863A9.441 9.441 0 0 0 53.55 33.9a16.045 16.045 0 0 1-5.068 2.015 4.29 4.29 0 0 0 1.016-3.24 2.952 2.952 0 0 0-1.507-2.022 14.994 14.994 0 1 1 21.366-18.544 1.317 1.317 0 0 0 2.449-.97 17.594 17.594 0 0 0-30.015-4.651A33.182 33.182 0 0 0 29.4 6.245a14.357 14.357 0 0 0-6.6 3.069C14 11.962 7.64 19.509 5.619 29.612c-.654 3.27-1.99 5.7-3.971 7.214a4.2 4.2 0 0 0-1.616 3.893A3.8 3.8 0 0 0 3 44.211a8.407 8.407 0 0 0-1.032 5.935 8.211 8.211 0 0 0 8.542 6.775 19.851 19.851 0 0 0 3.151 5.955A14.342 14.342 0 0 0 5.543 75.8v4.632a9.461 9.461 0 0 0 9.45 9.451h38.539a9.461 9.461 0 0 0 9.45-9.451V75.8a14.311 14.311 0 0 0-8.117-12.926 19.833 19.833 0 0 0 3.152-5.954c4.661-.243 7.816-2.832 8.561-6.878a8.4 8.4 0 0 0-1.144-5.985 4.511 4.511 0 0 0 3.057-3.63A4.356 4.356 0 0 0 66.8 36.36zM3.25 38.916C5.752 37 7.418 34.042 8.2 30.128c1.392-6.959 6.483-13.144 10.9-16.215a14.311 14.311 0 0 0-1.582 6.113 23.268 23.268 0 0 0 3.162 13.023 22.555 22.555 0 0 0 9.25 8.309c-12.964 3.857-21.479 2.273-26.348.25a1.52 1.52 0 0 1-.938-1.229 1.567 1.567 0 0 1 .606-1.462zm1.3 10.72a5.778 5.778 0 0 1 1.027-4.554 31.624 31.624 0 0 0 3.953.854v4.826a19.9 19.9 0 0 0 .312 3.519 5.784 5.784 0 0 1-5.292-4.645zm55.8 30.8a6.825 6.825 0 0 1-6.817 6.817h-2.51V78.3c0-4.628 6.272-5.944 8.7-6.28a11.757 11.757 0 0 1 .625 3.783zm-1.809-10.9a20.982 20.982 0 0 0-3.9 1.057c-5.167 2-6.252 5.292-6.252 7.7v8.954h-33.4a6.825 6.825 0 0 1-6.817-6.817V75.8a11.7 11.7 0 0 1 .628-3.781c2.431.336 8.7 1.653 8.7 6.279v4.257a1.317 1.317 0 1 0 2.633 0V78.3c0-2.411-1.085-5.7-6.252-7.7a21.073 21.073 0 0 0-3.892-1.056 11.691 11.691 0 0 1 5.5-4.595 19.981 19.981 0 0 0 5.4 3.776C22.64 73.98 28.04 77.6 34.263 77.6c6.186 0 11.631-3.678 13.368-8.883a19.972 19.972 0 0 0 5.4-3.777 11.678 11.678 0 0 1 5.51 4.595zM24.412 70a19.828 19.828 0 0 0 4.99.635h9.721A19.834 19.834 0 0 0 44.1 70a11.75 11.75 0 0 1-9.838 4.965A11.658 11.658 0 0 1 24.412 70zm14.711-2H29.4a17.259 17.259 0 0 1-17.237-17.237v-4.529c6.265.695 13.618-.313 21.355-3.313 6.021 2.347 15.806 4.008 22.843 3.244v4.6A17.257 17.257 0 0 1 39.123 68zm24.865-18.434a5.784 5.784 0 0 1-5.305 4.716A19.962 19.962 0 0 0 59 50.763v-4.942a33.284 33.284 0 0 0 3.85-.876 5.769 5.769 0 0 1 1.143 4.62zm1.891-9.479a1.7 1.7 0 0 1-1.051 1.377c-5.238 2.176-14.428 3.881-28.435-.357-6.286-1.9-10.815-5.073-13.463-9.427a20.7 20.7 0 0 1-2.782-11.575 11.871 11.871 0 0 1 9.716-11.268 30.024 30.024 0 0 1 10.28.028 17.438 17.438 0 0 0-2.359 8.676 17.668 17.668 0 0 0 8.9 15.4.462.462 0 0 1 .174.739 12.054 12.054 0 0 1-.854 1.077 2.321 2.321 0 0 0-.335 2.736 2.142 2.142 0 0 0 2.491 1.177 17.962 17.962 0 0 0 6.8-2.543 6.824 6.824 0 0 1 2.768-1.027 17.444 17.444 0 0 0 3.919-.985 12.756 12.756 0 0 0 3.552 4.336 1.754 1.754 0 0 1 .678 1.636zm0 0" class="cls-1" data-name="Path 1050"/>
        <path id="Path_1051" d="M277.629 51.508a2.643 2.643 0 0 0-2.147-1.81l-2.036-.3-.911-1.845a2.66 2.66 0 0 0-4.77 0l-.91 1.846-2.036.3a2.66 2.66 0 0 0-1.474 4.537l1.474 1.436-.348 2.028a2.66 2.66 0 0 0 3.86 2.8l1.822-.957 1.821.957a2.66 2.66 0 0 0 3.859-2.8l-.348-2.028 1.474-1.436a2.644 2.644 0 0 0 .672-2.727zm-2.173 1.192l-1.878 1.83a1.077 1.077 0 0 0-.31.952l.443 2.585a.51.51 0 0 1-.74.537l-2.321-1.22a1.073 1.073 0 0 0-1 0l-2.322 1.22a.51.51 0 0 1-.74-.537l.443-2.585a1.077 1.077 0 0 0-.31-.952l-1.878-1.83a.51.51 0 0 1 .283-.87l2.6-.377a1.075 1.075 0 0 0 .81-.588l1.161-2.352a.51.51 0 0 1 .914 0l1.161 2.352a1.075 1.075 0 0 0 .809.588l2.6.377a.51.51 0 0 1 .283.87zm0 0" class="cls-1" data-name="Path 1051" transform="translate(-214.738 -36.33)"/>
    </g>
</svg>
