<svg xmlns="http://www.w3.org/2000/svg" width="328.65" height="326.829" viewBox="0 0 328.65 326.829">
    <defs>
        <style>
            .cls-1{opacity:.11}.cls-2{fill:#4472cd;stroke:rgba(0,0,0,0);stroke-miterlimit:10}
        </style>
    </defs>
    <g id="Group_537" class="cls-1" data-name="Group 537" transform="rotate(-40 132.249 3256.876)">
        <g id="Group_536" data-name="Group 536" transform="translate(2017.102 786.995)">
            <g id="Group_530" data-name="Group 530">
                <path id="Path_789" d="M2026.45 815.853a4.7 4.7 0 1 1-5.384-3.907 4.7 4.7 0 0 1 5.384 3.907z" class="cls-2" data-name="Path 789" transform="translate(-2017.101 -792.92)"/>
                <path id="Path_790" d="M2057.787 810.874a4.7 4.7 0 1 1-5.383-3.907 4.7 4.7 0 0 1 5.383 3.907z" class="cls-2" data-name="Path 790" transform="translate(-2002.85 -791.735)"/>
                <path id="Path_791" d="M2089.125 805.9a4.7 4.7 0 1 1-5.381-3.907 4.7 4.7 0 0 1 5.381 3.907z" class="cls-2" data-name="Path 791" transform="translate(-1988.6 -790.549)"/>
                <path id="Path_792" d="M2120.462 800.917a4.7 4.7 0 1 1-5.383-3.907 4.7 4.7 0 0 1 5.383 3.907z" class="cls-2" data-name="Path 792" transform="translate(-1974.35 -789.365)"/>
                <path id="Path_793" d="M2151.8 795.938a4.7 4.7 0 1 1-5.383-3.907 4.7 4.7 0 0 1 5.383 3.907z" class="cls-2" data-name="Path 793" transform="translate(-1960.099 -788.18)"/>
                <path id="Path_794" d="M2183.137 790.959a4.7 4.7 0 1 1-5.383-3.906 4.7 4.7 0 0 1 5.383 3.906z" class="cls-2" data-name="Path 794" transform="translate(-1945.849 -786.995)"/>
            </g>
            <g id="Group_531" data-name="Group 531" transform="translate(3.793 42.633)">
                <path id="Path_795" d="M2031.428 847.19a4.7 4.7 0 1 1-5.383-3.906 4.7 4.7 0 0 1 5.383 3.906z" class="cls-2" data-name="Path 795" transform="translate(-2022.08 -824.257)"/>
                <path id="Path_796" d="M2062.766 842.211a4.7 4.7 0 1 1-5.383-3.906 4.7 4.7 0 0 1 5.383 3.906z" class="cls-2" data-name="Path 796" transform="translate(-2007.829 -823.072)"/>
                <path id="Path_797" d="M2094.1 837.233a4.7 4.7 0 1 1-5.38-3.907 4.7 4.7 0 0 1 5.38 3.907z" class="cls-2" data-name="Path 797" transform="translate(-1993.578 -821.887)"/>
                <path id="Path_798" d="M2125.441 832.254a4.7 4.7 0 1 1-5.383-3.906 4.7 4.7 0 0 1 5.383 3.906z" class="cls-2" data-name="Path 798" transform="translate(-1979.328 -820.702)"/>
                <path id="Path_799" d="M2156.778 827.276a4.7 4.7 0 1 1-5.383-3.906 4.7 4.7 0 0 1 5.383 3.906z" class="cls-2" data-name="Path 799" transform="translate(-1965.077 -819.517)"/>
                <path id="Path_800" d="M2188.115 822.3a4.7 4.7 0 1 1-5.383-3.907 4.7 4.7 0 0 1 5.383 3.907z" class="cls-2" data-name="Path 800" transform="translate(-1950.827 -818.332)"/>
            </g>
            <g id="Group_532" data-name="Group 532" transform="translate(7.587 85.266)">
                <path id="Path_801" d="M2036.407 878.528a4.7 4.7 0 1 1-5.384-3.907 4.7 4.7 0 0 1 5.384 3.907z" class="cls-2" data-name="Path 801" transform="translate(-2027.059 -855.593)"/>
                <path id="Path_802" d="M2067.745 873.549a4.7 4.7 0 1 1-5.383-3.907 4.7 4.7 0 0 1 5.383 3.907z" class="cls-2" data-name="Path 802" transform="translate(-2012.807 -854.408)"/>
                <path id="Path_803" d="M2099.082 868.57a4.7 4.7 0 1 1-5.381-3.907 4.7 4.7 0 0 1 5.381 3.907z" class="cls-2" data-name="Path 803" transform="translate(-1998.557 -853.223)"/>
                <path id="Path_804" d="M2130.419 863.592a4.7 4.7 0 1 1-5.384-3.907 4.7 4.7 0 0 1 5.384 3.907z" class="cls-2" data-name="Path 804" transform="translate(-1984.307 -852.038)"/>
                <path id="Path_805" d="M2161.756 858.613a4.7 4.7 0 1 1-5.383-3.907 4.7 4.7 0 0 1 5.383 3.907z" class="cls-2" data-name="Path 805" transform="translate(-1970.056 -850.853)"/>
                <path id="Path_806" d="M2193.094 853.634a4.7 4.7 0 1 1-5.383-3.907 4.7 4.7 0 0 1 5.383 3.907z" class="cls-2" data-name="Path 806" transform="translate(-1955.806 -849.668)"/>
            </g>
            <g id="Group_533" data-name="Group 533" transform="translate(11.381 127.9)">
                <path id="Path_807" d="M2041.385 909.864a4.7 4.7 0 1 1-5.384-3.905 4.7 4.7 0 0 1 5.384 3.905z" class="cls-2" data-name="Path 807" transform="translate(-2032.037 -886.931)"/>
                <path id="Path_808" d="M2072.723 904.885a4.7 4.7 0 1 1-5.383-3.907 4.7 4.7 0 0 1 5.383 3.907z" class="cls-2" data-name="Path 808" transform="translate(-2017.787 -885.746)"/>
                <path id="Path_809" d="M2104.06 899.906a4.7 4.7 0 1 1-5.38-3.906 4.7 4.7 0 0 1 5.38 3.906z" class="cls-2" data-name="Path 809" transform="translate(-2003.536 -884.561)"/>
                <path id="Path_810" d="M2135.4 894.927a4.7 4.7 0 1 1-5.383-3.906 4.7 4.7 0 0 1 5.383 3.906z" class="cls-2" data-name="Path 810" transform="translate(-1989.286 -883.376)"/>
                <path id="Path_811" d="M2166.735 889.949a4.7 4.7 0 1 1-5.382-3.906 4.7 4.7 0 0 1 5.382 3.906z" class="cls-2" data-name="Path 811" transform="translate(-1975.035 -882.191)"/>
                <path id="Path_812" d="M2198.072 884.971a4.7 4.7 0 1 1-5.383-3.906 4.7 4.7 0 0 1 5.383 3.906z" class="cls-2" data-name="Path 812" transform="translate(-1960.785 -881.006)"/>
            </g>
            <g id="Group_534" data-name="Group 534" transform="translate(15.174 170.533)">
                <path id="Path_813" d="M2046.364 941.2a4.7 4.7 0 1 1-5.384-3.907 4.7 4.7 0 0 1 5.384 3.907z" class="cls-2" data-name="Path 813" transform="translate(-2037.016 -918.268)"/>
                <path id="Path_814" d="M2077.7 936.222a4.7 4.7 0 1 1-5.384-3.906 4.7 4.7 0 0 1 5.384 3.906z" class="cls-2" data-name="Path 814" transform="translate(-2022.765 -917.083)"/>
                <path id="Path_815" d="M2109.039 931.244a4.7 4.7 0 1 1-5.381-3.907 4.7 4.7 0 0 1 5.381 3.907z" class="cls-2" data-name="Path 815" transform="translate(-2008.514 -915.898)"/>
                <path id="Path_816" d="M2140.376 926.265a4.7 4.7 0 1 1-5.383-3.907 4.7 4.7 0 0 1 5.383 3.907z" class="cls-2" data-name="Path 816" transform="translate(-1994.263 -914.713)"/>
                <path id="Path_817" d="M2171.713 921.287a4.7 4.7 0 1 1-5.383-3.907 4.7 4.7 0 0 1 5.383 3.907z" class="cls-2" data-name="Path 817" transform="translate(-1980.013 -913.528)"/>
                <path id="Path_818" d="M2203.051 916.308a4.7 4.7 0 1 1-5.383-3.907 4.7 4.7 0 0 1 5.383 3.907z" class="cls-2" data-name="Path 818" transform="translate(-1965.763 -912.343)"/>
            </g>
            <g id="Group_535" data-name="Group 535" transform="translate(18.968 213.167)">
                <path id="Path_819" d="M2051.343 972.538a4.7 4.7 0 1 1-5.384-3.906 4.7 4.7 0 0 1 5.384 3.906z" class="cls-2" data-name="Path 819" transform="translate(-2041.995 -949.606)"/>
                <path id="Path_820" d="M2082.68 967.559a4.7 4.7 0 1 1-5.383-3.906 4.7 4.7 0 0 1 5.383 3.906z" class="cls-2" data-name="Path 820" transform="translate(-2027.744 -948.42)"/>
                <path id="Path_821" d="M2114.018 962.581a4.7 4.7 0 1 1-5.381-3.907 4.7 4.7 0 0 1 5.381 3.907z" class="cls-2" data-name="Path 821" transform="translate(-2013.493 -947.235)"/>
                <path id="Path_822" d="M2145.354 957.6a4.7 4.7 0 1 1-5.383-3.906 4.7 4.7 0 0 1 5.383 3.906z" class="cls-2" data-name="Path 822" transform="translate(-1999.243 -946.051)"/>
                <path id="Path_823" d="M2176.692 952.623a4.7 4.7 0 1 1-5.383-3.906 4.7 4.7 0 0 1 5.383 3.906z" class="cls-2" data-name="Path 823" transform="translate(-1984.992 -944.865)"/>
                <path id="Path_824" d="M2208.03 947.645a4.7 4.7 0 1 1-5.383-3.906 4.7 4.7 0 0 1 5.383 3.906z" class="cls-2" data-name="Path 824" transform="translate(-1970.742 -943.681)"/>
            </g>
        </g>
    </g>
</svg>
