<svg xmlns="http://www.w3.org/2000/svg" width="200" height="48" viewBox="0 0 200 48">
    <defs>
        <style>
            .cls-1{fill:none}.cls-2,.cls-6{fill:#fff}.cls-2{stroke:#dadce0;stroke-miterlimit:10}.cls-3{fill:#5f6368}.cls-4{clip-path:url(#clip-path)}.cls-5{fill:#eee}.cls-7{clip-path:url(#clip-path-4)}.cls-8{fill:#db4437}.cls-9{fill:#0f9d58}.cls-10{fill:#ffcd40}.cls-11{fill:#f1f1f1}.cls-12{fill:#4285f4}.cls-13{fill:rgba(33,33,33,.05)}.cls-14{fill:rgba(33,33,33,.02)}.cls-15{fill:rgba(255,255,255,.05)}.cls-16{fill:rgba(35,31,32,.1)}.cls-17{fill:url(#radial-gradient)}.cls-18{stroke:none}
        </style>
        <clipPath id="clip-path">
            <path id="Path_1821" d="M70.053 297.732v35.493a3.051 3.051 0 0 0 3.042 3.043h38.535a3.052 3.052 0 0 0 3.043-3.043v-35.493zm27.38 8.113H87.292a2.028 2.028 0 1 1 0-4.056h10.141a2.028 2.028 0 1 1 0 4.056z" class="cls-1" data-name="Path 1821"/>
        </clipPath>
        <clipPath id="clip-path-4">
            <path id="Intersection_3" d="M73.1 333.225a19.268 19.268 0 1 1 19.267 19.268A19.268 19.268 0 0 1 73.1 333.225z" class="cls-1" data-name="Intersection 3"/>
        </clipPath>
        <radialGradient id="radial-gradient" cx="13.513" cy="-2959.168" r="66.81" gradientTransform="matrix(.864 0 0 -.864 -7.676 -6042.341)" gradientUnits="userSpaceOnUse">
            <stop offset="0" stop-color="#fff" stop-opacity=".102"/>
            <stop offset="1" stop-color="#fff" stop-opacity="0"/>
        </radialGradient>
    </defs>
    <g id="chrome_btn" data-name="chrome btn" transform="translate(-60.784 -293)">
        <g id="Rectangle_350" class="cls-2" data-name="Rectangle 350">
            <path d="M0 0h200v48H0z" class="cls-18" transform="translate(60.784 293)"/>
            <path d="M.5.5h199v47H.5z" class="cls-1" transform="translate(60.784 293)"/>
        </g>
        <g id="Group_1139" data-name="Group 1139">
            <g id="Group_1137" data-name="Group 1137">
                <path id="Path_1792" d="M130.473 329.55a5.6 5.6 0 1 1 0-11.2 4.958 4.958 0 0 1 3.94 1.753l-.959.928a3.618 3.618 0 0 0-2.981-1.363 4.063 4.063 0 0 0-2.958 1.183 4.59 4.59 0 0 0 0 6.2 4.059 4.059 0 0 0 2.958 1.183 4.23 4.23 0 0 0 3.3-1.557l.959.958a5.219 5.219 0 0 1-1.843 1.4 5.645 5.645 0 0 1-2.416.515z" class="cls-3" data-name="Path 1792"/>
                <path id="Path_1793" d="M137.334 318.584v3.386l-.06 1.018h.06a2.442 2.442 0 0 1 .944-.891 2.743 2.743 0 0 1 1.378-.367 2.593 2.593 0 0 1 2.082.839 3.338 3.338 0 0 1 .719 2.247v4.494h-1.378v-4.284q0-2.037-1.813-2.038a1.7 1.7 0 0 0-1.393.682 2.477 2.477 0 0 0-.539 1.58v4.06h-1.378v-10.726z" class="cls-3" data-name="Path 1793"/>
                <path id="Path_1794" d="M145.453 329.31h-1.378v-7.34h1.318v1.2h.06a1.88 1.88 0 0 1 .861-.988 2.464 2.464 0 0 1 1.266-.39 2.628 2.628 0 0 1 1.034.18l-.525 1.288a2.1 2.1 0 0 0-.734-.1 1.8 1.8 0 0 0-1.325.592 2.127 2.127 0 0 0-.577 1.55z" class="cls-3" data-name="Path 1794"/>
                <path id="Path_1795" d="M149.707 322.846a3.852 3.852 0 0 1 5.423 0 4.2 4.2 0 0 1 0 5.588 3.852 3.852 0 0 1-5.423 0 4.2 4.2 0 0 1 0-5.588zm1.026 4.719a2.316 2.316 0 0 0 3.37 0 2.958 2.958 0 0 0 0-3.85 2.316 2.316 0 0 0-3.37 0 2.958 2.958 0 0 0 0 3.85z" class="cls-3" data-name="Path 1795"/>
                <path id="Path_1796" d="M157.3 329.31v-7.34h1.318v1.018h.06a2.558 2.558 0 0 1 .966-.891 2.628 2.628 0 0 1 1.3-.367 2.3 2.3 0 0 1 2.322 1.408 2.868 2.868 0 0 1 2.561-1.408 2.355 2.355 0 0 1 1.962.831 3.531 3.531 0 0 1 .659 2.255v4.494h-1.377v-4.284a2.4 2.4 0 0 0-.4-1.573 1.543 1.543 0 0 0-1.228-.465 1.629 1.629 0 0 0-1.341.69 2.5 2.5 0 0 0-.532 1.572v4.06h-1.378v-4.284a2.4 2.4 0 0 0-.4-1.573 1.544 1.544 0 0 0-1.229-.465 1.628 1.628 0 0 0-1.34.69 2.5 2.5 0 0 0-.532 1.572v4.06z" class="cls-3" data-name="Path 1796"/>
                <path id="Path_1797" d="M173.39 329.55a3.54 3.54 0 0 1-2.7-1.109 3.929 3.929 0 0 1-1.041-2.8 4.042 4.042 0 0 1 1.011-2.756 3.282 3.282 0 0 1 2.584-1.154 3.387 3.387 0 0 1 2.614 1.064 4.033 4.033 0 0 1 .981 2.846l-.015.255h-5.8a2.491 2.491 0 0 0 .741 1.752 2.248 2.248 0 0 0 1.6.645 1.977 1.977 0 0 0 2.007-1.259l1.228.509a3.286 3.286 0 0 1-1.183 1.431 3.445 3.445 0 0 1-2.027.576zm1.977-4.794a1.952 1.952 0 0 0-.577-1.2 2.057 2.057 0 0 0-1.58-.57 1.983 1.983 0 0 0-1.326.48 2.448 2.448 0 0 0-.771 1.288z" class="cls-3" data-name="Path 1797"/>
                <path id="Path_1798" d="M193.523 318.584l-2.862 10.726h-1.408l-2.306-7.07h-.061l-2.307 7.07h-1.407l-2.982-10.726h1.438l2.263 8.434h.059l2.322-7h1.289l2.322 7h.059l2.142-8.434z" class="cls-3" data-name="Path 1798"/>
                <path id="Path_1799" d="M197.1 329.55a3.54 3.54 0 0 1-2.7-1.109 3.929 3.929 0 0 1-1.041-2.8 4.042 4.042 0 0 1 1.011-2.756 3.282 3.282 0 0 1 2.584-1.154 3.387 3.387 0 0 1 2.614 1.064 4.033 4.033 0 0 1 .981 2.846l-.015.255h-5.8a2.491 2.491 0 0 0 .741 1.752 2.25 2.25 0 0 0 1.6.645 1.976 1.976 0 0 0 2.007-1.259l1.228.509a3.286 3.286 0 0 1-1.183 1.431 3.443 3.443 0 0 1-2.027.576zm1.977-4.794a1.952 1.952 0 0 0-.577-1.2 2.057 2.057 0 0 0-1.58-.57 1.983 1.983 0 0 0-1.326.48 2.448 2.448 0 0 0-.771 1.288z" class="cls-3" data-name="Path 1799"/>
                <path id="Path_1800" d="M205.686 329.55a3.115 3.115 0 0 1-1.505-.36 2.542 2.542 0 0 1-1-.9h-.059v1.018h-1.318v-10.724h1.377v3.386l-.059 1.018h.059a2.542 2.542 0 0 1 1-.9 3.115 3.115 0 0 1 1.505-.36 3.23 3.23 0 0 1 2.457 1.124 4.27 4.27 0 0 1 0 5.572 3.23 3.23 0 0 1-2.457 1.126zm-.225-1.258a2.193 2.193 0 0 0 1.648-.727 3.034 3.034 0 0 0 0-3.85 2.247 2.247 0 0 0-3.3-.007 3.081 3.081 0 0 0 0 3.864 2.195 2.195 0 0 0 1.652.72z" class="cls-3" data-name="Path 1800"/>
                <path id="Path_1801" d="M216.546 329.55a4 4 0 0 1-2.284-.764 3.543 3.543 0 0 1-1.461-2.142l1.259-.51a2.872 2.872 0 0 0 .921 1.491 2.324 2.324 0 0 0 1.565.606 2.511 2.511 0 0 0 1.536-.471 1.512 1.512 0 0 0 .636-1.281 1.643 1.643 0 0 0-.636-1.386 6.607 6.607 0 0 0-2.015-.906 5.394 5.394 0 0 1-2.157-1.161 2.425 2.425 0 0 1-.734-1.82 2.663 2.663 0 0 1 .914-2.007 3.349 3.349 0 0 1 2.382-.854 3.446 3.446 0 0 1 2.216.681 3.157 3.157 0 0 1 1.109 1.491l-1.258.524a1.85 1.85 0 0 0-.667-.943 2.092 2.092 0 0 0-1.37-.435 2.122 2.122 0 0 0-1.356.442 1.348 1.348 0 0 0-.562 1.1 1.248 1.248 0 0 0 .517 1.011 4.924 4.924 0 0 0 1.52.741 12.876 12.876 0 0 1 1.326.495 6.178 6.178 0 0 1 1.079.637 2.541 2.541 0 0 1 .824.988 3.214 3.214 0 0 1 .277 1.371 2.962 2.962 0 0 1-.322 1.393 2.631 2.631 0 0 1-.854.974 4.284 4.284 0 0 1-2.4.734z" class="cls-3" data-name="Path 1801"/>
                <path id="Path_1802" d="M224.366 329.43a2.131 2.131 0 0 1-2.366-2.352v-3.85h-1.288v-1.258H222v-2.247h1.378v2.247h1.8v1.258h-1.8v3.745q0 1.2.989 1.2a1.474 1.474 0 0 0 .629-.12l.48 1.183a2.791 2.791 0 0 1-1.11.194z" class="cls-3" data-name="Path 1802"/>
                <path id="Path_1803" d="M227.062 322.846a3.852 3.852 0 0 1 5.423 0 4.2 4.2 0 0 1 0 5.588 3.852 3.852 0 0 1-5.423 0 4.2 4.2 0 0 1 0-5.588zm1.026 4.719a2.317 2.317 0 0 0 3.371 0 2.958 2.958 0 0 0 0-3.85 2.317 2.317 0 0 0-3.371 0 2.961 2.961 0 0 0 0 3.85z" class="cls-3" data-name="Path 1803"/>
                <path id="Path_1804" d="M236.035 329.31h-1.378v-7.34h1.318v1.2h.06a1.88 1.88 0 0 1 .861-.988 2.467 2.467 0 0 1 1.266-.39 2.624 2.624 0 0 1 1.034.18l-.524 1.288a2.106 2.106 0 0 0-.735-.1 1.8 1.8 0 0 0-1.325.592 2.127 2.127 0 0 0-.577 1.55z" class="cls-3" data-name="Path 1804"/>
                <path id="Path_1805" d="M242.97 329.55a3.542 3.542 0 0 1-2.7-1.109 3.929 3.929 0 0 1-1.041-2.8 4.042 4.042 0 0 1 1.011-2.756 3.286 3.286 0 0 1 2.585-1.154 3.384 3.384 0 0 1 2.613 1.064 4.034 4.034 0 0 1 .982 2.846l-.015.255h-5.8a2.483 2.483 0 0 0 .741 1.752 2.246 2.246 0 0 0 1.6.645 1.978 1.978 0 0 0 2.008-1.259l1.228.509a3.292 3.292 0 0 1-1.183 1.431 3.446 3.446 0 0 1-2.029.576zm1.978-4.794a1.957 1.957 0 0 0-.577-1.2 2.057 2.057 0 0 0-1.58-.57 1.979 1.979 0 0 0-1.326.48 2.449 2.449 0 0 0-.772 1.288z" class="cls-3" data-name="Path 1805"/>
            </g>
            <g id="Group_1138" data-name="Group 1138">
                <path id="Path_1806" d="M125.7 312.658l3.061-8.117h1.179l3.06 8.117h-1.157l-.782-2.2h-3.412l-.794 2.2zm2.3-3.174h2.7l-1.326-3.662h-.045z" class="cls-3" data-name="Path 1806"/>
                <path id="Path_1807" d="M134.857 312.658l-2.245-5.555h1.134l1.632 4.308h.023l1.655-4.308h1.111l-2.267 5.555z" class="cls-3" data-name="Path 1807"/>
                <path id="Path_1808" d="M140.491 312.839a2.2 2.2 0 0 1-1.48-.51 1.689 1.689 0 0 1-.6-1.349 1.668 1.668 0 0 1 .7-1.423 2.854 2.854 0 0 1 1.734-.515 2.987 2.987 0 0 1 1.508.34v-.159a1.244 1.244 0 0 0-.419-.981 1.512 1.512 0 0 0-1.032-.368 1.606 1.606 0 0 0-.822.215 1.105 1.105 0 0 0-.5.59l-.953-.408a2.16 2.16 0 0 1 .76-.924 2.429 2.429 0 0 1 1.5-.425 2.57 2.57 0 0 1 1.769.623 2.229 2.229 0 0 1 .7 1.757v3.356h-1v-.771h-.045a2.045 2.045 0 0 1-1.82.952zm.17-.952a1.7 1.7 0 0 0 1.173-.482 1.5 1.5 0 0 0 .527-1.139 2.056 2.056 0 0 0-1.326-.363 1.725 1.725 0 0 0-1.145.329.987.987 0 0 0-.386.771.741.741 0 0 0 .352.646 1.4 1.4 0 0 0 .805.238z" class="cls-3" data-name="Path 1808"/>
                <path id="Path_1809" d="M145.671 305.709a.74.74 0 1 1 .215-.522.712.712 0 0 1-.215.522zm0 6.949h-1.043V307.1h1.043z" class="cls-3" data-name="Path 1809"/>
                <path id="Path_1810" d="M148.074 312.658h-1.043v-8.117h1.043z" class="cls-3" data-name="Path 1810"/>
                <path id="Path_1811" d="M151.044 312.839a2.194 2.194 0 0 1-1.479-.51 1.689 1.689 0 0 1-.6-1.349 1.668 1.668 0 0 1 .7-1.423 2.854 2.854 0 0 1 1.734-.515 2.987 2.987 0 0 1 1.508.34v-.159a1.241 1.241 0 0 0-.42-.981 1.508 1.508 0 0 0-1.031-.368 1.6 1.6 0 0 0-.822.215 1.112 1.112 0 0 0-.505.59l-.952-.408a2.16 2.16 0 0 1 .76-.924 2.427 2.427 0 0 1 1.5-.425 2.568 2.568 0 0 1 1.768.623 2.226 2.226 0 0 1 .7 1.757v3.356h-1v-.771h-.046a2.043 2.043 0 0 1-1.815.952zm.17-.952a1.7 1.7 0 0 0 1.174-.482 1.5 1.5 0 0 0 .527-1.139 2.058 2.058 0 0 0-1.327-.363 1.726 1.726 0 0 0-1.145.329.986.986 0 0 0-.385.771.743.743 0 0 0 .351.646 1.4 1.4 0 0 0 .805.238z" class="cls-3" data-name="Path 1811"/>
                <path id="Path_1812" d="M158.027 312.839a2.364 2.364 0 0 1-1.139-.272 1.924 1.924 0 0 1-.754-.68h-.045v.771h-1v-8.117h1.043v2.559l-.045.771h.045a1.924 1.924 0 0 1 .754-.68 2.353 2.353 0 0 1 1.139-.272 2.442 2.442 0 0 1 1.859.85 3.234 3.234 0 0 1 0 4.217 2.442 2.442 0 0 1-1.857.853zm-.17-.952a1.656 1.656 0 0 0 1.247-.55 2.293 2.293 0 0 0 0-2.913 1.7 1.7 0 0 0-2.5-.006 2.331 2.331 0 0 0 0 2.925 1.66 1.66 0 0 0 1.253.544z" class="cls-3" data-name="Path 1812"/>
                <path id="Path_1813" d="M162.607 312.658h-1.043v-8.117h1.043z" class="cls-3" data-name="Path 1813"/>
                <path id="Path_1814" d="M166.337 312.839a2.676 2.676 0 0 1-2.046-.839 2.969 2.969 0 0 1-.788-2.12 3.058 3.058 0 0 1 .765-2.085 2.484 2.484 0 0 1 1.955-.873 2.56 2.56 0 0 1 1.978.8 3.049 3.049 0 0 1 .743 2.153l-.011.193h-4.387a1.88 1.88 0 0 0 .561 1.326 1.7 1.7 0 0 0 1.207.488 1.5 1.5 0 0 0 1.519-.952l.93.385a2.493 2.493 0 0 1-.9 1.083 2.61 2.61 0 0 1-1.526.441zm1.5-3.627a1.481 1.481 0 0 0-.436-.907 1.562 1.562 0 0 0-1.2-.431 1.5 1.5 0 0 0-1 .363 1.85 1.85 0 0 0-.583.975z" class="cls-3" data-name="Path 1814"/>
                <path id="Path_1815" d="M173.523 305.709a.738.738 0 1 1 .216-.522.71.71 0 0 1-.216.522zm0 6.949h-1.043V307.1h1.043z" class="cls-3" data-name="Path 1815"/>
                <path id="Path_1816" d="M175.881 307.1v.771h.045a1.854 1.854 0 0 1 .714-.675 2.075 2.075 0 0 1 1.043-.277 1.959 1.959 0 0 1 1.576.635 2.522 2.522 0 0 1 .544 1.7v3.4h-1.043v-3.242q0-1.542-1.371-1.542a1.284 1.284 0 0 0-1.055.516 1.872 1.872 0 0 0-.408 1.2v3.072h-1.043V307.1z" class="cls-3" data-name="Path 1816"/>
                <path id="Path_1817" d="M185.924 312.748a1.612 1.612 0 0 1-1.791-1.779v-2.914h-.975v-.955h.975v-1.7h1.043v1.7h1.36v.952h-1.36v2.834q0 .907.748.907a1.12 1.12 0 0 0 .476-.09l.363.9a2.116 2.116 0 0 1-.839.145z" class="cls-3" data-name="Path 1817"/>
                <path id="Path_1818" d="M188.633 304.541v2.559l-.045.771h.045a1.864 1.864 0 0 1 .715-.675 2.07 2.07 0 0 1 1.043-.277 1.957 1.957 0 0 1 1.575.635 2.522 2.522 0 0 1 .544 1.7v3.4h-1.043v-3.242q0-1.542-1.371-1.542a1.283 1.283 0 0 0-1.054.516 1.873 1.873 0 0 0-.409 1.2v3.072h-1.042v-8.117z" class="cls-3" data-name="Path 1818"/>
                <path id="Path_1819" d="M196.251 312.839a2.676 2.676 0 0 1-2.046-.839 2.974 2.974 0 0 1-.788-2.12 3.058 3.058 0 0 1 .765-2.085 2.484 2.484 0 0 1 1.956-.873 2.561 2.561 0 0 1 1.978.8 3.049 3.049 0 0 1 .742 2.153l-.011.193h-4.387a1.88 1.88 0 0 0 .561 1.326 1.7 1.7 0 0 0 1.207.488 1.5 1.5 0 0 0 1.52-.952l.929.385a2.49 2.49 0 0 1-.9 1.083 2.611 2.611 0 0 1-1.526.441zm1.5-3.627a1.482 1.482 0 0 0-.437-.907 1.56 1.56 0 0 0-1.2-.431 1.5 1.5 0 0 0-1 .363 1.852 1.852 0 0 0-.584.975z" class="cls-3" data-name="Path 1819"/>
            </g>
        </g>
        <g id="Group_1152" data-name="Group 1152">
            <g id="Group_1141" data-name="Group 1141">
                <g id="Group_1140" class="cls-4" data-name="Group 1140">
                    <path id="Path_1820" d="M70.053 297.732h44.62v38.536h-44.62z" class="cls-5" data-name="Path 1820"/>
                </g>
            </g>
            <g id="Group_1143" data-name="Group 1143">
                <g id="Group_1142" class="cls-4" data-name="Group 1142">
                    <path id="Path_1822" d="M97.433 301.789H87.292a2.028 2.028 0 1 0 0 4.056h10.141a2.028 2.028 0 1 0 0-4.056z" class="cls-6" data-name="Path 1822"/>
                </g>
            </g>
            <g id="Group_1151" data-name="Group 1151">
                <g id="Group_1150" class="cls-4" data-name="Group 1150">
                    <g id="Group_1149" data-name="Group 1149">
                        <g id="Group_1146" data-name="Group 1146">
                            <g id="Group_1145" class="cls-7" data-name="Group 1145">
                                <path id="Path_1824" d="M76.155 313.958V337.6h8.622l7.586-13.138h19.267v-10.504zm0 0V337.6h8.622l7.586-13.138h19.267v-10.504z" class="cls-8" data-name="Path 1824"/>
                                <path id="Path_1825" d="M73.1 352.493h18.34l8.513-8.513v-6.374H84.782L73.1 317.568zm0 0h18.34l8.513-8.513v-6.374H84.782L73.1 317.568z" class="cls-9" data-name="Path 1825"/>
                                <path id="Path_1826" d="M92.363 324.466l7.585 13.134-8.511 14.889h20.193v-28.023zm0 0l7.585 13.134-8.511 14.889h20.193v-28.023z" class="cls-10" data-name="Path 1826"/>
                                <g id="Group_1144" data-name="Group 1144">
                                    <circle id="Ellipse_48" cx="8.759" cy="8.759" r="8.759" class="cls-11" data-name="Ellipse 48" transform="translate(83.604 324.466)"/>
                                    <circle id="Ellipse_49" cx="7.007" cy="7.007" r="7.007" class="cls-12" data-name="Ellipse 49" transform="translate(85.355 326.218)"/>
                                </g>
                            </g>
                        </g>
                        <g id="Group_1148" data-name="Group 1148">
                            <g id="Group_1147" class="cls-4" data-name="Group 1147">
                                <path id="Path_1827" d="M70.053 297.732h44.62V317h-44.62z" class="cls-13" data-name="Path 1827"/>
                            </g>
                        </g>
                        <path id="Path_1829" d="M70.053 316.746h44.62V317h-44.62z" class="cls-14" data-name="Path 1829"/>
                        <path id="Path_1830" d="M70.053 317h44.62v.254h-44.62z" class="cls-15" data-name="Path 1830"/>
                        <path id="Path_1831" d="M97.433 305.845H87.292a2.024 2.024 0 0 1-2.02-1.9 1.065 1.065 0 0 0-.008.126 2.028 2.028 0 0 0 2.028 2.029h10.141a2.028 2.028 0 0 0 2.028-2.029 1.065 1.065 0 0 0-.007-.126 2.025 2.025 0 0 1-2.021 1.9zm-27.38-8.113v.254h44.62v-.254z" class="cls-14" data-name="Path 1831"/>
                        <path id="Path_1832" d="M87.292 301.789h10.141a2.024 2.024 0 0 1 2.021 1.9c0-.043.007-.083.007-.127a2.027 2.027 0 0 0-2.028-2.028H87.292a2.028 2.028 0 0 0-2.028 2.028 1.068 1.068 0 0 0 .008.127 2.023 2.023 0 0 1 2.02-1.9zm24.338 34.225H73.1a3.051 3.051 0 0 1-3.042-3.042v.253a3.051 3.051 0 0 0 3.042 3.043h38.53a3.052 3.052 0 0 0 3.043-3.043v-.253a3.051 3.051 0 0 1-3.043 3.042z" class="cls-16" data-name="Path 1832"/>
                        <path id="Path_1833" d="M70.053 297.732v35.493a3.051 3.051 0 0 0 3.042 3.043h38.535a3.052 3.052 0 0 0 3.043-3.043v-35.493zm27.38 8.113H87.292a2.028 2.028 0 1 1 0-4.056h10.141a2.028 2.028 0 1 1 0 4.056z" class="cls-17" data-name="Path 1833"/>
                        <path id="Path_1834" d="M68.025 292.662H116.7v48.676H68.025z" class="cls-1" data-name="Path 1834"/>
                    </g>
                </g>
            </g>
        </g>
    </g>
</svg>
