<svg xmlns="http://www.w3.org/2000/svg" width="580.028" height="413.86" viewBox="0 0 580.028 413.86">
    <defs>
        <style>
            .cls-1,.cls-2{opacity:.15;fill:url(#linear-gradient)}.cls-2{opacity:.08}
        </style>
        <linearGradient id="linear-gradient" x1=".14" x2=".599" y1="-.326" y2="1.17" gradientUnits="objectBoundingBox">
            <stop offset="0" stop-color="#5a94ff"/>
            <stop offset="1" stop-color="#2c6de5"/>
        </linearGradient>
    </defs>
    <g id="left_circles" data-name="left circles" transform="translate(-62 -898.015)">
        <path id="Path_1102" d="M7248.692 1070.7c55.293-13.779 109.6-23.787 159.18-7.141 49.614 16.566 94.618 59.75 112.268 109.225s7.993 105.364-17.858 149.372-67.859 76.056-115.3 87.449c-47.525 11.352-100.391 2.094-141.577-22.215-41.139-24.186-70.549-63.3-96.054-110.388s-36.944-106.887-19.568-143.276c17.427-36.265 63.617-49.247 118.909-63.026z" class="cls-1" data-name="Path 1102" transform="rotate(90.97 3956.99 -2203.236)"/>
        <path id="Path_1103" d="M7208.1 1067.868c37.652-11.314 74.636-19.531 108.394-5.864 33.785 13.6 64.431 49.059 76.449 89.681s5.443 86.511-12.16 122.645-46.209 62.447-78.512 71.8c-32.362 9.321-68.362 1.719-96.408-18.24-28.013-19.858-48.041-51.972-65.408-90.636s-25.158-87.761-13.325-117.64c11.87-29.774 43.32-40.433 80.97-51.746z" class="cls-2" data-name="Path 1103" transform="rotate(135 3781.675 -292.949)"/>
    </g>
</svg>
