<svg xmlns="http://www.w3.org/2000/svg" xmlns:xlink="http://www.w3.org/1999/xlink" viewBox="0 0 141.05 122.68"><defs><style>.cls-1{opacity:0.4;fill:url(#linear-gradient);}.cls-2{fill:url(#linear-gradient-2);}.cls-3{fill:url(#linear-gradient-3);}.cls-4{opacity:0.2;}.cls-5{fill:url(#linear-gradient-4);}.cls-6{fill:url(#linear-gradient-5);}.cls-7{fill:url(#linear-gradient-6);}.cls-8{fill:url(#linear-gradient-7);}.cls-9{fill:url(#linear-gradient-8);}.cls-10{fill:url(#linear-gradient-9);}.cls-11{fill:url(#linear-gradient-10);}.cls-12{fill:url(#linear-gradient-11);}.cls-13{fill:url(#linear-gradient-12);}.cls-14{fill:url(#linear-gradient-13);}.cls-15{fill:url(#linear-gradient-14);}</style><linearGradient id="linear-gradient" x1="65.02" y1="55.05" x2="91.89" y2="102.79" gradientUnits="userSpaceOnUse"><stop offset="0.38" stop-color="#e46266"/><stop offset="0.44" stop-color="#e5686c" stop-opacity="0.96"/><stop offset="0.53" stop-color="#e7777b" stop-opacity="0.86"/><stop offset="0.64" stop-color="#ea9195" stop-opacity="0.69"/><stop offset="0.78" stop-color="#efb4b8" stop-opacity="0.46"/><stop offset="0.92" stop-color="#f5e0e4" stop-opacity="0.17"/><stop offset="1" stop-color="#f9fafe" stop-opacity="0"/></linearGradient><linearGradient id="linear-gradient-2" x1="48.46" y1="39.87" x2="-20.8" y2="-21.17" gradientUnits="userSpaceOnUse"><stop offset="0" stop-color="#de3f3e"/><stop offset="0.25" stop-color="#e16263"/><stop offset="0.58" stop-color="#e58b8e"/><stop offset="0.85" stop-color="#e7a4a8"/><stop offset="1" stop-color="#e8adb2"/></linearGradient><linearGradient id="linear-gradient-3" x1="86.3" y1="71.35" x2="-98.4" y2="-88.31" gradientUnits="userSpaceOnUse"><stop offset="0" stop-color="#f74746"/><stop offset="0.21" stop-color="#f36263"/><stop offset="0.56" stop-color="#ed8b8e"/><stop offset="0.84" stop-color="#e9a4a8"/><stop offset="1" stop-color="#e8adb2"/></linearGradient><linearGradient id="linear-gradient-4" x1="-394.98" y1="-567.03" x2="-372.52" y2="-545.72" gradientTransform="matrix(-0.87, 0.49, -0.01, 1.15, -280.46, 885.17)" gradientUnits="userSpaceOnUse"><stop offset="0" stop-color="#f2f2f2"/><stop offset="1" stop-color="#ccc"/></linearGradient><linearGradient id="linear-gradient-5" x1="-396.44" y1="-577.57" x2="-371.76" y2="-554.17" gradientTransform="matrix(-0.87, -0.5, -1, 0.58, -845.65, 168.67)" xlink:href="#linear-gradient-4"/><linearGradient id="linear-gradient-6" x1="-363.82" y1="-554.32" x2="-341.35" y2="-533.02" xlink:href="#linear-gradient-4"/><linearGradient id="linear-gradient-7" x1="-365.27" y1="-564.87" x2="-340.59" y2="-541.46" gradientTransform="matrix(-0.87, -0.5, -1, 0.58, -833.2, 206.69)" xlink:href="#linear-gradient-4"/><linearGradient id="linear-gradient-8" x1="5.51" y1="28.68" x2="-9.88" y2="20.46" xlink:href="#linear-gradient-2"/><linearGradient id="linear-gradient-9" x1="29.86" y1="47.65" x2="-32.75" y2="-7.26" xlink:href="#linear-gradient-3"/><linearGradient id="linear-gradient-10" x1="6.27" y1="32.1" x2="55.5" y2="41.61" gradientTransform="matrix(1, 0, 0, 1, 0, 0)" xlink:href="#linear-gradient-4"/><linearGradient id="linear-gradient-11" x1="106.24" y1="39.81" x2="95.97" y2="34.32" xlink:href="#linear-gradient-2"/><linearGradient id="linear-gradient-12" x1="122.48" y1="52.47" x2="80.71" y2="15.82" xlink:href="#linear-gradient-3"/><linearGradient id="linear-gradient-13" x1="106.74" y1="42.09" x2="139.6" y2="48.43" gradientTransform="matrix(1, 0, 0, 1, 0, 0)" xlink:href="#linear-gradient-4"/><linearGradient id="linear-gradient-14" x1="14.88" y1="45.18" x2="408.4" y2="121.15" gradientTransform="matrix(1, 0, 0, 1, 0, 0)" xlink:href="#linear-gradient-4"/></defs><title>Asset 17</title><g id="Layer_2" data-name="Layer 2"><g id="Layer_1-2" data-name="Layer 1"><polygon class="cls-1" points="76.88 122.68 30.8 100.06 97.03 61.97 141.05 84.34 76.88 122.68"/><path class="cls-2" d="M18.76,44.15l1.48,45.52c.1,4.51.34,7.56,11.79,10.39.56.14-4.19-3.26-3.61-3.57L90.74,59c2.24-1.17,3.71-4,3.71-7.05V7.57c0-1.33,4-2.87,3.07-3.57C93.82,1.19,89.3-1,86.37.46L22.57,36.81C20.21,38,18.68,40.92,18.76,44.15Z"/><path class="cls-3" d="M24.76,47.15l1.48,45.52c.12,5.31,4.34,8.82,8.18,6.82L96.74,62c2.24-1.17,3.71-4,3.71-7.05V10.57c0-5.35-4.19-9-8.08-7.11L28.57,39.81C26.21,41,24.68,43.92,24.76,47.15Z"/><g class="cls-4"><path d="M59.52,37.83a3.73,3.73,0,0,1,1.72-2.91L70,30c.94-.53,1.7-.09,1.69,1l-.08,8.07L59.41,45.92Z"/><ellipse cx="66.11" cy="26.67" rx="5.15" ry="2.97" transform="translate(9.29 69.72) rotate(-59.12)"/></g><path class="cls-5" d="M62.06,39.78a3.71,3.71,0,0,1,1.73-2.91l8.73-4.93c.94-.53,1.7-.09,1.69,1L74.13,41,62,47.87Z"/><ellipse class="cls-6" cx="68.66" cy="28.62" rx="5.15" ry="2.97" transform="translate(8.85 72.85) rotate(-59.12)"/><g class="cls-4"><path d="M32.23,67.81A3.76,3.76,0,0,1,34,64.9L42.69,60c.94-.54,1.7-.09,1.69,1L44.29,69,32.11,75.91Z"/><ellipse cx="38.82" cy="56.65" rx="5.15" ry="2.97" transform="translate(-29.73 60.89) rotate(-59.12)"/></g><path class="cls-7" d="M34.77,69.76a3.76,3.76,0,0,1,1.72-2.91l8.74-4.92c.94-.54,1.7-.09,1.69,1L46.84,71,34.65,77.86Z"/><ellipse class="cls-8" cx="41.36" cy="58.6" rx="5.15" ry="2.97" transform="translate(-30.16 64.02) rotate(-59.12)"/><path class="cls-9" d="M13.65,16.75a9.9,9.9,0,0,0-4.68,2C3.35,22.79-.63,31.67.08,38.57c.5,4.89,3.23,7.47,6.78,7.11a9.9,9.9,0,0,0,4.68-2c5.62-4.06,9.6-12.94,8.89-19.84-.51-4.89-3.23-7.47-6.78-7.11Z"/><path class="cls-10" d="M15.65,17.75a9.9,9.9,0,0,0-4.68,2c-5.62,4.06-9.6,12.94-8.89,19.84.5,4.89,3.23,7.47,6.78,7.11a9.9,9.9,0,0,0,4.68-2c5.62-4.06,9.6-12.94,8.89-19.84-.51-4.89-3.23-7.47-6.78-7.11Z"/><path class="cls-11" d="M10.7,37V29.15a.52.52,0,0,1,.81-.44l4,2.61a.51.51,0,0,1,.13.75l-4,5.22A.52.52,0,0,1,10.7,37Z"/><path class="cls-12" d="M111.67,31.85a6.64,6.64,0,0,0-3.12,1.31,16,16,0,0,0-5.93,13.25c.33,3.26,2.15,5,4.52,4.74a6.56,6.56,0,0,0,3.12-1.32,16,16,0,0,0,5.93-13.24c-.33-3.27-2.15-5-4.52-4.74Z"/><path class="cls-13" d="M113,32.51a6.56,6.56,0,0,0-3.12,1.32A16,16,0,0,0,104,47.07c.34,3.27,2.16,5,4.52,4.74a6.67,6.67,0,0,0,3.13-1.31,16.07,16.07,0,0,0,5.93-13.24c-.34-3.27-2.16-5-4.53-4.75Z"/><path class="cls-14" d="M109.7,45.34V40.12a.35.35,0,0,1,.54-.3l2.67,1.74a.35.35,0,0,1,.08.51l-2.66,3.48A.35.35,0,0,1,109.7,45.34Z"/><polygon class="cls-15" points="37.02 89.94 57.1 60.43 61.08 62.66 84.39 32.4 79.79 29.14 93.27 19.83 91.74 36.95 88.25 34.58 65.14 70.94 59.25 67.28 37.02 89.94"/></g></g></svg>