<?xml version="1.0" encoding="utf-8"?>
<!-- Generator: Adobe Illustrator 23.0.4, SVG Export Plug-In . SVG Version: 6.00 Build 0)  -->
<svg version="1.1" id="Layer_1" xmlns="http://www.w3.org/2000/svg" xmlns:xlink="http://www.w3.org/1999/xlink" x="0px" y="0px"
	 viewBox="0 0 2078.3 266.4" style="enable-background:new 0 0 2078.3 266.4;" xml:space="preserve">
<style type="text/css">
	.st0{fill-rule:evenodd;clip-rule:evenodd;fill:#1F5796;}
</style>
<g>
	<path class="st0" d="M694.4,83.4c30-32.6,83-35.5,100.6-35.5c8.6,0,31.1,0.7,53,7.6c44.9,14.1,67.5,44.3,67.5,77.2
		c0,6.5-0.5,20.3-9.7,36.3c-9.6,17-38.6,49.3-109.2,49.3c-25.7,0-42.3-4-51.9-6.5c-62.1-17.8-68.5-60.3-69.6-75.1
		C674.5,127.7,674,104.8,694.4,83.4z M639.2,223.1c54.1,40.6,130.6,43.2,156.4,43.2c48.7,0,97.4-9.1,134.9-29.4
		c24.1-13,69.6-45.7,69.6-102.6c0-14.5-3.7-54.1-43.9-87.1C916,14.5,854.5,0,795.6,0c-21.5,0-85.7,1.8-137.1,30.1
		c-24.6,13.4-69.6,47.2-68.5,104.5C590.5,150.2,594.8,189.7,639.2,223.1L639.2,223.1z M1172.2,8h337.6l3.8,48.4h-130.3v201.7h-84.7
		V56.4h-130.5L1172.2,8z M317.7,173.5c-7.1,10.7-11.2,14.7-16.9,19.3c-14.6,11.9-38.9,24.9-87.7,24.9c-3.2,0.1-6.6,0.2-10,0.2
		c-18,0-56.4-1.2-90.1-24.6c-28.8-20.1-31.2-48.7-31.2-59.2c0-34.4,20.5-52.6,34-62.1c23.1-15.2,57.4-23.9,92.3-23.9
		c1.7,0,4.9,0.2,4.9,0.2c33.1,0,55.9,8.4,66.9,13.7c18.9,9.5,28.4,20.4,33.7,26.3l91.4-11.1c-1.9-3.5-4.3-7-6.6-10.5
		c-6.2-8.1-21.8-25.3-50.3-39.7C296,1.4,231.6,0,213.1,0h-0.4c-49,0-98.6,5.6-141.6,27.2C23.8,50.8,0,92,0,132.2
		C0,174.8,21.1,212,60.3,236c37.9,23.2,92.2,30.4,143.4,30.4c3.2,0,6.3-0.1,9.4-0.1c79.4-0.7,122.3-19.3,149.3-36.8
		c20.4-13.3,29.4-24.6,34.6-32.3c4.3-6.3,10.3-16.2,11.4-23.6L317.7,173.5z M1987.9,8l-97.2,101.8c-5.2,5-8.4,11.3-8.4,11.3
		s-3.2-6.3-8.4-11.3c-0.6-0.5-85.8-92.1-94.8-101.9h-92.2l153.3,153.3v96.6h84.6v-96.6L2078.3,8H1987.9L1987.9,8z"/>
</g>
</svg>
