<svg xmlns="http://www.w3.org/2000/svg" id="creative" width="36.213" height="39.299" viewBox="0 0 36.213 39.299">
    <defs>
        <style>
            .cls-1{fill:#cecece}
        </style>
    </defs>
    <path id="Rectangle_42" d="M0 0h1.393v1.393H0z" class="cls-1" data-name="Rectangle 42" transform="translate(4.178 3.086)"/>
    <path id="Rectangle_43" d="M0 0h6.964v1.393H0z" class="cls-1" data-name="Rectangle 43" transform="translate(6.964 3.086)"/>
    <path id="Rectangle_44" d="M0 0h11.142v1.393H0z" class="cls-1" data-name="Rectangle 44" transform="translate(2.786 5.872)"/>
    <path id="Rectangle_45" d="M0 0h9.053v1.393H0z" class="cls-1" data-name="Rectangle 45" transform="translate(2.786 8.658)"/>
    <path id="Rectangle_46" d="M0 0h1.393v1.393H0z" class="cls-1" data-name="Rectangle 46" transform="translate(23.678 10.05)"/>
    <path id="Rectangle_47" d="M0 0h6.964v1.393H0z" class="cls-1" data-name="Rectangle 47" transform="translate(26.463 10.05)"/>
    <path id="Rectangle_48" d="M0 0h11.142v1.393H0z" class="cls-1" data-name="Rectangle 48" transform="translate(22.285 12.836)"/>
    <path id="Rectangle_49" d="M0 0h9.053v1.393H0z" class="cls-1" data-name="Rectangle 49" transform="translate(22.285 15.622)"/>
    <path id="Path_742" d="M8.015 27.957a17.438 17.438 0 0 0 0 1.452l1.393-.06c-.01-.221-.015-.444-.015-.666s0-.446.015-.666z" class="cls-1" data-name="Path 742" transform="translate(-6.607 -12.365)"/>
    <path id="Path_743" d="M14.6 43.133l.848-1.1a15.211 15.211 0 0 1-5.865-10.162l-1.383.18a16.6 16.6 0 0 0 6.4 11.083z" class="cls-1" data-name="Path 743" transform="translate(-6.668 -13.554)"/>
    <path id="Path_744" d="M45.459 10.26a16.644 16.644 0 0 0-8.374-4.692l-.3 1.36a15.266 15.266 0 0 1 7.672 4.3z" class="cls-1" data-name="Path 744" transform="translate(-15.346 -5.568)"/>
    <path id="Path_745" d="M37.588 25.5h3.928a.7.7 0 0 0 .7-.7V13.66a.7.7 0 0 0-.7-.7h-6.832a13.876 13.876 0 0 0-10.578-4.871c-.466 0-.931.031-1.393.077V6.7a.7.7 0 0 0-.7-.7H6.7a.7.7 0 0 0-.7.7v11.139a.7.7 0 0 0 .7.7h3.927a13.886 13.886 0 0 0 7.912 16.226v.487h-.7a.7.7 0 0 0-.7.7v5.571a.7.7 0 0 0 .7.7h.7v.7A2.089 2.089 0 0 0 20.624 45h6.964a2.089 2.089 0 0 0 2.089-2.089v-.7h.7a.7.7 0 0 0 .7-.7v-5.566a.7.7 0 0 0-.7-.7h-.7v-.487a13.884 13.884 0 0 0 7.911-9.258zm3.232-1.393h-6.268a.7.7 0 0 0-.418.139L32.463 25.5v-.7a.7.7 0 0 0-.7-.7h-4.871v-9.75H40.82zM25.5 27.588v7.66h-2.786v-7.66a.7.7 0 0 0-.073-.311l-2.078-4.155 3.352.958a.7.7 0 0 0 .383 0l1.2-.343V24.8a.7.7 0 0 0 .7.7h.266l-.893 1.778a.7.7 0 0 0-.071.31zM7.393 7.393h13.928v9.75H15.75a.7.7 0 0 0-.7.7v.7l-1.671-1.254a.7.7 0 0 0-.418-.139H7.393zm12.1 26.254a12.479 12.479 0 0 1-7.417-15.112h.661l2.6 1.95a.7.7 0 0 0 1.114-.557v-1.393h5.571a.7.7 0 0 0 .7-.7V9.568a12.716 12.716 0 0 1 1.393-.086 12.478 12.478 0 0 1 8.661 3.482H26.2a.7.7 0 0 0-.7.7v8.627l-1.393.4-4.683-1.338a.7.7 0 0 0-.609.113l-2.786 2.089.836 1.114 2.118-1.588 2.339 4.678v7.5h-1.394V34.3a.7.7 0 0 0-.439-.653zm-.953 2.995h11.138v1.393H18.535zm9.75 6.268a.7.7 0 0 1-.7.7h-6.966a.7.7 0 0 1-.7-.7v-.7h8.357zm1.393-2.089H18.535v-1.394h11.143zm-2.786-5.571v-7.5l1.122-2.25h3.051v1.393a.7.7 0 0 0 1.114.557l2.6-1.95h1.364a12.507 12.507 0 0 1-7.424 8.148.7.7 0 0 0-.439.648v.954z" class="cls-1" data-name="Path 745" transform="translate(-6 -5.699)"/>
</svg>
