<?xml version="1.0" encoding="utf-8"?>
<!-- Generator: Adobe Illustrator 23.0.4, SVG Export Plug-In . SVG Version: 6.00 Build 0)  -->
<svg version="1.1" id="Layer_1" xmlns="http://www.w3.org/2000/svg" xmlns:xlink="http://www.w3.org/1999/xlink" x="0px" y="0px"
	 viewBox="0 0 480 316" style="enable-background:new 0 0 480 316;" xml:space="preserve">
<style type="text/css">
	.st0{opacity:7.000000e-02;}
	.st1{fill:url(#Path_848_1_);}
	.st2{fill:url(#Path_849_1_);}
	.st3{fill:url(#Path_851_1_);}
	.st4{fill:url(#Path_852_1_);}
	.st5{opacity:6.000000e-02;fill:#4775D0;enable-background:new    ;}
	.st6{opacity:0.19;}
	.st7{fill:#4472CD;}
</style>
<g id="Group_831" transform="translate(-7111.282 -3161.158)" class="st0">
	
		<linearGradient id="Path_848_1_" gradientUnits="userSpaceOnUse" x1="7045.0249" y1="3713.8379" x2="7047.1113" y2="3715.1619" gradientTransform="matrix(171.1904 0 0 -171.1902 -1198944.375 639129)">
		<stop  offset="0" style="stop-color:#1764B5"/>
		<stop  offset="1" style="stop-color:#AAD9FF"/>
	</linearGradient>
	<path id="Path_848" class="st1" d="M7143.9,3338.8c1.5,0,2.9-0.6,4-1.7l37.2-37.2c2.2-2.2,2.2-5.8,0-8c-2.2-2.2-5.8-2.2-8,0
		l-37.2,37.2c-2.2,2.2-2.2,5.8,0,8C7141,3338.2,7142.4,3338.8,7143.9,3338.8L7143.9,3338.8z"/>
	
		<linearGradient id="Path_849_1_" gradientUnits="userSpaceOnUse" x1="7045.3848" y1="3714.0271" x2="7046.606" y2="3714.8022" gradientTransform="matrix(292.3354 0 0 -292.3352 -2052540.5 1089090)">
		<stop  offset="0" style="stop-color:#1764B5"/>
		<stop  offset="1" style="stop-color:#AAD9FF"/>
	</linearGradient>
	<path id="Path_849" class="st2" d="M7116.7,3341.4c1.4,0,2.8-0.6,3.8-1.6l72-72c2.1-2.1,2.1-5.5,0-7.6c-2.1-2.1-5.5-2.1-7.6,0
		l-72,72c-2.1,2.1-2.1,5.5,0,7.6C7113.9,3340.8,7115.3,3341.4,7116.7,3341.4L7116.7,3341.4z"/>
	
		<linearGradient id="Path_851_1_" gradientUnits="userSpaceOnUse" x1="7044.4355" y1="3713.5457" x2="7046.0898" y2="3714.5952" gradientTransform="matrix(215.9458 0 0 -215.9441 -1514177.75 805312.375)">
		<stop  offset="0" style="stop-color:#1764B5"/>
		<stop  offset="1" style="stop-color:#AAD9FF"/>
	</linearGradient>
	<path id="Path_851" class="st3" d="M7161.7,3327.5c0.1,0,0.3-0.1,0.4-0.2l60-60c0.2-0.2,0.2-0.6,0-0.8c-0.2-0.2-0.6-0.2-0.8,0
		l-60,60c-0.2,0.2-0.2,0.6,0,0.8C7161.4,3327.5,7161.6,3327.5,7161.7,3327.5L7161.7,3327.5z"/>
	
		<linearGradient id="Path_852_1_" gradientUnits="userSpaceOnUse" x1="7044.8784" y1="3713.2971" x2="7046.5322" y2="3714.3467" gradientTransform="matrix(215.9092 0 0 -215.9102 -1513977.5 805063.5)">
		<stop  offset="0" style="stop-color:#1764B5"/>
		<stop  offset="1" style="stop-color:#AAD9FF"/>
	</linearGradient>
	<path id="Path_852" class="st4" d="M7145.4,3292.7c0.1,0,0.3-0.1,0.4-0.2l60-60c0.2-0.2,0.2-0.6,0-0.8c-0.2-0.2-0.6-0.2-0.8,0
		l-60,60c-0.2,0.2-0.2,0.6,0,0.8C7145.1,3292.7,7145.2,3292.7,7145.4,3292.7L7145.4,3292.7z"/>
</g>
<g id="Group_614">
	<g transform="translate(-.005)">
		<circle id="Ellipse_19-2" class="st5" cx="49.9" cy="271.4" r="15.6"/>
	</g>
	<g transform="translate(-.005)">
		<circle id="Ellipse_18-2" class="st5" cx="49.9" cy="271.4" r="9.4"/>
	</g>
</g>
<g id="Group_614_2_">
	<g transform="translate(-.005)">
		<circle id="Ellipse_19-2_2_" class="st5" cx="11.4" cy="45.6" r="15.6"/>
	</g>
	<g transform="translate(-.005)">
		<circle id="Ellipse_18-2_2_" class="st5" cx="11.4" cy="45.6" r="9.4"/>
	</g>
</g>
<g id="Group_614_1_">
	<g transform="translate(-.005)">
		<circle id="Ellipse_19-2_1_" class="st5" cx="435.6" cy="153.4" r="15.6"/>
	</g>
	<g transform="translate(-.005)">
		<circle id="Ellipse_18-2_1_" class="st5" cx="435.6" cy="153.4" r="9.4"/>
	</g>
</g>
<g id="Group_536" transform="rotate(-40 204.823 92.408)" class="st6">
	<g id="Group_530">
		<path id="Path_789" class="st7" d="M219.1,338.5c0.1,0.6-0.3,1.2-1,1.3s-1.2-0.3-1.3-1c-0.1-0.6,0.3-1.2,1-1.3
			C218.4,337.4,219,337.9,219.1,338.5C219.1,338.5,219.1,338.5,219.1,338.5z"/>
		<path id="Path_790" class="st7" d="M230.2,337.6c0.1,0.6-0.3,1.2-1,1.3c-0.6,0.1-1.2-0.3-1.3-1c-0.1-0.6,0.3-1.2,1-1.3
			C229.5,336.5,230.1,336.9,230.2,337.6C230.2,337.6,230.2,337.6,230.2,337.6z"/>
		<path id="Path_791" class="st7" d="M241.4,336.6c0.1,0.6-0.3,1.2-1,1.3c-0.6,0.1-1.2-0.3-1.3-1c-0.1-0.6,0.3-1.2,1-1.3
			C240.7,335.6,241.3,336,241.4,336.6C241.4,336.6,241.4,336.6,241.4,336.6z"/>
		<path id="Path_792" class="st7" d="M252.6,335.7c0.1,0.6-0.3,1.2-1,1.3c-0.6,0.1-1.2-0.3-1.3-1c-0.1-0.6,0.3-1.2,1-1.3
			C251.9,334.6,252.5,335.1,252.6,335.7C252.6,335.7,252.6,335.7,252.6,335.7z"/>
		<path id="Path_793" class="st7" d="M263.7,334.8c0.1,0.6-0.3,1.2-1,1.3c-0.6,0.1-1.2-0.3-1.3-1c-0.1-0.6,0.3-1.2,1-1.3
			C263.1,333.7,263.6,334.1,263.7,334.8C263.7,334.8,263.7,334.8,263.7,334.8z"/>
		<path id="Path_794" class="st7" d="M274.9,333.8c0.1,0.6-0.3,1.2-1,1.3c-0.6,0.1-1.2-0.3-1.3-1c-0.1-0.6,0.3-1.2,1-1.3
			C274.2,332.8,274.8,333.2,274.9,333.8C274.9,333.8,274.9,333.8,274.9,333.8z"/>
	</g>
	<g id="Group_531" transform="translate(3.793 42.633)">
		<path id="Path_795" class="st7" d="M216.2,306.3c0.1,0.6-0.3,1.2-1,1.3c-0.6,0.1-1.2-0.3-1.3-1c-0.1-0.6,0.3-1.2,1-1.3
			C215.5,305.2,216.1,305.7,216.2,306.3C216.2,306.3,216.2,306.3,216.2,306.3z"/>
		<path id="Path_796" class="st7" d="M227.4,305.4c0.1,0.6-0.3,1.2-1,1.3c-0.6,0.1-1.2-0.3-1.3-1c-0.1-0.6,0.3-1.2,1-1.3
			C226.7,304.3,227.3,304.7,227.4,305.4C227.4,305.4,227.4,305.4,227.4,305.4z"/>
		<path id="Path_797" class="st7" d="M238.5,304.4c0.1,0.6-0.3,1.2-1,1.3c-0.6,0.1-1.2-0.3-1.3-1c-0.1-0.6,0.3-1.2,1-1.3
			C237.9,303.4,238.4,303.8,238.5,304.4C238.5,304.4,238.5,304.4,238.5,304.4z"/>
		<path id="Path_798" class="st7" d="M249.7,303.5c0.1,0.6-0.3,1.2-1,1.3c-0.6,0.1-1.2-0.3-1.3-1c-0.1-0.6,0.3-1.2,1-1.3
			C249,302.4,249.6,302.9,249.7,303.5C249.7,303.5,249.7,303.5,249.7,303.5z"/>
		<path id="Path_799" class="st7" d="M260.9,302.6c0.1,0.6-0.3,1.2-1,1.3c-0.6,0.1-1.2-0.3-1.3-1c-0.1-0.6,0.3-1.2,1-1.3
			C260.2,301.5,260.8,301.9,260.9,302.6C260.9,302.6,260.9,302.6,260.9,302.6z"/>
		<path id="Path_800" class="st7" d="M272.1,301.6c0.1,0.6-0.3,1.2-1,1.3c-0.6,0.1-1.2-0.3-1.3-1c-0.1-0.6,0.3-1.2,1-1.3
			C271.4,300.6,272,301,272.1,301.6C272.1,301.6,272.1,301.6,272.1,301.6z"/>
	</g>
	<g id="Group_532" transform="translate(7.587 85.266)">
		<path id="Path_801" class="st7" d="M213.3,274.1c0.1,0.6-0.3,1.2-1,1.3c-0.6,0.1-1.2-0.3-1.3-1c-0.1-0.6,0.3-1.2,1-1.3
			C212.6,273.1,213.2,273.5,213.3,274.1C213.3,274.1,213.3,274.1,213.3,274.1z"/>
		<path id="Path_802" class="st7" d="M224.5,273.2c0.1,0.6-0.3,1.2-1,1.3c-0.6,0.1-1.2-0.3-1.3-1c-0.1-0.6,0.3-1.2,1-1.3
			C223.8,272.1,224.4,272.6,224.5,273.2C224.5,273.2,224.5,273.2,224.5,273.2z"/>
		<path id="Path_803" class="st7" d="M235.7,272.3c0.1,0.6-0.3,1.2-1,1.3c-0.6,0.1-1.2-0.3-1.3-1c-0.1-0.6,0.3-1.2,1-1.3
			C235,271.2,235.6,271.6,235.7,272.3C235.7,272.2,235.7,272.2,235.7,272.3z"/>
		<path id="Path_804" class="st7" d="M246.8,271.3c0.1,0.6-0.3,1.2-1,1.3c-0.6,0.1-1.2-0.3-1.3-1c-0.1-0.6,0.3-1.2,1-1.3
			C246.2,270.3,246.7,270.7,246.8,271.3C246.8,271.3,246.8,271.3,246.8,271.3z"/>
		<path id="Path_805" class="st7" d="M258,270.4c0.1,0.6-0.3,1.2-1,1.3c-0.6,0.1-1.2-0.3-1.3-1c-0.1-0.6,0.3-1.2,1-1.3
			C257.3,269.3,257.9,269.8,258,270.4C258,270.4,258,270.4,258,270.4z"/>
		<path id="Path_806" class="st7" d="M269.2,269.5c0.1,0.6-0.3,1.2-1,1.3c-0.6,0.1-1.2-0.3-1.3-1c-0.1-0.6,0.3-1.2,1-1.3
			C268.5,268.4,269.1,268.8,269.2,269.5C269.2,269.5,269.2,269.5,269.2,269.5z"/>
	</g>
	<g id="Group_533" transform="translate(11.381 127.9)">
		<path id="Path_807" class="st7" d="M210.5,241.9c0.1,0.6-0.3,1.2-1,1.3s-1.2-0.3-1.3-1c-0.1-0.6,0.3-1.2,1-1.3
			C209.8,240.9,210.4,241.3,210.5,241.9C210.5,241.9,210.5,241.9,210.5,241.9z"/>
		<path id="Path_808" class="st7" d="M221.6,241c0.1,0.6-0.3,1.2-1,1.3c-0.6,0.1-1.2-0.3-1.3-1c-0.1-0.6,0.3-1.2,1-1.3
			C221,239.9,221.5,240.4,221.6,241C221.6,241,221.6,241,221.6,241z"/>
		<path id="Path_809" class="st7" d="M232.8,240.1c0.1,0.6-0.3,1.2-1,1.3s-1.2-0.3-1.3-1c-0.1-0.6,0.3-1.2,1-1.3
			C232.1,239,232.7,239.4,232.8,240.1C232.8,240.1,232.8,240.1,232.8,240.1z"/>
		<path id="Path_810" class="st7" d="M244,239.1c0.1,0.6-0.3,1.2-1,1.3c-0.6,0.1-1.2-0.3-1.3-1c-0.1-0.6,0.3-1.2,1-1.3
			C243.3,238.1,243.9,238.5,244,239.1C244,239.1,244,239.1,244,239.1z"/>
		<path id="Path_811" class="st7" d="M255.2,238.2c0.1,0.6-0.3,1.2-1,1.3s-1.2-0.3-1.3-1c-0.1-0.6,0.3-1.2,1-1.3
			C254.5,237.1,255.1,237.6,255.2,238.2C255.2,238.2,255.2,238.2,255.2,238.2z"/>
		<path id="Path_812" class="st7" d="M266.3,237.3c0.1,0.6-0.3,1.2-1,1.3c-0.6,0.1-1.2-0.3-1.3-1c-0.1-0.6,0.3-1.2,1-1.3
			C265.6,236.2,266.2,236.6,266.3,237.3C266.3,237.3,266.3,237.3,266.3,237.3z"/>
	</g>
	<g id="Group_534" transform="translate(15.174 170.533)">
		<path id="Path_813" class="st7" d="M207.6,209.7c0.1,0.6-0.3,1.2-1,1.3s-1.2-0.3-1.3-1c-0.1-0.6,0.3-1.2,1-1.3
			C206.9,208.7,207.5,209.1,207.6,209.7C207.6,209.7,207.6,209.7,207.6,209.7z"/>
		<path id="Path_814" class="st7" d="M218.8,208.8c0.1,0.6-0.3,1.2-1,1.3c-0.6,0.1-1.2-0.3-1.3-1c-0.1-0.6,0.3-1.2,1-1.3
			C218.1,207.7,218.7,208.2,218.8,208.8C218.8,208.8,218.8,208.8,218.8,208.8z"/>
		<path id="Path_815" class="st7" d="M230,207.9c0.1,0.6-0.3,1.2-1,1.3c-0.6,0.1-1.2-0.3-1.3-1c-0.1-0.6,0.3-1.2,1-1.3
			C229.3,206.8,229.9,207.2,230,207.9C230,207.9,230,207.9,230,207.9z"/>
		<path id="Path_816" class="st7" d="M241.1,206.9c0.1,0.6-0.3,1.2-1,1.3c-0.6,0.1-1.2-0.3-1.3-1c-0.1-0.6,0.3-1.2,1-1.3
			C240.4,205.9,241,206.3,241.1,206.9C241.1,206.9,241.1,206.9,241.1,206.9z"/>
		<path id="Path_817" class="st7" d="M252.3,206c0.1,0.6-0.3,1.2-1,1.3c-0.6,0.1-1.2-0.3-1.3-1c-0.1-0.6,0.3-1.2,1-1.3
			C251.6,205,252.2,205.4,252.3,206C252.3,206,252.3,206,252.3,206z"/>
		<path id="Path_818" class="st7" d="M263.5,205.1c0.1,0.6-0.3,1.2-1,1.3c-0.6,0.1-1.2-0.3-1.3-1c-0.1-0.6,0.3-1.2,1-1.3
			C262.8,204,263.4,204.5,263.5,205.1C263.5,205.1,263.5,205.1,263.5,205.1z"/>
	</g>
	<g id="Group_535" transform="translate(18.968 213.167)">
		<path id="Path_819" class="st7" d="M204.7,177.5c0.1,0.6-0.3,1.2-1,1.3c-0.6,0.1-1.2-0.3-1.3-1c-0.1-0.6,0.3-1.2,1-1.3
			C204.1,176.5,204.6,176.9,204.7,177.5C204.7,177.5,204.7,177.5,204.7,177.5z"/>
		<path id="Path_820" class="st7" d="M215.9,176.6c0.1,0.6-0.3,1.2-1,1.3c-0.6,0.1-1.2-0.3-1.3-1c-0.1-0.6,0.3-1.2,1-1.3
			C215.2,175.6,215.8,176,215.9,176.6C215.9,176.6,215.9,176.6,215.9,176.6z"/>
		<path id="Path_821" class="st7" d="M227.1,175.7c0.1,0.6-0.3,1.2-1,1.3c-0.6,0.1-1.2-0.3-1.3-1c-0.1-0.6,0.3-1.2,1-1.3
			C226.4,174.6,227,175.1,227.1,175.7C227.1,175.7,227.1,175.7,227.1,175.7z"/>
		<path id="Path_822" class="st7" d="M238.3,174.8c0.1,0.6-0.3,1.2-1,1.3c-0.6,0.1-1.2-0.3-1.3-1c-0.1-0.6,0.3-1.2,1-1.3
			C237.6,173.7,238.2,174.1,238.3,174.8C238.3,174.8,238.3,174.8,238.3,174.8z"/>
		<path id="Path_823" class="st7" d="M249.4,173.8c0.1,0.6-0.3,1.2-1,1.3c-0.6,0.1-1.2-0.3-1.3-1c-0.1-0.6,0.3-1.2,1-1.3
			C248.7,172.8,249.3,173.2,249.4,173.8C249.4,173.8,249.4,173.8,249.4,173.8z"/>
		<path id="Path_824" class="st7" d="M260.6,172.9c0.1,0.6-0.3,1.2-1,1.3c-0.6,0.1-1.2-0.3-1.3-1c-0.1-0.6,0.3-1.2,1-1.3
			C259.9,171.8,260.5,172.3,260.6,172.9C260.6,172.9,260.6,172.9,260.6,172.9z"/>
	</g>
</g>
</svg>
