<svg xmlns="http://www.w3.org/2000/svg" width="21.533" height="21.533" viewBox="0 0 21.533 21.533">
    <defs>
        <style>
            .cls-1{fill:#fff}
        </style>
    </defs>
    <g id="timetable">
        <path id="Path_1087" d="M20.271 12.291V1.935a.631.631 0 0 0-.631-.635h-3.2V.631a.631.631 0 0 0-1.262 0V1.3h-2.519V.631a.631.631 0 1 0-1.262 0V1.3H8.874V.631a.631.631 0 0 0-1.262 0V1.3H5.089V.631a.631.631 0 0 0-1.262 0V1.3H.631A.631.631 0 0 0 0 1.935v16.443a.631.631 0 0 0 .631.631h10.506a5.675 5.675 0 1 0 9.134-6.718zM3.827 2.565V3.2a.631.631 0 0 0 1.262 0v-.635h2.523V3.2a.631.631 0 0 0 1.262 0v-.635H11.4V3.2a.631.631 0 0 0 1.262 0v-.635h2.523V3.2a.631.631 0 0 0 1.262 0v-.635h2.565v2.524H1.262V2.565zM1.262 17.748V6.35h17.747v4.786a5.671 5.671 0 0 0-7.917 1.632.627.627 0 0 0-.284-.068H9.547a.631.631 0 0 0 0 1.262h.953a5.63 5.63 0 0 0-.289 1.262h-.664a.631.631 0 1 0 0 1.262h.666a5.621 5.621 0 0 0 .289 1.262zm14.593 2.523a4.416 4.416 0 1 1 4.416-4.416 4.421 4.421 0 0 1-4.416 4.416zm0 0" class="cls-1" data-name="Path 1087"/>
        <path id="Path_1088" d="M365.154 304.523h-1.892v-1.893a.631.631 0 1 0-1.262 0v2.523a.631.631 0 0 0 .631.631h2.523a.631.631 0 1 0 0-1.262zm0 0" class="cls-1" data-name="Path 1088" transform="translate(-346.776 -289.299)"/>
        <path id="Path_1089" d="M92.893 182h-1.262a.631.631 0 1 0 0 1.262h1.262a.631.631 0 1 0 0-1.262zm0 0" class="cls-1" data-name="Path 1089" transform="translate(-87.173 -174.346)"/>
        <path id="Path_1090" d="M92.893 242h-1.262a.631.631 0 0 0 0 1.262h1.262a.631.631 0 0 0 0-1.262zm0 0" class="cls-1" data-name="Path 1090" transform="translate(-87.173 -231.822)"/>
        <path id="Path_1091" d="M92.893 302h-1.262a.631.631 0 0 0 0 1.262h1.262a.631.631 0 0 0 0-1.262zm0 0" class="cls-1" data-name="Path 1091" transform="translate(-87.173 -289.299)"/>
        <path id="Path_1092" d="M212.631 183.262h1.262a.631.631 0 1 0 0-1.262h-1.262a.631.631 0 0 0 0 1.262zm0 0" class="cls-1" data-name="Path 1092" transform="translate(-203.084 -174.346)"/>
        <path id="Path_1093" d="M212.631 243.262h1.262a.631.631 0 1 0 0-1.262h-1.262a.631.631 0 0 0 0 1.262zm0 0" class="cls-1" data-name="Path 1093" transform="translate(-203.084 -231.822)"/>
        <path id="Path_1094" d="M92.893 362h-1.262a.631.631 0 0 0 0 1.262h1.262a.631.631 0 0 0 0-1.262zm0 0" class="cls-1" data-name="Path 1094" transform="translate(-87.173 -346.776)"/>
        <path id="Path_1095" d="M332.631 183.262h1.262a.631.631 0 0 0 0-1.262h-1.262a.631.631 0 0 0 0 1.262zm0 0" class="cls-1" data-name="Path 1095" transform="translate(-318.037 -174.346)"/>
    </g>
</svg>
