<svg xmlns="http://www.w3.org/2000/svg" id="destination_1_" width="82.834" height="82.833" data-name="destination (1)" viewBox="0 0 82.834 82.833">
    <defs>
        <style>
            .cls-1{fill:#407eeb}
        </style>
    </defs>
    <path id="Path_896" d="M15.186 249.417a1.379 1.379 0 0 0 1.077-.518c.58-.718 14.11-17.694 14.11-25.713a15.186 15.186 0 0 0-30.372 0C0 231.2 13.529 248.174 14.11 248.9a1.379 1.379 0 0 0 1.077.518zm0-38.656a12.439 12.439 0 0 1 12.425 12.425c0 5.356-8.161 17.069-12.425 22.612-4.264-5.541-12.425-17.253-12.425-22.612a12.439 12.439 0 0 1 12.425-12.425zm0 0" class="cls-1" data-name="Path 896" transform="translate(0 -172.106)"/>
    <path id="Path_897" d="M67.044 261.522a5.522 5.522 0 1 0-5.522 5.522 5.523 5.523 0 0 0 5.522-5.522zm-8.283 0a2.761 2.761 0 1 1 2.761 2.761 2.761 2.761 0 0 1-2.761-2.761zm0 0" class="cls-1" data-name="Path 897" transform="translate(-46.336 -211.822)"/>
    <path id="Path_898" d="M363.044 28.992a1.378 1.378 0 0 0 1.046-.481c1.025-1.188 10-11.781 10-17.467a11.044 11.044 0 1 0-22.089 0c0 5.685 8.974 16.278 10 17.467a1.378 1.378 0 0 0 1.043.481zm0-26.231a8.292 8.292 0 0 1 8.283 8.283c0 3.5-5.271 10.707-8.283 14.412-3.014-3.7-8.283-10.906-8.283-14.412a8.291 8.291 0 0 1 8.283-8.283zm0 0" class="cls-1" data-name="Path 898" transform="translate(-291.255)"/>
    <path id="Path_899" d="M400.283 36.142a4.142 4.142 0 1 0-4.142 4.142 4.142 4.142 0 0 0 4.142-4.142zm-5.522 0a1.381 1.381 0 1 1 1.381 1.381 1.381 1.381 0 0 1-1.381-1.381zm0 0" class="cls-1" data-name="Path 899" transform="translate(-324.353 -26.478)"/>
    <path id="Path_900" d="M401.381 186.761h1.381a1.381 1.381 0 0 0 0-2.761h-1.381a1.381 1.381 0 1 0 0 2.761zm0 0" class="cls-1" data-name="Path 900" transform="translate(-330.972 -152.247)"/>
    <path id="Path_901" d="M297.329 234.761h2.792a1.381 1.381 0 0 0 0-2.761h-2.814a1.372 1.372 0 0 0-1.369 1.381 1.39 1.39 0 0 0 1.391 1.381zm0 0" class="cls-1" data-name="Path 901" transform="translate(-244.867 -191.964)"/>
    <path id="Path_902" d="M393.688 233.381a1.381 1.381 0 0 0 1.381 1.381h2.812a1.381 1.381 0 1 0 0-2.761h-2.812a1.381 1.381 0 0 0-1.381 1.38zm0 0" class="cls-1" data-name="Path 902" transform="translate(-325.749 -191.964)"/>
    <path id="Path_903" d="M352.479 186.761h2.813a1.381 1.381 0 1 0 0-2.761h-2.813a1.381 1.381 0 1 0 0 2.761zm0 0" class="cls-1" data-name="Path 903" transform="translate(-290.509 -152.247)"/>
    <path id="Path_904" d="M125.609 464h-2.814a1.381 1.381 0 1 0 0 2.761h2.814a1.381 1.381 0 1 0 0-2.761zm0 0" class="cls-1" data-name="Path 904" transform="translate(-100.462 -383.928)"/>
    <path id="Path_905" d="M273.467 202.589a1.355 1.355 0 0 0 .286-.03 1.381 1.381 0 0 0 1.067-1.633 2.866 2.866 0 0 1-.059-.573 2.76 2.76 0 0 1 .3-1.257 1.381 1.381 0 0 0-2.461-1.252 5.523 5.523 0 0 0-.482 3.645 1.381 1.381 0 0 0 1.349 1.1zm0 0" class="cls-1" data-name="Path 905" transform="translate(-225.06 -163.077)"/>
    <path id="Path_906" d="M346.182 234.761H349a1.381 1.381 0 1 0 0-2.761h-2.814a1.381 1.381 0 1 0 0 2.761zm0 0" class="cls-1" data-name="Path 906" transform="translate(-285.299 -191.964)"/>
    <path id="Path_907" d="M303.572 186.761h2.814a1.381 1.381 0 1 0 0-2.761h-2.814a1.381 1.381 0 1 0 0 2.761zm0 0" class="cls-1" data-name="Path 907" transform="translate(-250.042 -152.247)"/>
    <path id="Path_908" d="M226.118 313.933a1.339 1.339 0 0 0 .335.042 1.382 1.382 0 0 0 1.338-1.047 4.872 4.872 0 0 1 .984-1.933 1.38 1.38 0 1 0-2.113-1.776 7.6 7.6 0 0 0-1.549 3.038 1.381 1.381 0 0 0 1.005 1.676zm0 0" class="cls-1" data-name="Path 908" transform="translate(-186.23 -255.43)"/>
    <path id="Path_909" d="M369.943 463.609a6.728 6.728 0 0 1-.895.058h-1.738a1.381 1.381 0 0 0 0 2.761h1.738a9.692 9.692 0 0 0 1.242-.08 1.381 1.381 0 1 0-.353-2.739zm0 0" class="cls-1" data-name="Path 909" transform="translate(-302.782 -383.594)"/>
    <path id="Path_910" d="M378.463 368.413a9.661 9.661 0 0 0-2.818-.414h-.362a1.381 1.381 0 1 0 0 2.761h.362a6.96 6.96 0 0 1 2.014.3 1.353 1.353 0 0 0 .4.061 1.38 1.38 0 0 0 .4-2.7zm0 0" class="cls-1" data-name="Path 910" transform="translate(-309.378 -304.494)"/>
    <path id="Path_911" d="M363.162 298.761a1.381 1.381 0 0 0 0-2.761h-2.812a1.381 1.381 0 0 0 0 2.761zm0 0" class="cls-1" data-name="Path 911" transform="translate(-297.022 -244.919)"/>
    <path id="Path_912" d="M414.124 435.805a1.38 1.38 0 0 0-1.825.69 6.888 6.888 0 0 1-1.3 1.933 1.38 1.38 0 1 0 1.995 1.908 9.622 9.622 0 0 0 1.828-2.707 1.381 1.381 0 0 0-.698-1.824zm0 0" class="cls-1" data-name="Path 912" transform="translate(-339.734 -360.498)"/>
    <path id="Path_913" d="M457.581 273.134a1.381 1.381 0 0 0-1.716.934 4.188 4.188 0 0 1-1.078 1.786 1.381 1.381 0 1 0 1.933 1.974 6.937 6.937 0 0 0 1.794-2.978 1.38 1.38 0 0 0-.933-1.716zm0 0" class="cls-1" data-name="Path 913" transform="translate(-375.961 -225.953)"/>
    <path id="Path_914" d="M446.1 238.024a1.381 1.381 0 0 0 1.029-2.3 6.945 6.945 0 0 0-2.9-1.922 1.381 1.381 0 0 0-.9 2.612 4.14 4.14 0 0 1 1.739 1.154 1.383 1.383 0 0 0 1.029.458zm0 0" class="cls-1" data-name="Path 914" transform="translate(-366.051 -193.39)"/>
    <path id="Path_915" d="M329.2 368h-2.812a1.381 1.381 0 0 0 0 2.761h2.812a1.381 1.381 0 0 0 0-2.761zm0 0" class="cls-1" data-name="Path 915" transform="translate(-268.922 -304.494)"/>
    <path id="Path_916" d="M412.058 296h-2.814a1.381 1.381 0 0 0 0 2.761h2.814a1.381 1.381 0 0 0 0-2.761zm0 0" class="cls-1" data-name="Path 916" transform="translate(-337.478 -244.919)"/>
    <path id="Path_917" d="M174.513 464H171.7a1.381 1.381 0 1 0 0 2.761h2.812a1.381 1.381 0 1 0 0-2.761zm0 0" class="cls-1" data-name="Path 917" transform="translate(-140.928 -383.928)"/>
    <path id="Path_918" d="M418.24 389.67a1.383 1.383 0 1 0-2.283 1.561 6.829 6.829 0 0 1 .966 2.119 1.381 1.381 0 1 0 2.671-.69 9.587 9.587 0 0 0-1.354-2.989zm0 0" class="cls-1" data-name="Path 918" transform="translate(-343.976 -321.926)"/>
    <path id="Path_919" d="M235.709 355.982a4.911 4.911 0 0 1-1.681-1.374 1.381 1.381 0 0 0-2.181 1.694 7.661 7.661 0 0 0 2.64 2.155 1.381 1.381 0 0 0 1.222-2.475zm0 0" class="cls-1" data-name="Path 919" transform="translate(-191.598 -292.972)"/>
    <path id="Path_920" d="M223.4 464h-2.82a1.381 1.381 0 1 0 0 2.761h2.82a1.381 1.381 0 1 0 0-2.761zm0 0" class="cls-1" data-name="Path 920" transform="translate(-181.372 -383.928)"/>
    <path id="Path_921" d="M321.224 464h-2.812a1.381 1.381 0 1 0 0 2.761h2.812a1.381 1.381 0 1 0 0-2.761zm0 0" class="cls-1" data-name="Path 921" transform="translate(-262.321 -383.928)"/>
    <path id="Path_922" d="M265.361 298.761a1.381 1.381 0 1 0 0-2.761h-2.812a1.381 1.381 0 0 0 0 2.761zm0 0" class="cls-1" data-name="Path 922" transform="translate(-216.098 -244.919)"/>
    <path id="Path_923" d="M314.262 298.761a1.381 1.381 0 0 0 0-2.761h-2.819a1.381 1.381 0 0 0 0 2.761zm0 0" class="cls-1" data-name="Path 923" transform="translate(-256.555 -244.919)"/>
    <path id="Path_924" d="M280.3 368h-2.813a1.381 1.381 0 1 0 0 2.761h2.813a1.381 1.381 0 0 0 0-2.761zm0 0" class="cls-1" data-name="Path 924" transform="translate(-228.458 -304.494)"/>
    <path id="Path_925" d="M272.324 464h-2.814a1.381 1.381 0 1 0 0 2.761h2.814a1.381 1.381 0 1 0 0-2.761zm0 0" class="cls-1" data-name="Path 925" transform="translate(-221.858 -383.928)"/>
    <path id="Path_926" d="M82.761 464h-1.38a1.381 1.381 0 1 0 0 2.761h1.381a1.381 1.381 0 1 0 0-2.761zm0 0" class="cls-1" data-name="Path 926" transform="translate(-66.194 -383.928)"/>
</svg>
