<svg xmlns="http://www.w3.org/2000/svg" width="55.295" height="33.6" viewBox="0 0 55.295 33.6">
    <defs>
        <style>
            .cls-1{fill:#3373e9}
        </style>
    </defs>
    <g id="envelope" transform="translate(0 -100.445)">
        <g id="Group_677" data-name="Group 677" transform="translate(0 100.445)">
            <path id="Path_859" d="M55.257 103.273a2.836 2.836 0 0 0-2.832-2.828l-49.593.068A2.832 2.832 0 0 0 0 103.349l.038 27.867a2.832 2.832 0 0 0 2.832 2.828l49.592-.068a2.836 2.836 0 0 0 2.838-2.836zm-5.944.008l-21.663 15.06-21.706-15zm-12.5 17.9l12.849 9.964-44.06.06 12.927-10.025a1.416 1.416 0 1 0-1.736-2.238l-13.922 10.8-.035-25.107 24.011 16.595a1.416 1.416 0 0 0 1.613 0l23.966-16.66.036 25.171-13.915-10.796a1.416 1.416 0 0 0-1.736 2.238z" class="cls-1" data-name="Path 859" transform="translate(0 -100.445)"/>
        </g>
    </g>
</svg>
