<?xml version="1.0" encoding="utf-8"?>
<!-- Generator: Adobe Illustrator 23.0.4, SVG Export Plug-In . SVG Version: 6.00 Build 0)  -->
<svg version="1.1" id="layer" xmlns="http://www.w3.org/2000/svg" xmlns:xlink="http://www.w3.org/1999/xlink" x="0px" y="0px"
	 viewBox="0 0 600 167.5" style="enable-background:new 0 0 600 167.5;" xml:space="preserve">
<style type="text/css">
	.st0{fill:#2DB1B0;}
	.st1{fill:#7AC143;}
</style>
<g>
	<g>
		<path class="st0" d="M50.9,79.6c-15.6,0-26.3,11.2-28.4,25.4h55.9C76.6,91.2,66.4,79.6,50.9,79.6 M98.1,115c0,3.7-2,7.3-8.2,7.3
			H22.1c1.2,15.8,11.8,27.6,30.7,27.6c11.8,0,18.9-4.1,26.3-11.2c1.8-1.8,4.3-3.4,7-3.4c4.8,0,8.9,3.4,8.9,8.9
			c0,2.3-1.1,4.4-2.7,6.2C83.7,160.5,68.2,167,51.9,167C18,167,0,143.3,0,114.7c0-29.9,21.6-52.3,50.9-52.3
			C79.5,62.4,98.1,85.8,98.1,115"/>
		<path class="st0" d="M141.1,134.6l28.4-65.4c1.6-3.6,4.1-5.9,9.1-5.9c5.5,0,9.6,3.9,9.6,9.8c0,1.4-0.2,2.5-0.9,4.2l-37.5,83.2
			c-1.6,3.4-4.5,5.7-8.7,5.7c-4.1,0-7-2.3-8.6-5.7L95,77.3c-0.7-1.6-0.9-2.8-0.9-4.2c0-5.9,4.1-9.8,9.5-9.8c5,0,7.5,2.3,9.1,5.9
			L141.1,134.6"/>
		<path class="st0" d="M234.6,79.6c-15.6,0-26.3,11.2-28.4,25.4h55.9C260.3,91.2,250.1,79.6,234.6,79.6 M281.9,115
			c0,3.7-2,7.3-8.1,7.3h-67.9c1.1,15.8,11.8,27.6,30.7,27.6c11.8,0,18.8-4.1,26.3-11.2c1.8-1.8,4.3-3.4,7-3.4c4.8,0,8.9,3.4,8.9,8.9
			c0,2.3-1.1,4.4-2.7,6.2c-8.6,10.1-24.1,16.6-40.4,16.6c-33.9,0-51.8-23.7-51.8-52.3c0-29.9,21.6-52.3,50.9-52.3
			C263.3,62.4,281.9,85.8,281.9,115"/>
		<path class="st0" d="M362,74.7c-7.4-7.4-18-11.4-31.2-11.4c-13.1,0-23.8,4.1-31.2,11.4c-7.4,7.4-11.3,18-11.3,30.7v49.8
			c0,5.7,4.5,10.4,10.2,10.4s10.2-4.7,10.2-10.4v-51.6c0.1-12.9,7.3-21.4,22.1-21.5c14.8,0.1,21.9,8.6,22.1,21.5v51.6
			c0,5.7,4.5,10.4,10.2,10.4s10.2-4.7,10.2-10.4v-49.8C373.3,92.6,369.4,82,362,74.7"/>
		<path class="st0" d="M466.1,166.2c-3.9,0-6.8-3-6.8-6.9V17.2c0-3.9,3-6.9,6.8-6.9c3.9,0,6.8,3,6.8,6.9v142.1
			C472.9,163.2,470,166.2,466.1,166.2 M438.4,65.2c3,0,5.7,2.5,5.7,5.7s-2.7,5.7-5.7,5.7h-25.9v82.7c0,3.9-3,6.9-6.8,6.9
			c-3.9,0-6.8-3-6.8-6.9V76.6H383c-3.2,0-5.7-2.5-5.7-5.7s2.5-5.7,5.7-5.7h15.9V51c0-24.9,10.7-38.8,36.3-38.8h4.8
			c3.2,0,5.7,2.5,5.7,5.7c0,3.2-2.5,5.7-5.7,5.7h-4.1c-15.7,0-23.4,6.9-23.4,27.2v14.4H438.4z"/>
		<path class="st0" d="M539.9,74.3c-21.4,0-38.2,17.1-38.2,40.4s16.8,40.5,38.2,40.5c21.3,0,38.1-17.1,38.1-40.5
			C578,91.4,561.2,74.3,539.9,74.3 M539.9,167c-30.4,0-51.8-23.3-51.8-52.3s21.4-52.3,51.8-52.3c30.4,0,51.8,23.3,51.8,52.3
			C591.6,143.8,570.3,167,539.9,167"/>
		<path class="st0" d="M591.3,165.1c-4.1,0-6.3-3-6.3-6.4c0-3.5,2.2-6.5,6.3-6.5s6.2,3.1,6.2,6.5S595.4,165.1,591.3,165.1
			 M591.3,149.8c-5.5,0-8.8,4-8.8,8.9s3.4,8.8,8.8,8.8c5.5,0,8.7-3.9,8.7-8.8S596.8,149.8,591.3,149.8"/>
		<path class="st0" d="M592.9,156.9c0,0.6-0.2,1-1,1h-1.5v-2h1.5C592.6,155.9,592.8,156.3,592.9,156.9 M593.6,159.2
			c0.9-0.4,1.2-1.3,1.2-2.3c0-1.5-1-2.8-3.2-2.8h-2.3c-0.6,0-1,0.4-1,1v6.8c0,0.6,0.4,1,1,1c0.5,0,1-0.4,1-1v-2.2h1.3l1.5,2.7
			c0.2,0.2,0.4,0.5,0.8,0.5l0,0c0.6,0,1-0.5,1-1c0-0.2-0.1-0.3-0.1-0.5L593.6,159.2z"/>
	</g>
	<g>
		<path class="st1" d="M347.2,31.2c-2.6,0-5,0.5-7.2,1.6c-1.7,0.9-3.1,2.1-4.1,3.5c-0.1,0.2-0.3,0.4-0.4,0.6
			c-4.2,7,1.5,17.2,12.7,22.8c4.7,2.4,9.7,3.5,14.2,3.5c3.4,0,6.6-0.7,9.1-2c3.1-5.1,1.9-12.8-3.7-19.5
			C362.4,35.1,354.3,31.2,347.2,31.2"/>
		<path class="st0" d="M352.9,38.6c1.2,12.6,7.8,21.6,16.3,23.5c9-2.9,18-12.7,22.3-25.6c5.7-17.2,1-33.3-10.4-36.1
			c-0.3-0.1-0.6-0.1-0.9-0.2c-2.5-0.4-5.1-0.2-7.8,0.7C360,4.9,351.3,21.8,352.9,38.6"/>
	</g>
</g>
</svg>
