<svg xmlns="http://www.w3.org/2000/svg" width="1948.968" height="1313.171" viewBox="0 0 1948.968 1313.171">
  <defs>
    <style>
      .cls-1 {
        opacity: 0.373;
      }

      .cls-2 {
        fill: #fff;
      }
    </style>
  </defs>
  <g id="Group_908" data-name="Group 908" class="cls-1" transform="translate(13.57 -2352.98)">
    <g id="Group_896" data-name="Group 896" transform="translate(130.947 3220.856)">
      <path id="Path_1003" data-name="Path 1003" class="cls-2" d="M2278.219,886.8a1.343,1.343,0,0,1-.948-.394l-21.545-21.549a1.342,1.342,0,0,1,0-1.9l21.545-21.544a1.349,1.349,0,0,1,1.9,0l21.549,21.544a1.344,1.344,0,0,1,.393.953,1.327,1.327,0,0,1-.393.948l-21.549,21.549A1.347,1.347,0,0,1,2278.219,886.8Zm-19.643-22.891,19.643,19.647,19.648-19.647-19.648-19.643Z" transform="translate(-2255.332 -841.024)"/>
    </g>
    <g id="Group_913" data-name="Group 913" transform="translate(124.451 2942.856)">
      <path id="Path_1003-2" data-name="Path 1003" class="cls-2" d="M2266.281,862.923a.643.643,0,0,1-.454-.188l-10.306-10.308a.642.642,0,0,1,0-.909l10.306-10.306a.646.646,0,0,1,.91,0l10.308,10.306a.643.643,0,0,1,.188.456.635.635,0,0,1-.188.454l-10.308,10.308A.644.644,0,0,1,2266.281,862.923Zm-9.4-10.95,9.4,9.4,9.4-9.4-9.4-9.4Z" transform="translate(-2255.332 -841.024)"/>
    </g>
    <g id="Group_911" data-name="Group 911" transform="translate(1776.947 2437.856)">
      <path id="Path_1003-3" data-name="Path 1003" class="cls-2" d="M2278.219,886.8a1.343,1.343,0,0,1-.948-.394l-21.545-21.549a1.342,1.342,0,0,1,0-1.9l21.545-21.544a1.349,1.349,0,0,1,1.9,0l21.549,21.544a1.344,1.344,0,0,1,.393.953,1.327,1.327,0,0,1-.393.948l-21.549,21.549A1.347,1.347,0,0,1,2278.219,886.8Zm-19.643-22.891,19.643,19.647,19.648-19.647-19.648-19.643Z" transform="translate(-2255.332 -841.024)"/>
    </g>
    <g id="Group_912" data-name="Group 912" transform="translate(1836.947 2833.419)">
      <path id="Path_1003-4" data-name="Path 1003" class="cls-2" d="M2266.939,864.24a.681.681,0,0,1-.481-.2l-10.926-10.928a.681.681,0,0,1,0-.964l10.926-10.926a.684.684,0,0,1,.964,0l10.928,10.926a.682.682,0,0,1,.2.483.673.673,0,0,1-.2.481l-10.928,10.928A.684.684,0,0,1,2266.939,864.24Zm-9.961-11.609,9.961,9.964,9.964-9.964-9.964-9.962Z" transform="translate(-2255.332 -841.024)"/>
    </g>
    <g id="Group_904" data-name="Group 904" transform="translate(40.43 3652.98)">
      <path id="Path_1011" data-name="Path 1011" class="cls-2" d="M2165.884,942.258a1.668,1.668,0,0,1-1.078-.392l-11.758-9.8a1.683,1.683,0,0,1,2.154-2.586l10.682,8.906,10.692-8.906a1.685,1.685,0,0,1,2.154,0l10.682,8.906,10.7-8.906a1.684,1.684,0,0,1,2.153,0l10.688,8.906,10.7-8.906a1.681,1.681,0,0,1,2.149,2.586l-11.775,9.8a1.691,1.691,0,0,1-2.158,0l-10.683-8.906-10.7,8.906a1.686,1.686,0,0,1-2.154,0l-10.682-8.9-10.7,8.9A1.648,1.648,0,0,1,2165.884,942.258Z" transform="translate(-2152.442 -929.086)"/>
    </g>
    <g id="Group_914" data-name="Group 914" transform="translate(-13.57 3074.98)">
      <path id="Path_1011-2" data-name="Path 1011" class="cls-2" d="M2165.884,942.258a1.668,1.668,0,0,1-1.078-.392l-11.758-9.8a1.683,1.683,0,0,1,2.154-2.586l10.682,8.906,10.692-8.906a1.685,1.685,0,0,1,2.154,0l10.682,8.906,10.7-8.906a1.684,1.684,0,0,1,2.153,0l10.688,8.906,10.7-8.906a1.681,1.681,0,0,1,2.149,2.586l-11.775,9.8a1.691,1.691,0,0,1-2.158,0l-10.683-8.906-10.7,8.906a1.686,1.686,0,0,1-2.154,0l-10.682-8.9-10.7,8.9A1.648,1.648,0,0,1,2165.884,942.258Z" transform="translate(-2152.442 -929.086)"/>
    </g>
    <g id="Group_907" data-name="Group 907" transform="translate(1761.896 3033.98)">
      <path id="Path_1011-3" data-name="Path 1011" class="cls-2" d="M2162.71,939.148a1.274,1.274,0,0,1-.823-.3l-8.982-7.487a1.285,1.285,0,0,1,1.645-1.975l8.16,6.8,8.167-6.8a1.287,1.287,0,0,1,1.645,0l8.16,6.8,8.172-6.8a1.286,1.286,0,0,1,1.645,0l8.164,6.8,8.175-6.8a1.284,1.284,0,0,1,1.642,1.975l-8.995,7.487a1.292,1.292,0,0,1-1.648,0l-8.16-6.8-8.171,6.8a1.287,1.287,0,0,1-1.645,0l-8.16-6.8-8.172,6.8A1.258,1.258,0,0,1,2162.71,939.148Z" transform="translate(-2152.442 -929.086)"/>
    </g>
    <g id="Group_915" data-name="Group 915" transform="translate(1878.896 3276.98)">
      <path id="Path_1011-4" data-name="Path 1011" class="cls-2" d="M2162.71,929.086a1.274,1.274,0,0,0-.823.3l-8.982,7.487a1.285,1.285,0,0,0,1.645,1.975l8.16-6.8,8.167,6.8a1.287,1.287,0,0,0,1.645,0l8.16-6.8,8.172,6.8a1.287,1.287,0,0,0,1.645,0l8.164-6.8,8.175,6.8a1.284,1.284,0,0,0,1.642-1.975l-8.995-7.487a1.292,1.292,0,0,0-1.648,0l-8.16,6.8-8.171-6.8a1.287,1.287,0,0,0-1.645,0l-8.16,6.8-8.172-6.8A1.258,1.258,0,0,0,2162.71,929.086Z" transform="translate(-2152.442 -929.086)"/>
    </g>
    <g id="Group_909" data-name="Group 909" transform="translate(47.43 2352.98)">
      <path id="Path_1011-5" data-name="Path 1011" class="cls-2" d="M2164.649,929.086a1.54,1.54,0,0,0-.979.347l-10.679,8.659a1.46,1.46,0,0,0-.2,2.094,1.558,1.558,0,0,0,2.152.191l9.7-7.868,9.71,7.868a1.564,1.564,0,0,0,1.956,0l9.7-7.868,9.716,7.868a1.562,1.562,0,0,0,1.955,0l9.707-7.868,9.719,7.868a1.549,1.549,0,0,0,2.148-.191,1.452,1.452,0,0,0-.2-2.094l-10.694-8.659a1.569,1.569,0,0,0-1.96,0l-9.7,7.867-9.715-7.867a1.564,1.564,0,0,0-1.956,0l-9.7,7.863-9.715-7.863A1.522,1.522,0,0,0,2164.649,929.086Z" transform="translate(-2152.442 -929.086)"/>
    </g>
    <g id="Group_910" data-name="Group 910" transform="translate(1787.815 3612.563)">
      <path id="Path_1011-6" data-name="Path 1011" class="cls-2" d="M2165.312,929.087a1.6,1.6,0,0,0-1.032.376l-11.259,9.386a1.611,1.611,0,0,0,2.062,2.476l10.229-8.528,10.238,8.528a1.614,1.614,0,0,0,2.063,0l10.229-8.528,10.243,8.528a1.613,1.613,0,0,0,2.062,0l10.234-8.528,10.248,8.528a1.61,1.61,0,0,0,2.058-2.476l-11.276-9.386a1.62,1.62,0,0,0-2.067,0l-10.229,8.528-10.243-8.528a1.615,1.615,0,0,0-2.062,0l-10.229,8.523-10.243-8.523A1.579,1.579,0,0,0,2165.312,929.087Z" transform="translate(-2152.441 -929.087)"/>
    </g>
  </g>
</svg>
