<?xml version="1.0" encoding="utf-8"?>
<!-- Generator: Adobe Illustrator 23.0.4, SVG Export Plug-In . SVG Version: 6.00 Build 0)  -->
<svg version="1.1" id="Layer_1" xmlns="http://www.w3.org/2000/svg" xmlns:xlink="http://www.w3.org/1999/xlink" x="0px" y="0px"
	 viewBox="0 0 482 288" style="enable-background:new 0 0 482 288;" xml:space="preserve">
<style type="text/css">
	.st0{opacity:6.000000e-02;fill:#4775D0;enable-background:new    ;}
	.st1{opacity:0.19;}
	.st2{fill:#4472CD;}
</style>
<g id="Group_614_1_">
	<g transform="translate(-.005)">
		<circle id="Ellipse_19-2_1_" class="st0" cx="481.6" cy="26.4" r="15.6"/>
	</g>
	<g transform="translate(-.005)">
		<circle id="Ellipse_18-2_1_" class="st0" cx="481.6" cy="26.4" r="9.4"/>
	</g>
</g>
<g id="Group_614_2_">
	<g transform="translate(-.005)">
		<circle id="Ellipse_19-2_2_" class="st0" cx="212.8" cy="268.5" r="15.6"/>
	</g>
	<g transform="translate(-.005)">
		<circle id="Ellipse_18-2_2_" class="st0" cx="212.8" cy="268.5" r="9.4"/>
	</g>
</g>
<g id="Group_536" transform="rotate(-40 204.823 92.408)" class="st1">
	<g id="Group_530">
		<path id="Path_789" class="st2" d="M-37.9,70.7c0.1,0.6-0.3,1.2-1,1.3c-0.6,0.1-1.2-0.3-1.3-1c-0.1-0.6,0.3-1.2,1-1.3
			C-38.6,69.6-38,70-37.9,70.7C-37.9,70.6-37.9,70.7-37.9,70.7z"/>
		<path id="Path_790" class="st2" d="M-26.7,69.7c0.1,0.6-0.3,1.2-1,1.3c-0.6,0.1-1.2-0.3-1.3-1c-0.1-0.6,0.3-1.2,1-1.3
			C-27.4,68.7-26.8,69.1-26.7,69.7C-26.7,69.7-26.7,69.7-26.7,69.7z"/>
		<path id="Path_791" class="st2" d="M-15.6,68.8c0.1,0.6-0.3,1.2-1,1.3c-0.6,0.1-1.2-0.3-1.3-1c-0.1-0.6,0.3-1.2,1-1.3
			C-16.2,67.7-15.7,68.2-15.6,68.8C-15.6,68.8-15.6,68.8-15.6,68.8z"/>
		<path id="Path_792" class="st2" d="M-4.4,67.9c0.1,0.6-0.3,1.2-1,1.3c-0.6,0.1-1.2-0.3-1.3-1c-0.1-0.6,0.3-1.2,1-1.3
			C-5.1,66.8-4.5,67.2-4.4,67.9C-4.4,67.9-4.4,67.9-4.4,67.9z"/>
		<path id="Path_793" class="st2" d="M6.8,66.9c0.1,0.6-0.3,1.2-1,1.3c-0.6,0.1-1.2-0.3-1.3-1c-0.1-0.6,0.3-1.2,1-1.3
			C6.1,65.9,6.7,66.3,6.8,66.9C6.8,66.9,6.8,66.9,6.8,66.9z"/>
		<path id="Path_794" class="st2" d="M18,66c0.1,0.6-0.3,1.2-1,1.3c-0.6,0.1-1.2-0.3-1.3-1c-0.1-0.6,0.3-1.2,1-1.3
			C17.3,64.9,17.9,65.4,18,66C18,66,18,66,18,66z"/>
	</g>
	<g id="Group_531" transform="translate(3.793 42.633)">
		<path id="Path_795" class="st2" d="M-40.8,38.5c0.1,0.6-0.3,1.2-1,1.3c-0.6,0.1-1.2-0.3-1.3-1c-0.1-0.6,0.3-1.2,1-1.3
			C-41.4,37.4-40.9,37.8-40.8,38.5C-40.8,38.5-40.8,38.5-40.8,38.5z"/>
		<path id="Path_796" class="st2" d="M-29.6,37.5c0.1,0.6-0.3,1.2-1,1.3c-0.6,0.1-1.2-0.3-1.3-1c-0.1-0.6,0.3-1.2,1-1.3
			C-30.3,36.5-29.7,36.9-29.6,37.5C-29.6,37.5-29.6,37.5-29.6,37.5z"/>
		<path id="Path_797" class="st2" d="M-18.4,36.6c0.1,0.6-0.3,1.2-1,1.3c-0.6,0.1-1.2-0.3-1.3-1c-0.1-0.6,0.3-1.2,1-1.3
			C-19.1,35.5-18.5,36-18.4,36.6C-18.4,36.6-18.4,36.6-18.4,36.6z"/>
		<path id="Path_798" class="st2" d="M-7.2,35.7c0.1,0.6-0.3,1.2-1,1.3c-0.6,0.1-1.2-0.3-1.3-1c-0.1-0.6,0.3-1.2,1-1.3
			C-7.9,34.6-7.3,35-7.2,35.7C-7.2,35.7-7.2,35.7-7.2,35.7z"/>
		<path id="Path_799" class="st2" d="M3.9,34.7C4,35.4,3.6,36,3,36.1c-0.6,0.1-1.2-0.3-1.3-1c-0.1-0.6,0.3-1.2,1-1.3
			C3.2,33.7,3.8,34.1,3.9,34.7C3.9,34.7,3.9,34.7,3.9,34.7z"/>
		<path id="Path_800" class="st2" d="M15.1,33.8c0.1,0.6-0.3,1.2-1,1.3c-0.6,0.1-1.2-0.3-1.3-1c-0.1-0.6,0.3-1.2,1-1.3
			C14.4,32.8,15,33.2,15.1,33.8C15.1,33.8,15.1,33.8,15.1,33.8z"/>
	</g>
	<g id="Group_532" transform="translate(7.587 85.266)">
		<path id="Path_801" class="st2" d="M-43.6,6.3c0.1,0.6-0.3,1.2-1,1.3c-0.6,0.1-1.2-0.3-1.3-1c-0.1-0.6,0.3-1.2,1-1.3
			C-44.3,5.2-43.7,5.6-43.6,6.3C-43.6,6.3-43.6,6.3-43.6,6.3z"/>
		<path id="Path_802" class="st2" d="M-32.5,5.3c0.1,0.6-0.3,1.2-1,1.3c-0.6,0.1-1.2-0.3-1.3-1c-0.1-0.6,0.3-1.2,1-1.3
			C-33.1,4.3-32.6,4.7-32.5,5.3C-32.5,5.3-32.5,5.3-32.5,5.3z"/>
		<path id="Path_803" class="st2" d="M-21.3,4.4c0.1,0.6-0.3,1.2-1,1.3c-0.6,0.1-1.2-0.3-1.3-1c-0.1-0.6,0.3-1.2,1-1.3
			C-22,3.4-21.4,3.8-21.3,4.4C-21.3,4.4-21.3,4.4-21.3,4.4z"/>
		<path id="Path_804" class="st2" d="M-10.1,3.5c0.1,0.6-0.3,1.2-1,1.3c-0.6,0.1-1.2-0.3-1.3-1c-0.1-0.6,0.3-1.2,1-1.3
			C-10.8,2.4-10.2,2.9-10.1,3.5C-10.1,3.5-10.1,3.5-10.1,3.5z"/>
		<path id="Path_805" class="st2" d="M1.1,2.6c0.1,0.6-0.3,1.2-1,1.3c-0.6,0.1-1.2-0.3-1.3-1c-0.1-0.6,0.3-1.2,1-1.3
			C0.4,1.5,1,1.9,1.1,2.6C1.1,2.6,1.1,2.6,1.1,2.6z"/>
		<path id="Path_806" class="st2" d="M12.2,1.6c0.1,0.6-0.3,1.2-1,1.3C10.6,3,10.1,2.6,10,2c-0.1-0.6,0.3-1.2,1-1.3
			C11.5,0.6,12.1,1,12.2,1.6C12.2,1.6,12.2,1.6,12.2,1.6z"/>
	</g>
	<g id="Group_533" transform="translate(11.381 127.9)">
		<path id="Path_807" class="st2" d="M-46.5-25.9c0.1,0.6-0.3,1.2-1,1.3s-1.2-0.3-1.3-1c-0.1-0.6,0.3-1.2,1-1.3
			C-47.2-27-46.6-26.5-46.5-25.9C-46.5-25.9-46.5-25.9-46.5-25.9z"/>
		<path id="Path_808" class="st2" d="M-35.3-26.8c0.1,0.6-0.3,1.2-1,1.3c-0.6,0.1-1.2-0.3-1.3-1c-0.1-0.6,0.3-1.2,1-1.3
			C-36-27.9-35.4-27.5-35.3-26.8C-35.3-26.8-35.3-26.8-35.3-26.8z"/>
		<path id="Path_809" class="st2" d="M-24.1-27.8c0.1,0.6-0.3,1.2-1,1.3c-0.6,0.1-1.2-0.3-1.3-1c-0.1-0.6,0.3-1.2,1-1.3
			C-24.8-28.8-24.2-28.4-24.1-27.8C-24.1-27.8-24.1-27.8-24.1-27.8z"/>
		<path id="Path_810" class="st2" d="M-13-28.7c0.1,0.6-0.3,1.2-1,1.3c-0.6,0.1-1.2-0.3-1.3-1c-0.1-0.6,0.3-1.2,1-1.3
			C-13.7-29.8-13.1-29.3-13-28.7C-13-28.7-13-28.7-13-28.7z"/>
		<path id="Path_811" class="st2" d="M-1.8-29.6c0.1,0.6-0.3,1.2-1,1.3s-1.2-0.3-1.3-1c-0.1-0.6,0.3-1.2,1-1.3
			C-2.5-30.7-1.9-30.3-1.8-29.6C-1.8-29.6-1.8-29.6-1.8-29.6z"/>
		<path id="Path_812" class="st2" d="M9.4-30.6c0.1,0.6-0.3,1.2-1,1.3c-0.6,0.1-1.2-0.3-1.3-1c-0.1-0.6,0.3-1.2,1-1.3
			C8.7-31.6,9.3-31.2,9.4-30.6C9.4-30.6,9.4-30.6,9.4-30.6z"/>
	</g>
	<g id="Group_534" transform="translate(15.174 170.533)">
		<path id="Path_813" class="st2" d="M-49.4-58.1c0.1,0.6-0.3,1.2-1,1.3c-0.6,0.1-1.2-0.3-1.3-1c-0.1-0.6,0.3-1.2,1-1.3
			C-50-59.2-49.5-58.7-49.4-58.1C-49.4-58.1-49.4-58.1-49.4-58.1z"/>
		<path id="Path_814" class="st2" d="M-38.2-59c0.1,0.6-0.3,1.2-1,1.3c-0.6,0.1-1.2-0.3-1.3-1c-0.1-0.6,0.3-1.2,1-1.3
			C-38.9-60.1-38.3-59.7-38.2-59C-38.2-59-38.2-59-38.2-59z"/>
		<path id="Path_815" class="st2" d="M-27-60c0.1,0.6-0.3,1.2-1,1.3c-0.6,0.1-1.2-0.3-1.3-1c-0.1-0.6,0.3-1.2,1-1.3
			C-27.7-61-27.1-60.6-27-60C-27-60-27-60-27-60z"/>
		<path id="Path_816" class="st2" d="M-15.8-60.9c0.1,0.6-0.3,1.2-1,1.3c-0.6,0.1-1.2-0.3-1.3-1c-0.1-0.6,0.3-1.2,1-1.3
			C-16.5-61.9-15.9-61.5-15.8-60.9C-15.8-60.9-15.8-60.9-15.8-60.9z"/>
		<path id="Path_817" class="st2" d="M-4.7-61.8c0.1,0.6-0.3,1.2-1,1.3c-0.6,0.1-1.2-0.3-1.3-1c-0.1-0.6,0.3-1.2,1-1.3
			C-5.4-62.9-4.8-62.4-4.7-61.8C-4.7-61.8-4.7-61.8-4.7-61.8z"/>
		<path id="Path_818" class="st2" d="M6.5-62.7c0.1,0.6-0.3,1.2-1,1.3c-0.6,0.1-1.2-0.3-1.3-1c-0.1-0.6,0.3-1.2,1-1.3
			C5.8-63.8,6.4-63.4,6.5-62.7C6.5-62.7,6.5-62.7,6.5-62.7z"/>
	</g>
	<g id="Group_535" transform="translate(18.968 213.167)">
		<path id="Path_819" class="st2" d="M-52.2-90.3c0.1,0.6-0.3,1.2-1,1.3c-0.6,0.1-1.2-0.3-1.3-1c-0.1-0.6,0.3-1.2,1-1.3
			C-52.9-91.3-52.3-90.9-52.2-90.3C-52.2-90.3-52.2-90.3-52.2-90.3z"/>
		<path id="Path_820" class="st2" d="M-41-91.2c0.1,0.6-0.3,1.2-1,1.3c-0.6,0.1-1.2-0.3-1.3-1c-0.1-0.6,0.3-1.2,1-1.3
			C-41.7-92.3-41.1-91.8-41-91.2C-41-91.2-41-91.2-41-91.2z"/>
		<path id="Path_821" class="st2" d="M-29.9-92.1c0.1,0.6-0.3,1.2-1,1.3c-0.6,0.1-1.2-0.3-1.3-1c-0.1-0.6,0.3-1.2,1-1.3
			C-30.6-93.2-30-92.8-29.9-92.1C-29.9-92.1-29.9-92.1-29.9-92.1z"/>
		<path id="Path_822" class="st2" d="M-18.7-93.1c0.1,0.6-0.3,1.2-1,1.3c-0.6,0.1-1.2-0.3-1.3-1c-0.1-0.6,0.3-1.2,1-1.3
			C-19.4-94.1-18.8-93.7-18.7-93.1C-18.7-93.1-18.7-93.1-18.7-93.1z"/>
		<path id="Path_823" class="st2" d="M-7.5-94c0.1,0.6-0.3,1.2-1,1.3c-0.6,0.1-1.2-0.3-1.3-1c-0.1-0.6,0.3-1.2,1-1.3
			C-8.2-95.1-7.6-94.6-7.5-94C-7.5-94-7.5-94-7.5-94z"/>
		<path id="Path_824" class="st2" d="M3.6-94.9c0.1,0.6-0.3,1.2-1,1.3c-0.6,0.1-1.2-0.3-1.3-1c-0.1-0.6,0.3-1.2,1-1.3
			C2.9-96,3.5-95.6,3.6-94.9C3.6-94.9,3.6-94.9,3.6-94.9z"/>
	</g>
</g>
<g id="Group_536_1_" transform="rotate(-40 204.823 92.408)" class="st1">
	<g id="Group_530_1_">
		<path id="Path_789_1_" class="st2" d="M315.9,171.6c0.1,0.6-0.3,1.2-1,1.3c-0.6,0.1-1.2-0.3-1.3-1c-0.1-0.6,0.3-1.2,1-1.3
			C315.2,170.6,315.8,171,315.9,171.6C315.9,171.6,315.9,171.6,315.9,171.6z"/>
		<path id="Path_790_1_" class="st2" d="M327,170.7c0.1,0.6-0.3,1.2-1,1.3c-0.6,0.1-1.2-0.3-1.3-1c-0.1-0.6,0.3-1.2,1-1.3
			C326.4,169.7,326.9,170.1,327,170.7C327,170.7,327,170.7,327,170.7z"/>
		<path id="Path_791_1_" class="st2" d="M338.2,169.8c0.1,0.6-0.3,1.2-1,1.3c-0.6,0.1-1.2-0.3-1.3-1c-0.1-0.6,0.3-1.2,1-1.3
			C337.5,168.7,338.1,169.2,338.2,169.8C338.2,169.8,338.2,169.8,338.2,169.8z"/>
		<path id="Path_792_1_" class="st2" d="M349.4,168.9c0.1,0.6-0.3,1.2-1,1.3c-0.6,0.1-1.2-0.3-1.3-1c-0.1-0.6,0.3-1.2,1-1.3
			C348.7,167.8,349.3,168.2,349.4,168.9C349.4,168.9,349.4,168.9,349.4,168.9z"/>
		<path id="Path_793_1_" class="st2" d="M360.6,167.9c0.1,0.6-0.3,1.2-1,1.3c-0.6,0.1-1.2-0.3-1.3-1c-0.1-0.6,0.3-1.2,1-1.3
			C359.9,166.9,360.5,167.3,360.6,167.9C360.6,167.9,360.6,167.9,360.6,167.9z"/>
		<path id="Path_794_1_" class="st2" d="M371.7,167c0.1,0.6-0.3,1.2-1,1.3c-0.6,0.1-1.2-0.3-1.3-1c-0.1-0.6,0.3-1.2,1-1.3
			C371,165.9,371.6,166.4,371.7,167C371.7,167,371.7,167,371.7,167z"/>
	</g>
	<g id="Group_531_1_" transform="translate(3.793 42.633)">
		<path id="Path_795_1_" class="st2" d="M313,139.5c0.1,0.6-0.3,1.2-1,1.3c-0.6,0.1-1.2-0.3-1.3-1c-0.1-0.6,0.3-1.2,1-1.3
			C312.3,138.4,312.9,138.8,313,139.5C313,139.5,313,139.5,313,139.5z"/>
		<path id="Path_796_1_" class="st2" d="M324.2,138.5c0.1,0.6-0.3,1.2-1,1.3c-0.6,0.1-1.2-0.3-1.3-1c-0.1-0.6,0.3-1.2,1-1.3
			C323.5,137.5,324.1,137.9,324.2,138.5C324.2,138.5,324.2,138.5,324.2,138.5z"/>
		<path id="Path_797_1_" class="st2" d="M335.4,137.6c0.1,0.6-0.3,1.2-1,1.3c-0.6,0.1-1.2-0.3-1.3-1c-0.1-0.6,0.3-1.2,1-1.3
			C334.7,136.5,335.3,137,335.4,137.6C335.4,137.6,335.4,137.6,335.4,137.6z"/>
		<path id="Path_798_1_" class="st2" d="M346.5,136.7c0.1,0.6-0.3,1.2-1,1.3c-0.6,0.1-1.2-0.3-1.3-1c-0.1-0.6,0.3-1.2,1-1.3
			C345.8,135.6,346.4,136,346.5,136.7C346.5,136.7,346.5,136.7,346.5,136.7z"/>
		<path id="Path_799_1_" class="st2" d="M357.7,135.7c0.1,0.6-0.3,1.2-1,1.3c-0.6,0.1-1.2-0.3-1.3-1c-0.1-0.6,0.3-1.2,1-1.3
			C357,134.7,357.6,135.1,357.7,135.7C357.7,135.7,357.7,135.7,357.7,135.7z"/>
		<path id="Path_800_1_" class="st2" d="M368.9,134.8c0.1,0.6-0.3,1.2-1,1.3c-0.6,0.1-1.2-0.3-1.3-1c-0.1-0.6,0.3-1.2,1-1.3
			C368.2,133.8,368.8,134.2,368.9,134.8C368.9,134.8,368.9,134.8,368.9,134.8z"/>
	</g>
	<g id="Group_532_1_" transform="translate(7.587 85.266)">
		<path id="Path_801_1_" class="st2" d="M310.1,107.3c0.1,0.6-0.3,1.2-1,1.3c-0.6,0.1-1.2-0.3-1.3-1c-0.1-0.6,0.3-1.2,1-1.3
			C309.5,106.2,310,106.6,310.1,107.3C310.1,107.3,310.1,107.3,310.1,107.3z"/>
		<path id="Path_802_1_" class="st2" d="M321.3,106.3c0.1,0.6-0.3,1.2-1,1.3c-0.6,0.1-1.2-0.3-1.3-1c-0.1-0.6,0.3-1.2,1-1.3
			C320.6,105.3,321.2,105.7,321.3,106.3C321.3,106.3,321.3,106.3,321.3,106.3z"/>
		<path id="Path_803_1_" class="st2" d="M332.5,105.4c0.1,0.6-0.3,1.2-1,1.3c-0.6,0.1-1.2-0.3-1.3-1c-0.1-0.6,0.3-1.2,1-1.3
			C331.8,104.4,332.4,104.8,332.5,105.4C332.5,105.4,332.5,105.4,332.5,105.4z"/>
		<path id="Path_804_1_" class="st2" d="M343.7,104.5c0.1,0.6-0.3,1.2-1,1.3c-0.6,0.1-1.2-0.3-1.3-1c-0.1-0.6,0.3-1.2,1-1.3
			C343,103.4,343.6,103.9,343.7,104.5C343.7,104.5,343.7,104.5,343.7,104.5z"/>
		<path id="Path_805_1_" class="st2" d="M354.8,103.6c0.1,0.6-0.3,1.2-1,1.3c-0.6,0.1-1.2-0.3-1.3-1c-0.1-0.6,0.3-1.2,1-1.3
			C354.1,102.5,354.7,102.9,354.8,103.6C354.8,103.6,354.8,103.6,354.8,103.6z"/>
		<path id="Path_806_1_" class="st2" d="M366,102.6c0.1,0.6-0.3,1.2-1,1.3c-0.6,0.1-1.2-0.3-1.3-1c-0.1-0.6,0.3-1.2,1-1.3
			C365.3,101.6,365.9,102,366,102.6C366,102.6,366,102.6,366,102.6z"/>
	</g>
	<g id="Group_533_1_" transform="translate(11.381 127.9)">
		<path id="Path_807_1_" class="st2" d="M307.3,75.1c0.1,0.6-0.3,1.2-1,1.3c-0.6,0.1-1.2-0.3-1.3-1c-0.1-0.6,0.3-1.2,1-1.3
			C306.6,74,307.2,74.5,307.3,75.1C307.3,75.1,307.3,75.1,307.3,75.1z"/>
		<path id="Path_808_1_" class="st2" d="M318.5,74.2c0.1,0.6-0.3,1.2-1,1.3c-0.6,0.1-1.2-0.3-1.3-1c-0.1-0.6,0.3-1.2,1-1.3
			C317.8,73.1,318.4,73.5,318.5,74.2C318.5,74.2,318.5,74.2,318.5,74.2z"/>
		<path id="Path_809_1_" class="st2" d="M329.6,73.2c0.1,0.6-0.3,1.2-1,1.3c-0.6,0.1-1.2-0.3-1.3-1c-0.1-0.6,0.3-1.2,1-1.3
			C328.9,72.2,329.5,72.6,329.6,73.2C329.6,73.2,329.6,73.2,329.6,73.2z"/>
		<path id="Path_810_1_" class="st2" d="M340.8,72.3c0.1,0.6-0.3,1.2-1,1.3c-0.6,0.1-1.2-0.3-1.3-1c-0.1-0.6,0.3-1.2,1-1.3
			C340.1,71.2,340.7,71.7,340.8,72.3C340.8,72.3,340.8,72.3,340.8,72.3z"/>
		<path id="Path_811_1_" class="st2" d="M352,71.4c0.1,0.6-0.3,1.2-1,1.3c-0.6,0.1-1.2-0.3-1.3-1c-0.1-0.6,0.3-1.2,1-1.3
			C351.3,70.3,351.9,70.7,352,71.4C352,71.4,352,71.4,352,71.4z"/>
		<path id="Path_812_1_" class="st2" d="M363.1,70.4c0.1,0.6-0.3,1.2-1,1.3c-0.6,0.1-1.2-0.3-1.3-1c-0.1-0.6,0.3-1.2,1-1.3
			C362.4,69.4,363,69.8,363.1,70.4C363.1,70.4,363.1,70.4,363.1,70.4z"/>
	</g>
	<g id="Group_534_1_" transform="translate(15.174 170.533)">
		<path id="Path_813_1_" class="st2" d="M304.4,42.9c0.1,0.6-0.3,1.2-1,1.3c-0.6,0.1-1.2-0.3-1.3-1c-0.1-0.6,0.3-1.2,1-1.3
			C303.7,41.8,304.3,42.3,304.4,42.9C304.4,42.9,304.4,42.9,304.4,42.9z"/>
		<path id="Path_814_1_" class="st2" d="M315.6,42c0.1,0.6-0.3,1.2-1,1.3c-0.6,0.1-1.2-0.3-1.3-1c-0.1-0.6,0.3-1.2,1-1.3
			C314.9,40.9,315.5,41.3,315.6,42C315.6,42,315.6,42,315.6,42z"/>
		<path id="Path_815_1_" class="st2" d="M326.8,41c0.1,0.6-0.3,1.2-1,1.3c-0.6,0.1-1.2-0.3-1.3-1c-0.1-0.6,0.3-1.2,1-1.3
			C326.1,40,326.7,40.4,326.8,41C326.8,41,326.8,41,326.8,41z"/>
		<path id="Path_816_1_" class="st2" d="M337.9,40.1c0.1,0.6-0.3,1.2-1,1.3c-0.6,0.1-1.2-0.3-1.3-1c-0.1-0.6,0.3-1.2,1-1.3
			C337.2,39.1,337.8,39.5,337.9,40.1C337.9,40.1,337.9,40.1,337.9,40.1z"/>
		<path id="Path_817_1_" class="st2" d="M349.1,39.2c0.1,0.6-0.3,1.2-1,1.3c-0.6,0.1-1.2-0.3-1.3-1c-0.1-0.6,0.3-1.2,1-1.3
			C348.4,38.1,349,38.5,349.1,39.2C349.1,39.2,349.1,39.2,349.1,39.2z"/>
		<path id="Path_818_1_" class="st2" d="M360.3,38.2c0.1,0.6-0.3,1.2-1,1.3c-0.6,0.1-1.2-0.3-1.3-1c-0.1-0.6,0.3-1.2,1-1.3
			C359.6,37.2,360.2,37.6,360.3,38.2C360.3,38.2,360.3,38.2,360.3,38.2z"/>
	</g>
	<g id="Group_535_1_" transform="translate(18.968 213.167)">
		<path id="Path_819_1_" class="st2" d="M301.6,10.7c0.1,0.6-0.3,1.2-1,1.3c-0.6,0.1-1.2-0.3-1.3-1c-0.1-0.6,0.3-1.2,1-1.3
			C300.9,9.7,301.5,10.1,301.6,10.7C301.6,10.7,301.6,10.7,301.6,10.7z"/>
		<path id="Path_820_1_" class="st2" d="M312.7,9.8c0.1,0.6-0.3,1.2-1,1.3c-0.6,0.1-1.2-0.3-1.3-1c-0.1-0.6,0.3-1.2,1-1.3
			C312,8.7,312.6,9.2,312.7,9.8C312.7,9.8,312.7,9.8,312.7,9.8z"/>
		<path id="Path_821_1_" class="st2" d="M323.9,8.9c0.1,0.6-0.3,1.2-1,1.3c-0.6,0.1-1.2-0.3-1.3-1c-0.1-0.6,0.3-1.2,1-1.3
			C323.2,7.8,323.8,8.2,323.9,8.9C323.9,8.9,323.9,8.9,323.9,8.9z"/>
		<path id="Path_822_1_" class="st2" d="M335.1,7.9c0.1,0.6-0.3,1.2-1,1.3c-0.6,0.1-1.2-0.3-1.3-1c-0.1-0.6,0.3-1.2,1-1.3
			C334.4,6.9,335,7.3,335.1,7.9C335.1,7.9,335.1,7.9,335.1,7.9z"/>
		<path id="Path_823_1_" class="st2" d="M346.2,7c0.1,0.6-0.3,1.2-1,1.3c-0.6,0.1-1.2-0.3-1.3-1c-0.1-0.6,0.3-1.2,1-1.3
			C345.5,5.9,346.1,6.4,346.2,7C346.2,7,346.2,7,346.2,7z"/>
		<path id="Path_824_1_" class="st2" d="M357.4,6.1c0.1,0.6-0.3,1.2-1,1.3c-0.6,0.1-1.2-0.3-1.3-1c-0.1-0.6,0.3-1.2,1-1.3
			C356.7,5,357.3,5.4,357.4,6.1C357.4,6.1,357.4,6.1,357.4,6.1z"/>
	</g>
</g>
</svg>
