<svg xmlns="http://www.w3.org/2000/svg" width="64.981" height="48.736" viewBox="0 0 64.981 48.736">
    <defs>
        <style>
            .cls-1{fill:#3c7cf0}
        </style>
    </defs>
    <g id="give" transform="translate(0 -64)">
        <g id="Group_786" data-name="Group 786" transform="translate(0 64)">
            <g id="Group_785" data-name="Group 785">
                <path id="Path_880" d="M56.859 225.52c-2.643 0-8.123 1.472-10.9 2.27-.369-3.885-5.346-5.26-10.49-6.3a23.2 23.2 0 0 1-5.785-2.134 14.643 14.643 0 0 0-6.668-1.954 28.294 28.294 0 0 0-7.271 1.037 4.052 4.052 0 0 0-3.1-2.867l-11.026-2.2A1.352 1.352 0 0 0 0 214.689v21.661a1.353 1.353 0 0 0 1.354 1.35h8.482a4.038 4.038 0 0 0 3.709-2.556c3.034 1.446 17.052 7.971 23.007 7.971 5.251 0 16.063-5.315 23.215-8.831 1.864-.916 3.406-1.675 4.405-2.113a1.356 1.356 0 0 0 .809-1.24c0-3.185-3.339-5.411-8.122-5.411zm-43.67-5.779l-2.012 14.093A1.362 1.362 0 0 1 9.836 235H2.708v-18.66l9.408 1.881a1.353 1.353 0 0 1 1.073 1.52zm45.383 12.117c-6.507 3.2-17.4 8.554-22.02 8.554-4.923 0-17.856-5.765-22.422-7.986h-.016l1.593-11.157a26.023 26.023 0 0 1 7.307-1.16c2 0 3.54.744 5.494 1.686a25.844 25.844 0 0 0 6.42 2.349c5.883 1.193 8.392 2.415 8.392 4.088a.8.8 0 0 1-.357.726c-.859.644-4.223 1.725-16.856-2.024a1.354 1.354 0 0 0-.772 2.6c6.237 1.848 11 2.77 14.384 2.77a8.128 8.128 0 0 0 4.863-1.173c.09-.067.156-.149.237-.221a1.3 1.3 0 0 0 .254-.026c2.393-.736 9.175-2.648 11.785-2.648 2.208 0 4.532.67 5.214 1.93-.943.434-2.136 1.022-3.5 1.691z" class="cls-1" data-name="Path 880" transform="translate(0 -194.383)"/>
                <path id="Path_881" d="M247.253 87.975a1.35 1.35 0 0 0 1.9 0l10.206-10.11A8.113 8.113 0 0 0 248.2 66.091 8.007 8.007 0 0 0 242.79 64a8.121 8.121 0 0 0-5.738 13.87zm-4.463-21.267a5.36 5.36 0 0 1 4.328 2.2 1.406 1.406 0 0 0 2.173 0 5.36 5.36 0 0 1 4.328-2.2 5.416 5.416 0 0 1 3.834 9.24l-9.253 9.161-9.244-9.158a5.415 5.415 0 0 1 3.829-9.244z" class="cls-1" data-name="Path 881" transform="translate(-204.884 -64)"/>
            </g>
        </g>
    </g>
</svg>
