<?xml version="1.0" encoding="utf-8"?>
<!-- Generator: Adobe Illustrator 23.0.4, SVG Export Plug-In . SVG Version: 6.00 Build 0)  -->
<svg version="1.1" id="Layer_1" xmlns="http://www.w3.org/2000/svg" xmlns:xlink="http://www.w3.org/1999/xlink" x="0px" y="0px"
	 viewBox="0 0 448.5 385.9" style="enable-background:new 0 0 448.5 385.9;" xml:space="preserve">
<style type="text/css">
	.st0{opacity:0.32;}
	.st1{fill:url(#Path_848_1_);}
	.st2{fill:url(#Path_849_1_);}
	.st3{fill:url(#Path_850_1_);}
	.st4{fill:url(#Path_851_1_);}
	.st5{fill:url(#Path_852_1_);}
</style>
<g id="Group_804" transform="translate(-7054.664 -3170.018)" class="st0">
	
		<linearGradient id="Path_848_1_" gradientUnits="userSpaceOnUse" x1="6973.2754" y1="3757.4734" x2="6980.6416" y2="3762.1475" gradientTransform="matrix(171.126 0 0 -171.1262 -1186249.625 646604.0625)">
		<stop  offset="0" style="stop-color:#1764B5"/>
		<stop  offset="1" style="stop-color:#AAD9FF"/>
	</linearGradient>
	<path id="Path_848" class="st1" d="M7226.3,3539.5c5.3,0,10.3-2.1,14.1-5.8l131.4-131.4c7.8-7.8,7.8-20.4,0-28.1
		c-7.8-7.8-20.4-7.8-28.1,0l0,0l-131.4,131.4c-7.8,7.8-7.8,20.4,0,28.1C7216,3537.4,7221.1,3539.5,7226.3,3539.5L7226.3,3539.5z"/>
	
		<linearGradient id="Path_849_1_" gradientUnits="userSpaceOnUse" x1="6973.5059" y1="3758.2332" x2="6977.8179" y2="3760.9702" gradientTransform="matrix(292.2505 0 0 -292.2505 -2031026.5 1101921.625)">
		<stop  offset="0" style="stop-color:#1764B5"/>
		<stop  offset="1" style="stop-color:#AAD9FF"/>
	</linearGradient>
	<path id="Path_849" class="st2" d="M7130.3,3548.7c5.1,0,9.9-2,13.5-5.6l254.1-254.1c7.4-7.4,7.4-19.5,0-27s-19.5-7.4-27,0l0,0
		l-254.1,254.1c-7.4,7.4-7.4,19.5,0,27C7120.4,3546.7,7125.3,3548.7,7130.3,3548.7L7130.3,3548.7z"/>
	
		<linearGradient id="Path_850_1_" gradientUnits="userSpaceOnUse" x1="6972.2905" y1="3757.2163" x2="6977.8237" y2="3760.7283" gradientTransform="matrix(227.7622 0 0 -227.7617 -1581251.25 859356.25)">
		<stop  offset="0" style="stop-color:#1764B5"/>
		<stop  offset="1" style="stop-color:#AAD9FF"/>
	</linearGradient>
	<path id="Path_850" class="st3" d="M7174.8,3397.8c2.1,0,4.1-0.8,5.6-2.3l211.9-211.9c3.1-3.1,3.1-8.2-0.1-11.2
		c-3.1-3.1-8.1-3.1-11.2,0l-211.9,211.9c-3.1,3.1-3.1,8.1,0,11.2C7170.6,3397,7172.7,3397.8,7174.8,3397.8L7174.8,3397.8z"/>
	
		<linearGradient id="Path_851_1_" gradientUnits="userSpaceOnUse" x1="6972.0352" y1="3756.9934" x2="6977.8745" y2="3760.6982" gradientTransform="matrix(215.8442 0 0 -215.8408 -1498018.875 814647.3125)">
		<stop  offset="0" style="stop-color:#1764B5"/>
		<stop  offset="1" style="stop-color:#AAD9FF"/>
	</linearGradient>
	<path id="Path_851" class="st4" d="M7289.3,3499.8c0.5,0,1-0.2,1.4-0.6l211.9-211.9c0.8-0.8,0.7-2,0-2.8c-0.8-0.7-2-0.7-2.8,0
		l-211.9,211.9c-0.8,0.8-0.8,2,0,2.8C7288.2,3499.6,7288.7,3499.8,7289.3,3499.8z"/>
	
		<linearGradient id="Path_852_1_" gradientUnits="userSpaceOnUse" x1="6972.9214" y1="3757.5554" x2="6978.7603" y2="3761.2605" gradientTransform="matrix(215.8633 0 0 -215.8625 -1498384.375 814785.1875)">
		<stop  offset="0" style="stop-color:#1764B5"/>
		<stop  offset="1" style="stop-color:#AAD9FF"/>
	</linearGradient>
	<path id="Path_852" class="st5" d="M7056.7,3556c0.5,0,1-0.2,1.4-0.6l211.9-211.9c0.8-0.8,0.8-2,0-2.8s-2-0.8-2.8,0l-211.9,211.9
		c-0.8,0.8-0.8,2,0,2.8C7055.6,3555.7,7056.1,3556,7056.7,3556L7056.7,3556z"/>
</g>
</svg>
