<svg xmlns="http://www.w3.org/2000/svg" width="339.066" height="338.685" viewBox="0 0 339.066 338.685">
  <g id="Group_553" data-name="Group 553" transform="matrix(0.719, 0.695, -0.695, 0.719, -743.412, -1981.553)" opacity="0.06">
    <g id="Group_536" data-name="Group 536" transform="translate(2017.102 786.995)">
      <g id="Group_530" data-name="Group 530">
        <path id="Path_789" data-name="Path 789" d="M2026.858,816.026a4.908,4.908,0,1,1-5.619-4.077A4.909,4.909,0,0,1,2026.858,816.026Z" transform="translate(-2017.102 -792.091)" fill="#db2720"/>
        <path id="Path_790" data-name="Path 790" d="M2058.2,811.047a4.908,4.908,0,1,1-5.618-4.077A4.908,4.908,0,0,1,2058.2,811.047Z" transform="translate(-2000.86 -791.072)" fill="#db2720"/>
        <path id="Path_791" data-name="Path 791" d="M2089.533,806.069a4.907,4.907,0,1,1-5.616-4.078A4.908,4.908,0,0,1,2089.533,806.069Z" transform="translate(-1984.619 -790.053)" fill="#db2720"/>
        <path id="Path_792" data-name="Path 792" d="M2120.87,801.09a4.907,4.907,0,1,1-5.618-4.077A4.908,4.908,0,0,1,2120.87,801.09Z" transform="translate(-1968.377 -789.033)" fill="#db2720"/>
        <path id="Path_793" data-name="Path 793" d="M2152.207,796.111a4.908,4.908,0,1,1-5.618-4.077A4.907,4.907,0,0,1,2152.207,796.111Z" transform="translate(-1952.136 -788.014)" fill="#db2720"/>
        <path id="Path_794" data-name="Path 794" d="M2183.545,791.133a4.908,4.908,0,1,1-5.618-4.077A4.908,4.908,0,0,1,2183.545,791.133Z" transform="translate(-1935.894 -786.995)" fill="#db2720"/>
      </g>
      <g id="Group_531" data-name="Group 531" transform="translate(3.959 44.495)">
        <path id="Path_795" data-name="Path 795" d="M2031.836,847.364a4.908,4.908,0,1,1-5.619-4.077A4.908,4.908,0,0,1,2031.836,847.364Z" transform="translate(-2022.08 -823.428)" fill="#db2720"/>
        <path id="Path_796" data-name="Path 796" d="M2063.174,842.385a4.908,4.908,0,1,1-5.618-4.077A4.908,4.908,0,0,1,2063.174,842.385Z" transform="translate(-2005.838 -822.409)" fill="#db2720"/>
        <path id="Path_797" data-name="Path 797" d="M2094.511,837.406a4.907,4.907,0,1,1-5.615-4.077A4.907,4.907,0,0,1,2094.511,837.406Z" transform="translate(-1989.597 -821.39)" fill="#db2720"/>
        <path id="Path_798" data-name="Path 798" d="M2125.849,832.428a4.907,4.907,0,1,1-5.618-4.076A4.908,4.908,0,0,1,2125.849,832.428Z" transform="translate(-1973.355 -820.37)" fill="#db2720"/>
        <path id="Path_799" data-name="Path 799" d="M2157.186,827.449a4.908,4.908,0,1,1-5.618-4.076A4.908,4.908,0,0,1,2157.186,827.449Z" transform="translate(-1957.114 -819.351)" fill="#db2720"/>
        <path id="Path_800" data-name="Path 800" d="M2188.523,822.47a4.908,4.908,0,1,1-5.618-4.077A4.908,4.908,0,0,1,2188.523,822.47Z" transform="translate(-1940.873 -818.332)" fill="#db2720"/>
      </g>
      <g id="Group_532" data-name="Group 532" transform="translate(7.918 88.989)">
        <path id="Path_801" data-name="Path 801" d="M2036.815,878.7a4.908,4.908,0,1,1-5.619-4.078A4.908,4.908,0,0,1,2036.815,878.7Z" transform="translate(-2027.059 -854.765)" fill="#db2720"/>
        <path id="Path_802" data-name="Path 802" d="M2068.153,873.722a4.908,4.908,0,1,1-5.618-4.078A4.909,4.909,0,0,1,2068.153,873.722Z" transform="translate(-2010.817 -853.745)" fill="#db2720"/>
        <path id="Path_803" data-name="Path 803" d="M2099.49,868.743a4.907,4.907,0,1,1-5.616-4.078A4.907,4.907,0,0,1,2099.49,868.743Z" transform="translate(-1994.575 -852.726)" fill="#db2720"/>
        <path id="Path_804" data-name="Path 804" d="M2130.828,863.765a4.908,4.908,0,1,1-5.619-4.078A4.909,4.909,0,0,1,2130.828,863.765Z" transform="translate(-1978.334 -851.706)" fill="#db2720"/>
        <path id="Path_805" data-name="Path 805" d="M2162.165,858.786a4.908,4.908,0,1,1-5.618-4.078A4.907,4.907,0,0,1,2162.165,858.786Z" transform="translate(-1962.093 -850.687)" fill="#db2720"/>
        <path id="Path_806" data-name="Path 806" d="M2193.5,853.807a4.908,4.908,0,1,1-5.619-4.078A4.908,4.908,0,0,1,2193.5,853.807Z" transform="translate(-1945.851 -849.668)" fill="#db2720"/>
      </g>
      <g id="Group_533" data-name="Group 533" transform="translate(11.878 133.486)">
        <path id="Path_807" data-name="Path 807" d="M2041.793,910.037a4.908,4.908,0,1,1-5.619-4.076A4.909,4.909,0,0,1,2041.793,910.037Z" transform="translate(-2032.038 -886.102)" fill="#db2720"/>
        <path id="Path_808" data-name="Path 808" d="M2073.131,905.058a4.908,4.908,0,1,1-5.618-4.077A4.909,4.909,0,0,1,2073.131,905.058Z" transform="translate(-2015.796 -885.083)" fill="#db2720"/>
        <path id="Path_809" data-name="Path 809" d="M2104.468,900.08a4.907,4.907,0,1,1-5.615-4.077A4.909,4.909,0,0,1,2104.468,900.08Z" transform="translate(-1999.555 -884.064)" fill="#db2720"/>
        <path id="Path_810" data-name="Path 810" d="M2135.806,895.1a4.907,4.907,0,1,1-5.618-4.076A4.909,4.909,0,0,1,2135.806,895.1Z" transform="translate(-1983.313 -883.044)" fill="#db2720"/>
        <path id="Path_811" data-name="Path 811" d="M2167.143,890.123a4.908,4.908,0,1,1-5.618-4.076A4.908,4.908,0,0,1,2167.143,890.123Z" transform="translate(-1967.071 -882.025)" fill="#db2720"/>
        <path id="Path_812" data-name="Path 812" d="M2198.48,885.144a4.908,4.908,0,1,1-5.618-4.077A4.908,4.908,0,0,1,2198.48,885.144Z" transform="translate(-1950.83 -881.006)" fill="#db2720"/>
      </g>
      <g id="Group_534" data-name="Group 534" transform="translate(15.837 177.98)">
        <path id="Path_813" data-name="Path 813" d="M2046.772,941.374a4.908,4.908,0,1,1-5.619-4.077A4.907,4.907,0,0,1,2046.772,941.374Z" transform="translate(-2037.016 -917.439)" fill="#db2720"/>
        <path id="Path_814" data-name="Path 814" d="M2078.11,936.4a4.908,4.908,0,1,1-5.619-4.076A4.91,4.91,0,0,1,2078.11,936.4Z" transform="translate(-2020.774 -916.42)" fill="#db2720"/>
        <path id="Path_815" data-name="Path 815" d="M2109.447,931.417a4.907,4.907,0,1,1-5.616-4.077A4.908,4.908,0,0,1,2109.447,931.417Z" transform="translate(-2004.532 -915.401)" fill="#db2720"/>
        <path id="Path_816" data-name="Path 816" d="M2140.785,926.438a4.907,4.907,0,1,1-5.618-4.077A4.908,4.908,0,0,1,2140.785,926.438Z" transform="translate(-1988.291 -914.381)" fill="#db2720"/>
        <path id="Path_817" data-name="Path 817" d="M2172.122,921.46a4.908,4.908,0,1,1-5.618-4.077A4.906,4.906,0,0,1,2172.122,921.46Z" transform="translate(-1972.05 -913.362)" fill="#db2720"/>
        <path id="Path_818" data-name="Path 818" d="M2203.459,916.481a4.908,4.908,0,1,1-5.618-4.077A4.908,4.908,0,0,1,2203.459,916.481Z" transform="translate(-1955.808 -912.343)" fill="#db2720"/>
      </g>
      <g id="Group_535" data-name="Group 535" transform="translate(19.796 222.476)">
        <path id="Path_819" data-name="Path 819" d="M2051.751,972.712a4.908,4.908,0,1,1-5.619-4.077A4.909,4.909,0,0,1,2051.751,972.712Z" transform="translate(-2041.995 -948.777)" fill="#db2720"/>
        <path id="Path_820" data-name="Path 820" d="M2083.088,967.733a4.908,4.908,0,1,1-5.618-4.077A4.908,4.908,0,0,1,2083.088,967.733Z" transform="translate(-2025.753 -947.758)" fill="#db2720"/>
        <path id="Path_821" data-name="Path 821" d="M2114.426,962.755a4.907,4.907,0,1,1-5.616-4.077A4.907,4.907,0,0,1,2114.426,962.755Z" transform="translate(-2009.512 -946.738)" fill="#db2720"/>
        <path id="Path_822" data-name="Path 822" d="M2145.763,957.776a4.907,4.907,0,1,1-5.618-4.076A4.908,4.908,0,0,1,2145.763,957.776Z" transform="translate(-1993.271 -945.719)" fill="#db2720"/>
        <path id="Path_823" data-name="Path 823" d="M2177.1,952.8a4.908,4.908,0,1,1-5.618-4.076A4.907,4.907,0,0,1,2177.1,952.8Z" transform="translate(-1977.029 -944.7)" fill="#db2720"/>
        <path id="Path_824" data-name="Path 824" d="M2208.438,947.819a4.908,4.908,0,1,1-5.618-4.076A4.909,4.909,0,0,1,2208.438,947.819Z" transform="translate(-1960.787 -943.681)" fill="#db2720"/>
      </g>
    </g>
  </g>
</svg>
