<svg xmlns="http://www.w3.org/2000/svg" width="351.313" height="350.92" viewBox="0 0 351.313 350.92">
  <g id="Group_578" data-name="Group 578" transform="matrix(0.719, 0.695, -0.695, 0.719, -737.602, -1982.068)" opacity="0.06">
    <g id="Group_536" data-name="Group 536" transform="translate(2017.102 786.995)">
      <g id="Group_530" data-name="Group 530">
        <path id="Path_789" data-name="Path 789" d="M2027.211,816.176a5.086,5.086,0,1,1-5.822-4.225A5.086,5.086,0,0,1,2027.211,816.176Z" transform="translate(-2017.102 -791.376)" fill="#db2720"/>
        <path id="Path_790" data-name="Path 790" d="M2058.548,811.2a5.085,5.085,0,1,1-5.821-4.224A5.085,5.085,0,0,1,2058.548,811.2Z" transform="translate(-1999.141 -790.5)" fill="#db2720"/>
        <path id="Path_791" data-name="Path 791" d="M2089.885,806.219a5.084,5.084,0,1,1-5.819-4.225A5.086,5.086,0,0,1,2089.885,806.219Z" transform="translate(-1981.181 -789.623)" fill="#db2720"/>
        <path id="Path_792" data-name="Path 792" d="M2121.222,801.24a5.084,5.084,0,1,1-5.821-4.225A5.086,5.086,0,0,1,2121.222,801.24Z" transform="translate(-1963.221 -788.747)" fill="#db2720"/>
        <path id="Path_793" data-name="Path 793" d="M2152.56,796.261a5.086,5.086,0,1,1-5.821-4.225A5.085,5.085,0,0,1,2152.56,796.261Z" transform="translate(-1945.26 -787.871)" fill="#db2720"/>
        <path id="Path_794" data-name="Path 794" d="M2183.9,791.282a5.086,5.086,0,1,1-5.821-4.224A5.086,5.086,0,0,1,2183.9,791.282Z" transform="translate(-1927.3 -786.995)" fill="#db2720"/>
      </g>
      <g id="Group_531" data-name="Group 531" transform="translate(4.102 46.102)">
        <path id="Path_795" data-name="Path 795" d="M2032.189,847.513a5.086,5.086,0,1,1-5.822-4.224A5.085,5.085,0,0,1,2032.189,847.513Z" transform="translate(-2022.08 -822.713)" fill="#db2720"/>
        <path id="Path_796" data-name="Path 796" d="M2063.527,842.534a5.086,5.086,0,1,1-5.821-4.224A5.085,5.085,0,0,1,2063.527,842.534Z" transform="translate(-2004.119 -821.837)" fill="#db2720"/>
        <path id="Path_797" data-name="Path 797" d="M2094.863,837.556a5.084,5.084,0,1,1-5.818-4.225A5.084,5.084,0,0,1,2094.863,837.556Z" transform="translate(-1986.159 -820.961)" fill="#db2720"/>
        <path id="Path_798" data-name="Path 798" d="M2126.2,832.577a5.084,5.084,0,1,1-5.821-4.224A5.085,5.085,0,0,1,2126.2,832.577Z" transform="translate(-1968.198 -820.084)" fill="#db2720"/>
        <path id="Path_799" data-name="Path 799" d="M2157.539,827.6a5.086,5.086,0,1,1-5.822-4.224A5.085,5.085,0,0,1,2157.539,827.6Z" transform="translate(-1950.239 -819.208)" fill="#db2720"/>
        <path id="Path_800" data-name="Path 800" d="M2188.876,822.62a5.085,5.085,0,1,1-5.821-4.225A5.085,5.085,0,0,1,2188.876,822.62Z" transform="translate(-1932.279 -818.332)" fill="#db2720"/>
      </g>
      <g id="Group_532" data-name="Group 532" transform="translate(8.204 92.204)">
        <path id="Path_801" data-name="Path 801" d="M2037.168,878.851a5.086,5.086,0,1,1-5.822-4.225A5.086,5.086,0,0,1,2037.168,878.851Z" transform="translate(-2027.058 -854.049)" fill="#db2720"/>
        <path id="Path_802" data-name="Path 802" d="M2068.506,873.872a5.086,5.086,0,1,1-5.822-4.225A5.086,5.086,0,0,1,2068.506,873.872Z" transform="translate(-2009.098 -853.173)" fill="#db2720"/>
        <path id="Path_803" data-name="Path 803" d="M2099.842,868.893a5.084,5.084,0,1,1-5.819-4.225A5.084,5.084,0,0,1,2099.842,868.893Z" transform="translate(-1991.138 -852.297)" fill="#db2720"/>
        <path id="Path_804" data-name="Path 804" d="M2131.18,863.915a5.085,5.085,0,1,1-5.822-4.225A5.086,5.086,0,0,1,2131.18,863.915Z" transform="translate(-1973.177 -851.42)" fill="#db2720"/>
        <path id="Path_805" data-name="Path 805" d="M2162.517,858.936a5.085,5.085,0,1,1-5.821-4.225A5.084,5.084,0,0,1,2162.517,858.936Z" transform="translate(-1955.218 -850.544)" fill="#db2720"/>
        <path id="Path_806" data-name="Path 806" d="M2193.854,853.957a5.085,5.085,0,1,1-5.821-4.225A5.085,5.085,0,0,1,2193.854,853.957Z" transform="translate(-1937.257 -849.668)" fill="#db2720"/>
      </g>
      <g id="Group_533" data-name="Group 533" transform="translate(12.307 138.308)">
        <path id="Path_807" data-name="Path 807" d="M2042.146,910.186a5.085,5.085,0,1,1-5.822-4.223A5.087,5.087,0,0,1,2042.146,910.186Z" transform="translate(-2032.037 -885.387)" fill="#db2720"/>
        <path id="Path_808" data-name="Path 808" d="M2073.484,905.208a5.086,5.086,0,1,1-5.821-4.225A5.086,5.086,0,0,1,2073.484,905.208Z" transform="translate(-2014.077 -884.511)" fill="#db2720"/>
        <path id="Path_809" data-name="Path 809" d="M2104.82,900.229a5.084,5.084,0,1,1-5.818-4.224A5.086,5.086,0,0,1,2104.82,900.229Z" transform="translate(-1996.117 -883.634)" fill="#db2720"/>
        <path id="Path_810" data-name="Path 810" d="M2136.158,895.25a5.084,5.084,0,1,1-5.821-4.224A5.086,5.086,0,0,1,2136.158,895.25Z" transform="translate(-1978.157 -882.758)" fill="#db2720"/>
        <path id="Path_811" data-name="Path 811" d="M2167.5,890.272a5.086,5.086,0,1,1-5.821-4.224A5.085,5.085,0,0,1,2167.5,890.272Z" transform="translate(-1960.196 -881.882)" fill="#db2720"/>
        <path id="Path_812" data-name="Path 812" d="M2198.833,885.293a5.085,5.085,0,1,1-5.821-4.224A5.086,5.086,0,0,1,2198.833,885.293Z" transform="translate(-1942.236 -881.006)" fill="#db2720"/>
      </g>
      <g id="Group_534" data-name="Group 534" transform="translate(16.409 184.41)">
        <path id="Path_813" data-name="Path 813" d="M2047.125,941.524a5.086,5.086,0,1,1-5.822-4.225A5.085,5.085,0,0,1,2047.125,941.524Z" transform="translate(-2037.016 -916.724)" fill="#db2720"/>
        <path id="Path_814" data-name="Path 814" d="M2078.463,936.545a5.086,5.086,0,1,1-5.822-4.224A5.087,5.087,0,0,1,2078.463,936.545Z" transform="translate(-2019.055 -915.848)" fill="#db2720"/>
        <path id="Path_815" data-name="Path 815" d="M2109.8,931.567a5.084,5.084,0,1,1-5.819-4.225A5.085,5.085,0,0,1,2109.8,931.567Z" transform="translate(-2001.095 -914.971)" fill="#db2720"/>
        <path id="Path_816" data-name="Path 816" d="M2141.137,926.588a5.084,5.084,0,1,1-5.821-4.225A5.085,5.085,0,0,1,2141.137,926.588Z" transform="translate(-1983.135 -914.095)" fill="#db2720"/>
        <path id="Path_817" data-name="Path 817" d="M2172.474,921.61a5.085,5.085,0,1,1-5.82-4.225A5.083,5.083,0,0,1,2172.474,921.61Z" transform="translate(-1965.175 -913.219)" fill="#db2720"/>
        <path id="Path_818" data-name="Path 818" d="M2203.812,916.631a5.085,5.085,0,1,1-5.82-4.225A5.085,5.085,0,0,1,2203.812,916.631Z" transform="translate(-1947.214 -912.343)" fill="#db2720"/>
      </g>
      <g id="Group_535" data-name="Group 535" transform="translate(20.512 230.513)">
        <path id="Path_819" data-name="Path 819" d="M2052.1,972.861a5.086,5.086,0,1,1-5.822-4.224A5.086,5.086,0,0,1,2052.1,972.861Z" transform="translate(-2041.995 -948.062)" fill="#db2720"/>
        <path id="Path_820" data-name="Path 820" d="M2083.441,967.882a5.086,5.086,0,1,1-5.821-4.224A5.085,5.085,0,0,1,2083.441,967.882Z" transform="translate(-2024.035 -947.186)" fill="#db2720"/>
        <path id="Path_821" data-name="Path 821" d="M2114.778,962.9a5.084,5.084,0,1,1-5.819-4.224A5.084,5.084,0,0,1,2114.778,962.9Z" transform="translate(-2006.074 -946.309)" fill="#db2720"/>
        <path id="Path_822" data-name="Path 822" d="M2146.115,957.925a5.084,5.084,0,1,1-5.821-4.224A5.085,5.085,0,0,1,2146.115,957.925Z" transform="translate(-1988.114 -945.433)" fill="#db2720"/>
        <path id="Path_823" data-name="Path 823" d="M2177.453,952.946a5.085,5.085,0,1,1-5.821-4.224A5.085,5.085,0,0,1,2177.453,952.946Z" transform="translate(-1970.154 -944.557)" fill="#db2720"/>
        <path id="Path_824" data-name="Path 824" d="M2208.791,947.968a5.086,5.086,0,1,1-5.821-4.224A5.086,5.086,0,0,1,2208.791,947.968Z" transform="translate(-1952.193 -943.681)" fill="#db2720"/>
      </g>
    </g>
  </g>
</svg>
