<svg xmlns="http://www.w3.org/2000/svg" width="50.341" height="50.357" viewBox="0 0 50.341 50.357">
    <defs>
        <style>
            .cls-1{fill:#cecece}
        </style>
    </defs>
    <g id="hand" transform="translate(-.501)">
        <path id="Path_973" d="M220.4 331.873a.984.984 0 1 0-1.391 0 .985.985 0 0 0 1.391 0zm0 0" class="cls-1" data-name="Path 973" transform="translate(-196.761 -297.718)"/>
        <path id="Path_974" d="M188.449 10.816A10.816 10.816 0 1 0 199.265 0a10.828 10.828 0 0 0-10.816 10.816zm19.665 0a8.849 8.849 0 1 1-8.849-8.849 8.859 8.859 0 0 1 8.849 8.849zm0 0" class="cls-1" data-name="Path 974" transform="translate(-169.463)"/>
        <path id="Path_975" d="M11.827 241.5a.983.983 0 0 0 1.388.008l4.767-4.7a2.971 2.971 0 0 0 .7-3.051l1.025-.989a2.932 2.932 0 0 1 2.047-.827h13.071A8.8 8.8 0 0 0 41 229.439c.068-.066-.519.625 8.917-10.653a3.933 3.933 0 0 0-5.985-5.1l-5.8 5.963a3.952 3.952 0 0 0-3.057-1.464H24.107a12.686 12.686 0 0 0-4.924-.983A12.165 12.165 0 0 0 8.1 223.485a2.937 2.937 0 0 0-2.63.815l-4.682 4.691a.983.983 0 0 0 0 1.387zm7.356-22.338a10.734 10.734 0 0 1 4.329.9.981.981 0 0 0 .394.083h11.165a1.966 1.966 0 1 1 0 3.933h-8.022a.983.983 0 0 0 0 1.966h8.022a3.927 3.927 0 0 0 3.9-4.447c5.613-5.769 6.4-6.58 6.438-6.62a1.967 1.967 0 1 1 3 2.541l-8.819 10.543a6.847 6.847 0 0 1-4.766 1.917h-13.07a4.888 4.888 0 0 0-3.413 1.378l-.836.806-7.7-7.7a10.152 10.152 0 0 1 9.38-5.3zM6.857 225.69a.981.981 0 0 1 1.217-.138c.17.1-.318-.341 8.516 8.481a.985.985 0 0 1 .005 1.386l-4.064 4-9.661-9.735zm0 0" class="cls-1" data-name="Path 975" transform="translate(0 -191.437)"/>
        <path id="Path_976" d="M267.816 40.972v1.152a2.95 2.95 0 0 0 .983 5.731.983.983 0 0 1 0 1.966 1.778 1.778 0 0 1-1.277-.744.983.983 0 1 0-1.505 1.266 4.078 4.078 0 0 0 1.8 1.281v1.148a.983.983 0 1 0 1.966 0v-1.153a2.95 2.95 0 0 0-.983-5.731.983.983 0 0 1 0-1.967 1.579 1.579 0 0 1 1.063.514.983.983 0 0 0 1.368-1.413 3.8 3.8 0 0 0-1.448-.905v-1.145a.983.983 0 1 0-1.966 0zm0 0" class="cls-1" data-name="Path 976" transform="translate(-239.194 -36.055)"/>
    </g>
</svg>
