<svg xmlns="http://www.w3.org/2000/svg" id="happy" width="49.193" height="49.192" viewBox="0 0 49.193 49.192">
    <defs>
        <style>
            .cls-1{fill:#3c7cf0}
        </style>
    </defs>
    <g id="Group_778" data-name="Group 778">
        <g id="Group_777" data-name="Group 777">
            <path id="Path_876" d="M41.988 7.2A24.6 24.6 0 1 0 7.2 41.988 24.6 24.6 0 1 0 41.988 7.2zM24.6 46.265A21.668 21.668 0 1 1 46.265 24.6 21.693 21.693 0 0 1 24.6 46.265z" class="cls-1" data-name="Path 876"/>
        </g>
    </g>
    <g id="Group_780" data-name="Group 780" transform="translate(10.151 16.303)">
        <g id="Group_779" data-name="Group 779">
            <path id="Path_877" d="M114.775 171.479a6.156 6.156 0 0 0-8.7 0 1.464 1.464 0 0 0 2.071 2.071 3.225 3.225 0 0 1 4.555 0 1.464 1.464 0 1 0 2.07-2.071z" class="cls-1" data-name="Path 877" transform="translate(-105.65 -169.681)"/>
        </g>
    </g>
    <g id="Group_782" data-name="Group 782" transform="translate(29.488 16.303)">
        <g id="Group_781" data-name="Group 781">
            <path id="Path_878" d="M316.037 171.479a6.156 6.156 0 0 0-8.7 0 1.464 1.464 0 1 0 2.071 2.071 3.224 3.224 0 0 1 4.555 0 1.464 1.464 0 1 0 2.07-2.071z" class="cls-1" data-name="Path 878" transform="translate(-306.912 -169.681)"/>
        </g>
    </g>
    <g id="Group_784" data-name="Group 784" transform="translate(10.151 25.67)">
        <g id="Group_783" data-name="Group 783">
            <path id="Path_879" d="M133.078 267.175h-25.963a1.464 1.464 0 0 0-1.464 1.464 14.445 14.445 0 0 0 28.891 0 1.464 1.464 0 0 0-1.464-1.464zM120.1 280.156a11.534 11.534 0 0 1-11.428-10.056h22.85a11.534 11.534 0 0 1-11.422 10.056z" class="cls-1" data-name="Path 879" transform="translate(-105.651 -267.175)"/>
        </g>
    </g>
</svg>
