<svg xmlns="http://www.w3.org/2000/svg" xmlns:xlink="http://www.w3.org/1999/xlink" viewBox="0 0 108.48 77.47"><defs><style>.cls-1{fill:url(#linear-gradient);}.cls-2{fill:url(#linear-gradient-2);}.cls-3{fill:#378de2;}</style><linearGradient id="linear-gradient" x1="-20.96" y1="-6.81" x2="95.13" y2="64.41" gradientUnits="userSpaceOnUse"><stop offset="0" stop-color="#94d4f2"/><stop offset="0.24" stop-color="#94c2f2"/><stop offset="0.73" stop-color="#c0d6f0"/><stop offset="1" stop-color="#d2deef"/></linearGradient><linearGradient id="linear-gradient-2" x1="2940.42" y1="86.77" x2="2999.64" y2="34.81" gradientTransform="matrix(-1, 0, 0, 1, 3050.35, 0)" gradientUnits="userSpaceOnUse"><stop offset="0" stop-color="#c9d7fb"/><stop offset="0.26" stop-color="#dbe4fc"/><stop offset="0.72" stop-color="#f5f8fe"/><stop offset="1" stop-color="#fff"/></linearGradient></defs><title>Asset 11</title><g id="Layer_2" data-name="Layer 2"><g id="Layer_1-2" data-name="Layer 1"><path class="cls-1" d="M5.85,31.89A12.88,12.88,0,0,0,0,42L.16,55.73c0,19.32-.16,17.32,12,21.74l62-31.56,17.18,9.15L88.05,40.88l5.73-2.08a12.88,12.88,0,0,0,5.85-10.12l7.49-21.8c0-.52-2.82-2.27-4.25-3.39-2.15-1.68-6.5-4.64-9.29-3Z"/><path class="cls-2" d="M14.7,38.33A12.88,12.88,0,0,0,8.85,48.45L9,73.31c0,3.72,2.65,5.23,5.89,3.36L83,52.35l17.17,9.15L96.9,47.32l5.73-2.08a12.9,12.9,0,0,0,5.85-10.13l-.16-24.86c0-3.72-2.65-5.22-5.89-3.35Z"/><path class="cls-3" d="M34.21,50.3,29.6,51.89v6.73L28,59.17V43.78l1.61-.55v6.6l4.61-1.59v-6.6l1.6-.55V56.48l-1.6.55Z"/><path class="cls-3" d="M38.28,40.19a2.1,2.1,0,0,1,1-2c.57-.19,1,.36,1,1.27a2.1,2.1,0,0,1-1,2C38.73,41.65,38.28,41.1,38.28,40.19Zm.21,3.16,1.61-.55V55l-1.61.56Z"/><path class="cls-3" d="M47,37.23l1.74-.6,3.44,10.89,3.42-13.26,1.72-.59v15.4l-1.6.55V39.08l-3,11.57L51.62,51l-3-9.5V52.07L47,52.62Z"/><path class="cls-3" d="M63.15,34.66a2.12,2.12,0,0,1,2.69,1V33.92l1.62-.55V45.58l-1.62.55V44.32a5.07,5.07,0,0,1-2.72,3c-2,.7-3.64-1.34-3.64-5.1S61.1,35.36,63.15,34.66Zm.33,2.07c-1.19.42-2.35,2.23-2.35,4.87s1.16,3.77,2.35,3.35,2.36-2.29,2.36-4.93S64.7,36.31,63.48,36.73Z"/><path class="cls-3" d="M71.75,44.1l-1.61.55V32.44l1.61-.56v1.78a4,4,0,0,1,2.33-2.78V33.5l-.41.14c-1.19.41-1.92,1.44-1.92,4Z"/><path class="cls-3" d="M76.12,26.19l1.61-.56v9.53l2.82-6.31,2.23-.77-3.59,7.35,3.59,4.86L80.6,41l-2.87-4.26V42l-1.61.56Z"/><path class="cls-3" d="M85.71,39.43c-.58.2-1-.35-1-1.26a2.1,2.1,0,0,1,1-2c.56-.19,1,.36,1,1.27A2.11,2.11,0,0,1,85.71,39.43Zm-.9-15.25,1.7-.59-.18,10.82L85,34.87Z"/></g></g></svg>