<svg xmlns="http://www.w3.org/2000/svg" xmlns:xlink="http://www.w3.org/1999/xlink" viewBox="0 0 138.84 94.1"><defs><style>.cls-1{fill:url(#linear-gradient);}.cls-2{fill:url(#linear-gradient-2);}.cls-3{fill:#378de2;}</style><linearGradient id="linear-gradient" x1="3775.74" y1="228.51" x2="3320.26" y2="-77.49" gradientTransform="matrix(-1, 0, 0, 1, 3576.65, 0)" gradientUnits="userSpaceOnUse"><stop offset="0" stop-color="#94d4f2"/><stop offset="0.24" stop-color="#94c2f2"/><stop offset="0.73" stop-color="#c0d6f0"/><stop offset="1" stop-color="#d2deef"/></linearGradient><linearGradient id="linear-gradient-2" x1="3439.31" y1="105.7" x2="3512.3" y2="41.65" gradientTransform="matrix(-1, 0, 0, 1, 3576.65, 0)" gradientUnits="userSpaceOnUse"><stop offset="0" stop-color="#c9d7fb"/><stop offset="0.26" stop-color="#dbe4fc"/><stop offset="0.72" stop-color="#f5f8fe"/><stop offset="1" stop-color="#fff"/></linearGradient></defs><title>Asset 12</title><g id="Layer_2" data-name="Layer 2"><g id="Layer_1-2" data-name="Layer 1"><path class="cls-1" d="M6.64,42.31A14.64,14.64,0,0,0,0,53.81L.18,69.4C.18,91.35,0,89.08,13.8,94.1L99.85,52.17l19.51,10.39-3.73-16.11,6.51-2.36a14.62,14.62,0,0,0,6.64-11.51L137.3,7.82c0-.59-3.21-2.58-4.84-3.85C130,2.06,125.08-1.3,121.91.53Z"/><path class="cls-2" d="M16.7,49.63a14.63,14.63,0,0,0-6.64,11.5l.18,28.25c0,4.23,3,5.94,6.69,3.81l93-33.7,19.51,10.39-3.73-16.12,6.51-2.35a14.66,14.66,0,0,0,6.64-11.51l-.18-28.25c0-4.23-3-5.93-6.69-3.81Z"/><path class="cls-3" d="M36.13,64.16l-5.68,2v8.28l-2,.7V56.24l2-.7v8.11l5.68-2V53.51l2-.71V71.74l-2,.7Z"/><path class="cls-3" d="M41.14,51.67a2.64,2.64,0,0,1,1.27-2.45c.69-.24,1.25.43,1.25,1.55a2.63,2.63,0,0,1-1.25,2.43C41.7,53.45,41.14,52.78,41.14,51.67Zm.26,3.88,2-.71v15l-2,.71Z"/><path class="cls-3" d="M56,46.39c2.86-1,4.27,1.07,4.27,4.14A8.05,8.05,0,0,1,57.52,57l3,6.78-2.36.84L55.36,58l-1.5.54v7.57l-2,.71V47.88Zm0,2.54-2.18.78v6.35L56,55.28c1.54-.56,2.24-2.14,2.24-4S57.58,48.37,56,48.93Z"/><path class="cls-3" d="M67.68,61.41c-2.72,1-4.79-1.34-4.79-6s2.15-8.51,4.88-9.48,4.87,1.28,4.87,6S70.42,60.43,67.68,61.41Zm0-2.69c1.48-.53,2.93-2.71,2.93-6.12s-1.4-4.54-2.88-4-2.82,2.64-2.82,6S66.19,59.25,67.68,58.72Z"/><path class="cls-3" d="M80.6,41.28c2.54-.9,4.5,1.45,4.5,6.08s-2,8.53-4.5,9.43a2.59,2.59,0,0,1-3.33-1.23v2.18l-2,.71V38.28l2-.71V45A6.33,6.33,0,0,1,80.6,41.28Zm-.43,2.86c-1.47.52-2.9,2.86-2.9,6.08s1.43,4.56,2.9,4,2.92-2.92,2.92-6.17S81.66,43.6,80.17,44.14Z"/><path class="cls-3" d="M91.86,52.76c-2.74,1-4.77-1.34-4.77-6.06s1.94-8.43,4.77-9.45,4.65,1.31,4.65,5.73c0,.51,0,1-.06,1.55l-7.31,2.61c.14,2.43,1.27,3.53,2.72,3a4,4,0,0,0,2.26-2.91l2.13-.76C95.71,49.29,94.21,51.93,91.86,52.76Zm-2.7-8.13,5.29-1.9c0-2.3-1.2-3.36-2.67-2.83S89.36,42.18,89.16,44.63Z"/><path class="cls-3" d="M101.13,49.2l-2,.71v-15l2-.71v2.18A5,5,0,0,1,104,32.91v3.22l-.5.18c-1.46.52-2.36,1.8-2.36,5Z"/><path class="cls-3" d="M106.81,34.68l-1.12.4V32.55l1.12-.41V28.41l2-.72v3.74l2.32-.84v2.54l-2.32.83v8.32c0,1.12.28,1.48,1.11,1.18l1.21-.43v2.59l-1.56.56c-1.7.61-2.76-.13-2.76-3.19Z"/><path class="cls-3" d="M115.14,44.37c-.71.26-1.26-.42-1.26-1.53a2.63,2.63,0,0,1,1.26-2.45c.7-.25,1.25.43,1.25,1.54A2.62,2.62,0,0,1,115.14,44.37ZM114,25.63l2.1-.76-.22,13.31-1.65.59Z"/></g></g></svg>