<?xml version="1.0" encoding="utf-8"?>
<!-- Generator: Adobe Illustrator 23.0.3, SVG Export Plug-In . SVG Version: 6.00 Build 0)  -->
<svg version="1.1" id="Layer_1" xmlns="http://www.w3.org/2000/svg" xmlns:xlink="http://www.w3.org/1999/xlink" x="0px" y="0px"
	 viewBox="0 0 151.8 102.9" style="enable-background:new 0 0 151.8 102.9;" xml:space="preserve">
<style type="text/css">
	.st0{fill:url(#SVGID_1_);}
	.st1{fill:url(#SVGID_2_);}
	.st2{enable-background:new    ;}
	.st3{fill:#378DE2;}
</style>
<title>Asset 10</title>
<g>
	<g id="Layer_1-2">
		
			<linearGradient id="SVGID_1_" gradientUnits="userSpaceOnUse" x1="41.0402" y1="100.0622" x2="106.0002" y2="18.2822" gradientTransform="matrix(1 0 0 -1 0 104)">
			<stop  offset="0" style="stop-color:#94D4F2"/>
			<stop  offset="0.24" style="stop-color:#94C2F2"/>
			<stop  offset="0.73" style="stop-color:#C0D6F0"/>
			<stop  offset="1" style="stop-color:#D2DEEF"/>
		</linearGradient>
		<path class="st0" d="M144.6,46.3c4.3,2.8,7,7.5,7.3,12.6l-0.2,17c0,24,0.2,21.5-14.9,27L42.6,57L21.3,68.4l4.1-17.6l-7.1-2.6
			c-4.3-2.8-7-7.5-7.3-12.6L1.7,8.6c0-0.6,3.5-2.8,5.3-4.2c2.7-2.1,8.1-5.8,11.5-3.8L144.6,46.3z"/>
		
			<linearGradient id="SVGID_2_" gradientUnits="userSpaceOnUse" x1="1.6392" y1="-11.5891" x2="81.4692" y2="58.4509" gradientTransform="matrix(1 0 0 -1 0 104)">
			<stop  offset="0" style="stop-color:#C9D7FB"/>
			<stop  offset="0.26" style="stop-color:#DBE4FC"/>
			<stop  offset="0.72" style="stop-color:#F5F8FE"/>
			<stop  offset="1" style="stop-color:#FFFFFF"/>
		</linearGradient>
		<path class="st1" d="M133.6,54.3c4.3,2.8,7,7.5,7.3,12.6l-0.2,30.9c0,4.6-3.3,6.5-7.3,4.2L31.6,65.1L10.3,76.4l4.1-17.6l-7.1-2.6
			C3,53.4,0.3,48.7,0,43.6l0.2-30.9c0-4.6,3.3-6.5,7.3-4.2L133.6,54.3z"/>
		<g class="st2">
			<path class="st3" d="M24.6,49.5L23.8,30l1.8,0.6l0.3,8l7.1,2.2l-0.3-8l1.8,0.6l0.8,19.5l-1.8-0.6l-0.4-9.2L26,40.9l0.4,9.2
				L24.6,49.5z"/>
			<path class="st3" d="M37.4,37l-0.1-2.8l1.7,0.5l0.1,2.8L37.4,37z M38.1,53.8l-0.6-14.1l1.7,0.5l0.6,14.1L38.1,53.8z"/>
		</g>
		<g class="st2">
			<path class="st3" d="M50.5,51.5l1.7,0.3c0.1,1,0.3,1.9,0.7,2.6c0.3,0.7,0.8,1.4,1.4,1.9c0.6,0.6,1.3,1,2.1,1.2
				c0.7,0.2,1.3,0.3,1.8,0.1c0.5-0.1,0.9-0.4,1.1-0.8s0.3-0.9,0.3-1.5c0-0.6-0.2-1.2-0.4-1.7c-0.3-0.5-0.7-1-1.3-1.5
				c-0.4-0.3-1.2-0.9-2.5-1.7c-1.3-0.8-2.2-1.5-2.7-2c-0.7-0.7-1.2-1.5-1.5-2.3c-0.3-0.8-0.5-1.7-0.6-2.6c0-1,0.1-1.8,0.5-2.6
				c0.4-0.7,0.9-1.2,1.6-1.4c0.7-0.2,1.6-0.2,2.5,0.1c1,0.3,1.9,0.8,2.7,1.5c0.8,0.7,1.4,1.6,1.9,2.6c0.5,1,0.7,2.1,0.8,3.3
				l-1.7-0.4c-0.1-1.3-0.5-2.3-1.1-3.1c-0.6-0.8-1.4-1.4-2.4-1.7c-1.1-0.3-1.9-0.3-2.4,0.1s-0.7,1-0.7,1.8c0,0.7,0.2,1.3,0.6,1.9
				c0.4,0.6,1.3,1.3,2.8,2.2c1.5,0.9,2.5,1.7,3.1,2.2c0.8,0.8,1.4,1.6,1.8,2.5c0.4,0.9,0.6,1.9,0.7,3c0,1-0.1,2-0.5,2.7
				c-0.4,0.8-0.9,1.3-1.7,1.6c-0.8,0.3-1.6,0.2-2.6-0.1c-1.2-0.4-2.3-1-3.1-1.7c-0.9-0.8-1.5-1.8-2.1-2.9S50.6,52.8,50.5,51.5z"/>
			<path class="st3" d="M70.3,62.2c-0.6,0.6-1.2,0.9-1.7,1s-1.2,0.1-1.8-0.1c-1.1-0.3-1.9-1-2.5-1.9c-0.6-0.9-0.9-2-1-3.2
				c0-0.7,0.1-1.3,0.3-1.8c0.2-0.5,0.5-0.9,0.8-1.1c0.3-0.2,0.7-0.4,1.2-0.4c0.3,0,0.8,0,1.5,0.1c1.3,0.2,2.3,0.2,3,0.1
				c0-0.3,0-0.5,0-0.6c0-1-0.2-1.7-0.6-2.2c-0.5-0.7-1.1-1.1-1.9-1.4c-0.8-0.2-1.4-0.2-1.7,0c-0.4,0.3-0.6,0.9-0.7,1.8l-1.7-0.8
				c0.1-1,0.3-1.7,0.6-2.2s0.8-0.8,1.4-1c0.6-0.1,1.4-0.1,2.2,0.2c0.8,0.3,1.5,0.6,2.1,1.1c0.5,0.4,0.9,0.9,1.2,1.4s0.5,1.1,0.6,1.8
				c0.1,0.4,0.1,1.2,0.2,2.2l0.1,3.2c0.1,2.2,0.2,3.6,0.3,4.3c0.1,0.6,0.3,1.2,0.5,1.8L70.7,64C70.5,63.4,70.3,62.8,70.3,62.2z
				 M69.9,56.8c-0.6,0.2-1.5,0.2-2.7,0c-0.7-0.1-1.2-0.1-1.4,0s-0.5,0.3-0.6,0.6c-0.1,0.3-0.2,0.6-0.2,1.1c0,0.6,0.2,1.2,0.6,1.8
				c0.4,0.5,0.9,0.9,1.5,1.1c0.6,0.2,1.2,0.2,1.7-0.1c0.5-0.2,0.8-0.7,1-1.3c0.2-0.5,0.2-1.3,0.2-2.3L69.9,56.8z"/>
			<path class="st3" d="M74.5,65.2l-0.6-14.1l1.5,0.5l0.1,2.1c0.3-0.9,0.7-1.4,1-1.6c0.3-0.2,0.7-0.3,1.1-0.1
				c0.6,0.2,1.1,0.6,1.8,1.3l-0.5,2c-0.4-0.5-0.8-0.8-1.2-0.9c-0.4-0.1-0.7-0.1-1,0.2c-0.3,0.2-0.5,0.6-0.6,1.1
				c-0.2,0.8-0.2,1.7-0.2,2.7l0.3,7.4L74.5,65.2z"/>
			<path class="st3" d="M87.2,67.5c-0.6,0.6-1.2,0.9-1.7,1c-0.6,0.1-1.2,0.1-1.8-0.1c-1.1-0.3-1.9-1-2.6-1.9c-0.6-0.9-0.9-2-1-3.2
				c0-0.7,0.1-1.3,0.3-1.8c0.2-0.5,0.5-0.9,0.8-1.1c0.3-0.2,0.7-0.4,1.2-0.4c0.3,0,0.8,0,1.5,0.1c1.3,0.2,2.3,0.2,3,0.1
				c0-0.3,0-0.5,0-0.6c0-1-0.2-1.7-0.6-2.2c-0.5-0.7-1.1-1.1-1.9-1.4c-0.8-0.2-1.4-0.2-1.7,0c-0.4,0.3-0.6,0.9-0.8,1.8L80.1,57
				c0.1-1,0.3-1.7,0.6-2.2c0.3-0.5,0.8-0.8,1.4-1s1.4-0.1,2.2,0.2c0.8,0.3,1.5,0.6,2.1,1.1c0.5,0.4,0.9,0.9,1.2,1.4
				c0.3,0.5,0.5,1.1,0.6,1.8c0.1,0.4,0.1,1.2,0.2,2.2l0.1,3.2c0.1,2.2,0.2,3.6,0.3,4.3c0.1,0.6,0.3,1.2,0.5,1.8l-1.8-0.5
				C87.4,68.8,87.3,68.2,87.2,67.5z M86.9,62.1c-0.6,0.2-1.5,0.2-2.7,0c-0.7-0.1-1.2-0.1-1.4,0c-0.3,0.1-0.5,0.3-0.6,0.6
				c-0.1,0.3-0.2,0.6-0.2,1.1c0,0.6,0.2,1.2,0.6,1.8s0.9,0.9,1.5,1.1c0.6,0.2,1.2,0.2,1.7-0.1c0.5-0.2,0.8-0.7,1-1.3
				c0.2-0.5,0.2-1.3,0.2-2.3L86.9,62.1z"/>
			<path class="st3" d="M91.4,70.5L90.7,51l1.7,0.5l0.3,7c0.7-1,1.7-1.4,2.9-1c0.7,0.2,1.4,0.6,1.9,1.2c0.6,0.6,1,1.3,1.2,2.1
				c0.3,0.8,0.4,1.9,0.5,3.3l0.4,9l-1.7-0.5l-0.4-9c0-1.2-0.3-2.1-0.6-2.8c-0.4-0.7-0.9-1.1-1.6-1.3c-0.5-0.2-1-0.1-1.4,0.1
				s-0.7,0.6-0.9,1.2c-0.2,0.6-0.2,1.4-0.2,2.5l0.3,7.7L91.4,70.5z"/>
			<path class="st3" d="M102.7,69.3l-0.9-10.5l-0.2-4.3l2.1,0.7l0.2,4.3l-0.1,10.2L102.7,69.3z M102.5,74l-0.1-2.7l1.9,0.6l0.1,2.7
				L102.5,74z"/>
		</g>
	</g>
</g>
</svg>
