<svg xmlns="http://www.w3.org/2000/svg" xmlns:xlink="http://www.w3.org/1999/xlink" viewBox="0 0 108.48 77.47"><defs><style>.cls-1{fill:url(#linear-gradient);}.cls-2{fill:url(#linear-gradient-2);}.cls-3{fill:#378de2;}</style><linearGradient id="linear-gradient" x1="-20.96" y1="-6.81" x2="95.13" y2="64.41" gradientUnits="userSpaceOnUse"><stop offset="0" stop-color="#94d4f2"/><stop offset="0.24" stop-color="#94c2f2"/><stop offset="0.73" stop-color="#c0d6f0"/><stop offset="1" stop-color="#d2deef"/></linearGradient><linearGradient id="linear-gradient-2" x1="5005.85" y1="86.77" x2="5065.08" y2="34.81" gradientTransform="matrix(-1, 0, 0, 1, 5115.79, 0)" gradientUnits="userSpaceOnUse"><stop offset="0" stop-color="#c9d7fb"/><stop offset="0.26" stop-color="#dbe4fc"/><stop offset="0.72" stop-color="#f5f8fe"/><stop offset="1" stop-color="#fff"/></linearGradient></defs><title>Hi Jason</title><g id="Layer_2" data-name="Layer 2"><g id="Layer_1-2" data-name="Layer 1"><path class="cls-1" d="M5.85,31.89A12.88,12.88,0,0,0,0,42L.16,55.73c0,19.32-.16,17.32,12,21.74l62-31.56,17.18,9.15L88.05,40.88l5.73-2.08a12.88,12.88,0,0,0,5.85-10.12l7.49-21.8c0-.52-2.82-2.27-4.25-3.39-2.15-1.68-6.5-4.64-9.29-3Z"/><path class="cls-2" d="M14.7,38.33A12.88,12.88,0,0,0,8.85,48.45L9,73.31c0,3.72,2.65,5.23,5.89,3.36L83,52.35l17.17,9.15L96.9,47.32l5.73-2.08a12.9,12.9,0,0,0,5.85-10.13l-.16-24.86c0-3.72-2.65-5.22-5.89-3.35Z"/><path class="cls-3" d="M34.21,50.24l-4.62,1.63V58.6l-1.6.57V43.78l1.6-.56v6.59l4.62-1.63V41.59l1.6-.57V56.41l-1.6.56Z"/><path class="cls-3" d="M38.28,40.1a2.12,2.12,0,0,1,1-2c.57-.2,1,.35,1,1.26a2.11,2.11,0,0,1-1,2C38.74,41.56,38.28,41,38.28,40.1Zm.22,3.16,1.6-.57v12.2l-1.6.57Z"/><path class="cls-3" d="M50.74,35.74l1.62-.58v11.1c0,2.79-1.2,4.88-2.89,5.48s-2.89-.64-2.89-3.43l1.62-.58c0,1.28.41,2.07,1.27,1.77s1.27-1.38,1.27-2.66Z"/><path class="cls-3" d="M58.66,35.92a2.11,2.11,0,0,1,2.69,1V35.17L63,34.59V46.8l-1.63.58V45.56a5.12,5.12,0,0,1-2.72,3c-2,.71-3.63-1.31-3.63-5.07S56.62,36.65,58.66,35.92ZM59,38c-1.2.42-2.35,2.25-2.35,4.88S57.8,46.64,59,46.22s2.35-2.32,2.35-5S60.21,37.57,59,38Z"/><path class="cls-3" d="M68.48,45.05c-1.86.66-3.17-.6-3.25-2.79l1.67-.59c0,1,.66,1.58,1.55,1.27a2.06,2.06,0,0,0,1.42-2c0-2.39-4.51.58-4.51-3.9a4.87,4.87,0,0,1,3-4.58c1.76-.62,2.92.45,3,2.86l-1.6.57c-.06-1-.58-1.59-1.46-1.28A1.88,1.88,0,0,0,67,36.48c0,2.46,4.39-.47,4.47,3.91A4.84,4.84,0,0,1,68.48,45.05Z"/><path class="cls-3" d="M77.12,42c-2.21.79-3.89-1.1-3.89-4.93s1.75-6.92,4-7.7,4,1.05,4,4.89S79.35,41.2,77.12,42Zm0-2.19c1.2-.43,2.38-2.2,2.38-5s-1.14-3.69-2.34-3.27-2.3,2.15-2.3,4.92S75.91,40.23,77.12,39.8Z"/><path class="cls-3" d="M88.83,30.82c0-2.24-.78-3.12-2-2.7s-2,1.84-2,4.08V39l-1.61.57V27.39l1.61-.57v1.39a4.35,4.35,0,0,1,2.31-2.41c1.82-.65,3.19.66,3.19,4.08v7.2l-1.59.57Z"/><path class="cls-3" d="M94.24,35.88c-.57.21-1-.34-1-1.25a2.12,2.12,0,0,1,1-2c.57-.2,1,.34,1,1.25A2.12,2.12,0,0,1,94.24,35.88Zm-.9-15.24L95.05,20l-.19,10.82-1.34.48Z"/></g></g></svg>