<svg xmlns="http://www.w3.org/2000/svg" xmlns:xlink="http://www.w3.org/1999/xlink" viewBox="0 0 151.84 102.91"><defs><style>.cls-1{fill:url(#linear-gradient);}.cls-2{fill:url(#linear-gradient-2);}.cls-3{fill:#378de2;}</style><linearGradient id="linear-gradient" x1="41.05" y1="3.93" x2="106.01" y2="85.71" gradientUnits="userSpaceOnUse"><stop offset="0" stop-color="#94d4f2"/><stop offset="0.24" stop-color="#94c2f2"/><stop offset="0.73" stop-color="#c0d6f0"/><stop offset="1" stop-color="#d2deef"/></linearGradient><linearGradient id="linear-gradient-2" x1="1.64" y1="115.59" x2="81.47" y2="45.55" gradientUnits="userSpaceOnUse"><stop offset="0" stop-color="#c9d7fb"/><stop offset="0.26" stop-color="#dbe4fc"/><stop offset="0.72" stop-color="#f5f8fe"/><stop offset="1" stop-color="#fff"/></linearGradient></defs><title>Hi maria</title><g id="Layer_2" data-name="Layer 2"><g id="Layer_1-2" data-name="Layer 1"><path class="cls-1" d="M144.57,46.28a16,16,0,0,1,7.27,12.57l-.2,17.05c0,24,.2,21.52-14.9,27L42.64,57.05,21.3,68.42,25.38,50.8l-7.11-2.58A16,16,0,0,1,11,35.63L1.69,8.55c0-.64,3.5-2.82,5.28-4.21C9.65,2.25,15.05-1.42,18.51.58Z"/><path class="cls-2" d="M133.57,54.28a16,16,0,0,1,7.27,12.57l-.2,30.9c0,4.62-3.29,6.49-7.31,4.17L31.64,65.05,10.3,76.42,14.38,58.8,7.27,56.22A16,16,0,0,1,0,43.63L.2,12.74c0-4.63,3.29-6.49,7.31-4.16Z"/><path class="cls-3" d="M32.54,43.91l-6.24-2,.34,8.28-2.18-.7-.77-18.91,2.17.69.34,8.11,6.24,2-.34-8.11,2.18.7.77,18.92-2.17-.7Z"/><path class="cls-3" d="M36.85,34.74c-.05-1.11.53-1.79,1.31-1.54a2.71,2.71,0,0,1,1.46,2.43c0,1.12-.53,1.79-1.3,1.55A2.69,2.69,0,0,1,36.85,34.74Zm.45,4.07,2.17.69.62,15-2.18-.7Z"/><path class="cls-3" d="M50.57,39.19l2.34.76,5.26,16.32,4-13.34,2.33.74.77,18.91-2.17-.69-.53-13L59.08,60.59l-1.5-.48L53,45.85l.53,12.95-2.17-.69Z"/><path class="cls-3" d="M71.77,49.62a6.82,6.82,0,0,1,3.75,3.59L75.43,51l2.19.71.62,15L76,66,76,63.8a2.85,2.85,0,0,1-3.58,1.29c-2.73-.87-5.05-4.76-5.24-9.39S69,48.73,71.77,49.62Zm.57,2.84c-1.62-.52-3.11.72-3,4s1.77,5.62,3.4,6.14,3.11-.8,3-4S74,53,72.34,52.46Z"/><path class="cls-3" d="M83.27,68.35l-2.17-.7-.62-15,2.18.7.08,2.18a2.25,2.25,0,0,1,3.05-1.41l.14,3.21-.56-.18c-1.6-.51-2.55.12-2.42,3.3Z"/><path class="cls-3" d="M87.36,50.94c0-1.12.53-1.79,1.31-1.54a2.67,2.67,0,0,1,1.45,2.42c0,1.12-.53,1.79-1.29,1.55A2.68,2.68,0,0,1,87.36,50.94ZM87.81,55l2.17.7.61,15L88.42,70Z"/><path class="cls-3" d="M97.07,57.73a6.83,6.83,0,0,1,3.74,3.59l-.09-2.18,2.19.71.62,15-2.2-.7-.09-2.23a2.85,2.85,0,0,1-3.58,1.29c-2.73-.87-5-4.76-5.24-9.39S94.3,56.84,97.07,57.73Zm.57,2.84c-1.63-.52-3.12.72-3,4s1.78,5.62,3.4,6.14,3.11-.8,3-4S99.28,61.1,97.64,60.57Z"/><path class="cls-3" d="M106,57l2.31.74.29,13.12-1.81-.58Zm2,19.49A2.67,2.67,0,0,1,106.56,74c0-1.11.53-1.79,1.31-1.54a2.69,2.69,0,0,1,1.46,2.43C109.37,76,108.8,76.72,108,76.47Z"/></g></g></svg>