<svg xmlns="http://www.w3.org/2000/svg" xmlns:xlink="http://www.w3.org/1999/xlink" viewBox="0 0 138.84 94.1"><defs><style>.cls-1{fill:url(#linear-gradient);}.cls-2{fill:url(#linear-gradient-2);}.cls-3{fill:#378de2;}</style><linearGradient id="linear-gradient" x1="5841.18" y1="228.51" x2="5385.7" y2="-77.49" gradientTransform="matrix(-1, 0, 0, 1, 5642.09, 0)" gradientUnits="userSpaceOnUse"><stop offset="0" stop-color="#94d4f2"/><stop offset="0.24" stop-color="#94c2f2"/><stop offset="0.73" stop-color="#c0d6f0"/><stop offset="1" stop-color="#d2deef"/></linearGradient><linearGradient id="linear-gradient-2" x1="5504.75" y1="105.7" x2="5577.74" y2="41.65" gradientTransform="matrix(-1, 0, 0, 1, 5642.09, 0)" gradientUnits="userSpaceOnUse"><stop offset="0" stop-color="#c9d7fb"/><stop offset="0.26" stop-color="#dbe4fc"/><stop offset="0.72" stop-color="#f5f8fe"/><stop offset="1" stop-color="#fff"/></linearGradient></defs><title>Hi Sarah</title><g id="Layer_2" data-name="Layer 2"><g id="Layer_1-2" data-name="Layer 1"><path class="cls-1" d="M6.64,42.31A14.64,14.64,0,0,0,0,53.81L.18,69.4C.18,91.35,0,89.08,13.8,94.1L99.85,52.17l19.51,10.39-3.73-16.11,6.51-2.36a14.62,14.62,0,0,0,6.64-11.51L137.3,7.82c0-.59-3.21-2.58-4.84-3.85C130,2.06,125.08-1.3,121.91.53Z"/><path class="cls-2" d="M16.7,49.63a14.63,14.63,0,0,0-6.64,11.5l.18,28.25c0,4.23,3,5.94,6.69,3.81l93-33.7,19.51,10.39-3.73-16.12,6.51-2.35a14.66,14.66,0,0,0,6.64-11.51l-.18-28.25c0-4.23-3-5.93-6.69-3.81Z"/><path class="cls-3" d="M36.13,64.2l-5.68,2v8.28l-2,.69V56.24l2-.69v8.11l5.68-2V53.55l2-.7V71.78l-2,.7Z"/><path class="cls-3" d="M41.14,51.72a2.58,2.58,0,0,1,1.27-2.43c.69-.25,1.25.43,1.25,1.55a2.63,2.63,0,0,1-1.25,2.43C41.69,53.52,41.14,52.84,41.14,51.72Zm.26,3.89,2-.7v15l-2,.7Z"/><path class="cls-3" d="M55.85,65.72c-2.41.85-4.27-.57-4.27-3.92l2.12-.75c.09,1.52.78,2.53,2.15,2.05A3.58,3.58,0,0,0,58,59.56c0-4.58-6.4.65-6.4-6.33,0-3.32,1.68-6,4.14-6.86s3.94.52,4.11,3.7l-2.18.77c-.07-1.25-.78-2.17-2-1.79a3.23,3.23,0,0,0-2,3.36c0,4.28,6.38-.64,6.38,6.28C60,61.52,58.54,64.77,55.85,65.72Z"/><path class="cls-3" d="M66.9,46.36a2.59,2.59,0,0,1,3.31,1.26V45.44l2-.7v15l-2,.71V58.22a6.25,6.25,0,0,1-3.34,3.66c-2.49.88-4.48-1.6-4.48-6.24S64.38,47.25,66.9,46.36Zm.42,2.56c-1.48.52-2.9,2.76-2.9,6s1.42,4.62,2.9,4.1,2.89-2.85,2.89-6.1S68.81,48.39,67.32,48.92Z"/><path class="cls-3" d="M77.48,57.89l-2,.7v-15l2-.7v2.18a5,5,0,0,1,2.86-3.43v3.21l-.5.18c-1.46.52-2.36,1.79-2.36,5Z"/><path class="cls-3" d="M86.71,39.37A2.58,2.58,0,0,1,90,40.62V38.44l2-.71v15l-2,.7V51.23a6.28,6.28,0,0,1-3.34,3.66c-2.49.88-4.48-1.61-4.48-6.24S84.19,40.25,86.71,39.37Zm.42,2.55c-1.48.52-2.9,2.77-2.9,6s1.42,4.62,2.9,4.1S90,49.18,90,45.94,88.62,41.39,87.13,41.92Z"/><path class="cls-3" d="M95.31,31.42l2-.7v6.89a5.5,5.5,0,0,1,3-3c2.13-.75,3.8.87,3.8,5.07V48.5l-2,.69V40.8c0-2.76-1-3.84-2.4-3.33s-2.41,2.27-2.41,5v8.39l-2,.7Z"/><path class="cls-3" d="M108.76,47c-.71.25-1.27-.42-1.27-1.54a2.61,2.61,0,0,1,1.27-2.44c.69-.25,1.25.43,1.25,1.55A2.62,2.62,0,0,1,108.76,47Zm-1.11-18.75,2.1-.74-.23,13.3-1.65.59Z"/></g></g></svg>