<svg xmlns="http://www.w3.org/2000/svg" xmlns:xlink="http://www.w3.org/1999/xlink" viewBox="0 0 799.75 543.85"><defs><style>.cls-1{mask:url(#mask);filter:url(#luminosity-noclip-2);}.cls-18,.cls-2{mix-blend-mode:multiply;}.cls-2{fill:url(#linear-gradient);}.cls-3{isolation:isolate;}.cls-23,.cls-4,.cls-47{opacity:0.5;}.cls-5{fill:url(#Degradado_sin_nombre_100);}.cls-6{fill:url(#Degradado_sin_nombre_103);}.cls-7{fill:url(#Degradado_sin_nombre_105);}.cls-8{fill:#ffc8bb;}.cls-9{fill:#ffb3a2;}.cls-10{opacity:0.7;}.cls-11{fill:url(#Degradado_sin_nombre_103-2);}.cls-12{fill:url(#Degradado_sin_nombre_105-2);}.cls-13{opacity:0.54;}.cls-14{fill:url(#linear-gradient-2);}.cls-15,.cls-38{opacity:0.4;}.cls-16{fill:url(#linear-gradient-3);}.cls-17{fill:#ffc89f;}.cls-18,.cls-56{opacity:0.2;}.cls-18{fill:url(#linear-gradient-4);}.cls-19{fill:#383534;}.cls-20{fill:#f7a57c;}.cls-21,.cls-50{fill:#5b392c;}.cls-21{opacity:0.8;}.cls-22{fill:#282626;}.cls-23,.cls-24{fill:#fff;}.cls-25{fill:#494543;}.cls-26{fill:#e28861;}.cls-27{fill:#545150;}.cls-28{fill:#ffe8e1;}.cls-29{fill:url(#linear-gradient-5);}.cls-30{fill:#4f4d4b;}.cls-31{fill:url(#linear-gradient-6);}.cls-32,.cls-40{opacity:0.15;}.cls-33{fill:url(#linear-gradient-7);}.cls-34{fill:url(#linear-gradient-8);}.cls-35{fill:url(#linear-gradient-9);}.cls-36{fill:url(#linear-gradient-10);}.cls-37{fill:url(#linear-gradient-11);}.cls-38,.cls-52{mix-blend-mode:overlay;}.cls-38{fill:url(#linear-gradient-12);}.cls-39,.cls-40{fill:#6b6b6b;}.cls-39,.cls-54{opacity:0.1;}.cls-41{fill:#e8926d;}.cls-42{fill:url(#linear-gradient-13);}.cls-43{fill:#2d2d2d;}.cls-44{fill:#77492a;}.cls-45{fill:#59351c;}.cls-46{mask:url(#mask-2);}.cls-47{fill:url(#linear-gradient-14);}.cls-48{fill:#492c1f;}.cls-49{fill:#ffe9e6;}.cls-51{fill:#ffb685;}.cls-52{opacity:0.3;fill:url(#linear-gradient-15);}.cls-53{fill:url(#linear-gradient-16);}.cls-55{fill:url(#linear-gradient-17);}.cls-57{fill:url(#linear-gradient-18);}.cls-58{fill:url(#linear-gradient-19);}.cls-59{fill:url(#linear-gradient-20);}.cls-60{filter:url(#luminosity-noclip);}</style><filter id="luminosity-noclip" x="524.04" y="-8644.63" width="26.66" height="32766" filterUnits="userSpaceOnUse" color-interpolation-filters="sRGB"><feFlood flood-color="#fff" result="bg"/><feBlend in="SourceGraphic" in2="bg"/></filter><mask id="mask" x="524.04" y="-8644.63" width="26.66" height="32766" maskUnits="userSpaceOnUse"><g class="cls-60"/></mask><linearGradient id="linear-gradient" x1="530.06" y1="337.33" x2="546.42" y2="288.27" gradientUnits="userSpaceOnUse"><stop offset="0"/><stop offset="1" stop-color="#fff"/></linearGradient><linearGradient id="Degradado_sin_nombre_100" x1="-2902.3" y1="228.5" x2="-2773.2" y2="228.5" gradientTransform="matrix(-1, 0, 0, 1, -2658.69, 0)" gradientUnits="userSpaceOnUse"><stop offset="0" stop-color="#ffb3a2"/><stop offset="0.37" stop-color="#ffbcad"/><stop offset="1" stop-color="#ffc8bb"/></linearGradient><linearGradient id="Degradado_sin_nombre_103" x1="-2921.87" y1="189.78" x2="-2701.39" y2="189.78" gradientTransform="matrix(-1, 0, 0, 1, -2658.69, 0)" gradientUnits="userSpaceOnUse"><stop offset="0" stop-color="#ff8984"/><stop offset="0.59" stop-color="#ffa598"/><stop offset="1" stop-color="#ffb3a2"/></linearGradient><linearGradient id="Degradado_sin_nombre_105" x1="-2915.14" y1="100.25" x2="-2743.29" y2="100.25" gradientTransform="matrix(-1, 0, 0, 1, -2658.69, 0)" gradientUnits="userSpaceOnUse"><stop offset="0" stop-color="#ffc8bb"/><stop offset="0.29" stop-color="#ffbaae"/><stop offset="0.85" stop-color="#ff948e"/><stop offset="1" stop-color="#ff8984"/></linearGradient><linearGradient id="Degradado_sin_nombre_103-2" x1="-3423.93" y1="405.76" x2="-3194.31" y2="405.76" xlink:href="#Degradado_sin_nombre_103"/><linearGradient id="Degradado_sin_nombre_105-2" x1="-3416.93" y1="312.52" x2="-3237.95" y2="312.52" xlink:href="#Degradado_sin_nombre_105"/><linearGradient id="linear-gradient-2" x1="603.02" y1="526.04" x2="-177.87" y2="-529.51" gradientTransform="matrix(1.06, 0.34, -0.3, 0.95, 185.56, -63.55)" gradientUnits="userSpaceOnUse"><stop offset="0" stop-color="#f75554"/><stop offset="0.16" stop-color="#f46868"/><stop offset="0.53" stop-color="#ed8f93"/><stop offset="0.83" stop-color="#e9a8ad"/><stop offset="1" stop-color="#e8b1b7"/></linearGradient><linearGradient id="linear-gradient-3" x1="740.05" y1="769.56" x2="-127.83" y2="-403.57" gradientTransform="matrix(0.4, -0.82, 0.9, 0.44, -264.36, 505.86)" xlink:href="#linear-gradient-2"/><linearGradient id="linear-gradient-4" x1="311.94" y1="183.68" x2="320.83" y2="100.34" gradientUnits="userSpaceOnUse"><stop offset="0" stop-color="#c63900"/><stop offset="1" stop-color="#b33700"/></linearGradient><linearGradient id="linear-gradient-5" x1="355.78" y1="325.23" x2="194.46" y2="-31.07" gradientUnits="userSpaceOnUse"><stop offset="0" stop-color="#1764b5"/><stop offset="1" stop-color="#aad9ff"/></linearGradient><linearGradient id="linear-gradient-6" x1="303.97" y1="156.99" x2="296.17" y2="330.68" gradientUnits="userSpaceOnUse"><stop offset="0" stop-color="#13191f"/><stop offset="1" stop-color="#4d5861"/></linearGradient><linearGradient id="linear-gradient-7" x1="322.13" y1="218.01" x2="377.3" y2="218.01" gradientUnits="userSpaceOnUse"><stop offset="0" stop-color="#1b66b0"/><stop offset="1" stop-color="#89fdff"/></linearGradient><linearGradient id="linear-gradient-8" x1="289.38" y1="222.74" x2="179.81" y2="214.39" gradientUnits="userSpaceOnUse"><stop offset="0" stop-color="#1b66b0"/><stop offset="0.48" stop-color="#89fdff"/></linearGradient><linearGradient id="linear-gradient-9" x1="302.76" y1="228.42" x2="306.02" y2="156.32" gradientUnits="userSpaceOnUse"><stop offset="0" stop-color="#13191f"/><stop offset="0.41" stop-color="#4d5861"/><stop offset="0.99"/></linearGradient><linearGradient id="linear-gradient-10" x1="304.91" y1="149.96" x2="274.82" y2="196.61" gradientUnits="userSpaceOnUse"><stop offset="0" stop-color="#e6e6e6"/><stop offset="1" stop-color="#f2f2f2"/></linearGradient><linearGradient id="linear-gradient-11" x1="322.47" y1="151.43" x2="344.27" y2="210.32" xlink:href="#linear-gradient-10"/><linearGradient id="linear-gradient-12" x1="284.57" y1="-10.21" x2="322.91" y2="279.35" gradientUnits="userSpaceOnUse"><stop offset="0" stop-color="#ff7915"/><stop offset="1" stop-color="#ff00c7" stop-opacity="0.1"/></linearGradient><linearGradient id="linear-gradient-13" x1="273.3" y1="340.89" x2="235.8" y2="201.48" gradientUnits="userSpaceOnUse"><stop offset="0" stop-color="#ff1515"/><stop offset="1" stop-color="#fff"/></linearGradient><filter id="luminosity-noclip-2" x="524.04" y="288.27" width="26.66" height="34.25" filterUnits="userSpaceOnUse" color-interpolation-filters="sRGB"><feFlood flood-color="#fff" result="bg"/><feBlend in="SourceGraphic" in2="bg"/></filter><mask id="mask-2" x="524.04" y="288.27" width="26.66" height="34.25" maskUnits="userSpaceOnUse"><g class="cls-1"><polygon class="cls-2" points="524.04 322.35 533.96 288.27 550.7 291.44 547.46 322.52 524.04 322.35"/></g></mask><linearGradient id="linear-gradient-14" x1="530.06" y1="337.33" x2="546.42" y2="288.27" gradientUnits="userSpaceOnUse"><stop offset="0" stop-color="#ffbd61"/><stop offset="1" stop-color="#bd3f00"/></linearGradient><linearGradient id="linear-gradient-15" x1="555.87" y1="454.76" x2="563.41" y2="143.9" gradientUnits="userSpaceOnUse"><stop offset="0" stop-color="#ff7915"/><stop offset="1" stop-color="#ff00c7" stop-opacity="0.5"/></linearGradient><linearGradient id="linear-gradient-16" x1="551.17" y1="465.6" x2="501.26" y2="280.02" xlink:href="#linear-gradient-13"/><linearGradient id="linear-gradient-17" x1="96.65" y1="484.98" x2="-121.59" y2="189.97" xlink:href="#linear-gradient-2"/><linearGradient id="linear-gradient-18" x1="777.48" y1="308.69" x2="559.24" y2="13.68" gradientTransform="matrix(0.59, -0.94, 0.85, 0.53, 81.98, 738.46)" xlink:href="#linear-gradient-2"/><linearGradient id="linear-gradient-19" x1="1409.4" y1="-1029.71" x2="1410.38" y2="-1029.71" gradientTransform="translate(-1843.07 1206.66) scale(1.54 1)" gradientUnits="userSpaceOnUse"><stop offset="0" stop-color="#adadad"/><stop offset="1" stop-color="#f2f2f2"/></linearGradient><linearGradient id="linear-gradient-20" x1="1249.98" y1="1523.8" x2="1250.95" y2="1523.8" gradientTransform="matrix(0, 1.54, -1, 0, 1805.37, -1743)" xlink:href="#linear-gradient-19"/></defs><title>How it works</title><g class="cls-3"><g id="Layer_2" data-name="Layer 2"><g id="Layer_1-2" data-name="Layer 1"><g class="cls-4"><path class="cls-5" d="M129.51,293.05a15,15,0,0,0,10.61-4.39l99.1-99.1A15,15,0,1,0,218,168.35l-99.1,99.1a15,15,0,0,0,10.6,25.6Z"/><path class="cls-6" d="M57.09,300a14.34,14.34,0,0,0,10.17-4.22L259,104.11a14.39,14.39,0,0,0-20.35-20.36L46.91,275.45A14.4,14.4,0,0,0,57.09,300Z"/><path class="cls-7" d="M90.6,186.17a6,6,0,0,0,4.25-1.75L254.69,24.57a6,6,0,0,0-8.48-8.49L86.36,175.93a6,6,0,0,0,4.24,10.24Z"/><path class="cls-8" d="M177,263.1a1.51,1.51,0,0,0,1.06-.44L337.9,102.81a1.5,1.5,0,0,0-2.12-2.12L175.93,260.54a1.49,1.49,0,0,0,0,2.12A1.51,1.51,0,0,0,177,263.1Z"/><path class="cls-9" d="M1.5,305.48A1.51,1.51,0,0,0,2.56,305L162.41,145.19a1.49,1.49,0,0,0,0-2.12,1.51,1.51,0,0,0-2.12,0L.44,302.92a1.49,1.49,0,0,0,0,2.12A1.51,1.51,0,0,0,1.5,305.48Z"/></g><g class="cls-10"><path class="cls-11" d="M550.61,520.57a14.93,14.93,0,0,0,10.6-4.39L760.86,316.54a15,15,0,0,0-21.2-21.2L540,495a15,15,0,0,0,10.6,25.58Z"/><path class="cls-12" d="M585.51,402a6.23,6.23,0,0,0,4.42-1.83L756.41,233.7a6.25,6.25,0,0,0-8.84-8.84L581.1,391.34A6.25,6.25,0,0,0,585.51,402Z"/><path class="cls-9" d="M492.72,526.26a1.52,1.52,0,0,0,1.1-.46L660.3,359.33a1.56,1.56,0,0,0-2.21-2.21L491.61,523.59a1.57,1.57,0,0,0,1.11,2.67Z"/></g><g class="cls-13"><path class="cls-14" d="M742,178.63c35.6,67.13,65.54,133.45,56,196.72S739.73,499.1,674.07,526.26,525.71,547.39,455.34,520,327.07,443.91,297.13,386.27s-31.87-124.33-8.95-178C310.93,154.65,358.39,114,418.39,77.34S547.93,92.14,605,109.83C661.83,127.58,706.35,111.5,742,178.63Z"/></g><g class="cls-15"><path class="cls-16" d="M240.49,66.88c73.66-18.35,146-31.69,212.06-9.51S578.6,137,602.11,202.88s10.65,140.37-23.79,199-90.4,101.33-153.6,116.51S291,521.16,236.11,488.78c-54.8-32.22-94-84.33-128-147.06S58.93,199.32,82.08,150.85C105.29,102.53,166.83,85.24,240.49,66.88Z"/></g><path class="cls-17" d="M341,168.87l4.71-66.29-44.79,33.7-2.45,23.77c-3.47-.37-7-.72-10.7-1.07.69,13.47,33.85,30.06,62.52,13.82C347.18,171.3,344.08,170,341,168.87Z"/><path class="cls-18" d="M300.58,173.72c15-2.05,29.1-8.7,41.61-22l2.95-41.51a39.16,39.16,0,0,0-4.31-4l-39.94,30.05-2.45,23.77c-3.47-.37-7-.72-10.7-1.07C288,164.1,293,169.67,300.58,173.72Z"/><path class="cls-19" d="M316.76,34.51C310.58,19,298.59,9.26,290,12.69S279.39,31.46,285.56,47s18.17,25.25,26.78,21.82S322.94,50,316.76,34.51Z"/><path class="cls-20" d="M292.39,146.39c-6.11-14.84-14.35-31.13-16.5-46.23,0,0,12.74-22.07,3.76-37.35,0,0,7.91-30.58,24.83-30.88S357.4,38.65,354,80.35C347.9,155.75,292.39,146.39,292.39,146.39Z"/><path class="cls-17" d="M292.92,143.5c-6.75-13.51-14.88-28.24-17-43.34,0,0,12.74-22.07,3.76-37.35,0,0,7.91-30.58,24.83-30.88S360.71,39.05,354,80.35C343,148.28,292.92,143.5,292.92,143.5Z"/><path class="cls-20" d="M290.93,64.54c-.28,0-.55,0-.83,0a78.3,78.3,0,0,1-9.91-.65c7.79,15.21-4.3,36.24-4.3,36.24,2,13.74,8.94,28.47,14.8,42.19-3.62-11.73-10.92-30.14,0-38.53C305.3,92.57,294.89,67.25,290.93,64.54Z"/><path class="cls-21" d="M287.77,83.64c.33-3.81,5.81-6.39,5.63.18C293.4,87.38,287.9,90.17,287.77,83.64Z"/><path class="cls-22" d="M289.38,83.69c.22-2.54,3.88-4.26,3.76.13C293.14,86.19,289.47,88.06,289.38,83.69Z"/><path class="cls-23" d="M288.83,84.21c.1.94.8,1.68.33,1.73s-.94-.66-1-1.6.19-1.75.66-1.81S288.72,83.27,288.83,84.21Z"/><ellipse class="cls-24" cx="291.94" cy="82.82" rx="0.58" ry="1.16"/><path class="cls-25" d="M275.89,100.16c-2,4.72-8.56,21.62,7.48,41.67,0,0,45.84,36.37,66.87-31.89C314.58,103.19,301.5,124.29,275.89,100.16Z"/><path class="cls-17" d="M301.08,112c-8.44,0-21.95-5.06-21.1-7.88s18.8-19.47,10.95-39.56l8.46,1.58Z"/><path class="cls-26" d="M283.91,102.7c.82-2.72,16.82-18.26,10.75-37.46l-3.73-.7c7.85,20.09-10.11,36.75-10.95,39.56s12.66,7.88,21.1,7.88l-.06-1.72C292.91,109.12,283.2,105.09,283.91,102.7Z"/><path class="cls-25" d="M294.33,36.3s-13.25-20.82-4.1-24,65.72-8,80.59,46.86c0,0-9.66,50.21-27.91,71.84,0,0-5.49.27-4.83-13.16.88-18,10.72-50.38,3.92-60.34C330.12,40.05,294.33,36.3,294.33,36.3Z"/><path class="cls-27" d="M370.82,59.11c-4.32-15.94-12.17-26.83-21.34-34.2C288.42,12.38,351.16,49.24,370.82,59.11Z"/><path class="cls-20" d="M307.69,81.78c3.24.23,17.87,2.06,17.87,2.06s-7.74-5.55-14.35-6.19Z"/><path class="cls-17" d="M345.18,93.27c4.82-4.82,8.23.84,8.44,5.06.18,3.68-7.39,14.56-10.34,10.13S343.49,95,345.18,93.27Z"/><path class="cls-22" d="M301.37,133c-9.69-.47-15.8-12-14.33-14s23.85-3.48,27.65.53S305.85,133.18,301.37,133Z"/><path class="cls-28" d="M287.89,118.49l1.91,3.37,19.2.1s3.58-2.31,3.26-3.47C311.37,115.24,293,116.06,287.89,118.49Z"/><path class="cls-26" d="M346.3,97c2.84-2.85,5.07-1.08,6.09,1.39-.34-3.29-3-7.33-6.66-3.65-1.25,1.25-3.46,7.56-1.86,11.26C343.6,102.42,345.28,98,346.3,97Z"/><path class="cls-26" d="M346.24,99.77c2.25-1.82,3.71-.39,4.26,1.45,0-2.37-1.59-5.46-4.5-3.11-1,.8-3,5.15-2.16,7.91C343.9,103.43,345.43,100.42,346.24,99.77Z"/><path class="cls-25" d="M310.57,34.18C303.82,26.59,286.52,14.77,297.7,0c0,0-23,7-4.22,33.34Z"/><path class="cls-25" d="M306.27,26.84c-2.91-5.66-11.56-15.53-2.48-22.74,0,0-15,.63-7.76,19.56Z"/><path class="cls-21" d="M313.71,87.86c.33-3.81,5.81-6.39,5.63.19C319.33,91.6,313.83,94.39,313.71,87.86Z"/><path class="cls-22" d="M315.32,87.92c.22-2.55,3.88-4.27,3.76.12C319.08,90.42,315.4,92.28,315.32,87.92Z"/><path class="cls-23" d="M314.76,88.43c.11.94.81,1.68.34,1.74s-.94-.67-1.05-1.61.19-1.75.66-1.8S314.66,87.49,314.76,88.43Z"/><ellipse class="cls-24" cx="318.28" cy="86.73" rx="0.56" ry="1.12"/><path class="cls-29" d="M404.12,283.58l-168.31-1.13s5.85-85.08,18.28-102.87a54.41,54.41,0,0,1,4.29-5.43,46.86,46.86,0,0,1,6.82-6.29c15.3-11.42,27.43-8.62,27.43-8.62s-3.26,1.47-2.4,2.71c3.37,4.85,12.26,15.6,26.92,16.35a24.45,24.45,0,0,0,24.32-14.59s1.18-5.16,25.15,5c11.51,4.87,27,19,31.57,28C404.8,209.9,404.12,283.58,404.12,283.58Z"/><path class="cls-30" d="M306.87,61.17c-.75-4.25,1.1-5.58,1.35-5.91s3.52,1.32,4.88,2c3.52,1.76,9.71,5.49,16.81,14.08l-1.23.59S310.5,62.72,306.87,61.17Z"/><path class="cls-30" d="M281.1,66.4s-3.12.23-1.81-4,10-4.67,10-4.67,3.83-.21,3.76.32a13.86,13.86,0,0,1-2,6.43Z"/><polygon class="cls-31" points="308.89 169.88 310.39 274.88 305.05 282.95 287.89 282.95 287.74 257.36 302.85 173.07 308.89 169.88"/><g class="cls-32"><polygon points="363.39 168.86 363.09 169.38 362.88 169.75 359.36 181.63 359.26 181.8 346.15 206.67 354.35 213.05 318.39 284.85 309.65 284.85 334.96 167.87 338.05 155.45 339.55 154.97 363.39 168.86"/></g><polygon class="cls-33" points="366.63 165.76 366.32 166.28 366.11 166.66 358.6 179.73 358.49 179.9 343.74 207.01 351.95 213.39 317.62 282.95 308.89 282.95 334.2 165.97 337.29 153.55 338.78 153.07 366.63 165.76"/><g class="cls-32"><path d="M290.17,162.59c-.2,1.2-.44,2.37-.65,3.53v0c-.17,1-.34,2-.55,3v.11c0,.07,0,.1,0,.17v0c-.59,3.3-1.14,6.56-1.62,9.78-5.45,34.35-7.2,64.93-5.69,105.14H268l-7.69-73.21,7.34-5,.15-3.58v-.31l-.45-27.11V175l-.09-6.51Z"/></g><path class="cls-34" d="M291.48,161.17c-.21,1.2-.45,2.36-.66,3.53v0c-.17,1-.34,2-.55,3v.1c0,.07,0,.11,0,.17v0c-.58,3.29-1.13,6.55-1.61,9.78-5.46,34.35-7.21,64.92-5.7,105.14H269.31l-7.7-70.9,7.34-5,.15-5.9v-.31l-.44-27.11v-.1l-.07-5.08Z"/><path class="cls-35" d="M317.71,175.55l-9.83-9.15a2.91,2.91,0,0,0-4-1.21l-10.09,6.2a2.9,2.9,0,0,0-1,4.13l9.74,14.76a2.91,2.91,0,0,0,4.6.33l10.18-11.8A2.9,2.9,0,0,0,317.71,175.55Z"/><path class="cls-36" d="M284.62,183.17l18.31-17.24a.36.36,0,0,0,.08-.43l-4.86-10.74a.37.37,0,0,0-.58-.14l-8.16,6.48a.33.33,0,0,0-.13.21L284,182.81A.38.38,0,0,0,284.62,183.17Z"/><path class="cls-37" d="M304.42,165.51,321.11,186a1.46,1.46,0,0,0,2.16.11l24.2-24.36a1.45,1.45,0,0,0,.37-1.38l-2.7-10.77A.86.86,0,0,0,344,149l-38.93,14.19A1.45,1.45,0,0,0,304.42,165.51Z"/><path class="cls-38" d="M398.19,196.74c-4.54-9-20.06-23.14-31.57-28l-1.37-.57.86-1.5.21-.38.3-.52-20.44-9.32-2.45-6.25-1.46.5.34-4.84,1.13-15.91c17.71-22.14,27.08-70.83,27.08-70.83-.25-.93-.52-1.85-.8-2.75-.08-.27-.17-.54-.26-.81-.2-.63-.4-1.25-.61-1.87l-.32-.87c-.21-.59-.42-1.17-.65-1.74-.1-.27-.2-.53-.31-.79-.24-.62-.5-1.22-.75-1.81l-.26-.6c-.33-.73-.66-1.45-1-2.15l-.07-.15c-15.67-32.12-48.8-36.11-66-34.91a9.73,9.73,0,0,1,4-6.56s-7.48.33-9.33,7.17l-.34.05C293.74,7.78,294.67,4,297.7,0c0,0-11.93,3.61-11.59,15.5-5.18,5.95-5.65,18.65-.55,31.45l.2.47a79,79,0,0,0-5.52,13.35,4,4,0,0,0-.95,1.59c-1.31,4.27,1.81,4,1.81,4l.15,0c5.48,14.92-5.36,33.79-5.36,33.79-2,4.72-8.56,21.62,7.48,41.67a52.35,52.35,0,0,0,16.12,8.06l-.66,6.38-.88-2-6.05,4.8c-2.82-.39-13.59-1.05-26.7,8.74a46.86,46.86,0,0,0-6.82,6.29,54.41,54.41,0,0,0-4.29,5.43c-12.43,17.79-18.28,102.87-18.28,102.87l33.46.22,0,.28h13.62v-.19l5,0V283H305l0,0,3.82,0h1.68l93.55.63S404.8,209.9,398.19,196.74Z"/><polygon class="cls-24" points="191.1 374.22 448.41 379 453.27 222.61 195.96 217.83 191.1 374.22"/><polygon class="cls-24" points="452.48 246.56 451.96 265.52 424.83 265.17 437.47 258.61 452.48 246.56"/><path class="cls-39" d="M208.31,320.84l102.27,1.69a1.2,1.2,0,0,0,1.27-1.07l1.9-54.43a1.19,1.19,0,0,0-1.22-1.15l-102.27-1.69a1.2,1.2,0,0,0-1.27,1.08l-1.9,54.43A1.18,1.18,0,0,0,208.31,320.84Z"/><path class="cls-39" d="M323.15,365.44l107.4,4.46a1.19,1.19,0,0,0,1.3-1.1l1-125.91a1.18,1.18,0,0,0-1.19-1.12l-107.39-4.45a1.2,1.2,0,0,0-1.31,1.1l-1,125.9A1.18,1.18,0,0,0,323.15,365.44Z"/><path class="cls-39" d="M209.91,337.82l102.27,1.69a1.2,1.2,0,0,0,1.27-1.06l.28-5.14a1.18,1.18,0,0,0-1.22-1.17l-102.27-1.69a1.2,1.2,0,0,0-1.27,1.06l-.28,5.15A1.18,1.18,0,0,0,209.91,337.82Z"/><path class="cls-39" d="M209.91,351l102.27,1.69a1.2,1.2,0,0,0,1.27-1.06l.28-5.14a1.18,1.18,0,0,0-1.22-1.17l-102.27-1.69a1.2,1.2,0,0,0-1.27,1.06l-.28,5.15A1.18,1.18,0,0,0,209.91,351Z"/><path class="cls-39" d="M209.91,363.66l102.27,1.69a1.19,1.19,0,0,0,1.27-1.05l.28-5.15a1.17,1.17,0,0,0-1.22-1.16l-102.27-1.7a1.2,1.2,0,0,0-1.27,1.06l-.28,5.15A1.18,1.18,0,0,0,209.91,363.66Z"/><path class="cls-40" d="M330.92,251.1,425.13,255a1.19,1.19,0,0,0,1.31-1.15l-.19-4.41a1.19,1.19,0,0,0-1.19-1.06l-94.21-3.91a1.19,1.19,0,0,0-1.31,1.15l.19,4.4A1.19,1.19,0,0,0,330.92,251.1Z"/><path class="cls-40" d="M330.33,263.63l94.21,3.91a1.2,1.2,0,0,0,1.31-1.16l-.19-4.4a1.18,1.18,0,0,0-1.19-1.06L330.26,257a1.19,1.19,0,0,0-1.31,1.15l.19,4.4A1.2,1.2,0,0,0,330.33,263.63Z"/><path class="cls-40" d="M329.74,276.15,424,280.06a1.18,1.18,0,0,0,1.3-1.15l-.19-4.4a1.18,1.18,0,0,0-1.19-1.07l-94.21-3.91a1.19,1.19,0,0,0-1.3,1.16l.19,4.4A1.17,1.17,0,0,0,329.74,276.15Z"/><path class="cls-40" d="M329.16,288.68l94.21,3.91a1.18,1.18,0,0,0,1.3-1.15l-.19-4.4A1.18,1.18,0,0,0,423.3,286l-94.22-3.91a1.18,1.18,0,0,0-1.3,1.15l.19,4.41A1.17,1.17,0,0,0,329.16,288.68Z"/><path class="cls-40" d="M329.06,358.87l94.21,3.91a1.19,1.19,0,0,0,1.31-1.12l-.14-63a1.16,1.16,0,0,0-1.19-1.1L329,293.61a1.19,1.19,0,0,0-1.31,1.11l.14,63A1.18,1.18,0,0,0,329.06,358.87Z"/><path class="cls-17" d="M465,294.52s19.14-20.26-2-32.47c0,0-7.1-5.21-13.77-3.41,0,0-4.45,2-5.34,6.41l-13.46.11s-5,1.11-4,5.36c0,0,.1,2.9,1.83,4,0,0-3.58,4.53,1.66,7.87a5.93,5.93,0,0,0,2.52,7.4,58,58,0,0,0,9.33,6.05S458.44,298.74,465,294.52Z"/><path class="cls-41" d="M454.58,265.49l-10.65-.16S448.17,257.93,454.58,265.49Z"/><path class="cls-41" d="M428.52,274.34l19.22-.08s-19.25-.95-20-2.9C427.76,271.36,426.5,272.85,428.52,274.34Z"/><path class="cls-41" d="M430.05,282.18l19.22-.09s-19.26-.94-20-2.89C429.29,279.2,428,280.69,430.05,282.18Z"/><path class="cls-41" d="M432.75,289.66l19.22-.08s-19.26-.95-20-2.9C432,286.68,430.73,288.17,432.75,289.66Z"/><path class="cls-41" d="M465.45,292.42s-6.91,1.94-9.18,2.26c-3.06.44-12,.31-12,.31S459.44,299.64,465.45,292.42Z"/><path class="cls-41" d="M467,271.54a55.82,55.82,0,0,1,1.19,6.09,50.69,50.69,0,0,1-1.05,7.5S473.46,276.55,467,271.54Z"/><path class="cls-17" d="M181.07,301.87s-19.13-20.25,2-32.46c0,0,7.09-5.22,13.76-3.41,0,0,4.45,2,5.34,6.41l13.46.1s5,1.12,4,5.37c0,0-.1,2.9-1.83,4,0,0,3.59,4.53-1.65,7.86a5.93,5.93,0,0,1-2.52,7.4,57.57,57.57,0,0,1-9.34,6.06S187.61,306.1,181.07,301.87Z"/><path class="cls-41" d="M191.48,272.84l10.64-.15S197.89,265.28,191.48,272.84Z"/><path class="cls-41" d="M217.53,281.7l-19.22-.09s19.26-.95,20-2.89C218.29,278.72,219.55,280.21,217.53,281.7Z"/><path class="cls-41" d="M216,289.53l-19.22-.08s19.26-.95,20-2.89C216.76,286.56,218,288,216,289.53Z"/><path class="cls-41" d="M213.3,297l-19.21-.08s19.25-.95,20-2.89C214.07,294,215.33,295.52,213.3,297Z"/><path class="cls-41" d="M180.6,299.78s6.91,1.93,9.18,2.26c3.06.44,12,.3,12,.3S186.62,307,180.6,299.78Z"/><path class="cls-41" d="M178,278.49a58.69,58.69,0,0,0-1.19,6.1,50.17,50.17,0,0,0,1.06,7.49S171.55,283.51,178,278.49Z"/><polygon class="cls-24" points="195.62 228.33 194.1 272.88 207.9 272.43 207.31 265.66 195.62 228.33"/><path class="cls-42" d="M254,300.72l.22-14.35a1.5,1.5,0,0,1,2.35-1l12,7.75a1.24,1.24,0,0,1-.1,2.19l-12.2,6.59A1.48,1.48,0,0,1,254,300.72Z"/><path class="cls-43" d="M221.35,245.31l-6.51-.1-.1,6.47-3.05-.05.23-15.2,3.05,0-.1,6.25,6.51.09.1-6.24,3,0-.22,15.2-3.05,0Z"/><path class="cls-43" d="M227.64,236.58a1.88,1.88,0,1,1,1.85,1.81A1.8,1.8,0,0,1,227.64,236.58Zm.28,3.23,3.05,0-.18,12.06-3,0Z"/><path class="cls-43" d="M245.09,252.28c-3.15-.05-5.57-1.74-5.57-4.62l3.27.05a2.08,2.08,0,0,0,2.27,2.06c1.44,0,2.3-.73,2.32-1.82.05-3.28-7.82-1.42-7.72-6.92,0-2.75,2.29-4.37,5.42-4.32s5.23,1.66,5.38,4.41l-3.35-.05a2,2,0,0,0-2.15-1.84c-1.2-.06-2.1.51-2.12,1.75,0,3.05,7.78,1.47,7.7,6.83C250.5,250.2,248.55,252.33,245.09,252.28Z"/><path class="cls-43" d="M258.45,240.06a4.77,4.77,0,0,1,4,2l0-1.72,3.07,0-.18,12.06-3.07,0,0-1.77a4.75,4.75,0,0,1-4,1.9c-3,0-5.45-2.58-5.39-6.35S255.38,240,258.45,240.06Zm.74,2.69a3.22,3.22,0,0,0-3.23,3.46,3.31,3.31,0,0,0,3.13,3.64,3.57,3.57,0,0,0,.1-7.1Z"/><path class="cls-43" d="M271.79,252.52l-3.05-.05.18-12.06,3.05.05,0,1.87a4.18,4.18,0,0,1,3.73-2l-.05,3.2h-.8c-1.81,0-2.91.65-2.94,3Z"/><path class="cls-43" d="M282.88,240.42a4.76,4.76,0,0,1,3.95,2l0-1.72,3.07,0-.18,12.06-3.07,0,0-1.76a4.8,4.8,0,0,1-4,1.9c-3,0-5.45-2.59-5.39-6.36S279.81,240.38,282.88,240.42Zm.74,2.69a3.22,3.22,0,0,0-3.23,3.46,3.3,3.3,0,0,0,3.13,3.64,3.57,3.57,0,0,0,.1-7.1Z"/><path class="cls-43" d="M293.41,236.72l3,.05-.08,5.55a4.63,4.63,0,0,1,3.77-1.62c2.72,0,4.67,1.9,4.62,5.23l-.1,7.07-3.05,0,.1-6.66c0-1.94-1-3-2.64-3s-2.73,1-2.76,2.94l-.1,6.66-3.05,0Z"/><path class="cls-43" d="M310.37,253.24a1.79,1.79,0,1,1,1.88-1.76A1.79,1.79,0,0,1,310.37,253.24Zm-1.49-15.63,3.29,0-.51,10.51-2.56,0Z"/><path class="cls-39" d="M450.28,319l.66-12-47.34.28-2,35.75s-25.7,10.89-5.59,35.47l51.11.28Z"/><path class="cls-44" d="M620.2,206.73c-4.4-28.39-45.59-41-74.37-30.42-41.2,15.18-68.48,78.23-10.61,155.6,43.39,62.56,61.76,26.32,103.9-8.91C610.23,319.91,625.13,238.49,620.2,206.73Z"/><path class="cls-45" d="M606.14,263.5c7.61-49.94-13.61-101.24-61.8-83.49-41.2,15.17-67,74.53-9.12,151.9,43.24,62.34,72.25,19.65,88.77,4.17C606,325.05,601.25,295.6,606.14,263.5Z"/><path class="cls-45" d="M510.57,207s-24.85,13.13-14.24,49.15-14,63.95-15.55,69.64c-8.1,30.45,10.24,24.77,10.8,29s33.52-32.12,33.52-32.12l3.07-7.54L524.54,295l-11.45-17.6s-7-18.43-7-33.51S510.57,207,510.57,207Z"/><polygon class="cls-17" points="524.04 322.35 533.96 288.27 550.7 291.44 547.46 322.52 524.04 322.35"/><g class="cls-46"><polygon class="cls-47" points="524.04 322.35 533.96 288.27 550.7 291.44 547.46 322.52 524.04 322.35"/></g><path class="cls-20" d="M523.11,277.34c5,18.4,25.37,25.2,28.78,23,9.74-7.86,63.52-64.31,13.52-104.57C508.8,216.49,520.62,268.61,523.11,277.34Z"/><path class="cls-17" d="M528.3,277.66c2.29,10.08,10,20.49,23.94,20.52,7.08,0,63.17-62.19,13.17-102.45C524.05,219.16,525.81,268.92,528.3,277.66Z"/><path class="cls-48" d="M552.61,289.26c2.21-3.33,5.24-7.57,6.76-10.41a61.66,61.66,0,0,1-22.8-8.87C538.76,277.31,542.48,283.93,552.61,289.26Z"/><path class="cls-49" d="M559.4,278.7l-4.68,5.56s-10.89-3.44-15-8.14a19.7,19.7,0,0,1-1.8-5.43S548.2,277.08,559.4,278.7Z"/><path class="cls-26" d="M555.16,272.55l-.12-1.41c3.86.85,5.14-1.15,5.1-2.29-.06-2-2.79-2.46-5.81-2.43a77.69,77.69,0,0,1,5.73-25.33l2.21.95c-3.9,8.61-5.67,13.21-6.88,23.06,2.79-.18,5.06.56,6.24,2.1C563,269,562.27,273.8,555.16,272.55Z"/><path class="cls-50" d="M532.11,238.52c2.85-.89,14.86-2.5,20,.83l-.36,1.4C546.86,238.68,540.14,237.94,532.11,238.52Z"/><path class="cls-50" d="M565.05,244.48c2.9,0,13.14.85,17.19,5.52L581,252.1C577.5,248.78,572.41,246.33,565.05,244.48Z"/><path class="cls-44" d="M527.12,235.2c6.6-5.54,14.86-8.26,24.88-4.84l1.42-1.88C542.81,224.35,535.49,225.88,527.12,235.2Z"/><path class="cls-44" d="M585.73,244.63c-3.65-5.89-8-8.61-16.13-10.65l-.21-1.79C579,233.9,583.49,236.85,585.73,244.63Z"/><path class="cls-20" d="M517.69,249.47,520,236.73S507.07,237,517.69,249.47Z"/><path class="cls-51" d="M530.18,255.21c.43-5.67,12.16-1.74,12-.16C542.05,257.1,529.75,261,530.18,255.21Z"/><path class="cls-51" d="M575.63,266.9c-3.26,3.58-7.8-4.39-6.89-5.38C569.92,260.24,578.93,263.29,575.63,266.9Z"/><path class="cls-45" d="M489.62,287.09c4-2.59,13-11.09,5.42-28.78-5.83-13.66,2.83-31.6,18.87-43.87l17-27.36s-57.08,37.27-40.8,68.88C500.22,275.63,489.62,287.09,489.62,287.09Z"/><path class="cls-44" d="M631.2,313.67c2.61-4.31,7.21-16.64-7.93-31.1-11.7-11.17-11.67-32.82-2.1-51.95l-4.54-22.23s-5.5,68.81.89,73.94C636.26,297.36,631.2,313.67,631.2,313.67Z"/><path class="cls-21" d="M540.71,244.82c.4-4.71,7.17-7.9,6.95.22C547.66,249.44,540.86,252.89,540.71,244.82Z"/><path class="cls-22" d="M542.35,245.23c.27-3.15,4.79-5.28,4.65.15C547,248.32,542.45,250.62,542.35,245.23Z"/><path class="cls-23" d="M542.28,244.69c-.22,1.15.34,2.28-.23,2.17s-.87-1.13-.65-2.28.85-2,1.43-1.89S542.5,243.54,542.28,244.69Z"/><ellipse class="cls-24" cx="545.97" cy="244.54" rx="0.75" ry="1.49"/><path class="cls-21" d="M568,252.6c.4-4.71,7.17-7.89,6.95.23C574.92,257.22,568.12,260.67,568,252.6Z"/><path class="cls-22" d="M569.61,253c.27-3.14,4.8-5.27,4.65.15C574.25,256.1,569.71,258.4,569.61,253Z"/><path class="cls-23" d="M569.54,252.47c-.21,1.15.34,2.28-.23,2.18s-.87-1.13-.65-2.28.86-2,1.43-1.89S569.76,251.32,569.54,252.47Z"/><ellipse class="cls-24" cx="573.23" cy="252.32" rx="0.75" ry="1.49"/><path class="cls-52" d="M619.59,340.39c6-5.51,12.4-11.46,19.49-17.39-12.49-1.33-16.79-17.29-18.06-37.54,14.5,14.07,10.13,28.21,10.13,28.21,2.61-4.31,7.21-16.64-7.93-31.1a25.67,25.67,0,0,1-2.47-2.75c-.92-25.64,2-56.3-.59-73.09-4.41-28.39-45.6-41-74.37-30.42a63,63,0,0,0-27.46,20.2C502.56,209.59,478.8,234.12,490,256c10.13,19.67-.47,31.13-.47,31.13,4-2.59,13-11.09,5.43-28.78a25,25,0,0,1-1.19-15.09,63.53,63.53,0,0,0,2.47,12.94c10.62,36-14,63.95-15.54,69.64-8.1,30.45,10.24,24.77,10.8,29s33.51-32.12,33.51-32.12l.11-.28,3.25,0c2.12,3.14,4.36,6.32,6.76,9.53,23.26,33.53,39.33,38.67,55.73,30.8C602.59,358.38,612.11,348.07,619.59,340.39Z"/><polygon class="cls-24" points="411.47 480.76 668.77 485.55 673.63 323.16 416.33 318.38 411.47 480.76"/><polygon class="cls-24" points="672.73 352.46 672.34 366.55 652.18 366.29 661.57 361.41 672.73 352.46"/><path class="cls-39" d="M483.8,434.46l101,1.87a4.07,4.07,0,0,0,4.15-3.95l1.81-58.2a4.08,4.08,0,0,0-4-4.2l-101-1.88a4.08,4.08,0,0,0-4.15,3.95l-1.81,58.2A4.09,4.09,0,0,0,483.8,434.46Z"/><path class="cls-39" d="M484.92,446.87l87.59,1.63a3.54,3.54,0,0,0,3.6-3.37l0-.41a3.54,3.54,0,0,0-3.47-3.71l-87.59-1.62a3.53,3.53,0,0,0-3.6,3.36l0,.42A3.54,3.54,0,0,0,484.92,446.87Z"/><path class="cls-39" d="M484.92,460.25l87.59,1.63a3.55,3.55,0,0,0,3.6-3.37l0-.41a3.53,3.53,0,0,0-3.47-3.71l-87.59-1.63a3.55,3.55,0,0,0-3.6,3.37l0,.41A3.55,3.55,0,0,0,484.92,460.25Z"/><path class="cls-39" d="M484.92,473.12l87.59,1.63a3.55,3.55,0,0,0,3.6-3.37l0-.41a3.54,3.54,0,0,0-3.47-3.71l-87.59-1.63a3.55,3.55,0,0,0-3.6,3.37l0,.41A3.54,3.54,0,0,0,484.92,473.12Z"/><path class="cls-17" d="M682,374.7s14.22-15.06-1.51-24.14c0,0-5.28-3.87-10.24-2.53a7.4,7.4,0,0,0-4,4.77l-10,.07s-3.74.84-3,4c0,0,.07,2.16,1.36,3a3.82,3.82,0,0,0,1.23,5.84,4.41,4.41,0,0,0,1.87,5.51,42.89,42.89,0,0,0,6.94,4.5S677.17,377.84,682,374.7Z"/><path class="cls-41" d="M674.29,353.12l-7.91-.11S669.53,347.5,674.29,353.12Z"/><path class="cls-41" d="M654.92,359.7l14.29-.06s-14.32-.7-14.85-2.15C654.36,357.49,653.42,358.59,654.92,359.7Z"/><path class="cls-41" d="M656.06,365.53l14.29-.06s-14.32-.71-14.86-2.16C655.49,363.31,654.55,364.42,656.06,365.53Z"/><path class="cls-41" d="M658.06,371.09l14.29-.06s-14.31-.71-14.85-2.15C657.5,368.88,656.56,370,658.06,371.09Z"/><path class="cls-41" d="M682.38,373.14s-5.14,1.44-6.83,1.69c-2.28.32-8.92.22-8.92.22S677.9,378.51,682.38,373.14Z"/><path class="cls-41" d="M683.56,357.62a40.85,40.85,0,0,1,.88,4.53,37.22,37.22,0,0,1-.78,5.57S688.33,361.35,683.56,357.62Z"/><path class="cls-17" d="M405.07,375.1s-14.77-15.62,1.57-25.05c0,0,5.48-4,10.62-2.63,0,0,3.44,1.53,4.12,4.95l10.39.08s3.89.86,3.1,4.14c0,0-.08,2.24-1.41,3.06a4,4,0,0,1-1.28,6.07,4.58,4.58,0,0,1-1.94,5.71A44.79,44.79,0,0,1,423,376.1S410.11,378.36,405.07,375.1Z"/><path class="cls-41" d="M413.1,352.7l8.21-.12S418.05,346.87,413.1,352.7Z"/><path class="cls-41" d="M433.2,359.53l-14.83-.06s14.86-.73,15.42-2.23C433.79,357.24,434.76,358.39,433.2,359.53Z"/><path class="cls-41" d="M432,365.58l-14.83-.06s14.86-.73,15.42-2.24C432.61,363.28,433.58,364.43,432,365.58Z"/><path class="cls-41" d="M429.94,371.35l-14.83-.06s14.86-.73,15.42-2.23C430.53,369.06,431.5,370.21,429.94,371.35Z"/><path class="cls-41" d="M404.71,373.49s5.33,1.49,7.08,1.74c2.36.34,9.26.24,9.26.24S409.35,379.05,404.71,373.49Z"/><path class="cls-41" d="M402.68,357.06a44.45,44.45,0,0,0-.92,4.71,39.07,39.07,0,0,0,.81,5.78S397.72,360.94,402.68,357.06Z"/><polygon class="cls-24" points="416.3 318.35 415.12 352.73 425.77 352.39 425.31 347.16 416.3 318.35"/><path class="cls-53" d="M526.76,412.46,527,392.4a1.3,1.3,0,0,1,2.06-1L544,402.21a1.29,1.29,0,0,1-.09,2.16l-15.18,9.22A1.3,1.3,0,0,1,526.76,412.46Z"/><path class="cls-43" d="M458.53,340.65l2.36,0,1.82,8.58,2.37-8.52,2.46,0,2,8.53,2.09-8.47,2.38,0-3.24,11-2.6,0-1.95-7.87-2.28,7.81-2.59,0Z"/><path class="cls-43" d="M479.39,352.11a4.51,4.51,0,0,1,.13-9,4.1,4.1,0,0,1,4.25,4.38,6,6,0,0,1-.08.85l-6.39-.09a2.05,2.05,0,0,0,2.07,2,1.81,1.81,0,0,0,1.77-1l2.38,0A4.06,4.06,0,0,1,479.39,352.11Zm-2.05-5.36,4.15.06a2,2,0,0,0-2.06-1.91A2,2,0,0,0,477.34,346.75Z"/><path class="cls-43" d="M502,347.47a2,2,0,1,0-3.9-.05l-.07,4.82-2.21,0,.08-4.83a2,2,0,1,0-3.92-.05l-.07,4.82-2.21,0,.13-8.74,2.21,0v1.06a3.19,3.19,0,0,1,2.58-1.15,3.36,3.36,0,0,1,3.06,1.72,3.46,3.46,0,0,1,3-1.63,3.4,3.4,0,0,1,3.52,3.8l-.07,5.12-2.21,0Z"/><path class="cls-43" d="M506.47,341.29a1.28,1.28,0,0,1,1.37-1.27,1.29,1.29,0,1,1-1.37,1.27Zm.2,2.34,2.21,0-.13,8.74-2.21,0Z"/><path class="cls-43" d="M514.58,352.63c-2.19,0-3.7-1.33-3.77-3l2.22,0a1.45,1.45,0,0,0,1.56,1.19c.87,0,1.35-.37,1.36-.87,0-1.57-4.93-.65-4.88-3.85,0-1.45,1.33-2.6,3.49-2.57s3.37,1.21,3.47,2.94l-2.11,0c0-.68-.58-1.14-1.45-1.16s-1.25.32-1.26.82c0,1.6,4.84.67,4.85,3.88C518,351.54,516.71,352.66,514.58,352.63Z"/><path class="cls-43" d="M523.5,352.76c-2.2,0-3.71-1.33-3.78-3l2.23,0a1.45,1.45,0,0,0,1.56,1.19c.86,0,1.34-.38,1.35-.88,0-1.57-4.93-.64-4.88-3.85,0-1.45,1.33-2.6,3.49-2.56s3.38,1.2,3.48,2.93l-2.12,0a1.29,1.29,0,0,0-1.45-1.15c-.82,0-1.25.31-1.26.81,0,1.6,4.84.67,4.85,3.88C527,351.68,525.63,352.79,523.5,352.76Z"/><path class="cls-43" d="M532.88,352.9a4.51,4.51,0,0,1,.14-9,4.1,4.1,0,0,1,4.24,4.38,6,6,0,0,1-.08.85l-6.39-.09a2.05,2.05,0,0,0,2.07,2.05,1.8,1.8,0,0,0,1.77-1l2.38,0A4.06,4.06,0,0,1,532.88,352.9Zm-2-5.36,4.15.06a1.94,1.94,0,0,0-2.05-1.91A2,2,0,0,0,530.83,347.54Z"/><path class="cls-43" d="M542.69,344a3.59,3.59,0,0,1,2.83,1.4l.06-4.15,2.24,0L547.65,353l-2.24,0,0-1.29a3.29,3.29,0,0,1-2.89,1.39c-2.23,0-4-1.87-3.93-4.6S540.45,344,542.69,344Zm.52,2a2.33,2.33,0,0,0-2.34,2.5,2.39,2.39,0,0,0,2.26,2.64,2.58,2.58,0,0,0,.08-5.14Z"/><path class="cls-43" d="M560.33,344.42l2.36,0-5.61,12.79-2.35,0,2-4.33-3.37-8.57,2.47,0,2.17,6.13Z"/><path class="cls-43" d="M567.93,353.42a4.51,4.51,0,1,1,4.63-4.45A4.37,4.37,0,0,1,567.93,353.42Zm0-1.93a2.61,2.61,0,0,0,.11-5.17,2.26,2.26,0,0,0-2.26,2.55C565.78,350.61,566.78,351.48,568,351.49Z"/><path class="cls-43" d="M582.68,353.49l-2.22,0,0-1.1a3.24,3.24,0,0,1-2.62,1.17,3.36,3.36,0,0,1-3.45-3.77l.07-5.13,2.21,0-.07,4.82a2,2,0,1,0,3.9,0l.07-4.81,2.22,0Z"/><path class="cls-43" d="M589.41,342.58l2.51,0,3.38,8.24,3.62-8.14,2.49,0-.16,11-2.21,0,.11-7.17-3.06,7.12-1.67,0-2.86-7.21-.11,7.16-2.2,0Z"/><path class="cls-43" d="M607.3,345a3.46,3.46,0,0,1,2.86,1.44l0-1.25,2.23,0-.13,8.74-2.23,0,0-1.28a3.44,3.44,0,0,1-2.92,1.38c-2.21,0-3.95-1.87-3.91-4.6S605.07,344.94,607.3,345Zm.54,1.95a2.33,2.33,0,0,0-2.34,2.51,2.39,2.39,0,0,0,2.26,2.64,2.59,2.59,0,0,0,.08-5.15Z"/><path class="cls-43" d="M617,354l-2.21,0,.13-8.74,2.21,0,0,1.36a3.07,3.07,0,0,1,2.71-1.45l0,2.32h-.58c-1.31,0-2.11.47-2.13,2.16Z"/><path class="cls-43" d="M621.37,343a1.36,1.36,0,1,1,1.34,1.31A1.29,1.29,0,0,1,621.37,343Zm.2,2.34,2.21,0-.13,8.74-2.21,0Z"/><path class="cls-43" d="M629.7,345.31a3.43,3.43,0,0,1,2.86,1.43l0-1.25,2.23,0-.13,8.74-2.23,0,0-1.28a3.44,3.44,0,0,1-2.92,1.38c-2.21,0-3.95-1.87-3.91-4.6S627.47,345.27,629.7,345.31Zm.54,1.94a2.33,2.33,0,0,0-2.34,2.51,2.39,2.39,0,0,0,2.26,2.64,2.59,2.59,0,0,0,.08-5.15Z"/><g class="cls-54"><path class="cls-55" d="M161.93,302.51c9.88,18.63,18.19,37,15.54,54.6S161.31,391.46,143.08,399s-41.18,5.87-60.71-1.73-35.61-21.13-43.92-37.13S29.61,325.63,36,310.73s19.49-26.17,36.14-36.34,38.18-9.49,54-4.58S152.05,283.87,161.93,302.51Z"/></g><g class="cls-56"><path class="cls-57" d="M686,118.33c20.52-4.87,40.43-8.28,56.76-1.29s29.18,24.29,31.88,43.83-4.69,41.33-17,58.32-29.41,29.14-47,33.15-35.62-.13-48.44-10-20.42-25.46-26.07-44.14.43-39.33,9.17-53.41S665.45,123.2,686,118.33Z"/></g><ellipse class="cls-58" cx="321.58" cy="181.67" rx="0.75" ry="2.56" transform="translate(-45.21 225.09) rotate(-36.22)"/><ellipse class="cls-59" cx="288.55" cy="176.89" rx="2.56" ry="0.75" transform="translate(-29.48 292.67) rotate(-51.51)"/></g></g></g></svg>