<svg xmlns="http://www.w3.org/2000/svg" width="34.329" height="38.983" viewBox="0 0 34.329 38.983">
    <defs>
        <style>
            .cls-1{fill:#cecece;stroke:#cecece;stroke-miterlimit:10}
        </style>
    </defs>
    <g id="Asset_2" data-name="Asset 2" transform="translate(0 3)">
        <g id="Layer_1" data-name="Layer 1" transform="translate(.5 -2.5)">
            <path id="Path_721" d="M18.982 40.14a11.965 11.965 0 0 1-3.781-.607l-4.671-1.554-.308.64a2.663 2.663 0 0 1-2.428 1.521H.848A.348.348 0 0 1 .5 39.8V18.906a.348.348 0 0 1 .348-.348H7.81a2.655 2.655 0 0 1 2.49 1.692l.259.656.688-.162c3.343-.81 6.282-5.092 7.2-8.751l.631-2.534a.34.34 0 0 1 .34-.259h1.158a3.829 3.829 0 0 1 3.8 3.829v1.158a21.679 21.679 0 0 1-.915 5.667l-.348 1.069h7.9a2.663 2.663 0 0 1 1.991 4.444l-.486.542.486.542a2.671 2.671 0 0 1 0 3.562l-.486.534.486.542a2.68 2.68 0 0 1-1.287 4.363l-.866.194.332.81a2.526 2.526 0 0 1 .186.988 2.671 2.671 0 0 1-2.669 2.664zm.146-27.977a16.191 16.191 0 0 1-3.238 6.209 8.63 8.63 0 0 1-4.744 3.109l-.664.13v15.607l4.938 1.619a11.1 11.1 0 0 0 3.562.583H28.7a1.975 1.975 0 1 0 0-3.942.348.348 0 0 1 0-.7h2.323a1.975 1.975 0 0 0 0-3.942H28.7a.356.356 0 0 1 0-.7h2.323a1.975 1.975 0 0 0 0-3.942H28.7a.348.348 0 0 1 0-.7h2.323a1.975 1.975 0 0 0 0-3.942h-11.6a.348.348 0 0 1 0-.7H22.3l.219-.47a18.943 18.943 0 0 0 1.19-6.225v-1.128A3.141 3.141 0 0 0 20.576 9.9h-.882zM1.2 39.444h6.61a1.967 1.967 0 0 0 2-1.967V21.23a1.967 1.967 0 0 0-1.975-1.967H1.2z" class="cls-1" data-name="Path 721" transform="translate(-.5 -2.157)"/>
            <path id="Path_722" d="M6.512 41.774a.672.672 0 1 1 .672-.672.672.672 0 0 1-.672.672z" class="cls-1" data-name="Path 722" transform="translate(-1.517 -8.105)"/>
            <path id="Path_723" d="M26.648 3.6a.348.348 0 0 1-.348-.348V.824A.348.348 0 0 1 26.648.5.356.356 0 0 1 27 .848v2.429a.356.356 0 0 1-.352.323z" class="cls-1" data-name="Path 723" transform="translate(-5.414 -.5)"/>
            <path id="Path_724" d="M19.176 6.723a.356.356 0 0 1-.251-.105L17.306 5a.348.348 0 0 1 0-.494.34.34 0 0 1 .243-.105.356.356 0 0 1 .251.105l1.619 1.619a.356.356 0 0 1 0 .494.34.34 0 0 1-.243.105z" class="cls-1" data-name="Path 724" transform="translate(-3.681 -1.243)"/>
            <path id="Path_725" d="M33.747 6.723a.356.356 0 0 1-.251-.105.348.348 0 0 1 0-.494l1.619-1.619a.34.34 0 0 1 .494 0 .348.348 0 0 1 0 .494L33.99 6.618a.34.34 0 0 1-.243.105z" class="cls-1" data-name="Path 725" transform="translate(-6.765 -1.243)"/>
        </g>
    </g>
</svg>
