<?xml version="1.0" encoding="utf-8"?>
<!-- Generator: Adobe Illustrator 23.0.3, SVG Export Plug-In . SVG Version: 6.00 Build 0)  -->
<svg version="1.1" id="Layer_1" xmlns="http://www.w3.org/2000/svg" xmlns:xlink="http://www.w3.org/1999/xlink" x="0px" y="0px"
	 viewBox="0 0 41.7 38" style="enable-background:new 0 0 41.7 38;" xml:space="preserve">
<style type="text/css">
	.st0{fill:#CECECE;}
</style>
<path id="Path_729" class="st0" d="M34.4,26.2c0.2-0.2,0.2-0.6,0-0.8c0,0,0,0,0,0l-3-3c-0.1-0.1-0.2-0.2-0.4-0.2
	c-0.2,0-0.3,0.1-0.4,0.2l-3,3c-0.2,0.2-0.2,0.6,0.1,0.8c0.2,0.2,0.5,0.2,0.7,0l2.1-2.1v9.4c0,0.3,0.2,0.6,0.5,0.6
	c0.3,0,0.6-0.2,0.6-0.5c0,0,0-0.1,0-0.1v-9.4l2,2.1C33.8,26.5,34.2,26.5,34.4,26.2L34.4,26.2z"/>
<path id="Path_730" class="st0" d="M31.2,17c-5.8,0-10.5,4.7-10.5,10.5S25.4,38,31.2,38s10.5-4.7,10.5-10.5c0,0,0,0,0,0
	C41.7,21.7,37,17,31.2,17z M22.3,27.5c0-5,4-9,9-9s9,4,9,9c0,5-4,9-9,9C26.3,36.5,22.3,32.5,22.3,27.5L22.3,27.5z"/>
<path id="Path_731" class="st0" d="M17.1,24.3H1.8v-5.5l4.6-4.6l6.1,4.5c0.3,0.3,0.8,0.2,1.1-0.1l9.6-8.7l3.9,5.5
	c0.3,0.4,0.8,0.5,1.3,0.3s0.5-0.8,0.3-1.3c0,0,0,0,0,0L24.2,8c-0.1-0.2-0.4-0.4-0.6-0.4c-0.3,0-0.5,0.1-0.7,0.2L13,16.8l-6.2-4.5
	c-0.4-0.3-0.8-0.2-1.2,0.1l-3.9,3.8V1.8h30.6V13c0,0.5,0.4,0.9,0.9,0.9c0.5,0,0.9-0.4,0.9-0.9c0,0,0,0,0,0V0.9
	c0-0.5-0.4-0.9-0.9-0.9c0,0,0,0,0,0H0.9C0.4,0,0,0.4,0,0.9c0,0,0,0,0,0v24.3c0,0.5,0.4,0.9,0.9,0.9h16.2c0.5,0,0.9-0.4,0.9-0.9
	C18,24.7,17.6,24.3,17.1,24.3C17.1,24.3,17.1,24.3,17.1,24.3L17.1,24.3z"/>
<path id="Path_732" class="st0" d="M6.3,7.2c0,2,1.6,3.6,3.6,3.6s3.6-1.6,3.6-3.6s-1.6-3.6-3.6-3.6C8.9,3.6,8,4,7.3,4.7
	C6.7,5.3,6.3,6.2,6.3,7.2z M11.7,7.2c0,1-0.8,1.8-1.8,1.8S8.1,8.2,8.1,7.2c0-1,0.8-1.8,1.8-1.8c0.5,0,0.9,0.2,1.3,0.5
	C11.5,6.3,11.7,6.7,11.7,7.2z"/>
</svg>
