<svg xmlns="http://www.w3.org/2000/svg" width="35.685" height="31.182" viewBox="0 0 35.685 31.182">
    <defs>
        <style>
            .cls-1{fill:#cecece}
        </style>
    </defs>
    <g id="Asset_4" data-name="Asset 4" transform="translate(0 -.016)">
        <g id="Layer_1" data-name="Layer 1" transform="translate(0 .016)">
            <path id="Path_727" d="M32.817 18.613a.823.823 0 0 0-.823.823v8.8a2.363 2.363 0 0 1-2.355 2.379H3.935a2.363 2.363 0 0 1-2.363-2.363V9.507a2.371 2.371 0 0 1 2.363-2.362h10.95a.823.823 0 1 0 0-1.573H3.935A3.944 3.944 0 0 0 0 9.507v18.73a3.944 3.944 0 0 0 3.935 3.935h25.7a3.935 3.935 0 0 0 3.927-3.935V19.4a.823.823 0 0 0-.823-.823z" class="cls-1" data-name="Path 727" transform="translate(0 -.991)"/>
            <path id="Path_728" d="M30.334.233a.823.823 0 0 0-.823-.173.823.823 0 0 0-.478.733v4.191c-4.248.173-6.381 1.927-6.7 2.223a11.905 11.905 0 0 0-4.117 6.932 12.037 12.037 0 0 0-.231 3.977l.165.963a.8.8 0 0 0 1.482.313l.5-.823a11.106 11.106 0 0 1 5.7-5.039 8.406 8.406 0 0 1 3.161-.461v4.347a.823.823 0 0 0 1.342.552l8.3-8.357a.823.823 0 0 0 0-1.111zm.239 15.272v-3.153a.823.823 0 0 0-.667-.774 9.657 9.657 0 0 0-4.586.461 12.012 12.012 0 0 0-5.829 4.643 10.753 10.753 0 0 1 .214-2.239 10.217 10.217 0 0 1 3.606-6.035l.049-.041c.041-.049 2.034-1.852 6.4-1.778a.823.823 0 0 0 .823-.823V2.679l6.381 6.381z" class="cls-1" data-name="Path 728" transform="translate(-3.165 -.016)"/>
        </g>
    </g>
</svg>
