<svg xmlns="http://www.w3.org/2000/svg" width="44.858" height="53.814" viewBox="0 0 44.858 53.814">
    <defs>
        <style>
            .cls-1{fill:#3c7cf0;stroke:#3c7cf0;stroke-width:.3px}
        </style>
    </defs>
    <g id="idea" transform="translate(.06 .186)">
        <path id="Path_882" d="M73.931 37.437v-1.426a9.742 9.742 0 0 1 2.9-6.951 16.936 16.936 0 1 0-23.524.089 9.487 9.487 0 0 1 2.8 6.862v1.426a3.556 3.556 0 0 0-1.17 6.916 3.565 3.565 0 0 0 2.952 5.56h.98a4.464 4.464 0 0 0 4.367 3.565H66.8a4.464 4.464 0 0 0 4.367-3.565h.98a3.565 3.565 0 0 0 2.952-5.56 3.556 3.556 0 0 0-1.169-6.916zm-19.39-9.573a15.109 15.109 0 0 1-4.623-12.138 15.3 15.3 0 0 1 13.367-13.84 15.141 15.141 0 0 1 12.3 25.889 11.534 11.534 0 0 0-3.435 8.235v1.426H57.89v-1.425a11.276 11.276 0 0 0-3.349-8.147zM66.8 51.7h-3.563a2.674 2.674 0 0 1-2.509-1.782h8.584A2.673 2.673 0 0 1 66.8 51.7zm5.347-3.565H57.89a1.782 1.782 0 0 1 0-3.565h14.258a1.782 1.782 0 0 1 0 3.565zm1.782-5.347H56.108a1.782 1.782 0 1 1 0-3.565h17.823a1.782 1.782 0 1 1 0 3.565zm0 0" class="cls-1" data-name="Path 882" transform="translate(-42.65)"/>
        <path id="Path_883" d="M368.09 144.184h3.565v1.782h-3.565zm0 0" class="cls-1" data-name="Path 883" transform="translate(-327.006 -128.135)"/>
        <path id="Path_884" d="M341.586 47.028l3.087-1.782.891 1.544-3.087 1.782zm0 0" class="cls-1" data-name="Path 884" transform="translate(-303.455 -40.219)"/>
        <path id="Path_885" d="M22.883 46.805l.891-1.543 3.087 1.782-.891 1.543zm0 0" class="cls-1" data-name="Path 885" transform="translate(-20.254 -40.232)"/>
        <path id="Path_886" d="M.09 144.184h3.565v1.782H.09zm0 0" class="cls-1" data-name="Path 886" transform="translate(0 -128.135)"/>
        <path id="Path_887" d="M22.895 231.028l3.087-1.782.891 1.544-3.087 1.782zm0 0" class="cls-1" data-name="Path 887" transform="translate(-20.264 -203.722)"/>
        <path id="Path_888" d="M341.586 230.8l.891-1.543 3.087 1.782-.891 1.543zm0 0" class="cls-1" data-name="Path 888" transform="translate(-303.455 -203.732)"/>
        <path id="Path_889" d="M121.393 68.188l.463-.928.568 1.7a.891.891 0 0 0 .84.61h3.565a.892.892 0 0 0 .845-.61l.567-1.7.463.928a.892.892 0 0 0 .8.493h3.17a1.782 1.782 0 0 0 1.669-2.406l-1.788-4.768a2.685 2.685 0 0 0-2.16-1.711v-5.21a4.4 4.4 0 0 0-.767-2.5c-2.67-3.9-4.107-3.9-4.58-3.9s-1.91 0-4.579 3.9a4.4 4.4 0 0 0-.768 2.5V59.8a2.684 2.684 0 0 0-2.159 1.708l-1.788 4.77a1.782 1.782 0 0 0 1.669 2.406h3.17a.891.891 0 0 0 .8-.493zm2.514-.4l-.3-.891h2.875l-.3.891zm6.977-5.66l1.788 4.769h-2.619l-.077-.155a.874.874 0 0 0 .418-.736V61.63a.885.885 0 0 1 .49.499zm-9.4-7.543a2.63 2.63 0 0 1 .456-1.494c1.691-2.473 2.773-3.126 3.108-3.126s1.417.653 3.11 3.127a2.63 2.63 0 0 1 .455 1.493v10.53h-2.673v-5.346h-1.782v5.347h-2.674zM117.421 66.9l1.788-4.77a.886.886 0 0 1 .49-.5v4.377a.875.875 0 0 0 .418.736l-.077.155zm0 0" class="cls-1" data-name="Path 889" transform="translate(-102.678 -42.829)"/>
        <path id="Path_890" d="M178.764 85.531a2.673 2.673 0 1 0-2.673-2.674 2.673 2.673 0 0 0 2.673 2.674zm0-3.565a.891.891 0 1 1-.891.891.891.891 0 0 1 .891-.891zm0 0" class="cls-1" data-name="Path 890" transform="translate(-156.395 -71.265)"/>
        <path id="Path_891" d="M192.09 272.184h1.782v5.347h-1.782zm0 0" class="cls-1" data-name="Path 891" transform="translate(-170.612 -241.877)"/>
        <path id="Path_892" d="M224.09 256.184h1.782v5.347h-1.782zm0 0" class="cls-1" data-name="Path 892" transform="translate(-199.047 -227.659)"/>
        <path id="Path_893" d="M160.09 256.184h1.782v5.347h-1.782zm0 0" class="cls-1" data-name="Path 893" transform="translate(-142.177 -227.659)"/>
    </g>
</svg>
