<?xml version="1.0" encoding="utf-8"?>
<!-- Generator: Adobe Illustrator 23.0.4, SVG Export Plug-In . SVG Version: 6.00 Build 0)  -->
<svg version="1.1" id="Layer_1" xmlns="http://www.w3.org/2000/svg" xmlns:xlink="http://www.w3.org/1999/xlink" x="0px" y="0px"
	 viewBox="0 0 71.68 89.6" style="enable-background:new 0 0 71.68 89.6;" xml:space="preserve">
<style type="text/css">
	.st0{fill:#276CE6;}
</style>
<g id="innovation" transform="translate(-51.192)">
	<g id="Group_925" transform="translate(67.906 16.714)">
		<g id="Group_924">
			<path id="Path_1052" class="st0" d="M36.4,14.93h-3.98c-0.24-0.77-0.55-1.52-0.92-2.23l2.81-2.81c0.73-0.73,0.73-1.9,0-2.63
				L31,3.95c-0.73-0.73-1.9-0.73-2.63,0l-2.81,2.81c-0.72-0.37-1.46-0.68-2.23-0.92V1.86C23.33,0.83,22.5,0,21.47,0h-4.68
				c-1.03,0-1.86,0.83-1.86,1.86v3.97c-0.77,0.24-1.52,0.55-2.23,0.92L9.89,3.95c-0.73-0.72-1.9-0.72-2.63,0L3.95,7.26
				c-0.73,0.73-0.73,1.9,0,2.63c0,0,0,0,0,0l2.81,2.81c-0.37,0.72-0.68,1.46-0.92,2.23H1.86C0.84,14.93,0,15.76,0,16.79v4.68
				c0,1.03,0.83,1.86,1.86,1.86h3.98c0.24,0.77,0.55,1.52,0.92,2.23l-2.81,2.81c-0.72,0.73-0.72,1.9,0,2.63l3.31,3.31
				c0.73,0.72,1.9,0.72,2.63,0l2.81-2.81c0.72,0.37,1.46,0.68,2.23,0.92v3.98c0,1.03,0.83,1.86,1.86,1.86h4.68
				c1.03,0,1.86-0.83,1.86-1.86v-3.97c0.77-0.24,1.52-0.55,2.23-0.92l2.81,2.81c0.73,0.73,1.9,0.73,2.63,0L34.31,31
				c0.73-0.73,0.73-1.9,0-2.63l-2.81-2.81c0.37-0.72,0.68-1.46,0.92-2.23h3.98c1.03,0,1.86-0.83,1.86-1.86v-4.68
				C38.26,15.76,37.42,14.93,36.4,14.93z M35.63,20.7h-4.21c-0.61,0-1.14,0.42-1.28,1.01c-0.28,1.19-0.75,2.33-1.4,3.37
				c-0.32,0.52-0.24,1.19,0.19,1.62l2.98,2.98l-2.23,2.23l-2.98-2.98c-0.43-0.43-1.1-0.51-1.62-0.19c-1.04,0.65-2.18,1.12-3.37,1.4
				c-0.59,0.14-1.01,0.67-1.01,1.28v4.21h-3.15v-4.21c0-0.61-0.42-1.14-1.01-1.28c-1.19-0.28-2.33-0.75-3.37-1.4
				c-0.52-0.32-1.19-0.24-1.62,0.19l-2.98,2.98l-2.23-2.23l2.98-2.98c0.43-0.43,0.51-1.1,0.19-1.62c-0.65-1.04-1.12-2.18-1.4-3.37
				c-0.14-0.59-0.67-1.01-1.28-1.01H2.62v-3.15h4.21c0.61,0,1.14-0.42,1.28-1.01c0.28-1.19,0.75-2.33,1.4-3.37
				c0.32-0.52,0.24-1.19-0.19-1.62L6.34,8.57l2.23-2.23l2.98,2.98c0.43,0.43,1.1,0.51,1.62,0.19c1.04-0.65,2.18-1.12,3.37-1.4
				c0.59-0.14,1.01-0.67,1.01-1.28V2.62h3.15v4.21c0,0.61,0.42,1.14,1.01,1.28c1.19,0.28,2.33,0.75,3.37,1.4
				c0.52,0.32,1.19,0.24,1.62-0.19l2.98-2.98l2.23,2.23l-2.98,2.98c-0.43,0.43-0.51,1.1-0.19,1.62c0.65,1.04,1.12,2.18,1.4,3.37
				c0.14,0.59,0.67,1.01,1.28,1.01h4.21L35.63,20.7z"/>
		</g>
	</g>
	<g id="Group_927" transform="translate(80.003 28.811)">
		<g id="Group_926">
			<path id="Path_1053" class="st0" d="M7.03,0C3.15,0,0,3.15,0,7.03s3.15,7.03,7.03,7.03s7.03-3.15,7.03-7.03l0,0
				C14.06,3.15,10.91,0,7.03,0z M7.03,11.44c-2.43,0-4.41-1.97-4.41-4.41S4.6,2.62,7.03,2.62c2.43,0,4.41,1.97,4.41,4.41l0,0
				C11.44,9.46,9.46,11.44,7.03,11.44z"/>
		</g>
	</g>
	<g id="Group_929" transform="translate(51.192 34.53)">
		<g id="Group_928">
			<path id="Path_1054" class="st0" d="M5.67,0H1.31C0.58-0.02-0.02,0.55-0.04,1.28C-0.06,2,0.51,2.6,1.24,2.62
				c0.02,0,0.05,0,0.07,0h4.35c0.72,0.02,1.33-0.55,1.35-1.28C7.03,0.62,6.46,0.02,5.73,0C5.71,0,5.69,0,5.67,0L5.67,0z"/>
		</g>
	</g>
	<g id="Group_931" transform="translate(115.897 34.53)">
		<g id="Group_930">
			<path id="Path_1055" class="st0" d="M5.67,0H1.31C0.59-0.02-0.02,0.55-0.04,1.28C-0.06,2,0.52,2.6,1.24,2.62
				c0.02,0,0.05,0,0.07,0h4.35C6.39,2.65,7,2.07,7.02,1.35C7.04,0.62,6.46,0.02,5.74,0C5.72,0,5.69,0,5.67,0z"/>
		</g>
	</g>
	<g id="Group_933" transform="translate(61.305 55.867)">
		<g id="Group_932">
			<path id="Path_1056" class="st0" d="M5.32,0.39c-0.51-0.51-1.34-0.51-1.86,0L0.38,3.46c-0.53,0.5-0.55,1.33-0.06,1.86
				c0.5,0.53,1.33,0.55,1.86,0.06C2.2,5.36,2.22,5.34,2.24,5.32l3.08-3.08C5.83,1.73,5.83,0.9,5.32,0.39z"/>
		</g>
	</g>
	<g id="Group_935" transform="translate(107.059 10.114)">
		<g id="Group_934">
			<path id="Path_1057" class="st0" d="M5.32,0.38c-0.51-0.51-1.34-0.51-1.86,0L0.39,3.46c-0.53,0.5-0.55,1.33-0.06,1.86
				c0.5,0.53,1.33,0.55,1.86,0.06C2.2,5.36,2.22,5.34,2.24,5.32l3.08-3.08C5.83,1.73,5.83,0.9,5.32,0.38z"/>
		</g>
	</g>
	<g id="Group_937" transform="translate(85.722)">
		<g id="Group_936">
			<path id="Path_1058" class="st0" d="M1.31,0C0.59,0,0,0.59,0,1.31c0,0,0,0,0,0v4.35c0.02,0.72,0.62,1.3,1.35,1.28
				c0.7-0.02,1.26-0.58,1.28-1.28V1.31C2.62,0.59,2.04,0,1.31,0C1.31,0,1.31,0,1.31,0z"/>
		</g>
	</g>
	<g id="Group_939" transform="translate(107.059 55.867)">
		<g id="Group_938">
			<path id="Path_1059" class="st0" d="M5.32,3.47L2.24,0.39c-0.5-0.53-1.33-0.55-1.86-0.06c-0.53,0.5-0.55,1.33-0.06,1.86
				c0.02,0.02,0.04,0.04,0.06,0.06l3.08,3.08c0.53,0.5,1.36,0.47,1.86-0.06C5.8,4.76,5.8,3.97,5.32,3.47z"/>
		</g>
	</g>
	<g id="Group_941" transform="translate(61.305 10.114)">
		<g id="Group_940">
			<path id="Path_1060" class="st0" d="M5.32,3.46L2.24,0.39c-0.5-0.53-1.33-0.55-1.86-0.06s-0.55,1.33-0.06,1.86
				C0.35,2.2,0.36,2.22,0.38,2.24l3.08,3.08c0.53,0.5,1.36,0.47,1.86-0.06C5.79,4.76,5.79,3.97,5.32,3.46z"/>
		</g>
	</g>
	<g id="Group_943" transform="translate(88.784 9.546)">
		<g id="Group_942">
			<path id="Path_1061" class="st0" d="M24.44,23.08C23,11.03,13.52,1.51,1.47,0.01C0.75-0.09,0.09,0.4-0.02,1.12
				c-0.1,0.72,0.39,1.38,1.11,1.49c0.02,0,0.04,0.01,0.06,0.01c10.87,1.3,19.42,9.9,20.67,20.77c0.08,0.66,0.64,1.16,1.3,1.16
				c0.05,0,0.1,0,0.15-0.01C24,24.46,24.52,23.81,24.44,23.08C24.44,23.08,24.44,23.08,24.44,23.08L24.44,23.08z"/>
		</g>
	</g>
	<g id="Group_945" transform="translate(60.666 9.548)">
		<g id="Group_944">
			<path id="Path_1062" class="st0" d="M51.39,28.06c-0.72-0.09-1.37,0.42-1.47,1.13c0,0,0,0,0,0c-0.89,7.06-4.91,13.34-10.94,17.11
				c-2.6,1.61-4.18,4.45-4.17,7.51v5.4H17.94v-5.52c0-2.97-1.53-5.73-4.04-7.31C2.73,39.49-0.72,24.86,6.17,13.7
				C9.96,7.57,16.32,3.5,23.47,2.62c0.72-0.07,1.25-0.71,1.18-1.43C24.59,0.46,23.94-0.07,23.22,0c-0.02,0-0.05,0.01-0.07,0.01
				C8.7,1.79-1.58,14.95,0.21,29.41c0.98,7.94,5.51,15,12.31,19.2c1.74,1.1,2.8,3.02,2.8,5.08v5.71c-1.37,0.48-2.3,1.77-2.3,3.22
				v1.87c0,0.76,0.26,1.5,0.73,2.1c-0.47,0.6-0.73,1.34-0.73,2.1v1.87c0,1.88,1.53,3.41,3.41,3.41h4.13v2.97
				c0,1.71,1.39,3.1,3.1,3.1h5.43c1.71,0,3.1-1.39,3.1-3.1v-2.96h4.13c1.88,0,3.41-1.53,3.41-3.41V68.7c0-0.76-0.26-1.5-0.73-2.1
				c0.47-0.6,0.73-1.34,0.73-2.1v-1.87c0-1.45-0.93-2.75-2.3-3.22v-5.59c0-2.15,1.11-4.15,2.94-5.29c6.7-4.18,11.17-11.16,12.15-19
				C52.61,28.81,52.11,28.15,51.39,28.06C51.39,28.06,51.39,28.06,51.39,28.06L51.39,28.06z M29.56,76.96
				c0,0.26-0.22,0.48-0.48,0.48h-5.43c-0.26,0-0.48-0.22-0.48-0.48v-2.97h6.38L29.56,76.96z M37.1,70.58
				c-0.01,0.43-0.36,0.78-0.79,0.79H16.42c-0.43-0.01-0.78-0.36-0.79-0.79V68.7c0.01-0.43,0.36-0.78,0.79-0.79h19.89
				c0.43,0.01,0.78,0.36,0.79,0.79V70.58z M37.1,64.5c-0.01,0.43-0.36,0.78-0.79,0.79H16.42c-0.43-0.01-0.78-0.36-0.79-0.79v-1.87
				c0.01-0.43,0.36-0.78,0.79-0.79h19.89c0.43,0.01,0.78,0.36,0.79,0.79V64.5z"/>
		</g>
	</g>
</g>
</svg>
