<?xml version="1.0" encoding="utf-8"?>
<!-- Generator: Adobe Illustrator 23.0.3, SVG Export Plug-In . SVG Version: 6.00 Build 0)  -->
<svg version="1.1" id="Layer_1" xmlns="http://www.w3.org/2000/svg" xmlns:xlink="http://www.w3.org/1999/xlink" x="0px" y="0px"
	 viewBox="0 0 709.1 197.6" style="enable-background:new 0 0 709.1 197.6;" xml:space="preserve">
<style type="text/css">
	.st0{opacity:6.000000e-02;}
	.st1{fill:#DB2720;}
	.st2{opacity:0.65;}
	.st3{opacity:6.000000e-02;fill:#FC4C4C;enable-background:new    ;}
</style>
<g>
	<g id="Group_553" transform="matrix(0.719, 0.695, -0.695, 0.719, -743.412, -1981.553)" class="st0">
		<g id="Group_536" transform="translate(2017.102 786.995)">
			<g id="Group_530">
				<path id="Path_789" class="st1" d="M12.4,75.8c0.2,1.1-0.6,2-1.6,2.2c-1.1,0.2-2-0.6-2.2-1.6c-0.2-1.1,0.5-2,1.6-2.2
					C11.2,74,12.2,74.7,12.4,75.8z"/>
				<path id="Path_790" class="st1" d="M31.1,74.2c0.2,1.1-0.6,2-1.6,2.2c-1.1,0.2-2-0.6-2.2-1.6c-0.2-1.1,0.5-2,1.6-2.2
					C29.9,72.5,30.9,73.2,31.1,74.2L31.1,74.2z"/>
				<path id="Path_791" class="st1" d="M49.8,72.7c0.2,1.1-0.6,2-1.6,2.2c-1.1,0.2-2-0.6-2.2-1.6c-0.2-1.1,0.6-2,1.6-2.2
					C48.6,70.9,49.6,71.6,49.8,72.7z"/>
				<path id="Path_792" class="st1" d="M68.5,71.1c0.2,1.1-0.6,2-1.6,2.2c-1.1,0.2-2-0.6-2.2-1.6c-0.2-1.1,0.5-2,1.6-2.2
					C67.3,69.3,68.3,70.1,68.5,71.1L68.5,71.1z"/>
				<path id="Path_793" class="st1" d="M87.2,69.6c0.2,1.1-0.6,2-1.6,2.2s-2-0.6-2.2-1.6c-0.2-1.1,0.5-2,1.6-2.2
					C86,67.8,87,68.5,87.2,69.6L87.2,69.6z"/>
				<path id="Path_794" class="st1" d="M105.8,68c0.2,1.1-0.6,2-1.6,2.2s-2-0.6-2.2-1.6c-0.2-1.1,0.5-2,1.6-2.2
					C104.7,66.2,105.7,67,105.8,68L105.8,68z"/>
			</g>
			<g id="Group_531" transform="translate(3.959 44.495)">
				<path id="Path_795" class="st1" d="M10,48.8c0.2,1.1-0.6,2-1.6,2.2c-1.1,0.2-2-0.6-2.2-1.6c-0.2-1.1,0.5-2,1.6-2.2
					C8.8,47,9.8,47.7,10,48.8L10,48.8z"/>
				<path id="Path_796" class="st1" d="M28.7,47.2c0.2,1.1-0.6,2-1.6,2.2s-2-0.6-2.2-1.6c-0.2-1.1,0.5-2,1.6-2.2
					C27.5,45.4,28.5,46.2,28.7,47.2L28.7,47.2z"/>
				<path id="Path_797" class="st1" d="M47.4,45.7c0.2,1.1-0.6,2-1.6,2.2s-2-0.6-2.2-1.6c-0.2-1.1,0.6-2,1.6-2.2l0,0
					C46.2,43.9,47.2,44.6,47.4,45.7z"/>
				<path id="Path_798" class="st1" d="M66.1,44.1c0.2,1.1-0.5,2-1.6,2.2c-1.1,0.2-2-0.5-2.2-1.6s0.5-2,1.6-2.2
					C64.9,42.3,65.9,43.1,66.1,44.1z"/>
				<path id="Path_799" class="st1" d="M84.8,42.5c0.2,1.1-0.5,2-1.6,2.2s-2-0.5-2.2-1.6c-0.2-1.1,0.5-2,1.6-2.2l0,0
					C83.6,40.8,84.6,41.5,84.8,42.5z"/>
				<path id="Path_800" class="st1" d="M103.4,41c0.2,1.1-0.6,2-1.6,2.2s-2-0.6-2.2-1.6c-0.2-1.1,0.5-2,1.6-2.2S103.3,39.9,103.4,41
					L103.4,41z"/>
			</g>
			<g id="Group_532" transform="translate(7.918 88.989)">
				<path id="Path_801" class="st1" d="M7.6,21.8C7.8,22.9,7,23.8,6,24c-1.1,0.2-2-0.6-2.2-1.6c-0.2-1.1,0.6-2,1.6-2.2
					C6.4,20,7.4,20.7,7.6,21.8L7.6,21.8z"/>
				<path id="Path_802" class="st1" d="M26.3,20.2c0.2,1.1-0.6,2-1.6,2.2c-1.1,0.2-2-0.6-2.2-1.6c-0.2-1.1,0.6-2,1.6-2.2
					C25.1,18.4,26.1,19.2,26.3,20.2z"/>
				<path id="Path_803" class="st1" d="M45,18.6c0.2,1.1-0.6,2-1.6,2.2c-1.1,0.2-2-0.6-2.2-1.6c-0.2-1.1,0.6-2,1.6-2.2
					C43.8,16.9,44.8,17.6,45,18.6L45,18.6z"/>
				<path id="Path_804" class="st1" d="M63.7,17.1c0.2,1.1-0.6,2-1.6,2.2c-1.1,0.2-2-0.6-2.2-1.6c-0.2-1.1,0.6-2,1.6-2.2
					S63.5,16,63.7,17.1L63.7,17.1z"/>
				<path id="Path_805" class="st1" d="M82.3,15.5c0.2,1.1-0.6,2-1.6,2.2c-1.1,0.2-2-0.6-2.2-1.6c-0.2-1.1,0.6-2,1.6-2.2
					C81.2,13.8,82.2,14.5,82.3,15.5L82.3,15.5z"/>
				<path id="Path_806" class="st1" d="M101,14c0.2,1.1-0.6,2-1.6,2.2c-1.1,0.2-2-0.6-2.2-1.6c-0.2-1.1,0.6-2,1.6-2.2
					C99.9,12.2,100.9,12.9,101,14L101,14z"/>
			</g>
			<g id="Group_533" transform="translate(11.878 133.486)">
				<path id="Path_807" class="st1" d="M5.2-5.3c0.2,1.1-0.5,2-1.6,2.2s-2-0.5-2.2-1.6s0.5-2,1.6-2.2C4-7,5-6.3,5.2-5.3z"/>
				<path id="Path_808" class="st1" d="M23.9-6.8c0.2,1.1-0.6,2-1.6,2.2c-1.1,0.2-2-0.6-2.2-1.6c-0.2-1.1,0.5-2,1.6-2.2
					C22.7-8.6,23.7-7.9,23.9-6.8z"/>
				<path id="Path_809" class="st1" d="M42.6-8.4c0.2,1.1-0.6,2-1.6,2.2c-1.1,0.2-2-0.6-2.2-1.6c-0.2-1.1,0.6-2,1.6-2.2l0,0
					C41.4-10.1,42.4-9.4,42.6-8.4z"/>
				<path id="Path_810" class="st1" d="M61.2-9.9c0.2,1.1-0.5,2-1.6,2.2c-1.1,0.2-2-0.5-2.2-1.6s0.5-2,1.6-2.2
					C60.1-11.7,61.1-11,61.2-9.9z"/>
				<path id="Path_811" class="st1" d="M79.9-11.5c0.2,1.1-0.5,2-1.6,2.2c-1.1,0.2-2-0.5-2.2-1.6c-0.2-1.1,0.5-2,1.6-2.2l0,0
					C78.8-13.2,79.8-12.5,79.9-11.5z"/>
				<path id="Path_812" class="st1" d="M98.6-13c0.2,1.1-0.6,2-1.6,2.2c-1,0.2-2-0.6-2.2-1.6c-0.2-1.1,0.5-2,1.6-2.2
					C97.5-14.8,98.5-14.1,98.6-13L98.6-13z"/>
			</g>
			<g id="Group_534" transform="translate(15.837 177.98)">
				<path id="Path_813" class="st1" d="M2.8-32.3c0.2,1.1-0.6,2-1.6,2.2c-1.1,0.2-2-0.6-2.2-1.6c-0.2-1.1,0.5-2,1.6-2.2
					C1.6-34,2.6-33.3,2.8-32.3L2.8-32.3z"/>
				<path id="Path_814" class="st1" d="M21.5-33.8c0.2,1.1-0.5,2-1.6,2.2c-1.1,0.2-2-0.5-2.2-1.6c-0.2-1.1,0.5-2,1.6-2.2
					C20.3-35.6,21.3-34.9,21.5-33.8z"/>
				<path id="Path_815" class="st1" d="M40.2-35.4c0.2,1.1-0.6,2-1.6,2.2c-1.1,0.2-2-0.6-2.2-1.6c-0.2-1.1,0.6-2,1.6-2.2
					C39-37.1,40-36.4,40.2-35.4z"/>
				<path id="Path_816" class="st1" d="M58.8-36.9c0.2,1.1-0.6,2-1.6,2.2c-1.1,0.2-2-0.6-2.2-1.6c-0.2-1.1,0.5-2,1.6-2.2
					S58.7-38,58.8-36.9L58.8-36.9z"/>
				<path id="Path_817" class="st1" d="M77.5-38.5c0.2,1.1-0.6,2-1.6,2.2c-1.1,0.2-2-0.6-2.2-1.6c-0.2-1.1,0.5-2,1.6-2.2
					S77.4-39.5,77.5-38.5L77.5-38.5z"/>
				<path id="Path_818" class="st1" d="M96.2-40c0.2,1.1-0.6,2-1.6,2.2c-1.1,0.2-2-0.6-2.2-1.6c-0.2-1.1,0.5-2,1.6-2.2
					S96.1-41.1,96.2-40L96.2-40z"/>
			</g>
			<g id="Group_535" transform="translate(19.796 222.476)">
				<path id="Path_819" class="st1" d="M0.4-59.3c0.2,1.1-0.6,2-1.6,2.2c-1.1,0.2-2-0.6-2.2-1.6c-0.2-1.1,0.5-2,1.6-2.2
					C-0.8-61.1,0.2-60.3,0.4-59.3z"/>
				<path id="Path_820" class="st1" d="M19.1-60.8c0.2,1.1-0.6,2-1.6,2.2c-1.1,0.2-2-0.6-2.2-1.6c-0.2-1.1,0.5-2,1.6-2.2
					C17.9-62.6,18.9-61.9,19.1-60.8L19.1-60.8z"/>
				<path id="Path_821" class="st1" d="M37.7-62.4c0.2,1.1-0.6,2-1.6,2.2c-1.1,0.2-2-0.6-2.2-1.6c-0.2-1.1,0.6-2,1.6-2.2
					C36.6-64.2,37.6-63.4,37.7-62.4L37.7-62.4z"/>
				<path id="Path_822" class="st1" d="M56.4-63.9c0.2,1.1-0.5,2-1.6,2.2c-1.1,0.2-2-0.5-2.2-1.6c-0.2-1.1,0.5-2,1.6-2.2
					C55.3-65.7,56.3-65,56.4-63.9z"/>
				<path id="Path_823" class="st1" d="M75.1-65.5c0.2,1.1-0.5,2-1.6,2.2s-2-0.5-2.2-1.6c-0.2-1.1,0.5-2,1.6-2.2l0,0
					C74-67.3,75-66.6,75.1-65.5L75.1-65.5z"/>
				<path id="Path_824" class="st1" d="M93.8-67.1c0.2,1.1-0.5,2-1.6,2.2c-1.1,0.2-2-0.5-2.2-1.6c-0.2-1.1,0.5-2,1.6-2.2l0,0
					C92.7-68.8,93.7-68.1,93.8-67.1z"/>
			</g>
		</g>
	</g>
	<g id="Group_553_1_" transform="matrix(0.719, 0.695, -0.695, 0.719, -743.412, -1981.553)" class="st0">
		<g id="Group_536_1_" transform="translate(2017.102 786.995)">
			<g id="Group_530_1_">
				<path id="Path_789_1_" class="st1" d="M266.1-206.5c0.2,1.1-0.6,2-1.6,2.2c-1.1,0.2-2-0.6-2.2-1.6c-0.2-1.1,0.5-2,1.6-2.2
					C265-208.2,266-207.5,266.1-206.5z"/>
				<path id="Path_790_1_" class="st1" d="M284.8-208c0.2,1.1-0.6,2-1.6,2.2c-1.1,0.2-2-0.6-2.2-1.6c-0.2-1.1,0.5-2,1.6-2.2
					S284.7-209.1,284.8-208L284.8-208z"/>
				<path id="Path_791_1_" class="st1" d="M303.5-209.6c0.2,1.1-0.6,2-1.6,2.2c-1.1,0.2-2-0.6-2.2-1.6c-0.2-1.1,0.6-2,1.6-2.2
					C302.4-211.3,303.4-210.6,303.5-209.6z"/>
				<path id="Path_792_1_" class="st1" d="M322.2-211.1c0.2,1.1-0.6,2-1.6,2.2c-1.1,0.2-2-0.6-2.2-1.6c-0.2-1.1,0.5-2,1.6-2.2
					S322.1-212.2,322.2-211.1L322.2-211.1z"/>
				<path id="Path_793_1_" class="st1" d="M340.9-212.7c0.2,1.1-0.6,2-1.6,2.2s-2-0.6-2.2-1.6c-0.2-1.1,0.5-2,1.6-2.2
					C339.8-214.4,340.7-213.7,340.9-212.7L340.9-212.7z"/>
				<path id="Path_794_1_" class="st1" d="M359.6-214.2c0.2,1.1-0.6,2-1.6,2.2c-1.1,0.2-2-0.6-2.2-1.6c-0.2-1.1,0.5-2,1.6-2.2
					C358.5-216,359.4-215.3,359.6-214.2L359.6-214.2z"/>
			</g>
			<g id="Group_531_1_" transform="translate(3.959 44.495)">
				<path id="Path_795_1_" class="st1" d="M263.7-233.5c0.2,1.1-0.6,2-1.6,2.2c-1.1,0.2-2-0.6-2.2-1.6c-0.2-1.1,0.5-2,1.6-2.2
					C262.6-235.2,263.6-234.5,263.7-233.5L263.7-233.5z"/>
				<path id="Path_796_1_" class="st1" d="M282.4-235c0.2,1.1-0.6,2-1.6,2.2c-1.1,0.2-2-0.6-2.2-1.6c-0.2-1.1,0.5-2,1.6-2.2
					S282.3-236.1,282.4-235L282.4-235z"/>
				<path id="Path_797_1_" class="st1" d="M301.1-236.6c0.2,1.1-0.6,2-1.6,2.2c-1.1,0.2-2-0.6-2.2-1.6c-0.2-1.1,0.6-2,1.6-2.2l0,0
					C300-238.3,301-237.6,301.1-236.6z"/>
				<path id="Path_798_1_" class="st1" d="M319.8-238.1c0.2,1.1-0.5,2-1.6,2.2s-2-0.5-2.2-1.6s0.5-2,1.6-2.2
					C318.7-239.9,319.7-239.2,319.8-238.1z"/>
				<path id="Path_799_1_" class="st1" d="M338.5-239.7c0.2,1.1-0.5,2-1.6,2.2s-2-0.5-2.2-1.6s0.5-2,1.6-2.2l0,0
					C337.4-241.5,338.3-240.7,338.5-239.7z"/>
				<path id="Path_800_1_" class="st1" d="M357.2-241.2c0.2,1.1-0.6,2-1.6,2.2c-1.1,0.2-2-0.6-2.2-1.6c-0.2-1.1,0.5-2,1.6-2.2
					C356.1-243,357-242.3,357.2-241.2L357.2-241.2z"/>
			</g>
			<g id="Group_532_1_" transform="translate(7.918 88.989)">
				<path id="Path_801_1_" class="st1" d="M261.3-260.5c0.2,1.1-0.6,2-1.6,2.2c-1.1,0.2-2-0.6-2.2-1.6c-0.2-1.1,0.6-2,1.6-2.2
					C260.2-262.3,261.2-261.5,261.3-260.5L261.3-260.5z"/>
				<path id="Path_802_1_" class="st1" d="M280-262c0.2,1.1-0.6,2-1.6,2.2c-1.1,0.2-2-0.6-2.2-1.6c-0.2-1.1,0.6-2,1.6-2.2
					C278.9-263.8,279.9-263.1,280-262z"/>
				<path id="Path_803_1_" class="st1" d="M298.7-263.6c0.2,1.1-0.6,2-1.6,2.2c-1.1,0.2-2-0.6-2.2-1.6c-0.2-1.1,0.6-2,1.6-2.2
					C297.6-265.4,298.6-264.6,298.7-263.6L298.7-263.6z"/>
				<path id="Path_804_1_" class="st1" d="M317.4-265.1c0.2,1.1-0.6,2-1.6,2.2c-1.1,0.2-2-0.6-2.2-1.6c-0.2-1.1,0.6-2,1.6-2.2
					C316.3-266.9,317.3-266.2,317.4-265.1L317.4-265.1z"/>
				<path id="Path_805_1_" class="st1" d="M336.1-266.7c0.2,1.1-0.6,2-1.6,2.2c-1.1,0.2-2-0.6-2.2-1.6c-0.2-1.1,0.6-2,1.6-2.2
					C335-268.5,335.9-267.8,336.1-266.7L336.1-266.7z"/>
				<path id="Path_806_1_" class="st1" d="M354.8-268.3c0.2,1.1-0.6,2-1.6,2.2c-1.1,0.2-2-0.6-2.2-1.6c-0.2-1.1,0.6-2,1.6-2.2
					C353.6-270,354.6-269.3,354.8-268.3L354.8-268.3z"/>
			</g>
			<g id="Group_533_1_" transform="translate(11.878 133.486)">
				<path id="Path_807_1_" class="st1" d="M258.9-287.5c0.2,1.1-0.5,2-1.6,2.2s-2-0.5-2.2-1.6s0.5-2,1.6-2.2
					C257.8-289.3,258.8-288.5,258.9-287.5z"/>
				<path id="Path_808_1_" class="st1" d="M277.6-289.1c0.2,1.1-0.6,2-1.6,2.2c-1.1,0.2-2-0.6-2.2-1.6c-0.2-1.1,0.5-2,1.6-2.2
					C276.5-290.8,277.5-290.1,277.6-289.1z"/>
				<path id="Path_809_1_" class="st1" d="M296.3-290.6c0.2,1.1-0.6,2-1.6,2.2c-1.1,0.2-2-0.6-2.2-1.6c-0.2-1.1,0.6-2,1.6-2.2l0,0
					C295.2-292.4,296.2-291.7,296.3-290.6z"/>
				<path id="Path_810_1_" class="st1" d="M315-292.2c0.2,1.1-0.5,2-1.6,2.2s-2-0.5-2.2-1.6s0.5-2,1.6-2.2
					C313.9-293.9,314.8-293.2,315-292.2z"/>
				<path id="Path_811_1_" class="st1" d="M333.7-293.7c0.2,1.1-0.5,2-1.6,2.2s-2-0.5-2.2-1.6s0.5-2,1.6-2.2l0,0
					C332.6-295.5,333.5-294.8,333.7-293.7z"/>
				<path id="Path_812_1_" class="st1" d="M352.4-295.3c0.2,1.1-0.6,2-1.6,2.2s-2-0.6-2.2-1.6c-0.2-1.1,0.5-2,1.6-2.2
					C351.2-297,352.2-296.3,352.4-295.3L352.4-295.3z"/>
			</g>
			<g id="Group_534_1_" transform="translate(15.837 177.98)">
				<path id="Path_813_1_" class="st1" d="M256.5-314.5c0.2,1.1-0.6,2-1.6,2.2c-1.1,0.2-2-0.6-2.2-1.6c-0.2-1.1,0.5-2,1.6-2.2
					C255.4-316.3,256.4-315.6,256.5-314.5L256.5-314.5z"/>
				<path id="Path_814_1_" class="st1" d="M275.2-316.1c0.2,1.1-0.5,2-1.6,2.2s-2-0.5-2.2-1.6c-0.2-1.1,0.5-2,1.6-2.2
					C274.1-317.8,275.1-317.1,275.2-316.1z"/>
				<path id="Path_815_1_" class="st1" d="M293.9-317.6c0.2,1.1-0.6,2-1.6,2.2c-1.1,0.2-2-0.6-2.2-1.6c-0.2-1.1,0.6-2,1.6-2.2
					C292.8-319.4,293.7-318.7,293.9-317.6z"/>
				<path id="Path_816_1_" class="st1" d="M312.6-319.2c0.2,1.1-0.6,2-1.6,2.2s-2-0.6-2.2-1.6c-0.2-1.1,0.5-2,1.6-2.2
					C311.5-320.9,312.4-320.2,312.6-319.2L312.6-319.2z"/>
				<path id="Path_817_1_" class="st1" d="M331.3-320.7c0.2,1.1-0.6,2-1.6,2.2c-1.1,0.2-2-0.6-2.2-1.6c-0.2-1.1,0.5-2,1.6-2.2
					C330.1-322.5,331.1-321.8,331.3-320.7L331.3-320.7z"/>
				<path id="Path_818_1_" class="st1" d="M350-322.3c0.2,1.1-0.6,2-1.6,2.2c-1.1,0.2-2-0.6-2.2-1.6c-0.2-1.1,0.5-2,1.6-2.2
					C348.8-324.1,349.8-323.3,350-322.3L350-322.3z"/>
			</g>
			<g id="Group_535_1_" transform="translate(19.796 222.476)">
				<path id="Path_819_1_" class="st1" d="M254.1-341.5c0.2,1.1-0.6,2-1.6,2.2c-1.1,0.2-2-0.6-2.2-1.6c-0.2-1.1,0.5-2,1.6-2.2
					C253-343.3,254-342.6,254.1-341.5z"/>
				<path id="Path_820_1_" class="st1" d="M272.8-343.1c0.2,1.1-0.6,2-1.6,2.2c-1.1,0.2-2-0.6-2.2-1.6c-0.2-1.1,0.5-2,1.6-2.2
					C271.7-344.8,272.7-344.1,272.8-343.1L272.8-343.1z"/>
				<path id="Path_821_1_" class="st1" d="M291.5-344.6c0.2,1.1-0.6,2-1.6,2.2s-2-0.6-2.2-1.6c-0.2-1.1,0.6-2,1.6-2.2
					C290.4-346.4,291.3-345.7,291.5-344.6L291.5-344.6z"/>
				<path id="Path_822_1_" class="st1" d="M310.2-346.2c0.2,1.1-0.5,2-1.6,2.2s-2-0.5-2.2-1.6s0.5-2,1.6-2.2
					C309-348,310-347.2,310.2-346.2z"/>
				<path id="Path_823_1_" class="st1" d="M328.9-347.7c0.2,1.1-0.5,2-1.6,2.2s-2-0.5-2.2-1.6s0.5-2,1.6-2.2l0,0
					C327.7-349.5,328.7-348.8,328.9-347.7L328.9-347.7z"/>
				<path id="Path_824_1_" class="st1" d="M347.6-349.3c0.2,1.1-0.5,2-1.6,2.2s-2-0.5-2.2-1.6s0.5-2,1.6-2.2l0,0
					C346.4-351.1,347.4-350.4,347.6-349.3z"/>
			</g>
		</g>
	</g>
	<g id="Group_555" transform="translate(27.795 -1015.54)" class="st2">
		<g transform="matrix(1, 0, 0, 1, -27.79, 1015.54)">
			<circle id="Ellipse_19-2" class="st3" cx="70.5" cy="172.1" r="25.5"/>
		</g>
		<g transform="matrix(1, 0, 0, 1, -27.79, 1015.54)">
			<circle id="Ellipse_18-2" class="st3" cx="70.5" cy="172.1" r="15.3"/>
		</g>
	</g>
	<g id="Group_555_3_" transform="translate(27.795 -1015.54)" class="st2">
		<g transform="matrix(1, 0, 0, 1, -27.79, 1015.54)">
			<circle id="Ellipse_19-2_3_" class="st3" cx="18.7" cy="18.7" r="18.7"/>
		</g>
		<g transform="matrix(1, 0, 0, 1, -27.79, 1015.54)">
			<circle id="Ellipse_18-2_3_" class="st3" cx="18.7" cy="18.7" r="11.2"/>
		</g>
	</g>
	<g id="Group_555_1_" transform="translate(27.795 -1015.54)" class="st2">
		<g transform="matrix(1, 0, 0, 1, -27.79, 1015.54)">
			<circle id="Ellipse_19-2_1_" class="st3" cx="590" cy="172.1" r="18.2"/>
		</g>
		<g transform="matrix(1, 0, 0, 1, -27.79, 1015.54)">
			<circle id="Ellipse_18-2_1_" class="st3" cx="590" cy="172.1" r="10.9"/>
		</g>
	</g>
	<g id="Group_555_2_" transform="translate(27.795 -1015.54)" class="st2">
		<g transform="matrix(1, 0, 0, 1, -27.79, 1015.54)">
			<circle id="Ellipse_19-2_2_" class="st3" cx="690.9" cy="83.7" r="18.2"/>
		</g>
		<g transform="matrix(1, 0, 0, 1, -27.79, 1015.54)">
			<circle id="Ellipse_18-2_2_" class="st3" cx="690.9" cy="83.7" r="10.9"/>
		</g>
	</g>
</g>
</svg>
