<svg xmlns="http://www.w3.org/2000/svg" width="83.356" height="80.186" viewBox="0 0 83.356 80.186">
    <defs>
        <style>
            .cls-1{fill:#276ce6}
        </style>
    </defs>
    <g id="key" transform="translate(-.164 -3.394)">
        <path id="Path_1044" d="M80.833 3.393H2.851A5.566 5.566 0 0 0 .164 8.141V8.3a5.514 5.514 0 0 0 8.067 4.91v58.269h18.982l2.529 3.161v8.94H52.6v-8.855l1.276-1.276a9.42 9.42 0 0 0 1.5-1.969h20.077V13.208A5.514 5.514 0 0 0 83.52 8.3v-.159a5.566 5.566 0 0 0-2.688-4.748zm-28.86 68.155l-2.064 2.064v7.279H32.431V73.7l-3.9-4.882a6.739 6.739 0 0 1-1.474-4.2V54a4.039 4.039 0 0 1 4.033-4.033h8.067a1.344 1.344 0 0 1 0 2.689h-6.726a2.692 2.692 0 0 0-2.689 2.689v8.067h2.689v-3.14a12.051 12.051 0 0 0 14.615 3.288 4.016 4.016 0 0 0 2.862 1.2h4.033v2.037a6.682 6.682 0 0 1-1.969 4.754zm-7.442-41.19V43.6l.839.341a9.447 9.447 0 0 1 3.238 2.231 4 4 0 0 0-1.684 6.489 3.972 3.972 0 0 0 0 5.378 3.574 3.574 0 0 0-1.008 3.088 9.344 9.344 0 0 1-13.064-5.777h6.3a4.033 4.033 0 0 0 0-8.067h-5.02a9.474 9.474 0 0 1 4.18-3.342l.84-.341V23.4l2.176-4.35h1.027l2.176 4.35v.471l-3.246 3.246zm12.1 30.366a1.345 1.345 0 0 1-1.344 1.344h-5.378a1.344 1.344 0 0 1 0-2.689h5.378a1.345 1.345 0 0 1 1.344 1.345zm0-5.378a1.345 1.345 0 0 1-1.344 1.344h-5.378a1.344 1.344 0 0 1 0-2.689h5.378a1.345 1.345 0 0 1 1.344 1.345zm-1.344-4.033h-5.378a1.344 1.344 0 0 1 0-2.689h5.378a1.344 1.344 0 0 1 0 2.689zm1.126 17.477a9.47 9.47 0 0 0 .218-2v-2.28a4 4 0 0 0 1.641-6.475 3.972 3.972 0 0 0 0-5.378 4.016 4.016 0 0 0-2.985-6.722h-3.426a12.183 12.183 0 0 0-4.641-4.111V29.245l-2.132-2.132 2.132-2.133v-2.218l-3.2-6.405h-4.354l-3.2 6.405v19.06a12.2 12.2 0 0 0-5.457 5.465A6.726 6.726 0 0 0 24.364 54v10.617a9.413 9.413 0 0 0 1.007 4.173H10.919v-55.2h61.845v55.2zM80.831 8.3a2.847 2.847 0 0 1-4.339 2.426H7.194A2.849 2.849 0 0 1 2.853 8.3v-.159A2.86 2.86 0 0 1 4.235 5.7h75.214a2.862 2.862 0 0 1 1.382 2.441zm0 0" class="cls-1" data-name="Path 1044"/>
        <path id="Path_1045" d="M152.164 164.15h2.689v-16.133h5.378v-2.689h-8.067zm0 0" class="cls-1" data-name="Path 1045" transform="translate(-126.455 -120.905)"/>
        <path id="Path_1046" d="M296.164 148.017h5.378v16.133h2.689v-18.822h-8.067zm0 0" class="cls-1" data-name="Path 1046" transform="translate(-246.255 -120.905)"/>
    </g>
</svg>
