<?xml version="1.0" encoding="utf-8"?>
<!-- Generator: Adobe Illustrator 23.0.4, SVG Export Plug-In . SVG Version: 6.00 Build 0)  -->
<svg version="1.1" id="Ebene_1" xmlns="http://www.w3.org/2000/svg" xmlns:xlink="http://www.w3.org/1999/xlink" x="0px" y="0px"
	 viewBox="0 0 161.4 71.1" style="enable-background:new 0 0 161.4 71.1;" xml:space="preserve">
<style type="text/css">
	.st0{fill:#6E6F71;}
	.st1{fill:url(#SVGID_1_);}
	.st2{fill:url(#SVGID_2_);}
	.st3{fill:url(#SVGID_3_);}
	.st4{fill:#646E78;}
	.st5{fill:#8599A2;}
	.st6{fill:#8F9CA3;}
	.st7{fill:url(#SVGID_4_);}
	.st8{fill:url(#SVGID_5_);}
	.st9{fill:#B4BDC3;}
	.st10{fill:none;}
	.st11{fill:url(#SVGID_6_);}
	.st12{fill:#525E62;}
	.st13{fill:#102029;}
	.st14{fill:#919EA6;}
	.st15{fill:url(#SVGID_7_);}
	.st16{fill:url(#SVGID_8_);}
	.st17{fill:url(#SVGID_9_);}
	.st18{fill:url(#SVGID_10_);}
	.st19{fill:url(#SVGID_11_);}
	.st20{fill:url(#SVGID_12_);}
	.st21{fill:#FFFFFF;}
</style>
<g>
	<polygon class="st0" points="97.6,12.4 87,12.4 87,58.3 119.6,58.3 119.6,49.4 97.6,49.4 	"/>
	<g>
		<path class="st0" d="M143,40.8h8.6v8c-1.6,0.6-4.7,1.2-7.7,1.2c-9.6,0-12.7-4.9-12.7-14.7c0-9.4,3-14.9,12.6-14.9
			c5.3,0,8.3,1.7,10.8,4.9l6.6-6.1c-4-5.8-11.1-7.5-17.7-7.5c-14.9,0-22.7,8.1-22.7,23.6c0,15.4,7.1,23.7,22.6,23.7
			c7.1,0,14.1-1.8,17.9-4.5V32.3H143L143,40.8L143,40.8z"/>
	</g>
	<g>
		
			<radialGradient id="SVGID_1_" cx="-322.7999" cy="198.3961" r="1.1618" gradientTransform="matrix(31.9334 0 0 31.9334 10342.2695 -6300.9189)" gradientUnits="userSpaceOnUse">
			<stop  offset="0" style="stop-color:#C22043"/>
			<stop  offset="0.5" style="stop-color:#C22043"/>
			<stop  offset="0.7435" style="stop-color:#C02042"/>
			<stop  offset="0.846" style="stop-color:#B91F3F"/>
			<stop  offset="0.9219" style="stop-color:#AE1E3A"/>
			<stop  offset="0.9844" style="stop-color:#A01C33"/>
			<stop  offset="1" style="stop-color:#9B1B31"/>
		</radialGradient>
		<path class="st1" d="M35.5,0C15.9,0,0,15.9,0,35.6c0,19.6,15.9,35.6,35.5,35.6c19.6,0,35.4-15.8,35.6-35.3v-0.6
			C71,15.8,55.1,0,35.5,0z"/>
		
			<linearGradient id="SVGID_2_" gradientUnits="userSpaceOnUse" x1="20.9946" y1="243.4505" x2="39.7548" y2="191.9067" gradientTransform="matrix(1 0 0 -1 0 248.046)">
			<stop  offset="0" style="stop-color:#F18996"/>
			<stop  offset="0.2359" style="stop-color:#DD5F70"/>
			<stop  offset="0.4716" style="stop-color:#CE3D55"/>
			<stop  offset="0.6681" style="stop-color:#C52848"/>
			<stop  offset="0.8011" style="stop-color:#C22043"/>
			<stop  offset="1" style="stop-color:#C22043"/>
		</linearGradient>
		<path class="st2" d="M11.5,11.5c-11.9,11.9-13.1,30-2.7,40.4c10.4,10.4,28.5,9.2,40.4-2.7c11.9-11.9,13.1-30,2.7-40.4
			c-4.8-4.8-11.1-7.1-17.8-7.1C26.2,1.7,17.9,5,11.5,11.5"/>
		
			<linearGradient id="SVGID_3_" gradientUnits="userSpaceOnUse" x1="11.8305" y1="230.7128" x2="54.8633" y2="187.6801" gradientTransform="matrix(1 0 0 -1 0 248.046)">
			<stop  offset="0" style="stop-color:#CE435D"/>
			<stop  offset="0.1158" style="stop-color:#BA354F"/>
			<stop  offset="0.2712" style="stop-color:#A82944"/>
			<stop  offset="0.447" style="stop-color:#9B203C"/>
			<stop  offset="0.6582" style="stop-color:#941B37"/>
			<stop  offset="1" style="stop-color:#921936"/>
		</linearGradient>
		<path class="st3" d="M33.7,51.5l0.9-0.5l0-30l-0.2-0.4l0.2-0.1v0h0.2l2.7-0.9l0.5,0.8c0,0,0.1,0.1,0.1,0.2l0,27.4h6.5l0.5,0.8
			c0,0.1,0.1,0.1,0.1,0.3v2.8c0,0.2-0.1,0.2-0.2,0.2h-9.9c-0.2,0-0.4-0.1-0.5-0.1L33.7,51.5z M65.8,33.9l-22,0v3.5l0.5,0.7l0,0
			c0,0,0.1,0.1,0.2,0.1h16.8h1.6h0h0c-1,13.9-12.7,24.8-26.7,24.8c-7.1,0-13.9-2.8-18.9-7.8c-5-5-7.8-11.7-7.8-18.8
			c0-7.1,2.6-13.9,7.7-19c5.1-5,11.5-7.7,19.1-7.8l1.4,0h0.2c0.1,0,0.2,0,0.2-0.2V6.5c0-0.2-0.1-0.3-0.1-0.3l-0.6-0.8l-1.5,0.2
			l-0.7,0.2c-16.7,0-29.2,14-29.2,30.6c0,8,3.2,15.6,8.9,21.3c5.7,5.7,13.3,8.6,21.4,8.6c8.1,0,15.8-3.1,21.5-8.8
			c5.7-5.7,8.9-13.3,8.9-21.3v-1.7L65.8,33.9z M24.7,20c-2.6,0-4.8,2.1-4.8,4.8c0,2.6,2.1,4.7,4.8,4.7c2.6,0,4.8-2.1,4.8-4.7
			C29.4,22.1,27.3,20,24.7,20z"/>
		<polygon class="st4" points="34.4,50.8 33.7,51.5 44.4,51.5 43.7,50.8 		"/>
		<polygon class="st5" points="43.7,48.7 44.4,48 37.4,48 36.6,48.7 		"/>
		<polygon class="st6" points="37.4,19.6 33.7,19.6 34.4,20.2 36.6,20.2 		"/>
		
			<linearGradient id="SVGID_4_" gradientUnits="userSpaceOnUse" x1="36.6139" y1="213.9534" x2="37.4029" y2="213.9534" gradientTransform="matrix(1 0 0 -1 0 248.046)">
			<stop  offset="0" style="stop-color:#B4BDC3"/>
			<stop  offset="5.460000e-02" style="stop-color:#A9B3B9"/>
			<stop  offset="0.5061" style="stop-color:#646A71"/>
			<stop  offset="0.833" style="stop-color:#3F464E"/>
			<stop  offset="1" style="stop-color:#343B42"/>
		</linearGradient>
		<polygon class="st7" points="36.6,48.6 37.4,48 37.4,19.6 36.6,20.2 		"/>
		
			<linearGradient id="SVGID_5_" gradientUnits="userSpaceOnUse" x1="43.6882" y1="198.3062" x2="44.3828" y2="198.3062" gradientTransform="matrix(1 0 0 -1 0 248.046)">
			<stop  offset="0" style="stop-color:#B4BBC2"/>
			<stop  offset="0.1586" style="stop-color:#959CA2"/>
			<stop  offset="0.5603" style="stop-color:#565D62"/>
			<stop  offset="0.8514" style="stop-color:#363D42"/>
			<stop  offset="1" style="stop-color:#2B3337"/>
		</linearGradient>
		<polygon class="st8" points="43.7,48.7 43.7,50.8 44.4,51.5 44.4,48 		"/>
		<polygon class="st9" points="33.7,19.6 33.7,51.5 34.4,50.8 34.4,20.2 		"/>
		<path class="st10" d="M20.2,24.2c0,2.2,1.8,3.9,4,3.9c2.2,0,3.9-1.8,3.9-3.9c0-2.2-1.8-3.9-3.9-3.9C22,20.3,20.2,22,20.2,24.2z"/>
		
			<linearGradient id="SVGID_6_" gradientUnits="userSpaceOnUse" x1="-306.5967" y1="188.0223" x2="-305.7884" y2="188.0223" gradientTransform="matrix(8.1027 8.1027 -8.1027 8.1027 4028.6702 981.6948)">
			<stop  offset="0" style="stop-color:#ACBCC3"/>
			<stop  offset="1" style="stop-color:#272B31"/>
		</linearGradient>
		<path class="st11" d="M19.6,24.2c0,2.6,2.1,4.6,4.6,4.6s4.6-2.1,4.6-4.6c0-2.6-2.1-4.6-4.6-4.6S19.6,21.6,19.6,24.2z M28.1,24.2
			c0,2.2-1.8,3.9-3.9,3.9c-2.2,0-4-1.8-4-3.9c0-2.2,1.8-3.9,4-3.9C26.4,20.3,28.1,22,28.1,24.2z"/>
		<polygon class="st12" points="62.8,36.6 44.4,36.6 43.7,37.3 62.1,37.3 62.5,37 		"/>
		<path class="st13" d="M37.3,9L37.3,9L37.3,9z"/>
		<polygon class="st14" points="44.4,34.5 65,34.5 65.7,33.8 43.7,33.8 		"/>
		
			<linearGradient id="SVGID_7_" gradientUnits="userSpaceOnUse" x1="-325.3121" y1="199.1291" x2="-324.5025" y2="199.1291" gradientTransform="matrix(53.1048 53.1048 -53.1048 53.1048 27861.8145 6717.7383)">
			<stop  offset="0" style="stop-color:#B4BDC3"/>
			<stop  offset="1" style="stop-color:#3F464E"/>
		</linearGradient>
		<path class="st15" d="M65.7,35.5v-1.7L65,34.5v1c0,7.9-3.1,15.3-8.6,20.8S43.4,65,35.5,65c-7.9,0-15.2-3.1-20.8-8.6
			c-5.6-5.6-8.6-13-8.6-20.8c0-16.2,13.2-29.4,29.4-29.4l1.1,0l0.7-0.7l-1.8,0C18.9,5.4,5.4,18.9,5.4,35.5c0,8,3.1,15.6,8.8,21.3
			c5.7,5.7,13.2,8.8,21.3,8.8c8.1,0,15.7-3.1,21.3-8.8C62.5,51.2,65.7,43.6,65.7,35.5z"/>
		
			<linearGradient id="SVGID_8_" gradientUnits="userSpaceOnUse" x1="-332.7833" y1="200.2229" x2="-331.9741" y2="200.2229" gradientTransform="matrix(-67.4051 0 0 -67.4051 -22368.4863 13531.5957)">
			<stop  offset="0" style="stop-color:#B4BDC3"/>
			<stop  offset="1" style="stop-color:#49535B"/>
		</linearGradient>
		<path class="st16" d="M36.6,8.3l-0.8,0h-0.7c-7.1,0.1-13.8,2.9-18.9,8c-5.1,5.2-8,12-8,19.3c0,7.3,2.8,14.1,8,19.3
			c5.1,5.1,11.8,7.9,19,8h0.7C50,62.7,61.8,51.6,62.8,37.4l0-0.8L62.5,37l-0.4,0.4c-0.9,13.9-12.6,24.8-26.5,24.8
			c-7.1,0-13.8-2.8-18.8-7.8c-5-5-7.8-11.7-7.8-18.8c0-7.1,2.8-13.8,7.8-18.8c5-5,11.7-7.8,18.8-7.8l1.8,0L36.6,8.3z"/>
		<path class="st13" d="M37.3,9"/>
		
			<linearGradient id="SVGID_9_" gradientUnits="userSpaceOnUse" x1="-332.4055" y1="200.6173" x2="-332.4055" y2="200.6173" gradientTransform="matrix(-67.4051 0 0 -67.4051 -22368.4863 13531.5957)">
			<stop  offset="0" style="stop-color:#ABB8C2"/>
			<stop  offset="1" style="stop-color:#102029"/>
		</linearGradient>
		<path class="st17" d="M37.3,9"/>
		<polygon class="st9" points="44.4,34.5 43.7,33.8 43.7,37.3 44.4,36.6 		"/>
		
			<linearGradient id="SVGID_10_" gradientUnits="userSpaceOnUse" x1="36.6477" y1="240.8541" x2="37.3379" y2="240.8541" gradientTransform="matrix(1 0 0 -1 0 248.046)">
			<stop  offset="0" style="stop-color:#B4BBC2"/>
			<stop  offset="0.1586" style="stop-color:#959CA2"/>
			<stop  offset="0.5603" style="stop-color:#565D62"/>
			<stop  offset="0.8514" style="stop-color:#363D42"/>
			<stop  offset="1" style="stop-color:#2B3337"/>
		</linearGradient>
		<polygon class="st18" points="36.6,8.3 37.3,9 37.3,5.4 36.6,6.1 		"/>
		
			<radialGradient id="SVGID_11_" cx="8.7794" cy="636.0188" r="65.2866" gradientTransform="matrix(0.6971 0 0 -0.6971 17.4116 466.312)" gradientUnits="userSpaceOnUse">
			<stop  offset="0" style="stop-color:#FFFFFF"/>
			<stop  offset="0.35" style="stop-color:#FFFFFF"/>
			<stop  offset="0.4976" style="stop-color:#FCFCFD"/>
			<stop  offset="0.6499" style="stop-color:#F1F4F6"/>
			<stop  offset="0.8044" style="stop-color:#E0E6E9"/>
			<stop  offset="0.9596" style="stop-color:#C7D2D8"/>
			<stop  offset="1" style="stop-color:#C0CDD3"/>
		</radialGradient>
		<path class="st19" d="M34.1,20v31.2H44v-2.8h-7.1V20H34.1z M35.1,5.8C18.9,6,5.8,19.3,5.8,35.5c0,8,3.1,15.4,8.7,21
			c5.6,5.6,13.1,8.7,21,8.7c8,0,15.4-3.1,21.1-8.7c5.6-5.6,8.7-13.1,8.7-21v-1.4l-1.2,0H44V37h18.4c0,0.1,0,0.4,0,0.4
			c-1,14-12.6,25.2-26.9,25.2c-7.2,0-14-2.8-19.1-7.9c-5.1-5.1-7.9-11.9-7.9-19.1c0-7.2,2.8-14,7.9-19.1c5.1-5.1,11.9-7.9,19.1-7.9
			c0.3,0,1.1,0,1.4,0V5.8c-0.3,0-0.7,0-1.1,0C35.8,5.8,35.1,5.8,35.1,5.8z"/>
		
			<radialGradient id="SVGID_12_" cx="7.1746" cy="636.468" r="9.5346" gradientTransform="matrix(0.6971 0 0 -0.6971 17.4116 466.312)" gradientUnits="userSpaceOnUse">
			<stop  offset="0" style="stop-color:#FFFFFF"/>
			<stop  offset="0.35" style="stop-color:#FFFFFF"/>
			<stop  offset="0.5211" style="stop-color:#FCFDFD"/>
			<stop  offset="0.6984" style="stop-color:#F2F5F6"/>
			<stop  offset="0.8778" style="stop-color:#E0E7EB"/>
			<stop  offset="1" style="stop-color:#D0DBE0"/>
		</radialGradient>
		<path class="st20" d="M19.9,24.2c0,2.4,1.9,4.3,4.3,4.3s4.3-1.9,4.3-4.3c0-2.4-1.9-4.3-4.3-4.3S19.9,21.8,19.9,24.2"/>
		<g>
			<path class="st21" d="M25,20.7c1,0,1.9,0.3,2.6,0.9c-0.8-1-2-1.7-3.4-1.7c-2.4,0-4.3,1.9-4.3,4.3c0,1.4,0.7,2.6,1.7,3.3
				c-0.5-0.7-0.9-1.6-0.9-2.6C20.7,22.6,22.6,20.7,25,20.7"/>
			<path class="st21" d="M36.9,5.8c-0.4,0-1.1,0-1.4,0C19.1,5.8,5.8,19.1,5.8,35.5c0,8,3.1,15.4,8.7,21c0.2,0.2,0.4,0.3,0.5,0.5
				c-5.3-5.6-8.2-12.8-8.2-20.5C6.8,20.2,18.4,6.6,36.9,5.8"/>
			<path class="st21" d="M36.9,48.3c0,0,2,0.6,7.1,0.6v-0.6H36.9z"/>
			<path class="st21" d="M36.9,20.8V20h-2.8v31.2c0,0,0.9-4.7,0.9-30.3H36.9z"/>
			<path class="st21" d="M65.3,34.2l-21.2,0V37h0.8v-2C63.3,35,65.3,34.2,65.3,34.2"/>
			<path class="st21" d="M62.5,37c0,0.1,0,0.4,0,0.4c-0.9,14-12.6,25.2-26.9,25.2c-7.2,0-14-2.8-19.1-7.9c-3.3-3.3-5.7-7.4-6.9-11.8
				c3.2,11.6,13.8,20,26.4,20c13.6,0,26-10.6,26.8-25.9L62.5,37L62.5,37z"/>
		</g>
	</g>
</g>
</svg>
