<svg xmlns="http://www.w3.org/2000/svg" fill="#fff" viewBox="0 0 187.78 26.38"><title>logo_crunchbase</title><path d="M187.78 17.08c0-5.44-3.7-8.6-8.6-8.6a8.53 8.53 0 0 0-8.83 8.9 8.63 8.63 0 0 0 8.83 9 10.3 10.3 0 0 0 5.15-1.3 7 7 0 0 0 3.3-4.3h-3.6c-.87 1.57-2.44 2.34-4.66 2.34-3 0-5.23-2.35-5.23-4.6h13.6c.04-.63.04-1.03.04-1.44zm-13.68-1.7a4.75 4.75 0 0 1 4.94-3.73c2.57 0 4.68 1.54 5 3.72h-9.9zM13.63 19.62a5.16 5.16 0 1 1 .06-4.25h4a9 9 0 1 0 0 4.25h-4zM31.94 9.23a8.06 8.06 0 0 0-3.6-.76 6.7 6.7 0 0 0-3.62 1.1v-.5h-3.68v16.7h3.7v-8a13.36 13.36 0 0 1 .23-3.25v-.08a2.82 2.82 0 0 1 1.38-1.67 3.72 3.72 0 0 1 4 0zM45.9 9.08v8a13.36 13.36 0 0 1-.22 3.25v.08a2.82 2.82 0 0 1-1.36 1.67 3.72 3.72 0 0 1-4 0 2.82 2.82 0 0 1-1.36-1.66v-.07a13.36 13.36 0 0 1-.23-3.25v-8h-3.7v9.1a11.14 11.14 0 0 0 .64 4.4 5.65 5.65 0 0 0 3 3 8.06 8.06 0 0 0 3.6.75 6.7 6.7 0 0 0 3.62-1.1v.54h3.64V9.07H45.9zM57.8 25.77v-8a13.36 13.36 0 0 1 .24-3.26v-.07a2.82 2.82 0 0 1 1.36-1.66 3.72 3.72 0 0 1 4 0 2.82 2.82 0 0 1 1.36 1.66v.08a13.36 13.36 0 0 1 .2 3.27v8h3.68v-9.1a11.14 11.14 0 0 0-.6-4.4 5.65 5.65 0 0 0-3-3 8.06 8.06 0 0 0-3.6-.75 6.7 6.7 0 0 0-3.62 1.1v-.5h-3.7v16.65h3.67zM85.67 19.62a5.16 5.16 0 1 1 .06-4.25h4a9 9 0 1 0 0 4.25h-4zM96.78 25.77v-8a13.36 13.36 0 0 1 .23-3.25v-.08a2.82 2.82 0 0 1 1.4-1.67 3.72 3.72 0 0 1 4 0 2.82 2.82 0 0 1 1.35 1.66v.08a13.36 13.36 0 0 1 .23 3.26v8h3.67v-9.1a11.14 11.14 0 0 0-.63-4.4 5.65 5.65 0 0 0-3-3 8.06 8.06 0 0 0-3.6-.75 6.7 6.7 0 0 0-3.62 1.12V0h-3.7v25.77h3.68zM120.88 8.47h-.66a8.88 8.88 0 0 0-4.4 1.55V0h-3.65v25.77h3.67v-.94a9 9 0 1 0 5.04-16.36zm5.16 9.64v.17a5.12 5.12 0 0 1-.14.63 5.1 5.1 0 0 1-.25.65v.08a5.2 5.2 0 0 1-3.6 2.83l-.5.08h-.1a5.08 5.08 0 0 1-.57 0 5.16 5.16 0 0 1-.7-.05h-.16a5.1 5.1 0 0 1-1.3-.4h-.1a5.18 5.18 0 0 1-1.17-.8 5.2 5.2 0 0 1-.9-1.08 5.16 5.16 0 0 1-.34-.64 5.13 5.13 0 0 1 .07-4.25 5.17 5.17 0 0 1 4.14-2.93 5.1 5.1 0 0 1 .54 0 5.17 5.17 0 0 1 5.1 5.02 5.15 5.15 0 0 1 0 .7zM167.38 14.07V14c0-2.73-2.1-5.5-6.75-5.55s-6.68 2.74-6.74 5.42v.2c.1 1.57 1 3.57 4.47 4.4l3.1.7c.8.17 2.16.62 2.27 1.64 0 1.42-1.8 2.16-3.1 2.16-1.5 0-3.12-.83-3.12-2.16v-.08h-3.63v.05c0 2.72 2.08 5.5 6.74 5.54s6.75-2.8 6.75-5.53v-.05c-.1-1.6-.95-3.62-4.5-4.44l-3.1-.7c-.67-.15-2.26-.6-2.26-1.62 0-1.58 1.6-2.14 3.1-2.14s3.12.83 3.12 2.16v.1h3.63zM132.84 17.42a9 9 0 0 0 14 7.4v.95h3.67V9.07h-3.64v1a8.88 8.88 0 0 0-4.4-1.54h-.66a9 9 0 0 0-8.96 8.9zm3.8 0a5.17 5.17 0 0 1 5.15-5.16 5.1 5.1 0 0 1 .52 0 5.17 5.17 0 0 1 4.14 2.93 5.13 5.13 0 0 1 .06 4.24 5.16 5.16 0 0 1-.33.64 5.2 5.2 0 0 1-.92 1.1 5.18 5.18 0 0 1-1.16.77h-.1a5.1 5.1 0 0 1-1.3.4h-.17a5.16 5.16 0 0 1-.7.05 5.08 5.08 0 0 1-.56 0h-.08l-.5-.08a5.2 5.2 0 0 1-3.52-2.8v-.1a5.1 5.1 0 0 1-.25-.64 5.12 5.12 0 0 1-.14-.63V18a5.15 5.15 0 0 1-.17-.58z"/></svg>