<svg xmlns="http://www.w3.org/2000/svg" xmlns:xlink="http://www.w3.org/1999/xlink" viewBox="0 0 130.75 121.16"><defs><style>.cls-1{opacity:0.4;fill:url(#linear-gradient);}.cls-2{fill:url(#linear-gradient-2);}.cls-3{fill:url(#linear-gradient-3);}.cls-4{fill:none;stroke:#9b1a1a;stroke-linecap:round;stroke-linejoin:round;stroke-width:2px;opacity:0.36;}.cls-5{fill:url(#linear-gradient-4);}.cls-6{fill:url(#linear-gradient-5);}</style><linearGradient id="linear-gradient" x1="57.21" y1="73.08" x2="99.09" y2="110.68" gradientUnits="userSpaceOnUse"><stop offset="0.38" stop-color="#e46266"/><stop offset="0.44" stop-color="#e5686c" stop-opacity="0.96"/><stop offset="0.53" stop-color="#e7777b" stop-opacity="0.86"/><stop offset="0.64" stop-color="#ea9195" stop-opacity="0.69"/><stop offset="0.78" stop-color="#efb4b8" stop-opacity="0.46"/><stop offset="0.92" stop-color="#f5e0e4" stop-opacity="0.17"/><stop offset="1" stop-color="#f9fafe" stop-opacity="0"/></linearGradient><linearGradient id="linear-gradient-2" x1="42.65" y1="80.07" x2="36.09" y2="185.75" gradientUnits="userSpaceOnUse"><stop offset="0" stop-color="#de3f3e"/><stop offset="0.25" stop-color="#e16263"/><stop offset="0.58" stop-color="#e58b8e"/><stop offset="0.85" stop-color="#e7a4a8"/><stop offset="1" stop-color="#e8adb2"/></linearGradient><linearGradient id="linear-gradient-3" x1="49.24" y1="107.57" x2="22.75" y2="-73.88" gradientUnits="userSpaceOnUse"><stop offset="0" stop-color="#f74746"/><stop offset="0.21" stop-color="#f36263"/><stop offset="0.56" stop-color="#ed8b8e"/><stop offset="0.84" stop-color="#e9a4a8"/><stop offset="1" stop-color="#e8adb2"/></linearGradient><linearGradient id="linear-gradient-4" x1="42.09" y1="15.32" x2="-24.29" y2="-8.62" xlink:href="#linear-gradient-2"/><linearGradient id="linear-gradient-5" x1="66.25" y1="44.36" x2="-4.11" y2="-57.62" xlink:href="#linear-gradient-3"/></defs><title>Asset 16</title><g id="Layer_2" data-name="Layer 2"><g id="Layer_1-2" data-name="Layer 1"><polygon class="cls-1" points="88.64 121.16 38.32 96.46 82.68 74.34 130.75 98.77 88.64 121.16"/><path class="cls-2" d="M85.47,67.22S84,73,83.94,72.94a4.62,4.62,0,0,0-1.69-1.74L56.74,55.56a4.6,4.6,0,0,0-6.29,1.69l-.61,1a4.59,4.59,0,0,0-.55,2.9L30.39,50.29A4.6,4.6,0,0,0,24.1,52L23.5,53a4.54,4.54,0,0,0-.61,2.56l-7.45-4.3A4.6,4.6,0,0,0,9.15,53L8.54,54a4.6,4.6,0,0,0,1,5.77,4.57,4.57,0,0,0-3.95,2.28c-1,1.83-4.3-.51-5,.13C.17,65.9.28,66.47,0,68.93S.62,74.73,2.82,76L39,96.87a4.34,4.34,0,0,0,1.22.47l0,0s28.88,5.78,38.92-6.61C79.16,90.76,89.16,82.25,85.47,67.22Z"/><path class="cls-3" d="M84,63.14l0,0a4.55,4.55,0,0,0-1.69-1.74L56.74,45.73a4.61,4.61,0,0,0-6.29,1.69l-.61,1a4.59,4.59,0,0,0-.55,2.9L30.39,40.46a4.61,4.61,0,0,0-6.29,1.69l-.6,1.05a4.56,4.56,0,0,0-.61,2.56l-7.45-4.3a4.6,4.6,0,0,0-6.29,1.69L8.54,44.2A4.59,4.59,0,0,0,9.5,50a4.57,4.57,0,0,0-3.25,7.78,4.59,4.59,0,0,0-3.43,8.43L39,87.05a4.63,4.63,0,0,0,1.22.46l0,0s28.88,5.78,38.92-6.61C79.16,80.93,89.31,70.87,84,63.14Z"/><line class="cls-4" x1="7.21" y1="58.47" x2="28.56" y2="70.42"/><line class="cls-4" x1="10.75" y1="50.58" x2="32.2" y2="62.59"/><line class="cls-4" x1="23.73" y1="46.36" x2="44.87" y2="58.19"/><line class="cls-4" x1="50.25" y1="51.76" x2="62.39" y2="58.96"/><path class="cls-4" d="M44.73,75.62s6.33-4.77,15.52-1.28"/><path class="cls-5" d="M56.29.72,56.12.61A5,5,0,0,0,55.46.3h0A6.74,6.74,0,0,0,50.08,1a17.19,17.19,0,0,0-8.51,12.29l-.18.19c-.57-4.28-4.17-6-8.52-3.78-4.75,2.4-8.61,8.55-8.61,13.72a6.21,6.21,0,0,0,1.85,4.84h0a4.68,4.68,0,0,0,1.35.83l1.09.44,4.66,2.42.49-.27c3.85,1.62,7.76,3.3,7.76,3.3S55.91,14.31,56.35,13.58a17.2,17.2,0,0,0,1.86-4.32,23.28,23.28,0,0,0,2.42-1.61C60.73,7.44,63,4.1,63,4.1Z"/><path class="cls-6" d="M30.81,26.66c0-5.18,3.86-11.32,8.61-13.73,4.35-2.2,7.95-.49,8.52,3.79l.18-.2A17.2,17.2,0,0,1,56.63,4.24c4.75-2.41,8.61-.16,8.61,5a15.2,15.2,0,0,1-2.34,7.59h0C62.47,17.58,48,38.22,48,38.22s-10.46-4.48-14-5.88C32.09,31.57,30.81,29.61,30.81,26.66Z"/></g></g></svg>