<svg xmlns="http://www.w3.org/2000/svg" width="57.283" height="39.279" viewBox="0 0 57.283 39.279">
    <defs>
        <style>
            .cls-1{fill:#fff200}.cls-2{fill:none}
        </style>
    </defs>
    <g id="main-logo" transform="translate(-.6 -94.7)">
        <path id="Path_1064" d="M14.511 133.378L4.6 121.975l1.224-13.957L17.553 98.7l43.555 3.817-3.033 34.678zm-6.075-16.272a1.566 1.566 0 1 0-1.416-1.7 1.594 1.594 0 0 0 1.416 1.7z" class="cls-1" data-name="Path 1064" transform="translate(-3.617 -3.617)"/>
        <g id="Group_946" data-name="Group 946" transform="translate(.6 94.7)">
            <path id="Path_1065" d="M1.863 104.19L.6 118.472l10.1 11.652 44.072 3.855 3.109-35.424-44.07-3.855zm12.178-8.744l43.039 3.779-2.98 33.951-43.034-3.776-9.7-11.173 1.205-13.632z" data-name="Path 1065" transform="translate(-.6 -94.7)"/>
            <path id="Path_1066" d="M26.753 255.329a1.95 1.95 0 0 0-.689 1.32 1.887 1.887 0 0 0 .459 1.416 1.95 1.95 0 0 0 1.32.689 1.994 1.994 0 0 0 1.416-.44 1.95 1.95 0 0 0 .689-1.32 1.994 1.994 0 0 0-.44-1.416 1.95 1.95 0 0 0-1.32-.689 1.853 1.853 0 0 0-1.435.44zM27.9 258a1.157 1.157 0 0 1-.823-.421 1.133 1.133 0 0 1-.268-.88 1.157 1.157 0 0 1 .421-.823 1.133 1.133 0 0 1 .88-.268 1.157 1.157 0 0 1 .823.421 1.133 1.133 0 0 1 .268.88 1.157 1.157 0 0 1-.421.823 1.489 1.489 0 0 1-.88.268zm-.1.708z" data-name="Path 1066" transform="translate(-23.625 -239.554)"/>
        </g>
        <g id="Group_947" data-name="Group 947" transform="translate(8.425 101.636)">
            <path id="Path_1067" d="M153.481 323.118c.153-.918-2.047-.918-2.047-.918l-.134 1.492s2.124.44 2.181-.574z" class="cls-2" data-name="Path 1067" transform="translate(-144.709 -307.372)"/>
            <path id="Path_1068" d="M147.834 360.8l-.134 1.722s2.65.421 2.784-.631c.076-1.11-2.65-1.091-2.65-1.091z" class="cls-2" data-name="Path 1068" transform="translate(-141.453 -342.279)"/>
            <path id="Path_1069" d="M142.081 199.005c.077-.995-2.047-.918-2.047-.918l-.134 1.492s2.124.441 2.181-.574z" class="cls-2" data-name="Path 1069" transform="translate(-134.399 -195.131)"/>
            <path id="Path_1070" d="M138.784 237.889c.057-1.129-2.65-1.091-2.65-1.091L136 238.52c.01 0 2.707.421 2.784-.631z" class="cls-2" data-name="Path 1070" transform="translate(-130.872 -230.14)"/>
            <path id="Path_1071" d="M537.519 332.2l-.019.21s.306.077.306-.115c.038-.095-.287-.095-.287-.095z" class="cls-2" data-name="Path 1071" transform="translate(-493.964 -316.416)"/>
            <path id="Path_1072" d="M558.338 333l-.038.574c.019 0 .383.038.421-.268.019-.327-.344-.306-.383-.306z" class="cls-2" data-name="Path 1072" transform="translate(-512.774 -317.137)"/>
            <path id="Path_1073" d="M534.565 329.786a.442.442 0 1 0 .4.478.423.423 0 0 0-.4-.478zm.211.765h-.1l-.153-.268h-.115l-.019.268h-.077l.038-.593a1.547 1.547 0 0 1 .383.057.149.149 0 0 1 .057.134c0 .115-.077.153-.172.153z" class="cls-2" data-name="Path 1073" transform="translate(-490.875 -314.231)"/>
            <path id="Path_1074" d="M252.3 308.206l-1.55-2.879-10.906-.937-.517 5.788c-.057.823-.172 1.531-1.531 1.416-1.358-.134-1.339-.842-1.263-1.665l.517-5.788-5.1-.44-.536 6.151c-.268 3.033 2.2 4.64 6.132 4.965 3.932.344 6.629-.823 6.878-3.855l.517-5.979 4.429 6.151-.4 4.487 5.156.459.4-4.487 5.5-5.481-5.941-.517z" data-name="Path 1074" transform="translate(-217.14 -290.642)"/>
            <path id="Path_1075" d="M104.427 297.422a2.46 2.46 0 0 0 2.1-2.009c.21-2.4-2.631-3.128-5.462-3.377l-6.151-.536L94 301.851l7.194.631c2.554.23 5.4-.268 5.577-2.4.129-1.225-.794-2.125-2.344-2.66zm-4.812-2.975s2.2 0 2.047.918c-.077 1.014-2.181.574-2.181.574zm-.478 5.4l.134-1.722s2.726-.019 2.65 1.091c-.134 1.047-2.784.626-2.784.626z" data-name="Path 1075" transform="translate(-92.89 -279.609)"/>
            <path id="Path_1076" d="M228.6 188.547l-4.63-.4.1-1.033 4.094.364.21-2.717-4.075-.364.1-.966 4.467.364.23-2.832-9.777-.861-.909 10.408 9.949.88z" data-name="Path 1076" transform="translate(-205.39 -178.866)"/>
            <path id="Path_1077" d="M330.944 200.016s2.239.287 2.162.918c-.5 1.722-4.869-.918-4.869-.918l-1.837 2.822a17.188 17.188 0 0 0 5.5 1.454c3.147.268 6.419-.689 6.629-3.166.153-1.779-1.4-2.746-3.606-3.32 0 0-2.2-.325-2.181-.918.153-1.205 3.3.057 4.161.593l1.665-2.535a11.608 11.608 0 0 0-4.544-1.32c-3.166-.268-6.438.823-6.649 3.3-.124 1.617 1.525 2.631 3.569 3.09z" data-name="Path 1077" transform="translate(-303.058 -191.062)"/>
            <path id="Path_1078" d="M454.806 200.1l-.306 3.377 2.9.172-.631 7.108 5.309.459.631-7.108 2.927.344.287-3.377z" data-name="Path 1078" transform="translate(-418.904 -196.953)"/>
            <path id="Path_1079" d="M95.2 175.81c.115-1.244-.823-2.143-2.372-2.688 0 0 1.961-.574 2.1-2.009.21-2.4-2.631-3.128-5.462-3.377l-6.151-.536-.915 10.37 7.194.631c2.564.239 5.414-.258 5.606-2.391zm-7.165-5.654s2.143-.077 2.047.918c-.057.995-2.181.574-2.181.574zm-.5 5.424l.134-1.722s2.707-.038 2.65 1.091c-.084 1.051-2.782.631-2.782.631z" data-name="Path 1079" transform="translate(-82.4 -167.2)"/>
            <path id="Path_1080" d="M536.978 331.791a.149.149 0 0 0-.057-.134 1.546 1.546 0 0 0-.383-.057l-.038.593h.077l.019-.268h.115l.153.268h.1l-.153-.249a.155.155 0 0 0 .167-.153zm-.077-.038c0 .191-.306.115-.306.115l.019-.21s.326-.001.286.095z" data-name="Path 1080" transform="translate(-493.059 -315.873)"/>
            <path id="Path_1081" d="M534.015 328.989a.516.516 0 0 0-.555.478.5.5 0 0 0 .478.555.518.518 0 1 0 .077-1.033zm-.1.957a.442.442 0 1 1 .478-.4.425.425 0 0 1-.473.399z" data-name="Path 1081" transform="translate(-490.307 -313.51)"/>
            <path id="Path_1082" d="M548.664 332.193l-.153-.593h-.1l-.115.708h.1s.077-.517.077-.612c.019.1.153.631.153.631h.077s.23-.536.268-.612l-.038.612h.1l.019-.708h-.115a5.5 5.5 0 0 0-.273.574z" data-name="Path 1082" transform="translate(-503.731 -315.873)"/>
            <path id="Path_1083" d="M557.349 332.4h-.191l-.057.689a.417.417 0 0 0 .115.019c.191 0 .478-.1.5-.344.015-.287-.233-.345-.367-.364zm-.134.631l.038-.574c.038 0 .4-.019.383.306-.019.307-.402.268-.421.268z" data-name="Path 1083" transform="translate(-511.689 -316.596)"/>
        </g>
    </g>
</svg>
