<svg version="1.1" id="Layer_1" xmlns="http://www.w3.org/2000/svg" x="0" y="0" viewBox="0 0 687.3 201.8" xml:space="preserve"><style>.st2{fill:#1f1646}</style><switch><g><path d="M193.2 164.9l-3.9 11c-.1.2-.2.3-.4.3h-3.7c-.3 0-.4-.1-.3-.4l11.8-33c.1-.2.1-.5.2-.7.1-.3.1-.8.2-1.5 0-.2.1-.3.3-.3h5.3c.2 0 .3.1.3.3l12.8 35.2c.1.3 0 .4-.2.4h-4.1c-.2 0-.3-.1-.4-.3l-4-11h-13.9zm12.6-4.2l-1.2-3.6c-.5-1.5-1.1-3.1-1.7-4.7-.6-1.6-1.1-3.2-1.6-4.7s-.9-2.8-1.1-3.7h-.1c-.2.9-.5 1.9-1 3.2-.4 1.3-.9 2.7-1.4 4.2-.5 1.5-1.1 3.1-1.6 4.7-.6 1.6-1.1 3.2-1.6 4.6h11.3zm14.6-4.8v-1.6c0-.6 0-1.1-.1-1.7 0-.5 0-1-.1-1.5 0-.5 0-.8-.1-1 0-.2.1-.3.3-.3h3.4c.2 0 .4.1.5.3.1.3.1.6.2 1.1s.1 1 .2 1.6c2.4-2.4 5.2-3.6 8.3-3.6 1 0 2 .1 3 .4 1 .3 2 .8 2.9 1.6.9.8 1.6 1.8 2.1 3.2.6 1.4.8 3.1.8 5.2v16.1c0 .3-.1.4-.4.4h-3.8c-.3 0-.4-.1-.4-.4v-15.6c0-2.1-.5-3.7-1.4-5-.9-1.3-2.3-1.9-4.2-1.9-1.4 0-2.6.3-3.8.9-1.1.6-2.1 1.4-3 2.4v19.2c0 .3-.1.4-.3.4h-3.9c-.2 0-.3-.1-.3-.4v-19.8zm46.6 9l-3.9 11c-.1.2-.2.3-.4.3H259c-.3 0-.4-.1-.3-.4l11.8-33c.1-.2.1-.5.2-.7.1-.3.1-.8.2-1.5 0-.2.1-.3.3-.3h5.3c.2 0 .3.1.3.3l12.8 35.2c.1.3 0 .4-.2.4h-4.1c-.2 0-.3-.1-.4-.3l-4-11H267zm12.5-4.2l-1.2-3.6c-.5-1.5-1.1-3.1-1.7-4.7-.6-1.6-1.1-3.2-1.6-4.7s-.9-2.8-1.1-3.7h-.1c-.2.9-.5 1.9-1 3.2-.4 1.3-.9 2.7-1.4 4.2-.5 1.5-1.1 3.1-1.6 4.7-.6 1.6-1.1 3.2-1.6 4.6h11.3zm26 16c-1.9 0-3.6-.3-5.3-.8-1.6-.6-3.1-1.4-4.3-2.6-1.2-1.1-2.2-2.6-2.9-4.2-.7-1.7-1-3.6-1-5.9 0-2 .4-3.8 1.1-5.5.7-1.7 1.7-3.2 3-4.4 1.3-1.3 2.9-2.2 4.7-2.9 1.8-.7 3.8-1.1 6-1.1.8 0 1.4 0 1.9.1s1 .1 1.5.2v-12c0-.2.1-.3.3-.3h3.9c.2 0 .3.1.3.3V173c0 .4 0 .9.1 1.4 0 .2-.1.3-.3.4-1.6.7-3.1 1.2-4.6 1.5-1.4.3-2.9.4-4.4.4zm4.8-23c-.4-.2-1-.3-1.6-.4-.6-.1-1.3-.1-2-.1-1.6 0-3 .2-4.2.7-1.2.5-2.3 1.2-3.1 2.1-.9.9-1.5 1.9-2 3.1-.5 1.2-.7 2.5-.7 3.9 0 1.8.3 3.3.8 4.5.5 1.2 1.2 2.2 2.1 3 .9.8 1.9 1.3 3 1.7 1.1.4 2.3.5 3.4.5.7 0 1.5 0 2.3-.1.8-.1 1.5-.3 2.1-.6v-18.3zm22.7-4.5c1.9 0 3.6.3 5.2 1 1.5.7 2.8 1.6 3.9 2.9 1.1 1.2 1.9 2.7 2.5 4.3.6 1.7.9 3.5.9 5.4 0 2.1-.3 3.9-.9 5.6-.6 1.7-1.5 3.2-2.6 4.3-1.1 1.2-2.4 2.1-3.9 2.8-1.5.7-3.2 1-5 1-2.2 0-4-.4-5.6-1.2-1.6-.8-2.9-1.8-3.9-3.1s-1.8-2.8-2.3-4.4c-.5-1.6-.7-3.3-.7-5 0-1.9.3-3.7.9-5.4.6-1.7 1.4-3.1 2.5-4.4 1.1-1.3 2.4-2.2 3.9-2.9 1.5-.5 3.2-.9 5.1-.9zm-.2 4c-1.2 0-2.2.2-3.1.7-.9.5-1.7 1.1-2.4 2-.7.9-1.2 1.9-1.6 3.1s-.6 2.5-.6 4c0 1.4.2 2.7.5 3.9.4 1.2.9 2.3 1.5 3.2.7.9 1.5 1.6 2.5 2.1s2.1.8 3.4.8c1 0 1.9-.2 2.8-.6.9-.4 1.7-1 2.4-1.8s1.3-1.8 1.7-3c.4-1.2.7-2.7.7-4.4 0-1.3-.2-2.5-.5-3.7-.3-1.2-.8-2.2-1.4-3.2-.6-.9-1.5-1.7-2.5-2.2-.8-.7-2-.9-3.4-.9zm22.4-16h.3c.1 0 .1.1.1.3v12.8c1.8-.7 3.7-1.1 5.9-1.1 1.9 0 3.6.3 5.1 1 1.5.6 2.8 1.5 3.9 2.7 1.1 1.1 1.9 2.5 2.5 4 .6 1.5.9 3.2.9 5.1 0 2.5-.4 4.6-1.3 6.4-.9 1.8-2 3.4-3.4 4.6-1.4 1.3-3 2.2-4.8 2.8-1.8.6-3.7.9-5.6.9-1.4 0-2.7-.1-3.9-.2-1.2-.2-2.4-.4-3.6-.8-.2 0-.3-.2-.3-.5v-37.6c0-.2.1-.3.4-.3h3.8zm14 25.1c0-2.8-.8-5-2.3-6.7-1.5-1.6-3.6-2.5-6.2-2.5-1.2 0-2.1.1-2.9.2-.8.2-1.5.4-2.2.7v18.2c.5.2 1 .3 1.6.4.6.1 1.2.1 2 .1 1.3 0 2.6-.2 3.8-.7 1.2-.4 2.3-1.1 3.2-2 .9-.9 1.7-2 2.2-3.3s.8-2.6.8-4.4zm13.5 1.2c0 1.3.2 2.5.5 3.6.4 1.1.9 2.1 1.7 2.9.8.8 1.7 1.5 2.9 2 1.1.5 2.5.7 4 .7 1.2 0 2.4-.1 3.5-.4 1.1-.2 2.2-.6 3.3-1.1.2-.1.3 0 .3.2v3.1c0 .3-.1.4-.3.5-.9.5-2 .9-3.2 1.1-1.2.3-2.7.4-4.4.4-2.4 0-4.3-.4-6-1.2-1.6-.8-2.9-1.8-3.9-3.1s-1.7-2.7-2.2-4.3c-.5-1.6-.7-3.2-.7-4.9 0-1.9.3-3.7.8-5.4.5-1.7 1.3-3.2 2.4-4.5 1-1.3 2.3-2.3 3.8-3 1.5-.7 3.2-1.1 5-1.1 2 0 3.6.4 4.9 1.1 1.3.7 2.4 1.6 3.3 2.7.8 1.1 1.4 2.2 1.8 3.5.4 1.3.6 2.5.6 3.7 0 .7 0 1.3-.1 1.7 0 .5-.1.8-.2 1.1 0 .2-.1.3-.4.3-.4.1-1.1.1-2.2.2-1.1 0-2.2.1-3.4.1h-11.8zm10.1-3.3h2.7c.5 0 .7 0 .8-.1 0-.1.1-.2.1-.3v-.3c0-.5-.1-1.1-.3-1.8-.2-.7-.5-1.5-1-2.1-.5-.7-1.1-1.3-2-1.8-.8-.5-1.9-.7-3.1-.7-1.1 0-2.1.2-3 .6-.9.4-1.6.9-2.2 1.6-.6.7-1.1 1.4-1.4 2.3-.3.9-.6 1.8-.7 2.7h10.1zm50.2 14.9c0 .3-.1.5-.3.5-.9.4-2 .7-3.2.8-1.2.1-2.6.2-4.1.2-2.3 0-4.5-.3-6.7-1s-4.1-1.8-5.9-3.3c-1.7-1.5-3.1-3.4-4.2-5.8s-1.6-5.2-1.6-8.5c0-2.7.5-5.2 1.4-7.5.9-2.3 2.2-4.2 3.8-5.8 1.6-1.6 3.6-2.9 6-3.8 2.4-.9 5-1.4 7.9-1.4 1.8 0 3.3.1 4.4.3 1.1.2 1.9.4 2.6.7.2.1.3.2.3.4v3.6c0 .3-.1.3-.4.3-1.6-.8-3.9-1.2-7-1.2-2.1 0-4.1.3-5.8 1-1.8.7-3.3 1.6-4.5 2.9-1.3 1.2-2.2 2.7-2.9 4.5-.7 1.8-1 3.7-1 5.9 0 2.8.5 5.2 1.4 7.1.9 1.9 2.1 3.4 3.6 4.5 1.4 1.1 3 1.9 4.6 2.3 1.7.5 3.2.7 4.6.7 1.4 0 2.6-.1 3.7-.2s2.1-.4 3.1-.8c.2 0 .3 0 .3.2v3.4zm16-25.9c1.9 0 3.6.3 5.2 1 1.5.7 2.8 1.6 3.9 2.9 1.1 1.2 1.9 2.7 2.5 4.3.6 1.7.9 3.5.9 5.4 0 2.1-.3 3.9-.9 5.6-.6 1.7-1.5 3.2-2.6 4.3-1.1 1.2-2.4 2.1-3.9 2.8-1.5.7-3.2 1-5 1-2.2 0-4-.4-5.6-1.2-1.6-.8-2.9-1.8-3.9-3.1s-1.8-2.8-2.3-4.4c-.5-1.6-.7-3.3-.7-5 0-1.9.3-3.7.9-5.4.6-1.7 1.4-3.1 2.5-4.4 1.1-1.3 2.4-2.2 3.9-2.9 1.5-.5 3.2-.9 5.1-.9zm-.2 4c-1.2 0-2.2.2-3.1.7-.9.5-1.7 1.1-2.4 2-.7.9-1.2 1.9-1.6 3.1-.4 1.2-.6 2.5-.6 4 0 1.4.2 2.7.5 3.9.4 1.2.9 2.3 1.5 3.2.7.9 1.5 1.6 2.5 2.1s2.1.8 3.4.8c1 0 1.9-.2 2.8-.6.9-.4 1.7-1 2.4-1.8s1.3-1.8 1.7-3c.4-1.2.7-2.7.7-4.4 0-1.3-.2-2.5-.5-3.7-.3-1.2-.8-2.2-1.4-3.2-.6-.9-1.5-1.7-2.5-2.2-.8-.7-2-.9-3.4-.9zm18.6 23c-.2 0-.3-.1-.3-.4v-20.3c0-1.2 0-2.3-.1-3.2 0-.9-.1-1.7-.2-2.2 0-.2.1-.3.3-.3h3.4c.2 0 .3.1.4.3.1.3.1.7.2 1.2s.1 1 .1 1.4c2.4-2.3 5.1-3.4 8.1-3.4 3.3 0 5.7 1.3 7.2 4 1.2-1.1 2.5-2.1 3.9-2.8 1.4-.8 3.2-1.1 5.2-1.1 1 0 2 .2 3.1.5 1 .3 2 .9 2.8 1.6.8.8 1.5 1.8 2.1 3.2.5 1.3.8 3 .8 5.1V176c0 .2-.1.3-.4.3h-3.7c-.3 0-.4-.1-.4-.4V160c0-1.8-.4-3.4-1.3-4.7-.9-1.3-2.3-2-4.2-2-1.4 0-2.6.3-3.7.8-1.1.6-2.1 1.3-3 2.3.1.3.1.8.2 1.5s.1 1.3.1 2v15.9c0 .3-.1.4-.4.4h-3.8c-.3 0-.4-.1-.4-.4v-16c0-2.1-.5-3.7-1.4-4.8s-2.3-1.7-4-1.7c-1.3 0-2.4.2-3.4.7-1 .5-2.1 1.3-3.1 2.3v19.6c0 .2-.1.3-.3.3h-3.8zm54.9-27c2 0 3.8.3 5.3 1 1.6.7 2.9 1.5 4 2.7 1.1 1.1 1.9 2.5 2.5 4.1.6 1.6.9 3.3.9 5.1 0 2.5-.4 4.6-1.3 6.5-.9 1.8-2.1 3.4-3.5 4.6-1.5 1.2-3.1 2.1-5 2.7-1.9.6-3.8.9-5.7.9-.6 0-1.1 0-1.5-.1-.4 0-.8-.1-1.2-.2v10.9c0 .2-.1.3-.3.4-.3 0-.7.1-1.1.1-.4 0-.8.1-1.2.1-.4.1-.8.1-1.1.1-.3 0-.5.1-.5.1-.2 0-.3-.1-.3-.3v-35c0-.5 0-.9-.1-1.3 0-.1 0-.2.1-.2.9-.4 2.3-.8 4-1.4 1.7-.5 3.7-.8 6-.8zm-.5 4c-.9 0-1.8.1-2.7.2-.8.1-1.6.4-2.4.7v18.4l1.5.3c.5.1 1.1.1 1.6.1 1.3 0 2.6-.2 3.9-.6 1.3-.4 2.4-1 3.4-1.9 1-.9 1.8-1.9 2.4-3.3.6-1.3.9-2.9.9-4.7 0-2.8-.8-5-2.3-6.7-1.4-1.7-3.6-2.5-6.3-2.5zm37.6 18.4v1.3c0 .4 0 .8.1 1.3 0 .1 0 .2-.1.2-2 .9-3.7 1.6-5.3 1.9-1.6.3-3.2.5-4.8.5-1.4 0-2.8-.2-4-.5s-2.3-.9-3.2-1.6c-.9-.7-1.6-1.6-2.1-2.7s-.8-2.3-.8-3.7c0-1.4.3-2.7 1-3.7.6-1 1.5-1.9 2.6-2.6 1.1-.7 2.4-1.2 3.8-1.5 1.5-.3 3-.5 4.8-.5h2.4c.6 0 1 0 1.3.1v-1.3c0-.4-.1-1-.2-1.6-.1-.6-.4-1.2-.9-1.8-.4-.6-1.1-1-1.8-1.5-.8-.4-1.9-.6-3.2-.6-1.3 0-2.5.1-3.7.4-1.2.3-2.2.7-3.2 1.2-.3.1-.4 0-.4-.3v-3.3c0-.2.1-.3.3-.4 1-.5 2.2-.9 3.6-1.2s2.7-.4 4.2-.4c1.7 0 3.2.3 4.5.8s2.3 1.3 3 2.2c.8.9 1.4 2 1.7 3.2s.6 2.6.6 4v12.1zm-4.4-8c-.4-.1-.9-.1-1.5-.2-.6 0-1.3-.1-2.1-.1-2.6 0-4.6.4-5.9 1.3-1.3.9-1.9 2-1.9 3.6 0 .6.1 1.2.3 1.8.2.6.6 1.1 1.1 1.5.5.5 1.2.8 2 1.1.8.3 1.8.4 3 .4 1.8 0 3.5-.3 4.9-.9v-8.5zm12-7.7v-1.6c0-.6 0-1.1-.1-1.7 0-.5 0-1-.1-1.5 0-.5 0-.8-.1-1 0-.2.1-.3.3-.3h3.4c.2 0 .4.1.5.3.1.3.1.6.2 1.1s.1 1 .2 1.6c2.4-2.4 5.2-3.6 8.3-3.6 1 0 2 .1 3 .4 1 .3 2 .8 2.9 1.6.9.8 1.6 1.8 2.1 3.2.6 1.4.8 3.1.8 5.2v16.1c0 .3-.1.4-.4.4h-3.8c-.3 0-.4-.1-.4-.4v-15.6c0-2.1-.5-3.7-1.4-5-.9-1.3-2.3-1.9-4.2-1.9-1.4 0-2.6.3-3.8.9-1.1.6-2.1 1.4-3 2.4v19.2c0 .3-.1.4-.3.4h-3.9c-.2 0-.3-.1-.3-.4v-19.8zm29.6-6.1c.2 0 .3.1.4.3 1.1 3 2.1 5.6 3 7.9.9 2.3 1.6 4.3 2.2 5.9.6 1.7 1.1 3 1.5 4.2.4 1.1.7 2 .8 2.6.9-2.5 1.9-5.4 3.1-8.7 1.2-3.3 2.6-7.3 4.3-11.9.1-.2.3-.3.4-.3h3.9c.3 0 .3.1.2.4-1 2.9-2.1 6-3.3 9.2-1.2 3.2-2.4 6.4-3.7 9.6-1.3 3.2-2.6 6.4-3.9 9.5-1.3 3.1-2.6 6.2-3.9 9.1-.1.2-.3.3-.6.4l-4.1.3c-.2 0-.3-.1-.2-.4.8-1.7 1.7-3.5 2.6-5.6.9-2.1 1.9-4.2 2.8-6.4.1-.2.1-.4 0-.7-.2-.5-.5-1.3-1-2.4-.4-1-.9-2.3-1.5-3.6-.6-1.4-1.2-2.9-1.8-4.5-.7-1.6-1.3-3.2-2-4.9-.7-1.7-1.3-3.3-2-4.9-.6-1.6-1.2-3.2-1.8-4.6-.1-.2 0-.3.3-.3h4.3z" fill="#4e4e4e"/><path d="M111.8 14v134.6l34.4-27.4V32.7zm-16 105.2l-27.7 12.1V25.7l27.7 8.2zm-64.9-3.1l21.2-5.6V43.1L31 39.7z" fill="#5c4c9f"/><path class="st2" d="M259.5 32.7l-29.3 48.1-29.7-48.1h-15.6v88.5h14.7V56.6l30.2 48.5 30.4-48.9v65h14.6V32.7zm64.8 88.5l-.1-8c-4.4 6.4-11.6 9.5-19.3 9.5-11.2 0-19.1-7.3-19.1-17.8 0-11.5 7.3-18.3 21.9-20.6l16-2.5v-1c0-6.6-4.9-10.2-13.4-10.2-8.1 0-15 3.4-21 8.8V65.1c5.4-4.4 12.9-7.3 22-7.3 17.3 0 26.7 8.8 26.7 23.6v39.8h-13.7zm-15.9-10.4c9.1 0 15.4-5.9 15.4-14.4V93L310 95.3c-6.7 1.1-10.1 4-10.1 8.5.1 4.3 3.6 7 8.5 7m78.2-37.5c-.6-.4-1.9-.5-3.8-.5-10.7 0-17.3 8.3-17.3 21.1v27.3H351v-62h14.4v10.6c3-7.2 10.4-11.9 18.4-11.9 1.6 0 2.5.1 2.8.4v15zm9.4-40.6v88.5h14.5V96.6l3.2-2.9 22.1 27.5h17.9l-28.9-35 26.9-27h-17.9l-23.3 23.4V32.7z"/><path class="st2" d="M508.8 116.1c-6.4 4-14.7 6.6-23.9 6.6-20.5 0-33.4-13.9-33.4-32.6 0-18.6 12.9-32.3 31.1-32.3 18.1 0 29.7 13.6 29.7 32 0 2 0 3.2-.4 5.1H466c1.1 8.6 8.2 15.4 19.8 15.4 7.8 0 15.4-2.8 22.9-8.3v14.1zM498 83.9c-.9-8.5-6.9-14.3-15.7-14.3-8.8 0-15.3 6.9-16.3 14.3h32zm51.2 25.4c2.4 0 4.9-.5 6.8-1.9v13c-2.4 1.4-6.1 2.3-11.1 2.3-12.5 0-19.8-7.6-19.8-20.6V71.6h-11l25.5-32.5v20.1H556v12.4h-16.4v27.8c0 7 3 9.9 9.6 9.9m77.2-19.1c0 18.2-14 32.5-33 32.5s-33-14.3-33-32.5 14-32.5 33-32.5c18.9 0 33 14.3 33 32.5m-51.5 0c0 10.6 8.1 19.1 18.4 19.1 10.4 0 18.4-8.5 18.4-19.1s-8.1-19.1-18.4-19.1c-10.3 0-18.4 8.5-18.4 19.1"/><path d="M626.8 46.9H638v2.4h-4.3v13H631v-13h-4.3v-2.4zm17.1 4.1v11.2h-2.6V46.9h2.7l5.2 7.9 5.1-7.9h2.7v15.4h-2.6V51l-4.6 7h-1.3l-4.6-7z" fill="#010101" id="Layer_2_1_"/></g></switch></svg>