<?xml version="1.0" standalone="no"?><!-- Generator: Gravit.io --><svg xmlns="http://www.w3.org/2000/svg" xmlns:xlink="http://www.w3.org/1999/xlink" style="isolation:isolate" viewBox="0 0 427 205" width="427" height="205"><defs><clipPath id="_clipPath_SYMdQ57fQqVNJuNfzUK9hdw0ttJ7Wdoo"><rect width="427" height="205"/></clipPath></defs><g clip-path="url(#_clipPath_SYMdQ57fQqVNJuNfzUK9hdw0ttJ7Wdoo)"><path d=" M 192.1 173.2 L 183.7 173.2 C 183.2 173.2 182.8 173.5 182.7 174 L 177.2 197.6 C 177.1 197.8 177.2 198 177.3 198.2 C 177.4 198.4 177.6 198.5 177.9 198.5 L 186.7 198.5 C 191.5 198.5 195.7 195.6 196.6 191.5 C 197.4 188 194.8 186.3 193.4 185.7 C 194.7 185.1 197.7 183.2 198.4 180.1 C 198.8 178.4 198.5 176.8 197.5 175.6 C 196.5 174 194.5 173.2 192.1 173.2 Z  M 186.1 176.8 L 191.1 176.8 C 192.2 176.8 193.1 177.1 193.6 177.8 C 194.1 178.4 194.2 179.3 194 180.3 C 193.5 182.5 191.6 184 189.4 184 L 184.5 184 L 186.1 176.8 L 186.1 176.8 L 186.1 176.8 Z  M 192.3 191.1 C 191.8 193.3 189.7 194.9 187.5 194.9 L 181.9 194.9 L 183.6 187.5 L 188.6 187.5 C 189.9 187.5 191.1 188 191.8 188.8 C 192.3 189.5 192.5 190.3 192.3 191.1 L 192.3 191.1 L 192.3 191.1 Z " fill="rgb(40,141,193)"/><path d=" M 220 173.2 L 209.8 173.2 C 209.3 173.2 208.9 173.5 208.8 174 L 203.3 197.6 C 203.2 197.8 203.3 198 203.4 198.2 C 203.5 198.4 203.7 198.5 204 198.5 L 206.4 198.5 C 206.8 198.5 207.3 198.1 207.4 197.7 L 209.5 188.7 L 215 188.7 L 217.8 198.1 C 217.9 198.3 218.1 198.5 218.4 198.5 L 221.3 198.5 C 221.7 198.5 222 198.3 222.2 198.1 C 222.4 197.9 222.4 197.6 222.3 197.3 L 219.3 188.4 C 223 187.1 225.8 184.3 226.5 181.1 C 227 179.1 226.6 177.2 225.4 175.7 C 224.3 174.1 222.3 173.2 220 173.2 L 220 173.2 L 220 173.2 Z  M 222.4 181 C 221.9 183.3 219.3 185.3 216.9 185.3 L 210.4 185.3 L 212.3 176.9 L 218.9 176.9 C 220.1 176.9 221.1 177.4 221.8 178.2 C 222.5 179 222.7 180 222.4 181 L 222.4 181 L 222.4 181 Z " fill="rgb(40,141,193)"/><path d=" M 246.9 173.3 C 246.8 173 246.5 172.8 246.2 172.8 L 245.8 172.8 C 245.6 172.8 245.2 173 245 173.2 L 227.9 197.2 C 227.7 197.5 227.7 197.8 227.8 198 C 227.9 198.2 228.1 198.3 228.5 198.3 L 230.9 198.3 C 231.4 198.3 231.8 198 232 197.7 C 232.6 196.9 233.2 196 233.8 195.2 C 234.3 194.4 234.9 193.7 235.4 192.9 L 247.5 192.9 L 248.7 197.7 C 248.8 198.1 249.1 198.3 249.6 198.3 L 252 198.3 C 252.3 198.3 252.6 198.2 252.8 197.9 C 253 197.7 253 197.4 253 197.2 L 246.9 173.3 L 246.9 173.3 L 246.9 173.3 Z  M 246.7 189.7 L 237.7 189.7 L 244.4 180.2 L 246.7 189.7 L 246.7 189.7 L 246.7 189.7 Z " fill="rgb(40,141,193)"/><path d=" M 285.1 173.2 L 282.7 173.2 C 282.3 173.2 281.8 173.5 281.7 174 L 277.9 190.6 L 265.9 172.9 L 265.9 172.8 L 264.9 172.8 C 264.5 172.8 264 173.1 263.9 173.5 L 258.4 197.5 C 258.4 197.7 258.4 197.9 258.5 198.1 C 258.6 198.3 258.8 198.4 259.1 198.4 L 261.5 198.4 C 262 198.4 262.4 198.1 262.5 197.6 L 266.5 180.5 L 278.5 198.8 L 279.5 198.8 C 280 198.8 280.4 198.5 280.5 198.1 L 286 174.1 C 286 173.9 286 173.7 285.9 173.5 C 285.5 173.3 285.3 173.2 285.1 173.2 L 285.1 173.2 L 285.1 173.2 Z " fill="rgb(40,141,193)"/><path d=" M 305 173.2 L 296.4 173.2 C 296 173.2 295.5 173.6 295.4 174 L 289.9 197.6 C 289.8 197.8 289.9 198 290 198.2 C 290.1 198.4 290.3 198.4 290.5 198.4 L 299.1 198.4 C 306.4 198.4 313.7 192.7 315.3 185.8 C 316.1 182.5 315.4 179.4 313.5 177 C 311.7 174.6 308.6 173.2 305 173.2 L 305 173.2 L 305 173.2 Z  M 311 185.8 C 309.8 191 304.9 194.8 299.5 194.8 L 294.7 194.8 L 298.8 176.9 L 303.7 176.9 C 306.4 176.9 308.6 177.8 309.9 179.5 C 311.2 181.1 311.6 183.3 311 185.8 Z " fill="rgb(40,141,193)"/><path d=" M 340.6 175.5 C 340.6 175.3 340.5 175.1 340.3 175 C 339.7 174.5 337.3 172.9 333.8 172.9 C 327.7 172.9 324.5 176.9 323.9 179.6 C 322.9 183.9 325.8 185.9 329.1 187.3 C 332.7 188.9 334 190.2 333.6 192.1 C 333.2 194 331.1 195.3 328.7 195.3 C 326 195.3 323.8 193.3 323.3 192.9 C 322.9 192.5 322.3 192.7 321.8 193.2 L 321.1 193.9 C 321.1 193.9 320.7 194.4 320.5 194.6 C 319.9 195.3 320.2 195.6 320.5 195.9 C 320.9 196.4 323.3 198.8 328 198.8 C 332.8 198.8 337.2 195.9 338.1 192 C 339.2 187.4 335.4 185.4 331.8 183.9 C 328.8 182.6 327.7 181.4 328.1 179.5 C 328.3 178.4 329.7 176.4 333 176.4 C 333.9 176.4 335.4 176.7 337.5 178.1 L 337.6 178.2 C 338.1 178.5 338.7 178.4 339.2 177.8 C 339.4 177.6 339.6 177.4 339.7 177.2 C 339.9 176.9 340.2 176.7 340.4 176.4 C 340.6 176 340.6 175.7 340.6 175.5 L 340.6 175.5 L 340.6 175.5 Z " fill="rgb(40,141,193)"/><path d=" M 317.3 58 L 258.5 19.6 L 199.8 58.1 C 197.8 59.4 195.2 58.8 193.9 56.9 L 192.4 54.6 C 191.1 52.6 191.7 50 193.6 48.7 L 255.4 8.2 C 257.3 7 259.7 7 261.6 8.2 L 323.5 48.6 C 325.5 49.9 326 52.5 324.7 54.5 L 323.2 56.8 C 321.9 58.8 319.3 59.3 317.3 58 Z " fill="rgb(40,141,193)"/><path d=" M 376.9 24.9 L 374.4 24.9 C 371.6 24.9 369.3 27.2 369.3 30 L 369.3 145 C 369.3 147.8 371.6 150.1 374.4 150.1 L 376.9 150.1 C 379.7 150.1 382 147.8 382 145 L 382 30.1 C 382 27.2 379.7 24.9 376.9 24.9 Z " fill="rgb(105,96,87)"/><path d=" M 415.6 7.7 L 413.1 7.7 C 410.3 7.7 408 10 408 12.8 L 408 145 C 408 147.8 410.3 150.1 413.1 150.1 L 415.6 150.1 C 418.4 150.1 420.7 147.8 420.7 145 L 420.7 12.9 C 420.7 10 418.4 7.7 415.6 7.7 Z " fill="rgb(105,96,87)"/><path d=" M 123.1 73.2 C 112.6 73.2 103.5 77.2 96.9 84.6 C 90.7 91.6 87.3 101.2 87.3 111.5 L 87.3 112.8 C 87.4 123.1 90.9 132.5 97.1 139.3 C 103.6 146.5 112.6 150.4 123.1 150.4 C 134.3 150.4 142.9 146.3 148.4 143.3 C 149.6 142.6 150.5 141.5 150.8 140.1 C 151.1 138.7 150.8 137.3 150 136.1 L 148.9 134.6 C 147.5 132.6 144.8 132 142.7 133.1 C 142.2 133.4 141.7 133.6 141.2 133.9 C 137.2 136 132.3 138.7 124.5 138.7 C 109 138.7 100.4 126.2 100.4 117.5 L 100.3 116.8 C 100.3 116.2 100.5 115.7 100.9 115.3 C 101.3 114.9 101.7 114.8 102.2 114.8 L 152.4 114.8 C 154.2 114.8 155.6 113.4 155.8 111.6 C 156 110.3 156.2 107.9 156.2 106.7 C 156.2 97.4 152.9 88.9 146.9 82.8 C 140.8 76.6 132.3 73.2 123.1 73.2 L 123.1 73.2 L 123.1 73.2 Z  M 142.8 103.8 C 142.5 104.1 142.1 104.3 141.6 104.3 L 102.1 104.3 C 101.6 104.3 101.2 104.1 100.9 103.7 C 100.6 103.3 100.5 102.9 100.6 102.4 C 102.7 91.9 112 84.5 123.1 84.5 C 128 84.5 132.8 86.4 136.5 89.9 C 140.1 93.2 142.5 97.7 143.2 102.5 C 143.2 103 143.1 103.4 142.8 103.8 L 142.8 103.8 L 142.8 103.8 Z " fill="rgb(105,96,87)"/><path d=" M 316.4 73.2 C 305.9 73.2 296.8 77.2 290.2 84.6 C 284 91.6 280.6 101.2 280.6 111.5 L 280.6 112.8 C 280.7 123.1 284.2 132.5 290.4 139.3 C 296.9 146.5 305.9 150.4 316.4 150.4 C 327.6 150.4 336.2 146.3 341.7 143.3 C 342.9 142.6 343.8 141.5 344.1 140.1 C 344.4 138.7 344.1 137.3 343.3 136.1 L 342.2 134.6 C 340.8 132.6 338.1 132 336 133.1 C 335.5 133.4 335 133.6 334.5 133.9 C 330.5 136 325.6 138.7 317.8 138.7 C 302.3 138.7 293.7 126.2 293.7 117.5 L 293.6 116.8 C 293.6 116.2 293.8 115.7 294.2 115.3 C 294.6 114.9 295 114.7 295.5 114.7 L 345.7 114.7 C 347.5 114.7 348.9 113.3 349.1 111.5 C 349.3 110.2 349.5 107.8 349.5 106.6 C 349.5 97.3 346.2 88.8 340.2 82.7 C 334 76.6 325.6 73.2 316.4 73.2 L 316.4 73.2 L 316.4 73.2 Z  M 293.9 102.5 C 296.1 92 305.3 84.6 316.4 84.6 C 321.3 84.6 326.1 86.5 329.8 90 C 333.4 93.3 335.8 97.8 336.5 102.6 C 336.6 103 336.4 103.5 336.1 103.8 C 335.8 104.1 335.4 104.3 334.9 104.3 L 295.4 104.3 C 294.9 104.3 294.5 104.1 294.2 103.7 C 293.9 103.4 293.8 102.9 293.9 102.5 Z " fill="rgb(105,96,87)"/><path d=" M 265.5 73.3 L 262.6 73.3 C 260.5 73.3 258.7 74.7 258.1 76.7 L 244.6 125.5 L 224.5 76.7 C 223.8 75 222.1 73.8 220.2 73.8 L 217.3 73.8 C 215.4 73.8 213.7 74.9 213 76.7 L 192.9 125.5 L 179.4 76.8 C 178.8 74.8 177 73.4 174.9 73.4 L 172 73.4 C 170.5 73.4 169.2 74.1 168.3 75.2 C 167.4 76.4 167.1 77.8 167.5 79.2 L 186.2 146.8 C 186.8 148.8 188.6 150.2 190.7 150.2 L 192.4 150.2 C 194.3 150.2 196 149.1 196.7 147.3 L 218.7 93.8 L 240.7 147.2 C 241.4 148.9 243.1 150.1 245 150.1 L 246.7 150.1 C 248.8 150.1 250.6 148.7 251.2 146.7 L 269.9 79.1 C 270.3 77.7 270 76.2 269.1 75.1 C 268.3 74 266.9 73.3 265.5 73.3 L 265.5 73.3 L 265.5 73.3 Z " fill="rgb(105,96,87)"/><path d=" M 35.7 73.3 C 25.6 73.3 17.3 75.8 10.5 78.3 C 7.4 79.3 5.2 82.2 5.2 85.3 L 5.2 145.2 C 5.2 148 7.5 150.2 10.2 150.2 L 12.8 150.2 C 15.6 150.2 17.8 147.9 17.8 145.2 L 17.8 90.6 C 17.8 89.5 18.5 88.5 19.5 88.1 C 22.3 86.9 28.2 85 35.5 85 C 41.8 85 47.6 86.9 51.8 90.4 C 56 93.9 58.3 98.8 58.3 104.2 L 58.3 145.1 C 58.3 147.9 60.6 150.1 63.3 150.1 L 65.9 150.1 C 68.7 150.1 70.9 147.8 70.9 145.1 L 70.9 104.2 C 71.1 86.1 56.6 73.3 35.7 73.3 L 35.7 73.3 L 35.7 73.3 Z " fill="rgb(105,96,87)"/></g></svg>