<svg xmlns="http://www.w3.org/2000/svg" viewBox="0 0 999.6 388.79"><defs><style>.cls-1{fill:#fff;}</style></defs><title>Asset 4</title><g id="Layer_2"><g id="Layer_1-2"><path d="M193.86 0c108 0 194.4 86.94 194.4 194.94s-86.4 193.85-194.4 193.85S0 302.93 0 194.93 85.86 0 193.86 0zm0 334.8c77.22 0 140.4-62.64 140.4-139.86 0-76.68-63.18-140.94-140.4-140.94C117.18 54 54 118.26 54 194.94c0 77.22 63.18 139.85 139.86 139.85zM393.66 363.42l178.2-304v-2.18H419.58A10.62 10.62 0 0 1 409.32 47V15.66A10.62 10.62 0 0 1 419.58 5.4h221.94a10.62 10.62 0 0 1 10.26 10.26v7L473 331.56v.54h157.72A10.25 10.25 0 0 1 641 342.36v30.77a10.25 10.25 0 0 1-10.26 10.26H403.92a10.6 10.6 0 0 1-10.26-10.27zM813.77 201.42L687.4 21.06c-4.3-7 0-15.66 8.65-15.66h40c4.32 0 7 2.7 8.64 4.86L842.4 148 940.1 10.3c1.63-2.2 4.88-4.9 8.65-4.9h40.5c8.63 0 13 8.64 8.63 15.66l-128 179.82v172.25a10.6 10.6 0 0 1-10.26 10.26H824a10.25 10.25 0 0 1-10.26-10.27z" class="cls-1"/></g></g></svg>