<svg xmlns="http://www.w3.org/2000/svg" xmlns:xlink="http://www.w3.org/1999/xlink" viewBox="0 0 981.39 667.45"><defs><style>.cls-1,.cls-11,.cls-12,.cls-61{fill:none;}.cls-2{isolation:isolate;}.cls-3{opacity:0.32;}.cls-4{fill:url(#linear-gradient);}.cls-5{fill:url(#linear-gradient-2);}.cls-6{fill:url(#linear-gradient-3);}.cls-7{fill:url(#linear-gradient-4);}.cls-8{fill:url(#linear-gradient-5);}.cls-31,.cls-86,.cls-9{fill:#fff;}.cls-10{fill:#e5e5e5;}.cls-11,.cls-12{stroke:#fff;}.cls-11,.cls-12,.cls-61{stroke-linecap:round;stroke-linejoin:round;}.cls-12{stroke-dasharray:2.99 2.99;}.cls-13{fill:url(#linear-gradient-6);}.cls-14{fill:url(#linear-gradient-7);}.cls-15{fill:url(#Degradado_sin_nombre_34);}.cls-16{fill:url(#linear-gradient-8);}.cls-17{fill:url(#linear-gradient-9);}.cls-18,.cls-92{opacity:0.1;}.cls-19{fill:url(#linear-gradient-10);}.cls-20{fill:url(#linear-gradient-11);}.cls-21{fill:url(#linear-gradient-12);}.cls-22{fill:url(#linear-gradient-13);}.cls-23{mix-blend-mode:screen;fill:url(#Degradado_sin_nombre_39);}.cls-24{fill:url(#Degradado_sin_nombre_2);}.cls-25{fill:#ff8e88;}.cls-26{fill:#784545;}.cls-27,.cls-31,.cls-55,.cls-72{opacity:0.3;}.cls-27,.cls-28,.cls-32{mix-blend-mode:overlay;}.cls-28{fill:url(#Degradado_sin_nombre_38);}.cls-29{fill:#90a9d6;}.cls-30{fill:#7b97c9;}.cls-32{opacity:0.53;fill:url(#linear-gradient-14);}.cls-33{opacity:0.64;}.cls-34{fill:url(#linear-gradient-15);}.cls-35{fill:url(#linear-gradient-16);}.cls-36,.cls-56{fill:#fafbfd;}.cls-37{fill:#90939b;fill-rule:evenodd;}.cls-38{fill:#9297a2;}.cls-39{fill:#dcdde0;}.cls-40{fill:#e05e6b;}.cls-41{fill:#658ff7;}.cls-42{fill:#c1ceeb;}.cls-43{fill:#606770;}.cls-44,.cls-71,.cls-72{fill:#b1bacc;}.cls-45{fill:#d2ddf2;}.cls-46{fill:url(#linear-gradient-17);}.cls-47{fill:url(#linear-gradient-18);}.cls-48{fill:url(#linear-gradient-19);}.cls-49{fill:#f74e63;}.cls-50{fill:#ffd960;}.cls-51{fill:#5c4e1d;}.cls-52{fill:#1a6198;}.cls-53{fill:#4779e1;}.cls-54,.cls-81{opacity:0.2;}.cls-56{opacity:0.47;}.cls-57{fill:#6dcaf2;}.cls-58{fill:#50acd3;}.cls-59{fill:#caefff;}.cls-60{opacity:0.4;}.cls-61{stroke:#8bd1ef;stroke-width:2px;}.cls-62{fill:url(#linear-gradient-20);}.cls-63{fill:url(#linear-gradient-21);}.cls-64{fill:url(#linear-gradient-22);}.cls-65{clip-path:url(#clip-path);}.cls-66{fill:url(#linear-gradient-23);}.cls-67{fill:url(#linear-gradient-24);}.cls-68{fill:url(#linear-gradient-25);}.cls-69{fill:url(#linear-gradient-26);}.cls-70,.cls-86{opacity:0.5;}.cls-71{opacity:0.43;}.cls-73{fill:url(#Degradado_sin_nombre_34-2);}.cls-74{fill:#f2f2f2;}.cls-75{fill:#f1655a;}.cls-76{fill:#d3413d;}.cls-77{fill:#d35353;}.cls-78{fill:#f47d7d;}.cls-79{fill:url(#linear-gradient-27);}.cls-80{fill:#ffc89f;}.cls-81{mix-blend-mode:multiply;fill:url(#linear-gradient-28);}.cls-82{fill:#383534;}.cls-83{fill:#f7a57c;}.cls-84{fill:#5b392c;opacity:0.8;}.cls-85{fill:#282626;}.cls-87{fill:#494543;}.cls-88{fill:#e28861;}.cls-89{fill:#545150;}.cls-90{fill:#ffe8e1;}.cls-91{fill:url(#linear-gradient-29);}.cls-92{fill:#000101;}.cls-93{fill:#4f4d4b;}</style><linearGradient id="linear-gradient" x1="-4500.51" y1="304.23" x2="-3925.41" y2="304.23" gradientTransform="matrix(-0.95, -0.17, -0.16, 1.06, -3580.45, -556.71)" gradientUnits="userSpaceOnUse"><stop offset="0" stop-color="#94d4f2"/><stop offset="0.24" stop-color="#94c2f2"/><stop offset="0.73" stop-color="#c0d6f0"/><stop offset="1" stop-color="#d2deef"/></linearGradient><linearGradient id="linear-gradient-2" x1="-4774.26" y1="358.69" x2="-4012.96" y2="358.69" xlink:href="#linear-gradient"/><linearGradient id="linear-gradient-3" x1="-4787.9" y1="216.29" x2="-3859.89" y2="216.29" xlink:href="#linear-gradient"/><linearGradient id="linear-gradient-4" x1="-4638.61" y1="355.76" x2="-3846.87" y2="355.76" xlink:href="#linear-gradient"/><linearGradient id="linear-gradient-5" x1="-4819.78" y1="275" x2="-4186.48" y2="275" xlink:href="#linear-gradient"/><linearGradient id="linear-gradient-6" x1="578.83" y1="222.63" x2="598.78" y2="620.59" gradientUnits="userSpaceOnUse"><stop offset="0" stop-color="#f75554"/><stop offset="0.1" stop-color="#f86b6a" stop-opacity="0.87"/><stop offset="0.35" stop-color="#fa9f9e" stop-opacity="0.56"/><stop offset="0.58" stop-color="#fcc8c8" stop-opacity="0.32"/><stop offset="0.76" stop-color="#fee6e6" stop-opacity="0.15"/><stop offset="0.91" stop-color="#fff8f8" stop-opacity="0.04"/><stop offset="1" stop-color="#fff" stop-opacity="0"/></linearGradient><linearGradient id="linear-gradient-7" x1="172.6" y1="79.49" x2="820.86" y2="499.12" gradientUnits="userSpaceOnUse"><stop offset="0" stop-color="#bf0000"/><stop offset="0.21" stop-color="#cf3232"/><stop offset="0.48" stop-color="#e16c6e"/><stop offset="0.71" stop-color="#ef9699"/><stop offset="0.89" stop-color="#f7b0b3"/><stop offset="1" stop-color="#fababd"/></linearGradient><linearGradient id="Degradado_sin_nombre_34" x1="405" y1="235.28" x2="726.8" y2="409.23" gradientUnits="userSpaceOnUse"><stop offset="0" stop-color="#c9d7fb"/><stop offset="0.14" stop-color="#c7d5fb"/><stop offset="1" stop-color="#bdcefa"/></linearGradient><linearGradient id="linear-gradient-8" x1="716.41" y1="399.97" x2="235.16" y2="146.3" gradientUnits="userSpaceOnUse"><stop offset="0" stop-color="#f75554"/><stop offset="0.16" stop-color="#f46868"/><stop offset="0.53" stop-color="#ed8f93"/><stop offset="0.83" stop-color="#e9a8ad"/><stop offset="1" stop-color="#e8b1b7"/></linearGradient><linearGradient id="linear-gradient-9" x1="604.47" y1="612.34" x2="123.22" y2="358.67" xlink:href="#linear-gradient-8"/><linearGradient id="linear-gradient-10" x1="189.44" y1="338" x2="100.76" y2="581.42" gradientUnits="userSpaceOnUse"><stop offset="0" stop-color="#f77470"/><stop offset="0.27" stop-color="#da8c99"/><stop offset="0.6" stop-color="#bca4c4"/><stop offset="0.85" stop-color="#aab3de"/><stop offset="1" stop-color="#a3b9e8"/></linearGradient><linearGradient id="linear-gradient-11" x1="143.64" y1="180.14" x2="143.82" y2="180.14" gradientTransform="translate(83.08 81.78) rotate(2.07)" xlink:href="#linear-gradient-8"/><linearGradient id="linear-gradient-12" x1="30.37" y1="305.59" x2="143.63" y2="305.59" gradientTransform="translate(83.08 81.78) rotate(2.07)" xlink:href="#linear-gradient-8"/><linearGradient id="linear-gradient-13" x1="50.83" y1="438.07" x2="50.85" y2="438.07" gradientTransform="translate(83.08 81.78) rotate(2.07)" xlink:href="#linear-gradient-8"/><linearGradient id="Degradado_sin_nombre_39" x1="116.97" y1="136.63" x2="16.72" y2="411.29" gradientTransform="translate(83.08 81.78) rotate(2.07)" gradientUnits="userSpaceOnUse"><stop offset="0" stop-color="#bedaff"/><stop offset="1" stop-color="#cae1ff" stop-opacity="0"/></linearGradient><linearGradient id="Degradado_sin_nombre_2" x1="222.97" y1="251.2" x2="55.48" y2="694.82" gradientUnits="userSpaceOnUse"><stop offset="0" stop-color="#fbc7c9"/><stop offset="0.19" stop-color="#fbc4c6"/><stop offset="1" stop-color="#fababd"/></linearGradient><linearGradient id="Degradado_sin_nombre_38" x1="97.71" y1="183.53" x2="97.71" y2="412.78" gradientTransform="translate(83.08 81.78) rotate(2.07)" gradientUnits="userSpaceOnUse"><stop offset="0" stop-color="#a9bdea"/><stop offset="1" stop-color="#b8c9ee" stop-opacity="0"/></linearGradient><linearGradient id="linear-gradient-14" x1="1061.9" y1="270.16" x2="864.26" y2="161.67" gradientTransform="translate(-725.5 52.53) rotate(2.07)" gradientUnits="userSpaceOnUse"><stop offset="0" stop-color="#fff" stop-opacity="0"/><stop offset="1" stop-color="#fff"/></linearGradient><linearGradient id="linear-gradient-15" x1="-1.26" y1="239.62" x2="132.67" y2="215.87" gradientTransform="translate(83.08 81.78) rotate(2.07)" gradientUnits="userSpaceOnUse"><stop offset="0" stop-color="#006da2"/><stop offset="1" stop-color="#4267b2"/></linearGradient><linearGradient id="linear-gradient-16" x1="279.94" y1="443.24" x2="31.09" y2="304.49" xlink:href="#linear-gradient-8"/><linearGradient id="linear-gradient-17" x1="264.47" y1="403.21" x2="-37.31" y2="409.09" xlink:href="#linear-gradient-8"/><linearGradient id="linear-gradient-18" x1="195.79" y1="405.8" x2="210.25" y2="393.58" gradientTransform="translate(-13.22 3.2)" xlink:href="#linear-gradient"/><linearGradient id="linear-gradient-19" x1="196.3" y1="405.09" x2="208.55" y2="394.74" gradientTransform="translate(-13.22 3.2)" gradientUnits="userSpaceOnUse"><stop offset="0" stop-color="#fcfcff"/><stop offset="1" stop-color="#edf3ff"/></linearGradient><linearGradient id="linear-gradient-20" x1="429.24" y1="209.53" x2="277.61" y2="107.99" gradientUnits="userSpaceOnUse"><stop offset="0" stop-color="#6a9fdb"/><stop offset="0.22" stop-color="#89b3e1"/><stop offset="0.57" stop-color="#b4cfe9"/><stop offset="0.84" stop-color="#cee0ee"/><stop offset="1" stop-color="#d8e6f0"/></linearGradient><linearGradient id="linear-gradient-21" x1="451.38" y1="232.58" x2="287.03" y2="87.8" gradientUnits="userSpaceOnUse"><stop offset="0" stop-color="#78b2fa"/><stop offset="0.14" stop-color="#89bbf8"/><stop offset="0.52" stop-color="#b4d2f4"/><stop offset="0.82" stop-color="#cee1f1"/><stop offset="1" stop-color="#d8e6f0"/></linearGradient><linearGradient id="linear-gradient-22" x1="436.12" y1="139.76" x2="561.05" y2="177.74" gradientTransform="matrix(1, 0, 0, 1, 0, 0)" xlink:href="#linear-gradient"/><clipPath id="clip-path"><path class="cls-1" d="M473,147.1a9.53,9.53,0,0,0-4.32,7.47l.12,42.11c0,2.74,2,3.85,4.35,2.47l66.55-24.05a9.49,9.49,0,0,0,4.31-7.47l-.12-42.11c0-2.74-2-3.84-4.34-2.47Z"/></clipPath><linearGradient id="linear-gradient-23" x1="502.25" y1="169.41" x2="549.1" y2="169.41" gradientUnits="userSpaceOnUse"><stop offset="0" stop-color="#52dd98"/><stop offset="1" stop-color="#54bb4f"/></linearGradient><linearGradient id="linear-gradient-24" x1="505.16" y1="145.07" x2="519.18" y2="145.07" gradientTransform="translate(380.26 -370.64) rotate(59.84)" gradientUnits="userSpaceOnUse"><stop offset="0" stop-color="#ffc80d"/><stop offset="1" stop-color="#ed9918"/></linearGradient><linearGradient id="linear-gradient-25" x1="462.57" y1="178.33" x2="527.13" y2="178.33" gradientUnits="userSpaceOnUse"><stop offset="0" stop-color="#52dd98"/><stop offset="1" stop-color="#2c6129"/></linearGradient><linearGradient id="linear-gradient-26" x1="675.78" y1="501.13" x2="524.89" y2="273.1" gradientUnits="userSpaceOnUse"><stop offset="0" stop-color="#c9d7fb"/><stop offset="0.26" stop-color="#dbe4fc"/><stop offset="0.72" stop-color="#f5f8fe"/><stop offset="1" stop-color="#fff"/></linearGradient><linearGradient id="Degradado_sin_nombre_34-2" x1="449.81" y1="212.32" x2="617.62" y2="212.32" gradientTransform="translate(83.08 81.78) rotate(2.07)" xlink:href="#Degradado_sin_nombre_34"/><linearGradient id="linear-gradient-27" x1="-2975.63" y1="318.93" x2="-2898.86" y2="318.93" gradientTransform="matrix(-1, 0, 0, 1, -2309.02, 0)" xlink:href="#linear-gradient-26"/><linearGradient id="linear-gradient-28" x1="-448.17" y1="-401.37" x2="-446.38" y2="-418.14" gradientTransform="matrix(-0.87, 0.5, 0, 1.15, 21.69, 899.41)" gradientUnits="userSpaceOnUse"><stop offset="0" stop-color="#c63900"/><stop offset="1" stop-color="#b33700"/></linearGradient><linearGradient id="linear-gradient-29" x1="-444.41" y1="-386.04" x2="-463.99" y2="-429.29" gradientTransform="matrix(-0.87, 0.5, 0, 1.15, 21.69, 899.41)" gradientUnits="userSpaceOnUse"><stop offset="0" stop-color="#39b54a"/><stop offset="1" stop-color="#aaffb1"/></linearGradient></defs><title>Asset 13</title><g class="cls-2"><g id="Layer_2" data-name="Layer 2"><g id="Layer_1-2" data-name="Layer 1"><g class="cls-3"><path class="cls-4" d="M677.13,274.41l-2.07-1L581.51,309c-8.12,3.09-9.61,8-3.33,11l25.42,12.13c2.48,1.18,3.56,2.78,3,4.49s-2.56,3.32-5.76,4.54l-121.8,46.32a33.16,33.16,0,0,1-11.24,1.93,23.88,23.88,0,0,1-10.12-1.8l-37.14-17.72c-3-1.45-7.42-2.23-12.37-2.2a40.39,40.39,0,0,0-13.74,2.36l-105.71,40.2c-8.12,3.09-9.61,8-3.33,11l102.3,48.84c2.48,1.18,3.56,2.77,3,4.48S388.21,478,385,479.2l-77.32,29.4a33,33,0,0,1-11.25,1.93,24.08,24.08,0,0,1-10.12-1.79l-33.47-16c-6.28-3-18-2.93-26.11.16L120.08,533.48c-8.12,3.09-9.61,8-3.33,11l97.18,46.39c5.14,2.45,3.92,6.5-2.73,9L60.89,657.11l2.07,1,150.32-57.17c8.11-3.09,9.61-8,3.33-11L119.43,543.5c-5.14-2.46-3.92-6.51,2.72-9L228.81,493.9c6.64-2.52,16.22-2.58,21.36-.13l33.48,16c3,1.45,7.42,2.23,12.36,2.2a40.45,40.45,0,0,0,13.75-2.36l77.32-29.41c3.92-1.48,6.42-3.46,7.05-5.55s-.69-4-3.72-5.48L288.1,420.31c-5.13-2.45-3.91-6.5,2.73-9l105.71-40.21c6.64-2.52,16.23-2.58,21.36-.13L455,388.67c3,1.45,7.42,2.23,12.37,2.2a40.44,40.44,0,0,0,13.74-2.36L603,342.19c3.92-1.49,6.42-3.46,7-5.55s-.69-4-3.72-5.49L580.86,319c-5.14-2.46-3.92-6.51,2.72-9Z"/><path class="cls-5" d="M912.3,486.17l-59.94-28.61c-6.28-3-18-2.93-26.11.16l-100,38c-6.64,2.53-16.22,2.59-21.36.13l-38.6-18.42c-6.28-3-18-2.93-26.11.16l-75,28.51c-3.92,1.49-6.42,3.46-7,5.55s.69,4,3.72,5.48l49.58,23.67c2.48,1.19,3.56,2.78,3.05,4.49s-2.57,3.33-5.77,4.54L534.7,578c-6.64,2.53-16.22,2.59-21.36.13l-45.93-21.92c-6.28-3-18-2.93-26.11.16l-87.73,33.37c-6.64,2.52-16.23,2.58-21.36.13l-50.32-24c-6.28-3-18-2.93-26.11.16l-95.3,36.24c-8.12,3.09-9.61,8-3.33,11L248.57,657l2.68-1-91.43-43.65c-5.14-2.45-3.91-6.5,2.73-9L257.85,567c6.64-2.53,16.23-2.59,21.36-.13l50.32,24c6.28,3,18,2.92,26.11-.16l87.73-33.37c6.64-2.53,16.23-2.59,21.37-.13l45.92,21.92c6.28,3,18,2.93,26.11-.16l74-28.15c3.92-1.49,6.42-3.46,7.05-5.55s-.69-4-3.72-5.48l-49.58-23.68c-2.48-1.18-3.56-2.77-3-4.48s2.56-3.33,5.76-4.55l75-28.5c6.64-2.53,16.22-2.59,21.36-.14l38.6,18.43c6.29,3,18,2.93,26.11-.16l100-38c6.64-2.53,16.22-2.59,21.36-.13l59.94,28.61Z"/><path class="cls-6" d="M954.22,292.12l-2.07-1L663.52,400.91a33.12,33.12,0,0,1-11.24,1.92A24.08,24.08,0,0,1,642.16,401L608,384.71c-6.28-3-18-2.93-26.11.16L532.9,403.48c-8.11,3.09-9.61,8-3.32,11l24.87,11.87c5.13,2.45,3.91,6.5-2.73,9l-50.83,19.33a33.12,33.12,0,0,1-11.24,1.93,24.23,24.23,0,0,1-10.12-1.8L328,382.53c-3-1.44-7.42-2.22-12.37-2.19a40.44,40.44,0,0,0-13.74,2.35L21.92,489.17l2.07,1,280-106.48a32.94,32.94,0,0,1,11.25-1.92,24.12,24.12,0,0,1,10.12,1.79L476.85,455.9c6.28,3,18,2.92,26.11-.16l50.83-19.33c8.12-3.09,9.61-8,3.33-11L532.25,413.5c-5.14-2.46-3.92-6.51,2.73-9l48.93-18.61c6.64-2.53,16.23-2.59,21.36-.14l34.21,16.33c6.28,3,18,2.93,26.11-.16Z"/><path class="cls-7" d="M754.89,658.06,606.08,587c-2.48-1.18-3.56-2.78-3-4.49s2.56-3.32,5.77-4.54l14.27-5.43c3.92-1.49,6.43-3.46,7.06-5.55s-.7-4-3.73-5.49l-89.85-42.89c-6.28-3-18-2.93-26.11.16L486.11,528c-6.64,2.53-16.22,2.59-21.36.13l-31.28-14.93c-2.48-1.18-3.56-2.77-3-4.49s2.56-3.32,5.76-4.54L469,491.72c3.92-1.49,6.43-3.46,7.06-5.55s-.69-4-3.73-5.49l-115.21-55c-3-1.44-7.42-2.23-12.36-2.19a40.46,40.46,0,0,0-13.75,2.35L0,551.75l2.07,1L333.12,426.83a33.22,33.22,0,0,1,11.25-1.93,24.23,24.23,0,0,1,10.12,1.8l115.21,55c2.48,1.18,3.56,2.78,3,4.49s-2.56,3.32-5.77,4.54l-32.85,12.49c-3.91,1.49-6.42,3.47-7.05,5.56h0c-.63,2.09.69,4,3.72,5.48l31.28,14.93c3,1.45,7.43,2.23,12.37,2.2A40.35,40.35,0,0,0,488.18,529l24.34-9.25c6.64-2.53,16.22-2.59,21.36-.13l89.86,42.89c2.48,1.19,3.56,2.78,3,4.49s-2.56,3.32-5.77,4.54L606.74,577c-3.92,1.49-6.43,3.46-7.06,5.55s.69,4,3.72,5.49l148.82,71Z"/><path class="cls-8" d="M981.39,318.21l-2.07-1L606.87,458.88a32.88,32.88,0,0,1-11.24,1.92A24.08,24.08,0,0,1,585.51,459l-88.39-42.2c-3-1.45-7.43-2.23-12.37-2.2A40.45,40.45,0,0,0,471,417L349.92,463c-8.12,3.09-9.61,8-3.33,11l73,34.86c5.14,2.45,3.92,6.5-2.72,9l-52,19.78c-3.92,1.49-6.42,3.46-7.05,5.55h0c-.63,2.09.69,4,3.72,5.48l70.82,33.81c2.47,1.19,3.55,2.78,3,4.49s-2.56,3.33-5.77,4.54l-74.95,28.51c-8.12,3.09-9.62,8-3.33,11l76,36.3,2.68-1L354,630.13c-5.13-2.45-3.91-6.5,2.73-9l74.95-28.51c3.92-1.49,6.43-3.46,7.06-5.55s-.7-4-3.73-5.48l-70.82-33.81c-2.47-1.19-3.55-2.78-3-4.49s2.57-3.32,5.77-4.54l52-19.78c8.12-3.09,9.61-8,3.33-11l-73-34.86c-5.13-2.45-3.91-6.5,2.73-9L473.07,418A33.22,33.22,0,0,1,484.32,416a24.23,24.23,0,0,1,10.12,1.8L582.83,460c3,1.44,7.43,2.22,12.37,2.19a40.4,40.4,0,0,0,13.74-2.35Z"/></g><polygon class="cls-9" points="564.08 0 531.61 10.74 552.63 26.82 564.08 0"/><polygon class="cls-9" points="531.61 10.74 552.63 26.82 564.08 0 531.61 10.74"/><polygon class="cls-10" points="539.56 16.82 564.08 0 543.85 20.1 539.68 24.16 539.56 16.82"/><line class="cls-11" x1="535.83" y1="23.91" x2="534.44" y2="24.48"/><path class="cls-12" d="M531.68,25.62l-30.22,12.5a11.41,11.41,0,0,0,8.61,21.14L570.56,35a6,6,0,0,1,4.5,11L499.94,77.1a18.6,18.6,0,0,0-11.33,14.75l-1,7.56a13.75,13.75,0,0,0,5.18,12.65l81.69,30.58a16.37,16.37,0,0,0,16.32,2.21l6.93-2.86"/><line class="cls-11" x1="599.11" y1="141.41" x2="600.5" y2="140.84"/><path class="cls-13" d="M599.92,573.23l316.27-115a20.89,20.89,0,0,0,.07-36.13L599.93,307.24a20.91,20.91,0,0,0-20.92-.07L263.38,422.92a20.89,20.89,0,0,0-.05,36.21L579,573.24A20.89,20.89,0,0,0,599.92,573.23Z"/><path class="cls-14" d="M292,437.36v-245a17.25,17.25,0,0,1,8.62-14.93L592.52,72.54a17.23,17.23,0,0,1,25.85,14.92V330.3a17.23,17.23,0,0,1-8.62,14.93l-291.89,107A17.24,17.24,0,0,1,292,437.36Z"/><path class="cls-15" d="M309.27,448.84a11.51,11.51,0,0,1-11.48-11.48v-245a11.48,11.48,0,0,1,5.72-9.92L595.41,77.55a11.23,11.23,0,0,1,5.7-1.57,11.51,11.51,0,0,1,11.48,11.48V330.3a11.49,11.49,0,0,1-5.73,9.92L315,447.28A11.35,11.35,0,0,1,309.27,448.84Z"/><path class="cls-16" d="M292,437.36v-245a17.25,17.25,0,0,1,8.62-14.93L592.52,72.54a17,17,0,0,1,14.73-1.17h0l-6.91-3.67a17.13,17.13,0,0,0-18.94-1.14L289.51,171.49a17.23,17.23,0,0,0-8.62,14.92v245a17,17,0,0,0,7.1,13.92v0l.17.1a17.87,17.87,0,0,0,3.7,2l7.72,4.18A17,17,0,0,1,292,437.36Z"/><path class="cls-17" d="M302.78,453.33l.07,0h0Z"/><g class="cls-18"><polygon class="cls-9" points="509.94 108.28 404.77 414.36 404.75 414.36 354.44 432.8 459.74 126.31 509.94 108.28"/><polygon class="cls-9" points="396.67 149 297.77 436.82 297.77 368.57 369.91 158.62 396.67 149"/><polygon class="cls-9" points="612.59 149.3 612.59 217.61 565.22 355.51 565.19 355.51 538.37 365.35 612.59 149.3"/><polygon class="cls-9" points="594.23 77.97 489.33 383.32 449.06 398.11 554.07 92.42 554.09 92.42 594.23 77.97"/></g><path class="cls-19" d="M114.58,515.68l.29-201.5c.17-4.85,4.15-10.34,8.88-12.27l91-34.75c4.73-1.93,8.42.43,8.25,5.28l-.29,202.84c-.18,4.84-4.15,10.33-8.89,12.26l-91,33.42C118.1,522.89,114.4,520.53,114.58,515.68Z"/><path class="cls-20" d="M220.28,267h0l-.17-.08Z"/><path class="cls-21" d="M116.7,520.74a5.66,5.66,0,0,1-2.12-5.06l.29-201.5c.17-4.85,4.15-10.34,8.88-12.27l91-34.75a6.8,6.8,0,0,1,5.37-.22l-8.92-6c-1.5-1-3.63-1.13-6-.15l-91,34.76c-4.73,1.93-8.7,7.42-8.88,12.26L105,509.35c-.1,2.9,1.19,4.9,3.25,5.63h0Z"/><path class="cls-22" d="M118,521.39h0Z"/><path class="cls-23" d="M118.05,521.4Zm95.88-254.48-91,34.75c-4.73,1.93-8.71,7.42-8.88,12.27l-.29,201.5a5.85,5.85,0,0,0,1.65,4.67l1.27.63a5.66,5.66,0,0,1-2.12-5.06l.29-201.5c.17-4.85,4.15-10.34,8.88-12.27l91-34.75a7.54,7.54,0,0,1,4.34-.55A7,7,0,0,0,213.93,266.92Zm6.19,0,.16.09h0Z"/><path class="cls-24" d="M219.26,273.35,219,430.16,219,464.27l0,13.14c-.1,2.68-2.63,5.84-5.64,7.08l-43.48,15.95-46.22,16.95c-2.75,1.11-5,.24-5.26-1.93a4,4,0,0,1,0-.7V504.25L118.63,312c.1-2.67,2.62-5.84,5.64-7.07l16.87-6.88,2.4,2.72c1.17,1.32,3.35,1.54,5.75.56l39.18-13.64a12.63,12.63,0,0,0,6-5.33l2.67-4.79L214,270.74C217,269.5,219.36,270.67,219.26,273.35Z"/><path class="cls-25" d="M180.55,287.4,157.47,296c-.54.22-1-.05-.94-.59h0a1.75,1.75,0,0,1,1-1.4l23.08-8.61c.54-.22,1,0,.94.6h0A1.75,1.75,0,0,1,180.55,287.4Z"/><path class="cls-26" d="M109,362.09l-.14-.07a1.76,1.76,0,0,1-1-1.45l0-16.08c0-.55.44-.81,1-.57l.14.07a1.74,1.74,0,0,1,1,1.45v16.08C110,362.07,109.51,362.33,109,362.09Z"/><path class="cls-25" d="M107.9,362.09l-.15-.07a1.76,1.76,0,0,1-1-1.45l0-16.08c0-.55.44-.81,1-.57l.14.07a1.73,1.73,0,0,1,1,1.44v16.08C108.87,362.07,108.43,362.33,107.9,362.09Z"/><g class="cls-27"><polygon class="cls-9" points="219.12 359.89 219.21 302.61 118.29 376.87 118.43 433.98 219.12 359.89"/></g><g class="cls-27"><polygon class="cls-9" points="219.12 287.69 219.21 274.38 118.29 348.64 118.43 361.78 219.12 287.69"/></g><path class="cls-28" d="M188.47,287.73l-39.18,13.64c-2.4,1-4.58.76-5.75-.56l-2.4-2.72L124.27,305a10,10,0,0,0-4,3.09,9.53,9.53,0,0,1,2.87-1.87L140,299.31l2.4,2.72c1.16,1.33,3.34,1.54,5.74.56L187.34,289a12.41,12.41,0,0,0,4.88-3.73A12,12,0,0,1,188.47,287.73Zm25.5-17-16.87,6.88-.55,1L212.84,272c3-1.23,5.39-.06,5.3,2.62l-.34,204.05a7.15,7.15,0,0,1-1.65,4,8,8,0,0,0,2.78-5.21l.33-204.06C219.36,270.67,217,269.5,214,270.73Z"/><path class="cls-29" d="M196.87,269.54c.48-1.41,4.54-1.26,4.92.18C201.31,271.13,197.25,271,196.87,269.54Z"/><path class="cls-30" d="M201,268.93a4.69,4.69,0,0,0-3.36-.12,1.53,1.53,0,0,0-.54.35,1,1,0,0,1,.21-.1,4.61,4.61,0,0,1,3.35.12c.68.33.84.79.49,1.16C201.91,270,201.87,269.35,201,268.93Z"/><polygon class="cls-31" points="219.12 406.94 219.21 372.8 118.29 447.06 118.43 481.03 219.12 406.94"/><path class="cls-31" d="M219.21,435.41l-.09,28.74-.17.12-49.14,36.17-46.22,16.95c-2.75,1.11-5,.24-5.26-1.93l0-1.45v-4.34h0L219,435.57Z"/><polygon class="cls-32" points="121.56 306.82 311.17 379.46 408.71 342.38 215.66 270.93 121.56 306.82"/><g class="cls-33"><path class="cls-34" d="M216.56,301.22,121.5,335.8l0-21.52,95-34.59Z"/></g><polygon class="cls-35" points="239.76 427.89 131.62 472.47 124.72 468.78 124.72 349.81 239.76 308.92 246.67 312.61 239.76 427.89"/><polygon class="cls-36" points="246.67 431.58 131.62 472.47 131.62 353.5 246.67 312.61 246.67 431.58"/><path class="cls-37" d="M169.26,355.15a.8.8,0,0,0,.07.59.24.24,0,0,0,.31.07.08.08,0,0,0,.1,0,.21.21,0,0,0,.1-.05,0,0,0,0,0,0,0s0,.05.06.07.06.05.15,0h.09a.34.34,0,0,0,0,.11c0,.24.11.15.28.26a.91.91,0,0,1,0,.7c0,.13.19-.07.42-.39s.25-.63.39-.84.2-.38.12-.44-.3,0-.44-.09-.37.09-.49.3-.14.18-.19.26h-.07s-.24.15-.14,0,0-.1-.09-.07h0c.08-.13,0-.13-.1-.13s-.05.07-.13.13-.13,0-.1-.19,0-.26.13-.3.11-.12.23-.15.15-.09.13.05,0,.26,0,.26.13-.23.12-.31.15-.29.21-.41.12-.42.23-.5.33-.33.2-.42-.27.06-.36.21-.21.33-.24.16.11-.42,0-.39a1.85,1.85,0,0,0-.53.43,2.64,2.64,0,0,0-.45.72c-.1.18,0,.24,0,.34m2.36-.7c.09.08.17.06.2.24s.05.35.05.35a3.15,3.15,0,0,0,.07-.69c0-.2-.1-.73-.23-.47s-.18.49-.09.57m-1.23-1.11c1-.55,1.72-.1,1.72,1a3.8,3.8,0,0,1-1.72,3c-.95.55-1.72.1-1.72-1a3.8,3.8,0,0,1,1.72-3"/><path class="cls-38" d="M145.6,457.93l.34-.12-.44,2.46,1.12-.41-.05.3-1.47.53Z"/><path class="cls-38" d="M147.77,457.35a.41.41,0,0,1-.26.3c-.12,0-.19,0-.16-.15a.44.44,0,0,1,.25-.3C147.73,457.15,147.8,457.22,147.77,457.35Zm-.83,2.68.35-2,.34-.12-.35,2Z"/><path class="cls-38" d="M148.38,458.5h0l.21-.29.68-.88.41-.15-.88,1.08.63.86-.42.15-.48-.71-.22.27-.13.74-.34.13.52-2.91.34-.13Z"/><path class="cls-38" d="M150,458c-.08.48.18.58.53.45a2.22,2.22,0,0,0,.54-.29v.24a2.48,2.48,0,0,1-.65.35c-.58.21-.86-.07-.75-.67a1.83,1.83,0,0,1,1.08-1.39c.61-.22.68.29.61.65a1.27,1.27,0,0,1,0,.18Zm1.06-.63c0-.23,0-.55-.38-.41a1.17,1.17,0,0,0-.63.78Z"/><path class="cls-38" d="M186.91,445.48a2.59,2.59,0,0,1-.72.38c-.75.27-1.22,0-1.06-.92a2.63,2.63,0,0,1,1.64-1.95,1.35,1.35,0,0,1,.6-.11l-.13.32a1.05,1.05,0,0,0-.51.08,2,2,0,0,0-1.24,1.51c-.12.68.18,1,.82.75a2.29,2.29,0,0,0,.58-.32Z"/><path class="cls-38" d="M189.2,443.79a1.89,1.89,0,0,1-1.14,1.4c-.51.18-.83-.07-.72-.7a1.85,1.85,0,0,1,1.13-1.39C189,442.9,189.3,443.18,189.2,443.79Zm-1.51.57c-.08.43.1.67.44.55a1.3,1.3,0,0,0,.71-1c.06-.33,0-.7-.43-.56A1.29,1.29,0,0,0,187.69,444.36Z"/><path class="cls-38" d="M189.7,443.2a4.29,4.29,0,0,0,.08-.53l.31-.11,0,.31h0a1.27,1.27,0,0,1,.66-.58c.26-.1.42,0,.46.2h0a1.6,1.6,0,0,1,.26-.34,1.21,1.21,0,0,1,.44-.29c.25-.09.59-.05.47.64l-.21,1.16-.33.13.2-1.13c.06-.38,0-.56-.31-.46a.94.94,0,0,0-.46.48.53.53,0,0,0-.06.19l-.22,1.22-.34.12.22-1.18c.05-.32,0-.5-.3-.41a1,1,0,0,0-.49.52.64.64,0,0,0-.06.18l-.22,1.2-.33.12Z"/><path class="cls-38" d="M193,442a4.29,4.29,0,0,0,.08-.53l.3-.11,0,.31h0a1.27,1.27,0,0,1,.66-.58c.25-.1.42,0,.46.2h0a1.9,1.9,0,0,1,.26-.34,1.21,1.21,0,0,1,.44-.29c.25-.09.59-.05.47.64l-.21,1.17-.34.12.2-1.13c.07-.38,0-.56-.3-.46a.94.94,0,0,0-.46.48.53.53,0,0,0-.06.19l-.22,1.22-.34.13.21-1.19c.06-.32,0-.5-.29-.41a1,1,0,0,0-.5.52,1.05,1.05,0,0,0-.05.19l-.22,1.19-.33.12Z"/><path class="cls-38" d="M196.32,441.29c-.08.48.18.58.53.45a1.92,1.92,0,0,0,.54-.29v.24a2.48,2.48,0,0,1-.65.35c-.58.21-.86-.07-.75-.66a1.85,1.85,0,0,1,1.08-1.4c.62-.22.68.29.61.65a1.27,1.27,0,0,1,0,.18Zm1.06-.62c0-.24,0-.56-.38-.42a1.2,1.2,0,0,0-.63.78Z"/><path class="cls-38" d="M198.18,440.13c0-.21.06-.37.08-.53l.31-.11,0,.32h0a1.36,1.36,0,0,1,.7-.6c.26-.1.64-.08.52.6l-.22,1.18-.34.13.2-1.15c.06-.32,0-.54-.33-.42a1,1,0,0,0-.53.53,1,1,0,0,0-.05.18l-.21,1.19-.35.13Z"/><path class="cls-38" d="M201,438.09l-.1.57.49-.18,0,.27-.49.18-.19,1.07c0,.25,0,.36.19.29a1.37,1.37,0,0,0,.2-.09l0,.26a1.46,1.46,0,0,1-.31.16c-.16.06-.28.05-.35,0s-.08-.23,0-.46l.19-1.09-.29.11,0-.27.29-.11.09-.48Z"/><path class="cls-38" d="M225.78,431.09a1,1,0,0,0,.58,0,.93.93,0,0,0,.63-.67c0-.26-.06-.36-.39-.37s-.63-.14-.56-.53a1.5,1.5,0,0,1,1-1.06,1,1,0,0,1,.56-.08l-.14.33a.8.8,0,0,0-.48.05.84.84,0,0,0-.57.59c0,.26.09.33.43.34s.6.17.53.57a1.59,1.59,0,0,1-1.07,1.13,1.1,1.1,0,0,1-.64.07Z"/><path class="cls-38" d="M228.18,427.9l.35-.12-.22,1.24h0a1.59,1.59,0,0,1,.3-.34,1.2,1.2,0,0,1,.37-.23c.25-.09.63-.08.51.61l-.21,1.18-.35.12.21-1.14c.05-.32,0-.54-.34-.43a1,1,0,0,0-.52.53.55.55,0,0,0-.06.18l-.21,1.2-.35.12Z"/><path class="cls-38" d="M230.88,429.65l0-.24h0a1.4,1.4,0,0,1-.63.51c-.39.14-.53-.08-.48-.36.08-.48.54-.89,1.27-1.15v0c0-.17,0-.45-.35-.31a1.7,1.7,0,0,0-.52.33l0-.21a2.08,2.08,0,0,1,.65-.4c.58-.21.65.15.58.55l-.13.74a2.91,2.91,0,0,0-.05.46Zm.13-1c-.37.13-.81.36-.88.74s.09.29.26.23a1,1,0,0,0,.52-.5.56.56,0,0,0,0-.12Z"/><path class="cls-38" d="M232,428c0-.23.07-.43.09-.61l.3-.11,0,.38h0a1.23,1.23,0,0,1,.6-.63l.1,0-.06.34-.12,0a1,1,0,0,0-.54.63c0,.05,0,.11,0,.18l-.18,1.05-.34.13Z"/><path class="cls-38" d="M233.35,427.89c-.08.48.18.58.53.45a2.22,2.22,0,0,0,.54-.29v.24a2.48,2.48,0,0,1-.65.35c-.58.21-.86-.07-.75-.67a1.83,1.83,0,0,1,1.08-1.39c.62-.22.68.29.61.65a1.27,1.27,0,0,1,0,.18Zm1.06-.63c0-.23,0-.55-.38-.41a1.2,1.2,0,0,0-.63.78Z"/><polygon class="cls-39" points="242.18 428.41 136.91 466.06 136.91 465.89 242.18 428.24 242.18 428.41"/><path class="cls-38" d="M181.67,444.05l-3.12,1.13a1.49,1.49,0,0,0-.85,1l-.4,2.25c-.07.41.19.63.58.49l.58-.21-.15.84s0,.23.07.14a2,2,0,0,0,.29-.27l1-1.16,1.29-.47a1.45,1.45,0,0,0,.85-1l.4-2.26c.08-.41-.19-.63-.58-.49"/><path class="cls-38" d="M223,430.94l-1.55-1.3c-.05-.05-.16,0-.24.09L221,430.9a5.88,5.88,0,0,0-3.53,4.2,6.18,6.18,0,0,1,3.22-2.47l-.24,1.34c.06,0,.17,0,.25-.09l2.26-2.68c.08-.1.1-.21,0-.26"/><path class="cls-40" d="M147.51,452.36c.82-2.37-.71-3.54-2.79-2.16a5.65,5.65,0,0,0-2.1,2.72c-.82,2.37.7,3.55,2.78,2.16a5.67,5.67,0,0,0,2.11-2.72"/><path class="cls-9" d="M145.44,449.81c1.7-.69,2.79.46,2.07,2.55a5.67,5.67,0,0,1-2.11,2.72,3.68,3.68,0,0,1-.72.39c-1.69.69-2.78-.46-2.06-2.55a5.65,5.65,0,0,1,2.1-2.72,3.68,3.68,0,0,1,.72-.39m.07-.52a5.41,5.41,0,0,0-.84.46,6.68,6.68,0,0,0-2.5,3.24,2.83,2.83,0,0,0,.14,2.71,1.91,1.91,0,0,0,2.3.29,5.49,5.49,0,0,0,.85-.46,6.74,6.74,0,0,0,2.5-3.24,2.82,2.82,0,0,0-.15-2.71,1.9,1.9,0,0,0-2.3-.29"/><path class="cls-9" d="M145.93,451s-.38.09-.76.74a.47.47,0,0,0-.64-.17,1.72,1.72,0,0,0-1,1.3c-.13.95,1.29,1.3,1.29,1.3s1.69-1.62,1.82-2.57-.73-.6-.73-.6"/><path class="cls-41" d="M142,455c1.32-2.84-.55-4.28-3-2.28a5.21,5.21,0,0,0-1.35,1.74c-1.32,2.84.54,4.28,3,2.28A5.11,5.11,0,0,0,142,455"/><path class="cls-9" d="M140.24,452c1.78-.73,2.87.67,1.78,3a5.11,5.11,0,0,1-1.35,1.74,4.37,4.37,0,0,1-1.18.74c-1.78.73-2.87-.67-1.78-3a5.21,5.21,0,0,1,1.35-1.74,4.93,4.93,0,0,1,1.18-.74m.07-.51a5.38,5.38,0,0,0-1.38.86,6.18,6.18,0,0,0-1.63,2.1,3.38,3.38,0,0,0-.22,3.13,1.77,1.77,0,0,0,2.34.43,5.49,5.49,0,0,0,1.38-.85,6.12,6.12,0,0,0,1.63-2.11,3.41,3.41,0,0,0,.22-3.13,1.78,1.78,0,0,0-2.34-.43"/><path class="cls-9" d="M139.09,454.74l-.49.2a.25.25,0,0,0-.14.19l-.18,1.31c0,.07,0,.11.11.08l.49-.2a.25.25,0,0,0,.14-.18l.18-1.32c0-.07,0-.1-.11-.08"/><path class="cls-9" d="M141,454.13a.54.54,0,0,0,.19-.32c0-.23-.12-.2-.21-.16l-.68.27a2.33,2.33,0,0,0,.26-.78c0-.14,0-.36-.23-.29a.43.43,0,0,0-.23.22,1.31,1.31,0,0,1,0,.4,8.48,8.48,0,0,0-.7,1.09l0,.3h0l-.14,1c0,.09.05.14.13.1l1.17-.48h0c.29-.12.41-.27.43-.39s-.07-.13-.07-.13a.36.36,0,0,0,.15-.25c0-.16-.07-.16-.07-.16a.45.45,0,0,0,.22-.3c0-.2-.13-.14-.13-.14"/><path class="cls-38" d="M138.36,461l-.73.26a.51.51,0,0,0-.27.32l-.44,2.5c0,.13.06.2.18.15l.73-.26a.43.43,0,0,0,.26-.31l.45-2.51C138.56,461,138.48,460.91,138.36,461Z"/><path class="cls-38" d="M142.07,460.42c.06-.35-.22-.24-.22-.24a1,1,0,0,0,.36-.57c.07-.41-.2-.37-.36-.31l-1.23.45a4.37,4.37,0,0,0,.51-1.39c0-.23,0-.64-.38-.52a.77.77,0,0,0-.43.38,2.12,2.12,0,0,1-.12.7,15.21,15.21,0,0,0-1.33,1.9l-.09.52h0l-.33,1.81c0,.16.07.25.23.19l2.12-.77h0c.51-.2.74-.44.78-.67s-.11-.23-.11-.23a.63.63,0,0,0,.28-.43c.06-.29-.1-.29-.1-.29A.86.86,0,0,0,142.07,460.42Z"/><ellipse class="cls-42" cx="143.14" cy="360.97" rx="8.61" ry="4.97" transform="translate(-241.04 304.45) rotate(-60)"/><path class="cls-43" d="M235.36,329.78a1.3,1.3,0,0,1-.68,1c-.34.16-.59,0-.55-.39a1.27,1.27,0,0,1,.68-1C235.15,329.23,235.39,329.41,235.36,329.78Z"/><path class="cls-43" d="M237.36,328.86a1.33,1.33,0,0,1-.68,1c-.34.16-.59,0-.56-.39a1.29,1.29,0,0,1,.68-1C237.14,328.31,237.39,328.49,237.36,328.86Z"/><path class="cls-43" d="M239.35,327.94a1.3,1.3,0,0,1-.68,1c-.34.16-.59,0-.55-.39a1.27,1.27,0,0,1,.68-1C239.14,327.39,239.39,327.57,239.35,327.94Z"/><polygon class="cls-44" points="180.42 346.75 152.14 357 152.14 352.86 180.42 342.61 180.42 346.75"/><polygon class="cls-44" points="234.25 351.37 137.05 384.36 137.05 381.95 234.25 348.96 234.25 351.37"/><polygon class="cls-44" points="181.34 376.71 137.05 391.88 137.05 389.47 181.34 374.3 181.34 376.71"/><polygon class="cls-45" points="167.02 357.74 152.14 363.46 152.14 361.63 167.02 355.91 167.02 357.74"/><polygon class="cls-46" points="241.24 413.33 137.05 450.37 137.05 396.03 241.24 359 241.24 413.33"/><polygon class="cls-47" points="186.32 417.3 186.33 394.32 203.07 399.93 186.32 417.3"/><polygon class="cls-48" points="200.45 400.61 186.26 415.33 186.26 395.86 200.45 400.61"/><ellipse class="cls-49" cx="87.44" cy="367.48" rx="16.93" ry="9.77" transform="translate(-251.9 201.54) rotate(-50.56)"/><path class="cls-9" d="M95.63,360.6a2.09,2.09,0,0,0-1.45-1.89c-1.36-.32-3.43.92-5,2.53q-.49.52-.93,1.08a3.53,3.53,0,0,0-.66-.49c-1.16-.6-3.07-.34-4.72,1.1a9.44,9.44,0,0,0-2.32,3.31c-1.46,3.4-.8,6.34.91,7.93a9.17,9.17,0,0,0,4.49,2,42.69,42.69,0,0,0,5.78-5.86C94.29,367.15,96.08,363.29,95.63,360.6Z"/><ellipse class="cls-50" cx="75.91" cy="339.38" rx="17.46" ry="10.08" transform="translate(-234.41 182.38) rotate(-50.56)"/><path class="cls-51" d="M75.91,339.38a49.34,49.34,0,0,0-11.13,5.94c-.06,5.17,3.76,7.66,9.21,5.61S84.64,343,86.41,337.21A30.37,30.37,0,0,0,75.91,339.38Z"/><path class="cls-49" d="M82.24,344.71c-1.63-1.32-4.14-1.57-7.14-.45a20.62,20.62,0,0,0-8.26,6.23c1.64,1.32,4.14,1.57,7.15.44A20.63,20.63,0,0,0,82.24,344.71Z"/><path class="cls-51" d="M65.53,342c-.23.09-.42,0-.46-.2a1,1,0,0,1,.48-.86l4.45-3-2-.51c-.24-.07-.27-.38-.07-.72s.55-.55.78-.49l3,.76c.17.05.24.23.18.46a1.15,1.15,0,0,1-.46.63l-5.69,3.88A.7.7,0,0,1,65.53,342Z"/><path class="cls-51" d="M86.74,334.06l-.17,0-5.07.16c-.19,0-.31-.13-.29-.35a1,1,0,0,1,.36-.66L85.18,330c.29-.26.61-.29.72-.07a.87.87,0,0,1-.34.86L83.12,333l4-.12c.27,0,.38.26.23.6A1.12,1.12,0,0,1,86.74,334.06Z"/><ellipse class="cls-50" cx="246.67" cy="268.56" rx="18.87" ry="10.9" transform="translate(-117.44 288.43) rotate(-50.56)"/><path class="cls-51" d="M249.62,272.8c-.6,3.6-2.83,7.17-5,8s-3.42-1.46-2.82-5,2.83-7.17,5-8S250.22,269.2,249.62,272.8Z"/><ellipse class="cls-51" cx="240.55" cy="265.97" rx="3.34" ry="1.53" transform="translate(-90.29 404.36) rotate(-70.57)"/><ellipse class="cls-51" cx="254.52" cy="260.73" rx="3.34" ry="1.53" transform="translate(-76.03 414.03) rotate(-70.57)"/><path class="cls-51" d="M239.34,263.09a.43.43,0,0,1-.35,0c-.22-.12-.19-.5.06-.84a7.24,7.24,0,0,1,2.45-2.13,1.7,1.7,0,0,1,1.88.16c.19.15.12.55-.15.88s-.65.47-.84.31a1,1,0,0,0-1-.13,4.86,4.86,0,0,0-1.51,1.35A1.15,1.15,0,0,1,239.34,263.09Z"/><path class="cls-51" d="M256.91,256.5a.35.35,0,0,1-.42-.06h0a1.21,1.21,0,0,0-1.24-.31,2.89,2.89,0,0,0-1.22,1c-.27.33-.65.47-.84.31s-.13-.55.15-.88a4.86,4.86,0,0,1,2.19-1.68,1.87,1.87,0,0,1,2,.45c.16.19.06.6-.23.91A1.09,1.09,0,0,1,256.91,256.5Z"/><path class="cls-52" d="M99.75,305.29a15.13,15.13,0,0,1-8.69,10.56c-4.08,1.53-6.81-.72-6.1-5a15.13,15.13,0,0,1,8.69-10.56C97.73,298.74,100.46,301,99.75,305.29Z"/><path class="cls-9" d="M96.41,305.69a1.59,1.59,0,0,0,.6-.94c.08-.46-.21-.7-.65-.54l-2.64,1a10.86,10.86,0,0,0,.89-2.55c.18-1.1-1.09-.5-1.2.13A5.14,5.14,0,0,1,92,305.33a5.39,5.39,0,0,0-1.21,1.92l-.07.41,0,.24L90.5,309l0,.32-.16.94-.07.4-.2,1.26,4.65-1.74a1.62,1.62,0,0,0,.92-1.13h0a.52.52,0,0,0-.08-.44,1.67,1.67,0,0,0,.58-.92.54.54,0,0,0-.12-.49,1.61,1.61,0,0,0,.64-1A.48.48,0,0,0,96.41,305.69Z"/><polygon class="cls-9" points="88.25 308.03 90.51 307.19 89.7 312.04 87.44 312.89 88.25 308.03"/><ellipse class="cls-53" cx="88.99" cy="311.49" rx="0.39" ry="0.22" transform="matrix(0.64, -0.77, 0.77, 0.64, -208.09, 182.31)"/><path class="cls-36" d="M269.68,248.57a5.78,5.78,0,0,1-3.33,4.05c-1.57.59-2.62-.27-2.35-1.92a5.81,5.81,0,0,1,3.34-4.06C268.91,246.05,270,246.91,269.68,248.57Z"/><path class="cls-36" d="M214.28,454.42V484a10.16,10.16,0,0,1-1,.48l-43.47,15.95L124.74,517V486.24Z"/><g class="cls-54"><path class="cls-37" d="M154,487.53a.57.57,0,0,0,.06.45c0,.09.15.09.24.06a.06.06,0,0,0,.08,0l.07,0v0l0,.05s.05,0,.12,0h.07a.22.22,0,0,0,0,.09c0,.18.09.11.21.2a.65.65,0,0,1,0,.54c0,.11.15-.05.32-.3a7,7,0,0,0,.31-.66c.11-.16.15-.29.09-.33s-.23,0-.34-.08-.29.07-.38.23a2.37,2.37,0,0,1-.15.21h0s-.19.11-.12,0,0-.08-.06-.06h0c.06-.11,0-.11-.08-.11a.58.58,0,0,1-.09.1s-.11,0-.08-.14,0-.21.1-.23.08-.1.18-.13.11-.06.1,0,0,.21,0,.2.1-.17.1-.24.11-.22.16-.31.09-.33.18-.39.25-.26.15-.33-.21.05-.28.17-.16.25-.18.12.08-.33,0-.3a1.56,1.56,0,0,0-.41.33,2.18,2.18,0,0,0-.35.56c-.08.14,0,.19,0,.27Zm1.84-.55c.07.06.13,0,.16.19l0,.27a2.79,2.79,0,0,0,.05-.54c0-.15-.08-.56-.18-.36s-.14.37-.07.44Zm-1-.86c.73-.43,1.33-.08,1.33.77a3,3,0,0,1-1.33,2.31c-.74.43-1.34.09-1.34-.77a2.94,2.94,0,0,1,1.34-2.31Z"/></g><ellipse class="cls-42" cx="133.71" cy="492.06" rx="6.7" ry="3.87" transform="translate(-359.28 361.82) rotate(-60)"/><g class="cls-55"><path class="cls-43" d="M205.48,467.78a1,1,0,0,1-.53.75c-.26.12-.46,0-.43-.31a1,1,0,0,1,.53-.75C205.31,467.35,205.51,467.49,205.48,467.78Z"/><path class="cls-43" d="M207,467.06a1,1,0,0,1-.53.75c-.26.12-.45,0-.43-.31a1,1,0,0,1,.53-.74C206.87,466.64,207.06,466.77,207,467.06Z"/><path class="cls-43" d="M208.59,466.35a1,1,0,0,1-.53.74c-.27.13-.46,0-.43-.3a1,1,0,0,1,.53-.75C208.42,465.92,208.61,466.06,208.59,466.35Z"/></g><polygon class="cls-44" points="162.72 480.99 140.71 488.97 140.71 485.74 162.72 477.76 162.72 480.99"/><polygon class="cls-44" points="204.61 484.58 128.97 510.26 128.97 508.38 204.61 482.71 204.61 484.58"/><polygon class="cls-45" points="152.29 489.54 140.71 493.99 140.71 492.57 152.29 488.12 152.29 489.54"/><path class="cls-56" d="M272.63,247.46a11.85,11.85,0,0,1-6.8,8.27c-3.2,1.19-5.33-.56-4.77-3.93a11.83,11.83,0,0,1,6.8-8.26C271.05,242.34,273.19,244.1,272.63,247.46Z"/><path class="cls-36" d="M172.61,299.68l-1.67.75a6.12,6.12,0,0,0-3.18,4.8l-.09,2.08-1.95,1-.11,2.59,1.95-1-.28,6.53,2.41-1.25.29-6.6,2-1,.37-2.69L170.06,306l.07-1.72a2.26,2.26,0,0,1,1.12-1.73l1.26-.6Z"/><polygon class="cls-57" points="785.64 253.12 785.64 300.04 754.96 267.02 785.64 253.12"/><polyline class="cls-57" points="732.62 280.04 731.25 234.95 754.96 267.02 732.62 280.04"/><polygon class="cls-58" points="754.96 267.02 785.64 300.04 732.62 280.04 754.96 267.02"/><polyline class="cls-59" points="731.25 234.95 785.64 253.12 754.76 275.86 731.25 234.95"/><g class="cls-60"><line class="cls-61" x1="733.75" y1="286.06" x2="733.75" y2="312"/><line class="cls-61" x1="739.83" y1="290.99" x2="739.83" y2="307.35"/><line class="cls-61" x1="774.16" y1="301.95" x2="774.16" y2="317.88"/><line class="cls-61" x1="780.32" y1="309.92" x2="780.32" y2="325.63"/></g><path class="cls-62" d="M369.05,176.1a9.61,9.61,0,0,0-4.36,7.53l.12,42.47c0,2.77-1.65,4.44,7.95,8.32l63.56-30.2a9.59,9.59,0,0,0,4.35-7.54l4.89-39.93-5.44-3.17c-.42-.25-3-2.35-5.59-1.35Z"/><path class="cls-9" d="M375.37,181.46A9.57,9.57,0,0,0,371,189l.12,42.47c0,2.77,2,3.89,4.38,2.5l67.12-24.38A9.59,9.59,0,0,0,447,202l-.12-42.47c0-2.77-2-3.88-4.38-2.49Z"/><path class="cls-63" d="M376.53,182a9.52,9.52,0,0,0-4.31,7.47l.12,42.1c0,2.75,2,3.86,4.34,2.48L443.23,210a9.52,9.52,0,0,0,4.32-7.47l-.12-42.11c0-2.75-1.95-3.85-4.34-2.47Z"/><g class="cls-55"><path class="cls-9" d="M465.49,141.18a9.57,9.57,0,0,0-4.35,7.53l.12,42.47c0,2.77,2,3.88,4.38,2.49l67.12-24.38a9.57,9.57,0,0,0,4.35-7.53L537,119.29c0-2.77-2-3.88-4.38-2.49Z"/></g><path class="cls-9" d="M471.81,146.53a9.6,9.6,0,0,0-4.35,7.54l.12,42.47c0,2.76,2,3.88,4.38,2.49l67.13-24.38a9.59,9.59,0,0,0,4.35-7.53l-.12-42.47c0-2.77-2-3.88-4.38-2.49Z"/><path class="cls-64" d="M473,147.1a9.53,9.53,0,0,0-4.32,7.47l.12,42.11c0,2.74,2,3.85,4.35,2.47l66.55-24.05a9.49,9.49,0,0,0,4.31-7.47l-.12-42.11c0-2.74-2-3.84-4.34-2.47Z"/><g class="cls-65"><polygon class="cls-66" points="521.33 150.2 515.06 162.04 502.25 188.63 527.13 183.29 549.1 172.57 521.33 150.2"/><ellipse class="cls-67" cx="512.17" cy="145.07" rx="9.88" ry="5.72" transform="translate(129.4 515.01) rotate(-59.84)"/><polygon class="cls-68" points="494.74 150.46 462.56 206.2 527.13 183.29 502.88 188.4 515.06 162.04 494.74 150.46"/></g><polygon class="cls-69" points="724.04 350.61 363.94 474.2 363.94 263.33 724.04 129.75 724.04 350.61"/><g class="cls-70"><path class="cls-42" d="M395.94,288.06c0,5.5-4.44,11.58-9.92,13.58s-9.91-.82-9.91-6.31,4.44-11.57,9.91-13.58S395.94,282.56,395.94,288.06Z"/><polygon class="cls-44" points="462.54 264.43 404.84 285.56 404.84 277.52 462.54 256.33 462.54 264.43"/><polygon class="cls-45" points="437.17 282.98 404.84 294.78 404.84 290.22 437.17 278.4 437.17 282.98"/><polygon class="cls-45" points="487.31 269.41 376.11 309.93 376.11 309.29 487.31 268.76 487.31 269.41"/></g><path class="cls-42" d="M395.94,320.43c0,5.5-4.44,11.56-9.92,13.54s-9.91-.87-9.91-6.36,4.44-11.54,9.91-13.54S395.94,314.93,395.94,320.43Z"/><polygon class="cls-44" points="462.54 297.08 404.84 317.97 404.84 309.92 462.54 288.98 462.54 297.08"/><polygon class="cls-45" points="437.17 315.52 404.84 327.18 404.84 322.63 437.17 310.94 437.17 315.52"/><polygon class="cls-45" points="487.31 302.17 376.11 342.21 376.11 341.57 487.31 301.51 487.31 302.17"/><g class="cls-70"><path class="cls-42" d="M395.94,352.8c0,5.5-4.44,11.54-9.92,13.5s-9.91-.92-9.91-6.4,4.44-11.53,9.91-13.5S395.94,347.3,395.94,352.8Z"/><polygon class="cls-44" points="462.54 329.73 404.84 350.37 404.84 342.33 462.54 321.63 462.54 329.73"/><polygon class="cls-45" points="437.17 348.06 404.84 359.59 404.84 355.03 437.17 343.49 437.17 348.06"/><polygon class="cls-45" points="487.31 334.92 376.11 374.5 376.11 373.85 487.31 334.27 487.31 334.92"/></g><g class="cls-70"><path class="cls-42" d="M395.94,385.17c0,5.5-4.44,11.52-9.92,13.45s-9.91-.95-9.91-6.44,4.44-11.51,9.91-13.45S395.94,379.66,395.94,385.17Z"/><polygon class="cls-44" points="462.54 362.38 404.84 382.78 404.84 374.73 462.54 354.28 462.54 362.38"/><polygon class="cls-45" points="437.17 380.6 404.84 391.99 404.84 387.44 437.17 376.03 437.17 380.6"/><polygon class="cls-45" points="487.31 367.67 376.11 406.78 376.11 406.14 487.31 367.02 487.31 367.67"/></g><g class="cls-70"><path class="cls-42" d="M395.94,417.53c0,5.5-4.44,11.51-9.92,13.42s-9.91-1-9.91-6.49S380.55,413,386,411.05,395.94,412,395.94,417.53Z"/><polygon class="cls-44" points="462.54 395.03 404.84 415.18 404.84 407.14 462.54 386.93 462.54 395.03"/><polygon class="cls-45" points="437.17 413.14 404.84 424.4 404.84 419.84 437.17 408.57 437.17 413.14"/><polygon class="cls-45" points="487.31 400.43 376.11 439.06 376.11 438.42 487.31 399.77 487.31 400.43"/></g><polygon class="cls-45" points="512.69 415.1 512.69 223.65 513.77 223.25 513.77 414.73 512.69 415.1"/><path class="cls-44" d="M460.12,431.87,379.36,459.7c-1.72.59-3.11.09-3.11-1.12v-8.47c0-1.21,1.39-2.68,3.11-3.27l80.76-28c1.72-.6,3.11-.08,3.11,1.14v8.57C463.23,429.8,461.84,431.28,460.12,431.87Z"/><path class="cls-44" d="M583.07,214,542.7,228.83a1.06,1.06,0,0,1-1.56-1v-6.15a2.51,2.51,0,0,1,1.56-2.17l40.37-14.86a1.06,1.06,0,0,1,1.56,1v6.18A2.52,2.52,0,0,1,583.07,214Z"/><path class="cls-44" d="M606.64,217.16,527.8,246c-1.68.61-3,.47-3-.31V240.2c0-.78,1.36-1.91,3-2.53l78.84-28.88c1.68-.62,3-.47,3,.32v5.51C609.68,215.41,608.32,216.55,606.64,217.16Z"/><path class="cls-71" d="M500.67,233.3,380.73,277.49c-2.55.94-4.62.92-4.62-.05v-6.76c0-1,2.07-2.52,4.62-3.46l119.94-44.35c2.56-.94,4.63-.91,4.63.07v6.87C505.3,230.8,503.23,232.36,500.67,233.3Z"/><path class="cls-44" d="M482.34,424.05,470.94,428c-.24.08-.44-.82-.44-2v-8.35c0-1.2.2-2.24.44-2.32l11.4-4c.25-.08.44.82.44,2v8.37C482.78,422.92,482.59,424,482.34,424.05Z"/><path class="cls-42" d="M535.92,226.65a9,9,0,0,1-5.58,7.75c-3.08,1.13-5.58-.5-5.58-3.65a9,9,0,0,1,5.58-7.75C533.42,221.87,535.92,223.5,535.92,226.65Z"/><path class="cls-72" d="M686.16,199,526.57,257.1a1.24,1.24,0,0,1-1.81-1.19v-2.39a2.88,2.88,0,0,1,1.81-2.5l159.59-58.2A1.24,1.24,0,0,1,688,194v2.44A2.92,2.92,0,0,1,686.16,199Z"/><path class="cls-72" d="M686.16,209.92,526.57,267.78a1.24,1.24,0,0,1-1.81-1.19V264.2a2.88,2.88,0,0,1,1.81-2.5l159.59-58a1.24,1.24,0,0,1,1.8,1.22v2.45A2.9,2.9,0,0,1,686.16,209.92Z"/><path class="cls-72" d="M613.93,246.9l-87.36,31.56a1.24,1.24,0,0,1-1.81-1.19v-2.39a2.88,2.88,0,0,1,1.81-2.5l87.36-31.63a1.25,1.25,0,0,1,1.81,1.22v2.42A2.89,2.89,0,0,1,613.93,246.9Z"/><path class="cls-73" d="M691.88,336.66l-166.83,67,.63-114.57,166.82-66.2Z"/><polygon class="cls-74" points="690.18 170.44 688.26 183.56 674.71 188.86 674.57 177.08 681.96 177.7 690.18 170.44"/><polygon class="cls-74" points="689.94 168.29 681.93 178.16 674.89 174.39 682.42 171.34 689.94 168.29"/><path class="cls-75" d="M675.41,177.59l-.71,11.27-1.22.66c-.46.25-.81,0-.78-.47l.75-12,1.35-.68Z"/><path class="cls-76" d="M691.13,169.53l-.75,12a1.87,1.87,0,0,1-.89,1.37l-1.23.66L689,172.3l.79-2.14Z"/><path class="cls-75" d="M691.2,168.51l-.07,1L689,172.3l-7.12,7.11-6.44-1.82-2-.55.07-1a1.85,1.85,0,0,1,.89-1.37l.48-.26,7.15,2,7.9-8.12.48-.25C690.88,167.79,691.23,168,691.2,168.51Z"/><polygon class="cls-76" points="675.41 177.59 673.37 178.34 673.45 177.04 675.41 177.59"/><polygon class="cls-77" points="642.75 288.06 627.97 283.89 613.02 299.75 642.75 288.06"/><polygon class="cls-77" points="666.58 305.82 683.05 299.38 666.55 294.75 666.58 305.82"/><g class="cls-2"><polygon class="cls-78" points="683.05 299.38 666.61 317.05 627.76 359.09 683.26 374.78 572.48 419.56 683.26 374.78 683.05 299.38"/><polygon class="cls-77" points="627.76 359.09 572.48 419.56 683.26 374.78 627.76 359.09"/><polygon class="cls-78" points="572.26 343.28 572.48 419.56 627.75 359.09 589.95 348.34 572.26 343.28"/><polygon class="cls-77" points="589.89 324.41 572.26 343.28 589.92 336.2 589.89 324.41"/><polygon class="cls-77" points="589.92 336.2 572.26 343.28 589.95 348.34 589.92 336.2"/><polygon class="cls-79" points="613.02 299.75 642.75 288.06 666.5 278.78 666.55 294.75 666.58 305.82 666.61 317.05 627.75 359.09 589.95 348.34 589.92 336.2 589.89 324.41 589.84 308.93 613.02 299.75"/></g><polygon class="cls-77" points="666.61 317.05 683.05 299.38 666.58 305.82 666.61 317.05"/><polygon class="cls-77" points="625.75 338.42 625.75 312.63 644.74 317.96 625.75 338.42"/><polygon class="cls-78" points="641.77 318.87 625.68 336.2 625.68 314.35 641.77 318.87"/><path class="cls-80" d="M404.52,209.69l-.86-13.25,8.19,4.45.45,4.59,2-.79c-.13,2.7-6.19,7.91-11.43,6.36C403.39,210.55,404,210.11,404.52,209.69Z"/><path class="cls-81" d="M411.91,208.32a8.86,8.86,0,0,1-7.61-2.06l-.54-8.29a10.84,10.84,0,0,1,.79-1l7.3,3.95.45,4.59,2-.79C414.21,205.72,413.3,207.09,411.91,208.32Z"/><path class="cls-82" d="M409,181.32c1.13-3.35,3.32-5.75,4.9-5.39s1.94,3.3.81,6.59-3.32,5.77-4.9,5.47S407.82,184.7,409,181.32Z"/><path class="cls-83" d="M413.41,202.45c1.12-3.24,2.62-6.84,3-9.9,0,0-2.33-3.77-.69-7.16,0,0-1.45-5.69-4.54-5.09s-9.68,3.63-9.06,12C403.26,207.42,413.41,202.45,413.41,202.45Z"/><path class="cls-80" d="M413.31,201.91c1.24-3,2.72-6.3,3.12-9.36,0,0-2.33-3.77-.69-7.16,0,0-1.45-5.69-4.54-5.09s-10.28,3.87-9.06,12C404.15,205.61,413.31,201.91,413.31,201.91Z"/><path class="cls-83" d="M413.68,186.21l.15,0a14,14,0,0,0,1.81-.55c-1.43,3.33.79,6.92.79,6.92-.36,2.78-1.64,6-2.71,9,.66-2.5,2-6.48,0-7.61C411.05,192.42,413,186.92,413.68,186.21Z"/><path class="cls-84" d="M414.25,189.84c-.06-.74-1.06-1-1,.29C413.22,190.83,414.23,191.13,414.25,189.84Z"/><path class="cls-85" d="M414,189.92c0-.49-.71-.67-.69.2C413.27,190.59,413.94,190.79,414,189.92Z"/><path class="cls-86" d="M414.06,190c0,.19-.15.37-.06.36s.17-.18.19-.37,0-.33-.12-.32S414.08,189.81,414.06,190Z"/><path class="cls-9" d="M413.38,189.89c0,.13.05.22.11.2s.11-.12.11-.25-.05-.22-.11-.2S413.38,189.76,413.38,189.89Z"/><path class="cls-87" d="M416.43,192.55c.37.83,1.56,3.82-1.37,8.54,0,0-8.38,9.79-12.23-2.9C409.35,195,411.74,198.54,416.43,192.55Z"/><path class="cls-80" d="M411.82,196.08c1.54-.42,4-2.06,3.86-2.57s-3.44-3-2-7.3l-1.55.68Z"/><path class="cls-88" d="M415,193.42c-.15-.5-3.08-2.83-2-6.91l.69-.3c-1.44,4.32,1.84,6.79,2,7.3s-2.32,2.15-3.86,2.57v-.35C413.31,195.11,415.09,193.85,415,193.42Z"/><path class="cls-87" d="M413.05,180.76s2.43-4.6.75-4.91-12,1-14.73,12.94c0,0,1.76,9.86,5.1,13.29,0,0,1-.25.88-2.94-.16-3.61-2-9.72-.71-12.07C406.51,183,413.05,180.76,413.05,180.76Z"/><path class="cls-89" d="M399.07,188.79a17.91,17.91,0,0,1,3.9-8C414.13,175.81,402.66,185.81,399.07,188.79Z"/><path class="cls-83" d="M410.61,190.38c-.59.2-3.27,1.25-3.27,1.25a9,9,0,0,1,2.63-1.91Z"/><path class="cls-80" d="M403.76,194.52c-.89-.74-1.51.6-1.55,1.47s1.35,2.59,1.89,1.53A3.37,3.37,0,0,0,403.76,194.52Z"/><path class="cls-85" d="M411.77,200.26c1.77-.59,2.89-3.16,2.62-3.48s-4.36.49-5.06,1.49S411,200.54,411.77,200.26Z"/><path class="cls-90" d="M414.23,196.72l-.35.75-3.51,1s-.65-.28-.59-.53C409.94,197.24,413.31,196.48,414.23,196.72Z"/><path class="cls-88" d="M403.55,195.34c-.52-.43-.93,0-1.11.6.06-.69.54-1.65,1.21-1.09a2.68,2.68,0,0,1,.34,2.2A2.69,2.69,0,0,0,403.55,195.34Z"/><path class="cls-88" d="M403.56,195.9c-.41-.26-.68.11-.78.52,0-.49.29-1.2.83-.87a1.79,1.79,0,0,1,.39,1.5A1.75,1.75,0,0,0,403.56,195.9Z"/><path class="cls-87" d="M410.08,181c1.24-1.79,4.4-4.78,2.36-7.3,0,0,4.2.56.77,6.45Z"/><path class="cls-87" d="M410.87,179.36c.53-1.24,2.12-3.53.45-4.62,0,0,2.75-.42,1.42,3.59Z"/><path class="cls-84" d="M409.51,191.88c-.06-.75-1.06-1-1,.3C408.48,192.9,409.49,193.19,409.51,191.88Z"/><path class="cls-85" d="M409.22,192c0-.5-.71-.67-.69.21C408.53,192.65,409.2,192.84,409.22,192Z"/><path class="cls-86" d="M409.32,192c0,.19-.15.38-.06.36s.17-.17.19-.37,0-.34-.12-.33S409.34,191.85,409.32,192Z"/><path class="cls-9" d="M408.57,191.9c0,.12.05.21.1.19s.11-.12.11-.25,0-.21-.11-.2S408.57,191.77,408.57,191.9Z"/><path class="cls-91" d="M392.79,228.31,427,215.88s-.59-7.11-2.86-9.85a6.82,6.82,0,0,0-.79-.82,5.78,5.78,0,0,0-1.25-.86c-2.79-1.42-7.9.3-7.9.3s-1.95,4.28-5.32,5.53-4.45-1.51-4.45-1.51-1.73.53-6.11,4.1a15.13,15.13,0,0,0-4.26,6.34C392.85,222.34,392.79,228.31,392.79,228.31Z"/><path class="cls-92" d="M392.79,228.31,427,215.88s-.59-7.11-2.86-9.85l-30.08,13.08C392.85,222.34,392.79,228.31,392.79,228.31Z"/><path class="cls-93" d="M410.76,186.23c.14-.88-.2-1.06-.25-1.12a5.67,5.67,0,0,0-.89.61,14,14,0,0,0-3.07,3.6l.22.06S410.1,186.7,410.76,186.23Z"/><path class="cls-93" d="M415.47,186.16s.57-.09.33-.87-1.82-.5-1.82-.5-.7.12-.69.22a2.46,2.46,0,0,0,.38,1.18Z"/></g></g></g></svg>