<svg xmlns="http://www.w3.org/2000/svg" width="47.601" height="47.671" viewBox="0 0 47.601 47.671">
    <defs>
        <style>
            .cls-1{fill:#3373e9}
        </style>
    </defs>
    <g id="phone-call" transform="translate(-.344)">
        <g id="Group_676" data-name="Group 676" transform="translate(.344)">
            <path id="Path_856" d="M37.985 54.179a4.689 4.689 0 0 0-3.4-1.559 4.848 4.848 0 0 0-3.441 1.549l-3.179 3.169c-.262-.141-.523-.272-.775-.4-.362-.181-.7-.352-1-.533a34.555 34.555 0 0 1-8.28-7.546 20.386 20.386 0 0 1-2.71-4.289c.825-.755 1.59-1.539 2.334-2.294.282-.282.563-.573.845-.855a4.616 4.616 0 0 0 0-6.962l-2.747-2.747a42.196 42.196 0 0 1-.936-.956 44.62 44.62 0 0 0-1.892-1.871 4.763 4.763 0 0 0-3.37-1.479 4.928 4.928 0 0 0-3.424 1.479l-.02.02-3.421 3.451a7.361 7.361 0 0 0-2.183 4.679A17.637 17.637 0 0 0 1.674 44.5a43.321 43.321 0 0 0 7.7 12.838 47.347 47.347 0 0 0 15.762 12.345A24.564 24.564 0 0 0 33.99 72.3c.211.01.433.02.634.02a7.581 7.581 0 0 0 5.805-2.5c.01-.02.03-.03.04-.05a22.873 22.873 0 0 1 1.761-1.821c.433-.413.875-.845 1.308-1.3a5.019 5.019 0 0 0 1.519-3.481 4.835 4.835 0 0 0-1.549-3.451zm3.6 10.594c-.01 0-.01.01 0 0-.392.423-.795.8-1.227 1.227a26.455 26.455 0 0 0-1.942 2.012 4.85 4.85 0 0 1-3.783 1.6c-.151 0-.312 0-.463-.01a21.822 21.822 0 0 1-7.848-2.354 44.692 44.692 0 0 1-14.85-11.631 40.846 40.846 0 0 1-7.243-12.063 14.366 14.366 0 0 1-1.127-6.3 4.619 4.619 0 0 1 1.388-2.988l3.431-3.431a2.287 2.287 0 0 1 1.529-.714 2.152 2.152 0 0 1 1.469.7l.03.03c.614.573 1.2 1.167 1.811 1.8.312.322.634.644.956.976l2.747 2.747a1.92 1.92 0 0 1 0 3.119c-.292.292-.573.584-.865.865-.845.865-1.65 1.67-2.525 2.455-.02.02-.04.03-.05.05a2.052 2.052 0 0 0-.523 2.284l.03.091a22.052 22.052 0 0 0 3.25 5.3l.01.01a36.928 36.928 0 0 0 8.934 8.129 13.737 13.737 0 0 0 1.238.674c.362.181.7.352 1 .533.04.02.08.05.121.07a2.181 2.181 0 0 0 1 .252 2.151 2.151 0 0 0 1.529-.694l3.441-3.441a2.276 2.276 0 0 1 1.519-.755 2.049 2.049 0 0 1 1.449.734l.02.02 5.544 5.544a1.989 1.989 0 0 1 .001 3.159z" class="cls-1" data-name="Path 856" transform="translate(-.344 -24.649)"/>
            <path id="Path_857" d="M246.062 88.62a12.949 12.949 0 0 1 10.544 10.544 1.35 1.35 0 0 0 1.338 1.127 1.8 1.8 0 0 0 .231-.02 1.36 1.36 0 0 0 1.117-1.57 15.657 15.657 0 0 0-12.758-12.758 1.365 1.365 0 0 0-1.57 1.107 1.344 1.344 0 0 0 1.098 1.57z" class="cls-1" data-name="Path 857" transform="translate(-220.334 -77.28)"/>
            <path id="Path_858" d="M271.361 21.029A25.781 25.781 0 0 0 250.353.021a1.356 1.356 0 1 0-.443 2.679 23.028 23.028 0 0 1 18.774 18.774 1.35 1.35 0 0 0 1.338 1.127 1.8 1.8 0 0 0 .231-.02 1.333 1.333 0 0 0 1.108-1.552z" class="cls-1" data-name="Path 858" transform="translate(-223.78)"/>
        </g>
    </g>
</svg>
