<svg xmlns="http://www.w3.org/2000/svg" width="34.733" height="49.536" viewBox="0 0 34.733 49.536">
    <defs>
        <style>
            .cls-1{fill:#3373e9}
        </style>
    </defs>
    <g id="Group_724" data-name="Group 724" transform="translate(-1227 -1420.902)">
        <g id="Group_722" data-name="Group 722" transform="translate(1227 1420.902)">
            <g id="Group_678" data-name="Group 678">
                <path id="Path_860" d="M17.6 153.9A17.386 17.386 0 0 0 .233 171.267c0 5.945 2.828 12.337 8.406 19 .829.99 1.655 1.907 2.447 2.744-3.6.983-5.764 2.749-5.764 4.81 0 3.649 6.325 5.618 12.276 5.618s12.276-1.969 12.276-5.618c0-2.06-2.162-3.826-5.761-4.809a56.542 56.542 0 0 0 4.453-5.3 1.039 1.039 0 1 0-1.672-1.232 55.763 55.763 0 0 1-5.365 6.2 1.038 1.038 0 0 0-.453.449 58.732 58.732 0 0 1-3.478 3.164 58.558 58.558 0 0 1-3.431-3.124 1.039 1.039 0 0 0-.521-.517c-4.7-4.732-11.338-12.906-11.338-21.385a15.289 15.289 0 0 1 30.578 0 23.4 23.4 0 0 1-3.729 11.816 1.039 1.039 0 0 0 1.785 1.062 25.418 25.418 0 0 0 4.02-12.878A17.385 17.385 0 0 0 17.6 153.9zm-.636 44.552a1.039 1.039 0 0 0 1.271 0 52.791 52.791 0 0 0 4.176-3.714c3.5.714 5.387 2.09 5.387 3.08 0 .739-1.013 1.612-2.645 2.276a20.708 20.708 0 0 1-7.554 1.265c-6.226 0-10.2-2.1-10.2-3.541 0-.991 1.884-2.366 5.389-3.08a52.781 52.781 0 0 0 4.176 3.716z" class="cls-1" data-name="Path 860" transform="translate(-.233 -153.902)"/>
            </g>
        </g>
        <g id="Group_723" data-name="Group 723" transform="translate(1236.816 1430.717)">
            <g id="Group_680" data-name="Group 680">
                <path id="Path_861" d="M78.738 224.854a7.489 7.489 0 0 0-4.517 1.5 1.039 1.039 0 1 0 1.244 1.664 5.459 5.459 0 1 1-1.988 2.874 1.039 1.039 0 1 0-2-.573 7.552 7.552 0 1 0 7.259-5.464z" class="cls-1" data-name="Path 861" transform="translate(-71.187 -224.854)"/>
            </g>
        </g>
    </g>
</svg>
