<svg xmlns="http://www.w3.org/2000/svg" viewBox="0 0 82.71 56.3"><defs><style>.cls-1,.cls-2,.cls-3{fill:#f46555;isolation:isolate;}.cls-1{opacity:0.13;}.cls-2{opacity:0.28;}.cls-3{opacity:0.78;}.cls-4{fill:#fff;fill-rule:evenodd;}</style></defs><title>Group 552</title><g id="Layer_2" data-name="Layer 2"><g id="Layer_1-2" data-name="Layer 1"><g id="Group_552" data-name="Group 552"><rect id="Rectangle_62" data-name="Rectangle 62" class="cls-1" width="82.71" height="56.3" rx="5"/><rect id="Rectangle_61" data-name="Rectangle 61" class="cls-2" x="5.56" y="3.47" width="71.59" height="49.35" rx="5"/><rect id="Rectangle_60" data-name="Rectangle 60" class="cls-3" x="11.82" y="8.34" width="59.08" height="39.62" rx="5"/><g id="music-player-play"><path id="Path_788" data-name="Path 788" class="cls-4" d="M47,27,36.65,20.5a1.81,1.81,0,0,0-1-.15,1,1,0,0,0-1.14.84,1.22,1.22,0,0,0,0,.27V34.75a1,1,0,0,0,.92,1.1h.22a1.91,1.91,0,0,0,1-.15L47,29.2c.84-.5.7-1.1.7-1.1S47.81,27.51,47,27Z"/></g></g></g></g></svg>