<?xml version="1.0" encoding="utf-8"?>
<!-- Generator: Adobe Illustrator 23.0.3, SVG Export Plug-In . SVG Version: 6.00 Build 0)  -->
<svg version="1.1" id="Layer_1" xmlns="http://www.w3.org/2000/svg" xmlns:xlink="http://www.w3.org/1999/xlink" x="0px" y="0px"
	 viewBox="0 0 73 52" style="enable-background:new 0 0 73 52;" xml:space="preserve">
<style type="text/css">
	.st0{fill:#F2F2F2;}
</style>
<title>Artboard 34</title>
<g>
	<path class="st0" d="M71,0H43c-1.1,0-2,0.9-2,2c0,0,0,0,0,0v28c0,1.1,0.9,2,2,2c0,0,0,0,0,0h18v2c0,3.3-2.7,6-6,6h-4
		c-1.1,0-2,0.9-2,2c0,0,0,0,0,0v8c0,1.1,0.9,2,2,2c0,0,0,0,0,0h4c9.1,0,18-8.9,18-18V2C73,0.9,72.1,0,71,0C71,0,71,0,71,0z"/>
	<path class="st0" d="M30,0H2C0.9,0,0,0.9,0,2c0,0,0,0,0,0v28c0,1.1,0.9,2,2,2c0,0,0,0,0,0h18v2c0,3.3-2.7,6-6,6h-4
		c-1.1,0-2,0.9-2,2c0,0,0,0,0,0v8c0,1.1,0.9,2,2,2c0,0,0,0,0,0h4c9.1,0,18-8.9,18-18V2C32,0.9,31.1,0,30,0C30,0,30,0,30,0z"/>
</g>
</svg>
