<svg xmlns="http://www.w3.org/2000/svg" viewBox="0 0 986.8 203.3" enable-background="new 0 0 986.8 203.3"><style type="text/css">.st0{fill:#D52A28;} .st1{fill:#FFFFFF;}</style><path d="M107.9 78c-.3 0-.5 0-.8 0s-.5 0-.8 0h-24v43.4h24c.2 0 .5 0 .7 0 .2 0 .5 0 .7 0h.8v-.1c9.7-.9 17.3-10.2 17.3-21.7 0-11.4-7.6-20.8-17.3-21.7h-.6zM54.3 123.2V50s38.2 0 52 0 18.2 2.9 18.2 2.9l31.3-30.2c-15.7-11.3-35.1-18-55.9-18C47 4.7 4 47.7 4 100.7c0 21 6.7 40.4 18.1 56.1l32.2-33.6zM177.2 43.7l-30.1 30s1.4 2.9 3.5 8.3 4.2 13.8 2.8 23.4-4 21.1-13.6 30.9-18.9 12.9-30.5 13.1c-11.6.2-37.8 0-37.8 0l-28.6 28.3c16 11.9 35.7 18.9 57.2 18.9 53 0 95.9-43 95.9-95.9-.1-21.4-7.1-41.1-18.8-57zM304.5 101.5c-3 4-7.5 6.7-13.3 8.1 1.6 1 2.9 2.1 3.8 3.3.9 1.3 1.9 3.1 3 5.7l10.9 25.2H298l-10.7-24.3c-1.2-2.8-2.7-4.7-4.4-5.7-1.7-1-4.4-1.6-8.3-1.6h-17.7v31.6h-10.7V60.1H283c8.8 0 15.3 2.3 19.5 6.8 4.2 4.5 6.4 10.9 6.4 19.2.2 6.3-1.3 11.4-4.4 15.4zm-6.1-15.4c0-11.7-5.6-17.5-16.8-17.5H257V104h23.1c12.2-.1 18.3-6 18.3-17.9zM331.2 60.1h56.6v8.5h-45.9v29.2H383v8.3h-41.2v29.4h45.9v8.3h-56.6V60.1zM443.1 143.9h-10.7V68.6h-27.8v-8.5h66.3v8.5h-27.8v75.3zM482.6 143.9h-11l31.8-83.7h12.5l31.7 83.7h-10.9l-8.8-23h-36.4l-8.9 23zm10.7-31.5h32.6l-16.4-43-16.2 43zM569.7 60.1h10.7v83.7h-10.7V60.1zM660.3 135.5v8.3h-55.2V60.1h10.7v75.4h44.5zM685.7 60.1h37.4c13.3 0 23.5 3.4 30.4 10.1 6.9 6.7 10.3 17.5 10.3 32.3 0 14.1-3.4 24.5-10.3 31.3-6.9 6.7-17 10.1-30.4 10.1h-37.4V60.1zm34.3 65c4.3 0 7.8-.6 10.5-1.9 2.7-1.3 4.7-3.5 6.2-6.8s2.1-7.9 2.1-14c0-6.2-.6-10.9-1.9-14.4-1.3-3.4-3.3-5.8-6-7.2-2.7-1.4-6.3-2.1-10.9-2.1h-9.9V125h9.9zM779.4 60.1h24.4v83.7h-24.4V60.1zM816.8 60.1h25.5l19.5 55.4 19.5-55.4h25.6l-32.1 83.7H849l-32.2-83.7zM917.3 60.1h63.4v18.7h-39v13.7H976v19h-34.2v13.7h39v18.7h-63.4V60.1z" class="st1"/></svg>