<?xml version="1.0" encoding="utf-8"?>
<!-- Generator: Adobe Illustrator 23.0.4, SVG Export Plug-In . SVG Version: 6.00 Build 0)  -->
<svg version="1.1" id="Layer_1" xmlns="http://www.w3.org/2000/svg" xmlns:xlink="http://www.w3.org/1999/xlink" x="0px" y="0px"
	 viewBox="0 0 2426.5 410.9" style="enable-background:new 0 0 2426.5 410.9;" xml:space="preserve">
<style type="text/css">
	.st0{fill-rule:evenodd;clip-rule:evenodd;}
</style>
<g>
	<path class="st0" d="M1896.3,238.9c-19.6,106.6-94,143-160.8,143h-364.3V56c0-22.5,6-26,25.4-38.4l-136.9-1.4
		c7.3,3.6,27.8,13.9,27.8,38l-0.5,314.7c0,26.5-11.1,36-27.4,41.8l479.2-0.2c124.3,0.5,174.8-47.2,210.9-90
		c39.4-46.3,60.3-131.8,15.6-205.4c-32.1-53.1-92.6-97.8-161.7-108.6c-16-2.5-36.3-6.5-61.5-6.5c-25,0-47.7,2.9-65.3,6.5
		c-57,13.5-129.6,50.4-162.8,111.1c-34.3,63-17.1,131.4,8.3,169.6c22.9,35.3,77.7,81.7,151.2,84.1l2.2-0.9
		c-48.3-25-72.8-70.4-87.7-131.6c-11.1-46.8-3.1-116.5,37.6-160.4c30.3-32.2,75.3-49.7,116.5-50.2c41.6,0.5,84.6,16,114.7,48.1
		C1897.9,120.3,1904.8,194.5,1896.3,238.9L1896.3,238.9z M435.1,379.4l-122-155c135.4-21.6,122-211.2-38.7-211.2H0
		c18.7,6.5,31.2,16,31.2,34.2v321.8c0.2,15.1-10.2,32.4-24.3,41.2h130.5c-14-7.2-27.8-27.7-27.8-40V231h111.8l134.5,179.9l115.1-0.2
		C458.7,404.8,446.5,394,435.1,379.4L435.1,379.4z M221.1,202.2H109.5l-0.5-159.7L241.8,42C337.8,42.5,360.7,200.4,221.1,202.2
		L221.1,202.2z M935.2,57.2c-9.8-21.6,1.8-34,18.7-41.2H800.2c16,12.6,34.3,21.8,41.4,46.1l173.5,348.4h40.5L1218,50.5
		c9.3-21.4,18.5-26.5,27.8-34.4h-90.4c16.5,4.7,29.8,19.1,19.4,42.3l-119.1,264.3L935.2,57.2L935.2,57.2z M2054.2,365.3
		c0,23.8-20.5,40-28.5,45.2h87.5c-8-5.2-27.2-17.8-27.2-41.6V89.9l273.2,320.5h40.1V53.7c0-23.8,19.4-32.4,27.2-37.6h-87.1
		c7.8,5.2,28.3,17.3,28.3,40.9l-0.5,230.8L2131.4,16.2h-125.8c13.4,6.8,48.6,21.4,48.6,54V365.3L2054.2,365.3z M791.2,16h-318
		c15.1,8.1,28.9,14.2,28.9,38.7L502,370.5c0,21.8-8.9,31.7-24,40h328.9l31-95.4c-16,18.9-54.1,66.3-123.6,66.1L588.8,381V222.7h91.3
		c28.9,0,44.1,16,53.7,31.3v-94c-13.6,19.4-25.6,32.8-53.9,32.8h-91.1V43.6l128.5,0.4c54.1,0.5,77.3,34.9,89.3,55.1L791.2,16
		L791.2,16z"/>
</g>
</svg>
