<svg xmlns="http://www.w3.org/2000/svg" width="44.428" height="57.5" viewBox="0 0 44.428 57.5">
    <defs>
        <style>
            .cls-1{fill:#cecece}
        </style>
    </defs>
    <g id="selective" transform="translate(-58.197)">
        <g id="Group_859" data-name="Group 859" transform="translate(59.14 10.107)">
            <g id="Group_858" data-name="Group 858">
                <path id="Path_964" d="M109.814 98.827a2.242 2.242 0 0 0-1.982-1.19h-6.38a6.4 6.4 0 0 0-12.6 0h-6.466a4.941 4.941 0 1 0-8.277 0h-5.27a2.246 2.246 0 0 0-1.864 3.5l15.071 22.411v12.722a1.123 1.123 0 0 0 1.571 1.03l10.332-4.5a1.123 1.123 0 0 0 .675-1.03v-8.223l15.076-22.411a2.242 2.242 0 0 0 .114-2.309zM95.151 94.6a4.162 4.162 0 0 1 4 3.032h-8a4.162 4.162 0 0 1 4-3.032zm-16.9-2.358a2.7 2.7 0 1 1-2.7 2.7 2.7 2.7 0 0 1 2.697-2.696zm14.322 30.332a1.123 1.123 0 0 0-.191.627v7.83l-8.086 3.521v-10.224h4.057a1.123 1.123 0 0 0 0-2.246h-4.586l-11.3-16.808h22.684a1.123 1.123 0 0 0 0-2.246h-24.2l-2.111-3.145h38.992z" class="cls-1" data-name="Path 964" transform="translate(-66.593 -90)"/>
            </g>
        </g>
        <g id="Group_861" data-name="Group 861" transform="translate(79.774)">
            <g id="Group_860" data-name="Group 860">
                <path id="Path_965" d="M255.265 0a4.941 4.941 0 1 0 4.941 4.941A4.947 4.947 0 0 0 255.265 0zm0 7.637a2.7 2.7 0 1 1 2.7-2.7 2.7 2.7 0 0 1-2.7 2.7z" class="cls-1" data-name="Path 965" transform="translate(-250.324)"/>
            </g>
        </g>
        <g id="Group_863" data-name="Group 863" transform="translate(95.594 5.428)">
            <g id="Group_862" data-name="Group 862">
                <path id="Path_966" d="M392.32 48.333a1.123 1.123 0 0 0-1.123 1.123v6.383a1.123 1.123 0 1 0 2.246 0v-6.383a1.123 1.123 0 0 0-1.123-1.123z" class="cls-1" data-name="Path 966" transform="translate(-391.197 -48.333)"/>
            </g>
        </g>
        <g id="Group_865" data-name="Group 865" transform="translate(95.594 1.741)">
            <g id="Group_864" data-name="Group 864">
                <path id="Path_967" d="M393.114 15.829a1.122 1.122 0 1 0 .329.794 1.132 1.132 0 0 0-.329-.794z" class="cls-1" data-name="Path 967" transform="translate(-391.197 -15.5)"/>
            </g>
        </g>
        <g id="Group_867" data-name="Group 867" transform="translate(73.49 1.432)">
            <g id="Group_866" data-name="Group 866">
                <path id="Path_968" d="M195.5 12.755a1.123 1.123 0 0 0-1.123 1.123v4.6a1.123 1.123 0 1 0 2.246 0v-4.6a1.123 1.123 0 0 0-1.123-1.123z" class="cls-1" data-name="Path 968" transform="translate(-194.375 -12.755)"/>
            </g>
        </g>
        <g id="Group_869" data-name="Group 869" transform="translate(58.197)">
            <g id="Group_868" data-name="Group 868">
                <path id="Path_969" d="M59.32 0a1.123 1.123 0 0 0-1.12 1.123v7.319a1.123 1.123 0 0 0 2.246 0V1.123A1.123 1.123 0 0 0 59.32 0z" class="cls-1" data-name="Path 969" transform="translate(-58.197)"/>
            </g>
        </g>
        <g id="Group_871" data-name="Group 871" transform="translate(58.197 11.53)">
            <g id="Group_870" data-name="Group 870">
                <path id="Path_970" d="M60.114 103a1.122 1.122 0 1 0 .329.794 1.127 1.127 0 0 0-.329-.794z" class="cls-1" data-name="Path 970" transform="translate(-58.197 -102.67)"/>
            </g>
        </g>
        <g id="Group_873" data-name="Group 873" transform="translate(91.568 23.135)">
            <g id="Group_872" data-name="Group 872">
                <path id="Path_971" d="M357.264 206.329a1.122 1.122 0 1 0 .329.794 1.132 1.132 0 0 0-.329-.794z" class="cls-1" data-name="Path 971" transform="translate(-355.347 -206)"/>
            </g>
        </g>
    </g>
</svg>
