<?xml version="1.0" encoding="utf-8"?>
<!-- Generator: Adobe Illustrator 23.0.3, SVG Export Plug-In . SVG Version: 6.00 Build 0)  -->
<svg version="1.1" id="setting" xmlns="http://www.w3.org/2000/svg" xmlns:xlink="http://www.w3.org/1999/xlink" x="0px" y="0px"
	 viewBox="0 0 47.3 47.3" style="enable-background:new 0 0 47.3 47.3;" xml:space="preserve">
<style type="text/css">
	.st0{fill:#CECECE;}
</style>
<g id="Group_455" transform="translate(22.725 6.466)">
	<g id="Group_454">
		<path id="Path_746" class="st0" d="M18.1,14.3c0-0.5-0.3-0.8-0.8-0.9L15,13l-1.2-2.8l1.4-1.9c0.3-0.4,0.2-0.9-0.1-1.2L11,3
			c-0.3-0.3-0.8-0.4-1.2-0.1L7.9,4.2L5.1,3.1L4.7,0.8C4.6,0.3,4.3,0,3.8,0H0.9C0.4,0,0,0.4,0,0.9c0,0.5,0.4,0.9,0.9,0.9c0,0,0,0,0,0
			H3l0.3,2c0.1,0.3,0.3,0.6,0.6,0.7l3.8,1.6C8,6.3,8.3,6.2,8.6,6l1.7-1.2l3,3L12,9.5c-0.2,0.3-0.2,0.6-0.1,0.9l1.6,3.8
			c0.1,0.3,0.4,0.5,0.7,0.6l2,0.3v4.2l-2,0.3c-0.3,0.1-0.6,0.3-0.7,0.6L11.9,24c-0.1,0.3-0.1,0.6,0.1,0.9l1.2,1.7l-3,3l-1.7-1.2
			c-0.3-0.2-0.6-0.2-0.9-0.1l-3.8,1.6c-0.3,0.1-0.5,0.4-0.6,0.7l-0.3,2H0.9c-0.5,0-0.9,0.4-0.9,0.9c0,0.5,0.4,0.9,0.9,0.9h2.9
			c0.5,0,0.8-0.3,0.9-0.8l0.4-2.3l2.9-1.2l1.9,1.4c0.4,0.3,0.9,0.2,1.2-0.1l4.1-4.1c0.3-0.3,0.4-0.8,0.1-1.2l-1.4-1.9l1.2-2.9
			l2.3-0.4c0.4-0.1,0.8-0.5,0.8-0.9L18.1,14.3z"/>
	</g>
</g>
<g id="Group_457" transform="translate(22.725 29.693)">
	<g id="Group_456">
		<path id="Path_747" class="st0" d="M0.9,0C0.4,0,0,0.4,0,0.9c0,0.5,0.4,0.9,0.9,0.9h0c0.5,0,0.9-0.5,0.9-1C1.8,0.4,1.4,0,0.9,0
			L0.9,0z"/>
	</g>
</g>
<g id="Group_459" transform="translate(22.725 15.757)">
	<g id="Group_458">
		<path id="Path_748" class="st0" d="M0.9,0C0.4,0,0,0.4,0,0.9c0,0.5,0.4,0.9,0.9,0.9l0,0c3.3,0,6,2.7,6,6c0,2.2-1.2,4.3-3.2,5.4
			c-0.5,0.2-0.6,0.8-0.4,1.2s0.8,0.6,1.2,0.4c0,0,0,0,0,0c3.9-2,5.3-6.8,3.3-10.7C6.5,1.6,3.9,0,0.9,0L0.9,0z"/>
	</g>
</g>
<g id="Group_461" transform="translate(0 41.015)">
	<g id="Group_460">
		<path id="Path_749" class="st0" d="M5.4,0H0.9C0.4,0,0,0.4,0,0.9c0,0,0,0,0,0v4.4c0,0.5,0.4,0.9,0.9,0.9c0,0,0,0,0,0h4.4
			c0.5,0,0.9-0.4,0.9-0.9l0,0V0.9C6.3,0.4,5.9,0,5.4,0C5.4,0,5.4,0,5.4,0z M4.4,4.4H1.8V1.8h2.6V4.4z"/>
	</g>
</g>
<g id="Group_463" transform="translate(41.015 41.015)">
	<g id="Group_462">
		<path id="Path_750" class="st0" d="M5.4,0H0.9C0.4,0,0,0.4,0,0.9c0,0,0,0,0,0v4.4c0,0.5,0.4,0.9,0.9,0.9c0,0,0,0,0,0h4.4
			c0.5,0,0.9-0.4,0.9-0.9c0,0,0,0,0,0V0.9C6.3,0.4,5.9,0,5.4,0C5.4,0,5.4,0,5.4,0z M4.4,4.4H1.8V1.8h2.6V4.4z"/>
	</g>
</g>
<g id="Group_465">
	<g id="Group_464">
		<path id="Path_751" class="st0" d="M5.4,0H0.9C0.4,0,0,0.4,0,0.9c0,0,0,0,0,0v4.4c0,0.5,0.4,0.9,0.9,0.9h4.4
			c0.5,0,0.9-0.4,0.9-0.9V0.9C6.3,0.4,5.9,0,5.4,0z M4.4,4.4H1.8V1.8h2.6V4.4z"/>
	</g>
</g>
<g id="Group_467" transform="translate(41.015)">
	<g id="Group_466">
		<path id="Path_752" class="st0" d="M5.4,0H0.9C0.4,0,0,0.4,0,0.9c0,0,0,0,0,0v4.4c0,0.5,0.4,0.9,0.9,0.9l0,0h4.4
			c0.5,0,0.9-0.4,0.9-0.9c0,0,0,0,0,0V0.9C6.3,0.4,5.9,0,5.4,0C5.4,0,5.4,0,5.4,0z M4.4,4.4H1.8V1.8h2.6V4.4z"/>
	</g>
</g>
<g id="Group_469" transform="translate(43.232 35.803)">
	<g id="Group_468">
		<path id="Path_753" class="st0" d="M0.9,0C0.4,0,0,0.4,0,0.9c0,0,0,0,0,0v0.9c0,0.5,0.4,0.9,0.9,0.9c0.5,0,0.9-0.4,0.9-0.9
			c0,0,0,0,0,0V0.9C1.8,0.4,1.4,0,0.9,0C0.9,0,0.9,0,0.9,0L0.9,0z"/>
	</g>
</g>
<g id="Group_471" transform="translate(43.232 31.184)">
	<g id="Group_470">
		<path id="Path_754" class="st0" d="M0.9,0C0.4,0,0,0.4,0,0.9c0,0,0,0,0,0v0.9c0,0.5,0.4,0.9,0.9,0.9c0.5,0,0.9-0.4,0.9-0.9
			c0,0,0,0,0,0V0.9C1.8,0.4,1.4,0,0.9,0C0.9,0,0.9,0,0.9,0L0.9,0z"/>
	</g>
</g>
<g id="Group_473" transform="translate(43.232 8.87)">
	<g id="Group_472">
		<path id="Path_755" class="st0" d="M0.9,0C0.4,0,0,0.4,0,0.9c0,0,0,0,0,0v0.1C0,1.6,0.4,2,0.9,2s0.9-0.4,0.9-0.9c0,0,0,0,0,0V0.9
			C1.8,0.4,1.4,0,0.9,0L0.9,0L0.9,0z"/>
	</g>
</g>
<g id="Group_475" transform="translate(43.232 26.565)">
	<g id="Group_474">
		<path id="Path_756" class="st0" d="M0.9,0C0.4,0,0,0.4,0,0.9c0,0,0,0,0,0v0.9c0,0.5,0.4,0.9,0.9,0.9c0.5,0,0.9-0.4,0.9-0.9V0.9
			C1.8,0.4,1.4,0,0.9,0C0.9,0,0.9,0,0.9,0L0.9,0z"/>
	</g>
</g>
<g id="Group_477" transform="translate(43.232 12.708)">
	<g id="Group_476">
		<path id="Path_757" class="st0" d="M0.9,0C0.4,0,0,0.4,0,0.9l0,0v0.9c0,0.5,0.4,0.9,0.9,0.9s0.9-0.4,0.9-0.9c0,0,0,0,0,0V0.9
			C1.8,0.4,1.4,0,0.9,0L0.9,0L0.9,0z"/>
	</g>
</g>
<g id="Group_479" transform="translate(43.232 21.946)">
	<g id="Group_478">
		<path id="Path_758" class="st0" d="M0.9,0C0.4,0,0,0.4,0,0.9l0,0v0.9c0,0.5,0.4,0.9,0.9,0.9s0.9-0.4,0.9-0.9c0,0,0,0,0,0V0.9
			C1.8,0.4,1.4,0,0.9,0L0.9,0L0.9,0z"/>
	</g>
</g>
<g id="Group_481" transform="translate(43.232 17.327)">
	<g id="Group_480">
		<path id="Path_759" class="st0" d="M0.9,0C0.4,0,0,0.4,0,0.9l0,0v0.9c0,0.5,0.4,0.9,0.9,0.9s0.9-0.4,0.9-0.9c0,0,0,0,0,0V0.9
			C1.8,0.4,1.4,0,0.9,0L0.9,0L0.9,0z"/>
	</g>
</g>
<g id="Group_483" transform="translate(2.217 21.946)">
	<g id="Group_482">
		<path id="Path_760" class="st0" d="M0.9,0C0.4,0,0,0.4,0,0.9v0.9c0,0.5,0.4,0.9,0.9,0.9c0.5,0,0.9-0.4,0.9-0.9c0,0,0,0,0,0V0.9
			C1.8,0.4,1.4,0,0.9,0z"/>
	</g>
</g>
<g id="Group_485" transform="translate(2.217 26.565)">
	<g id="Group_484">
		<path id="Path_761" class="st0" d="M0.9,0C0.4,0,0,0.4,0,0.9l0,0v0.9c0,0.5,0.4,0.9,0.9,0.9c0.5,0,0.9-0.4,0.9-0.9V0.9
			C1.8,0.4,1.4,0,0.9,0C0.9,0,0.9,0,0.9,0z"/>
	</g>
</g>
<g id="Group_487" transform="translate(2.217 8.87)">
	<g id="Group_486">
		<path id="Path_762" class="st0" d="M0.9,0C0.4,0,0,0.4,0,0.9l0,0v0.1C0,1.6,0.4,2,0.9,2c0.5,0,0.9-0.4,0.9-0.9c0,0,0,0,0,0V0.9
			C1.8,0.4,1.4,0,0.9,0C0.9,0,0.9,0,0.9,0z"/>
	</g>
</g>
<g id="Group_489" transform="translate(2.217 17.327)">
	<g id="Group_488">
		<path id="Path_763" class="st0" d="M0.9,0C0.4,0,0,0.4,0,0.9v0.9c0,0.5,0.4,0.9,0.9,0.9c0.5,0,0.9-0.4,0.9-0.9V0.9
			C1.8,0.4,1.4,0,0.9,0z"/>
	</g>
</g>
<g id="Group_491" transform="translate(2.217 31.184)">
	<g id="Group_490">
		<path id="Path_764" class="st0" d="M0.9,0C0.4,0,0,0.4,0,0.9l0,0v0.9c0,0.5,0.4,0.9,0.9,0.9c0.5,0,0.9-0.4,0.9-0.9V0.9
			C1.8,0.4,1.4,0,0.9,0C0.9,0,0.9,0,0.9,0z"/>
	</g>
</g>
<g id="Group_493" transform="translate(2.217 12.708)">
	<g id="Group_492">
		<path id="Path_765" class="st0" d="M0.9,0C0.4,0,0,0.4,0,0.9v0.9c0,0.5,0.4,0.9,0.9,0.9c0.5,0,0.9-0.4,0.9-0.9c0,0,0,0,0,0V0.9
			C1.8,0.4,1.4,0,0.9,0z"/>
	</g>
</g>
<g id="Group_495" transform="translate(2.217 35.803)">
	<g id="Group_494">
		<path id="Path_766" class="st0" d="M0.9,0C0.4,0,0,0.4,0,0.9l0,0v0.9c0,0.5,0.4,0.9,0.9,0.9c0.5,0,0.9-0.4,0.9-0.9V0.9
			C1.8,0.4,1.4,0,0.9,0C0.9,0,0.9,0,0.9,0z"/>
	</g>
</g>
<g id="Group_497" transform="translate(27.272 43.306)">
	<g id="Group_496">
		<path id="Path_767" class="st0" d="M1.8,0H0.9C0.4,0,0,0.4,0,0.9c0,0.5,0.4,0.9,0.9,0.9h0.9c0.5,0,0.9-0.4,0.9-0.9
			C2.8,0.4,2.4,0,1.8,0z"/>
	</g>
</g>
<g id="Group_499" transform="translate(18.035 43.306)">
	<g id="Group_498">
		<path id="Path_768" class="st0" d="M1.8,0H0.9C0.4,0,0,0.4,0,0.9c0,0.5,0.4,0.9,0.9,0.9h0.9c0.5,0,0.9-0.4,0.9-0.9S2.4,0,1.8,0
			C1.9,0,1.8,0,1.8,0z"/>
	</g>
</g>
<g id="Group_501" transform="translate(22.653 43.306)">
	<g id="Group_500">
		<path id="Path_769" class="st0" d="M1.8,0H0.9C0.4,0,0,0.4,0,0.9s0.4,0.9,0.9,0.9c0,0,0,0,0,0h0.9c0.5,0,0.9-0.4,0.9-0.9
			S2.4,0,1.8,0C1.9,0,1.8,0,1.8,0z"/>
	</g>
</g>
<g id="Group_503" transform="translate(13.416 43.306)">
	<g id="Group_502">
		<path id="Path_770" class="st0" d="M1.8,0H0.9C0.4,0,0,0.4,0,0.9c0,0.5,0.4,0.9,0.9,0.9h0.9c0.5,0,0.9-0.4,0.9-0.9S2.4,0,1.8,0
			C1.9,0,1.8,0,1.8,0z"/>
	</g>
</g>
<g id="Group_505" transform="translate(31.891 43.306)">
	<g id="Group_504">
		<path id="Path_771" class="st0" d="M1.8,0H0.9C0.4,0,0,0.4,0,0.9c0,0.5,0.4,0.9,0.9,0.9c0,0,0,0,0,0h0.9c0.5,0,0.9-0.4,0.9-0.9
			C2.8,0.4,2.4,0,1.8,0C1.9,0,1.8,0,1.8,0z"/>
	</g>
</g>
<g id="Group_507" transform="translate(8.797 43.306)">
	<g id="Group_506">
		<path id="Path_772" class="st0" d="M1.8,0H0.9C0.4,0,0,0.4,0,0.9c0,0.5,0.4,0.9,0.9,0.9h0.9c0.5,0,0.9-0.4,0.9-0.9
			C2.8,0.4,2.4,0,1.8,0z"/>
	</g>
</g>
<g id="Group_509" transform="translate(36.51 43.306)">
	<g id="Group_508">
		<path id="Path_773" class="st0" d="M1.1,0H0.9C0.4,0,0,0.4,0,0.9c0,0.5,0.4,0.9,0.9,0.9h0.1C1.6,1.9,2,1.4,2,0.9
			C2,0.4,1.6,0,1.1,0C1.1,0,1.1,0,1.1,0z"/>
	</g>
</g>
<g id="Group_511" transform="translate(27.272 2.291)">
	<g id="Group_510">
		<path id="Path_774" class="st0" d="M1.8,0H0.9C0.4,0,0,0.4,0,0.9c0,0.5,0.4,0.9,0.9,0.9h0.9c0.5,0,0.9-0.4,0.9-0.9
			C2.8,0.4,2.4,0,1.8,0z"/>
	</g>
</g>
<g id="Group_513" transform="translate(22.653 2.291)">
	<g id="Group_512">
		<path id="Path_775" class="st0" d="M1.8,0H0.9C0.4,0,0,0.4,0,0.9c0,0.5,0.4,0.9,0.9,0.9c0,0,0,0,0,0h0.9c0.5,0,0.9-0.4,0.9-0.9
			C2.8,0.4,2.4,0,1.8,0z"/>
	</g>
</g>
<g id="Group_515" transform="translate(36.51 2.291)">
	<g id="Group_514">
		<path id="Path_776" class="st0" d="M1.1,0H0.9C0.4,0,0,0.4,0,0.9c0,0.5,0.4,0.9,0.9,0.9h0.1C1.6,1.8,2,1.4,2,0.9
			C2,0.4,1.6,0,1.1,0z"/>
	</g>
</g>
<g id="Group_517" transform="translate(31.891 2.291)">
	<g id="Group_516">
		<path id="Path_777" class="st0" d="M1.8,0H0.9C0.4,0,0,0.4,0,0.9c0,0.5,0.4,0.9,0.9,0.9h0.9c0.5,0,0.9-0.4,0.9-0.9S2.4,0,1.8,0
			C1.8,0,1.8,0,1.8,0z"/>
	</g>
</g>
<g id="Group_519" transform="translate(18.035 2.291)">
	<g id="Group_518">
		<path id="Path_778" class="st0" d="M1.8,0H0.9C0.4,0,0,0.4,0,0.9c0,0.5,0.4,0.9,0.9,0.9c0,0,0,0,0,0h0.9c0.5,0,0.9-0.4,0.9-0.9
			C2.8,0.4,2.4,0,1.8,0z"/>
	</g>
</g>
<g id="Group_521" transform="translate(13.416 2.291)">
	<g id="Group_520">
		<path id="Path_779" class="st0" d="M1.8,0H0.9C0.4,0,0,0.4,0,0.9c0,0.5,0.4,0.9,0.9,0.9c0,0,0,0,0,0h0.9c0.5,0,0.9-0.4,0.9-0.9
			C2.8,0.4,2.4,0,1.8,0z"/>
	</g>
</g>
<g id="Group_523" transform="translate(8.797 2.291)">
	<g id="Group_522">
		<path id="Path_780" class="st0" d="M1.8,0H0.9C0.4,0,0,0.4,0,0.9c0,0.5,0.4,0.9,0.9,0.9h0.9c0.5,0,0.9-0.4,0.9-0.9
			C2.8,0.4,2.4,0,1.8,0z"/>
	</g>
</g>
<g id="Group_525" transform="translate(13.129 19.861)">
	<g id="Group_524">
		<path id="Path_781" class="st0" d="M1.6,0.3c-0.4-0.4-0.9-0.4-1.3,0c-0.4,0.4-0.4,0.9,0,1.3c0.4,0.4,0.9,0.4,1.3,0
			c0.2-0.2,0.3-0.4,0.3-0.7C1.8,0.7,1.7,0.4,1.6,0.3z"/>
	</g>
</g>
<g id="Group_527" transform="translate(13.129 6.02)">
	<g id="Group_526">
		<path id="Path_782" class="st0" d="M5.8,0H2C0.9,0,0,0.9,0,2v9.6c0,0.5,0.4,0.9,0.9,0.9c0.5,0,0.9-0.4,0.9-0.9v-4h4.1v18.7H1.8
			v-7.8c0-0.5-0.4-0.9-0.9-0.9c-0.5,0-0.9,0.4-0.9,0.9l0,0v8.8c0,0.1,0,0.3,0.1,0.4l3,6.8c0.2,0.5,0.7,0.7,1.2,0.5
			c0.2-0.1,0.4-0.3,0.5-0.5l3-6.8c0.1-0.1,0.1-0.2,0.1-0.4V2C7.8,0.9,6.9,0,5.8,0L5.8,0z M3.9,31.6l-1.5-3.5h3.1L3.9,31.6z M5.9,5.7
			H1.8V2c0-0.1,0.1-0.1,0.1-0.1l0,0h3.8c0.1,0,0.1,0.1,0.1,0.1v0L5.9,5.7z"/>
	</g>
</g>
</svg>
