<svg xmlns="http://www.w3.org/2000/svg" width="51.681" height="41.991" viewBox="0 0 51.681 41.991">
    <defs>
        <style>
            .cls-1{fill:#cecece}
        </style>
    </defs>
    <g id="share-video">
        <path id="Path_784" d="M49.66 21.725h-2.12V3.033A3.035 3.035 0 0 0 44.51 0H3.03A3.035 3.035 0 0 0 0 3.033V29.39a3.036 3.036 0 0 0 3.03 3.035h28.423v7.541a2.024 2.024 0 0 0 2.02 2.024H49.66a2.025 2.025 0 0 0 2.021-2.024V23.748a2.024 2.024 0 0 0-2.021-2.024zM3.03 30.4a1.012 1.012 0 0 1-1.009-1.01V3.034A1.012 1.012 0 0 1 3.03 2.022h41.48a1.012 1.012 0 0 1 1.01 1.011v18.692H33.472a2.024 2.024 0 0 0-2.02 2.024V30.4zm46.63 9.564H33.472V23.748H49.66zm0 0" class="cls-1" data-name="Path 784"/>
        <path id="Path_785" d="M50.7 262.054h-9.1a1.012 1.012 0 0 1 0-2.023h9.1a1.012 1.012 0 0 1 0 2.023zm0 0" class="cls-1" data-name="Path 785" transform="translate(-36.489 -233.784)"/>
        <path id="Path_787" d="M350.453 251.819a2.408 2.408 0 0 0-1.563.581c-.12.1-.072.091-.185.052a2.493 2.493 0 0 1-.28-.14l-1.731-.866a.923.923 0 0 1-.237-.118c-.08-.087-.019-.26-.024-.392s-.047-.177.035-.251a1.318 1.318 0 0 1 .278-.14l1.722-.865a1.307 1.307 0 0 1 .236-.119c.017 0 .042-.031.06-.03.052 0 .169.139.218.176a2.4 2.4 0 1 0-.884-2.461 2.459 2.459 0 0 0-.056.363c0 .062-.007.125-.007.187a1.278 1.278 0 0 1 .02.3c-.058.088-.331.166-.422.212l-.876.44-.809.406a.869.869 0 0 1-.219.111c-.1.01-.263-.185-.353-.246a2.4 2.4 0 1 0 .115 3.9c.091-.07.151-.171.251-.16a1.015 1.015 0 0 1 .264.132l1.7.852a2.523 2.523 0 0 1 .28.14c.1.07.08.02.069.188a2.4 2.4 0 1 0 2.394-2.253zm-.4-4.726a.829.829 0 0 1 .961.153.8.8 0 1 1-.961-.153zm-6.015 4.72a.8.8 0 1 1 .8-.832.8.8 0 0 1-.803.832zm7.218 2.411a.8.8 0 1 1-.862-.8.8.8 0 0 1 .862.8zm0 0" class="cls-1" data-name="Path 787" transform="translate(-305.677 -219.152)"/>
        <g id="Group_527" data-name="Group 527" transform="rotate(33 9.045 52.428)">
            <g id="Group_526" data-name="Group 526">
                <path id="Path_782" d="M146.555 65.168h-2.912a1.519 1.519 0 0 0-1.517 1.517v7.343a.708.708 0 1 0 1.416 0v-3.076h3.115v14.3h-3.115v-6.009a.708.708 0 1 0-1.416 0v6.714a.707.707 0 0 0 .059.284l2.265 5.178a.708.708 0 0 0 1.3 0l2.265-5.178a.707.707 0 0 0 .059-.284V66.685a1.519 1.519 0 0 0-1.519-1.517zm-1.456 24.2l-1.183-2.7h2.366zm1.557-19.832h-3.115v-2.851a.1.1 0 0 1 .1-.1h2.912a.1.1 0 0 1 .1.1z" class="cls-1" data-name="Path 782" transform="translate(-142.126 -65.168)"/>
            </g>
        </g>
    </g>
</svg>
