<svg xmlns="http://www.w3.org/2000/svg" width="51.681" height="41.991" viewBox="0 0 51.681 41.991">
    <defs>
        <style>
            .cls-1{fill:#cecece}
        </style>
    </defs>
    <g id="share-video" transform="translate(0 .001)">
        <path id="Path_783" d="M181.4 108.545a1.011 1.011 0 0 1-1.01-1.012V96.386a1.01 1.01 0 0 1 1.537-.863l9.1 5.574a1.012 1.012 0 0 1 0 1.726l-9.1 5.574a1.007 1.007 0 0 1-.527.149zm1.01-10.355v7.54l6.157-3.77zm0 0" class="cls-1" data-name="Path 783" transform="translate(-162.179 -85.747)"/>
        <path id="Path_784" d="M49.66 21.725h-2.12V3.033A3.035 3.035 0 0 0 44.51 0H3.03A3.035 3.035 0 0 0 0 3.033V29.39a3.036 3.036 0 0 0 3.03 3.035h28.423v7.541a2.024 2.024 0 0 0 2.02 2.024H49.66a2.025 2.025 0 0 0 2.021-2.024V23.748a2.024 2.024 0 0 0-2.021-2.024zM3.03 30.4a1.012 1.012 0 0 1-1.009-1.01V3.034A1.012 1.012 0 0 1 3.03 2.022h41.48a1.012 1.012 0 0 1 1.01 1.011v18.692H33.472a2.024 2.024 0 0 0-2.02 2.024V30.4zm46.63 9.564H33.472V23.748H49.66zm0 0" class="cls-1" data-name="Path 784"/>
        <path id="Path_785" d="M50.7 262.054h-9.1a1.012 1.012 0 0 1 0-2.023h9.1a1.012 1.012 0 0 1 0 2.023zm0 0" class="cls-1" data-name="Path 785" transform="translate(-36.489 -233.784)"/>
        <path id="Path_786" d="M166.882 262.054a1.012 1.012 0 0 1 0-2.023 1.012 1.012 0 0 1 0 2.023zm0 0" class="cls-1" data-name="Path 786" transform="translate(-149.128 -233.784)"/>
        <path id="Path_787" d="M352.773 253.509a3.041 3.041 0 0 0-1.975.734c-.152.131-.091.115-.234.065a3.151 3.151 0 0 1-.354-.177l-2.187-1.093a1.165 1.165 0 0 1-.3-.149c-.1-.11-.024-.329-.03-.495s-.059-.224.044-.317a1.666 1.666 0 0 1 .351-.177l2.175-1.093a1.652 1.652 0 0 1 .3-.15c.022-.006.052-.039.075-.038.066 0 .213.175.275.222a3.03 3.03 0 1 0-1.117-3.109 3.107 3.107 0 0 0-.071.459 3.109 3.109 0 0 0-.009.237 1.614 1.614 0 0 1 .025.379c-.073.112-.418.21-.533.268l-1.106.556-1.022.513a1.1 1.1 0 0 1-.277.14c-.12.013-.332-.234-.446-.311a3.035 3.035 0 1 0 .146 4.928c.114-.088.191-.216.317-.2a1.282 1.282 0 0 1 .334.167l2.154 1.076a3.185 3.185 0 0 1 .354.177c.131.088.1.026.087.237a3.029 3.029 0 1 0 3.025-2.846zm-.509-5.97a1.047 1.047 0 0 1 1.214.193 1.01 1.01 0 1 1-1.214-.193c.01-.005-.314.172.001 0zm-7.6 5.963a1.012 1.012 0 1 1 1.009-1.051 1.012 1.012 0 0 1-1.007 1.049zm9.118 3.046a1.01 1.01 0 1 1-1.089-1.013 1.015 1.015 0 0 1 1.089 1.013zm0 0" class="cls-1" data-name="Path 787" transform="translate(-307.153 -220.629)"/>
    </g>
</svg>
