<svg xmlns="http://www.w3.org/2000/svg" width="35.991" height="29.242" viewBox="0 0 35.991 29.242">
    <defs>
        <style>
            .cls-1{fill:#cecece}
        </style>
    </defs>
    <g id="share-video">
        <path id="Path_783" d="M181.091 104.546a.7.7 0 0 1-.7-.7v-7.768a.7.7 0 0 1 1.07-.6l6.34 3.882a.7.7 0 0 1 0 1.2l-6.34 3.882a.7.7 0 0 1-.367.1zm.7-7.211v5.251l4.288-2.625zm0 0" class="cls-1" data-name="Path 783" transform="translate(-167.707 -88.67)"/>
        <path id="Path_784" d="M34.583 15.129h-1.476V2.112A2.114 2.114 0 0 0 31 0H2.11A2.114 2.114 0 0 0 0 2.112v18.355a2.114 2.114 0 0 0 2.11 2.113H21.9v5.252a1.41 1.41 0 0 0 1.406 1.409h11.277a1.41 1.41 0 0 0 1.407-1.409V16.538a1.41 1.41 0 0 0-1.407-1.409zM2.11 21.172a.705.705 0 0 1-.7-.7V2.112a.7.7 0 0 1 .7-.7H31a.7.7 0 0 1 .7.7v13.017h-8.39a1.409 1.409 0 0 0-1.41 1.409v4.634zm32.473 6.66H23.31V16.538h11.273zm0 0" class="cls-1" data-name="Path 784" transform="translate(0 .001)"/>
        <path id="Path_785" d="M47.63 261.44h-6.34a.7.7 0 0 1 0-1.409h6.34a.7.7 0 0 1 0 1.409zm0 0" class="cls-1" data-name="Path 785" transform="translate(-37.733 -241.752)"/>
        <path id="Path_786" d="M166.575 261.44a.7.7 0 0 1 0-1.409.7.7 0 0 1 0 1.409zm0 0" class="cls-1" data-name="Path 786" transform="translate(-154.212 -241.752)"/>
        <path id="Path_787" d="M349.392 251.047a2.118 2.118 0 0 0-1.375.511c-.106.091-.063.08-.163.046a2.2 2.2 0 0 1-.247-.123l-1.523-.761a.811.811 0 0 1-.208-.1c-.07-.076-.017-.229-.021-.345s-.041-.156.031-.22a1.161 1.161 0 0 1 .245-.123l1.515-.761a1.148 1.148 0 0 1 .208-.1c.015 0 .036-.027.052-.026.046 0 .149.122.191.155a2.11 2.11 0 1 0-.778-2.165 2.167 2.167 0 0 0-.049.319c0 .055-.006.11-.006.165a1.124 1.124 0 0 1 .018.264c-.051.078-.291.146-.371.186l-.77.387-.712.358a.764.764 0 0 1-.193.1c-.084.009-.231-.163-.31-.216a2.114 2.114 0 1 0 .1 3.432c.08-.061.133-.15.221-.141a.893.893 0 0 1 .232.116l1.5.75a2.226 2.226 0 0 1 .247.123c.091.061.07.018.06.165a2.109 2.109 0 1 0 2.106-1.982zm-.354-4.158a.729.729 0 0 1 .845.134.7.7 0 1 1-.845-.134zm-5.292 4.152a.7.7 0 1 1 .7-.732.7.7 0 0 1-.7.732zm6.35 2.121a.7.7 0 1 1-.758-.705.707.707 0 0 1 .758.705zm0 0" class="cls-1" data-name="Path 787" transform="translate(-317.622 -228.148)"/>
    </g>
</svg>
