<svg xmlns="http://www.w3.org/2000/svg" width="14.897" height="14.272" viewBox="0 0 14.897 14.272">
    <defs>
        <style>
            .cls-1{fill:#fff}
        </style>
    </defs>
    <path id="star" d="M14.573 7.515a1.068 1.068 0 0 0-.592-1.822l-3.607-.524a.471.471 0 0 1-.355-.258L8.406 1.642a1.068 1.068 0 0 0-1.916 0L4.877 4.911a.472.472 0 0 1-.355.258l-3.607.524a1.068 1.068 0 0 0-.593 1.822l2.61 2.544a.472.472 0 0 1 .136.418l-.616 3.592a1.046 1.046 0 0 0 .233.866 1.08 1.08 0 0 0 1.315.26l3.226-1.7a.483.483 0 0 1 .439 0l3.226 1.7a1.057 1.057 0 0 0 .5.124 1.071 1.071 0 0 0 .82-.384 1.045 1.045 0 0 0 .233-.866l-.616-3.592a.472.472 0 0 1 .136-.418z" class="cls-1" transform="translate(.001 -1.047)"/>
</svg>
