<?xml version="1.0" encoding="utf-8"?>
<!-- Generator: Adobe Illustrator 23.0.4, SVG Export Plug-In . SVG Version: 6.00 Build 0)  -->
<svg version="1.1" id="Layer_1" xmlns="http://www.w3.org/2000/svg" xmlns:xlink="http://www.w3.org/1999/xlink" x="0px" y="0px"
	 viewBox="0 0 32.6 42.2" style="enable-background:new 0 0 32.6 42.2;" xml:space="preserve">
<style type="text/css">
	.st0{fill:#CECECE;}
</style>
<g id="Asset_3" transform="translate(-.016)">
	<g transform="translate(.016)">
		<g id="Group_416" transform="translate(0 10.985)">
			<path id="Path_726" class="st0" d="M24.9,20.3c-0.1-0.3,0-0.7,0.3-0.9l6.2-4.6c1.2-0.9,1.5-2.7,0.6-3.9c-0.5-0.7-1.4-1.1-2.2-1.1
				h-7.7c-0.3,0-0.7-0.2-0.8-0.5l-2.4-7.3c-0.5-1.5-2-2.3-3.5-1.8c-0.8,0.3-1.5,0.9-1.8,1.8l-1.1,3.3c-0.2,0.5,0.1,1.1,0.7,1.2
				c0.5,0.1,1-0.1,1.2-0.6l1.1-3.3C15.6,2.2,15.9,2,16.3,2c0.3,0,0.7,0.2,0.8,0.6l2.4,7.3c0.4,1.1,1.4,1.9,2.6,1.9h7.7
				c0.4,0,0.8,0.4,0.8,0.8c0,0.2-0.1,0.5-0.3,0.6L24,17.8c-1,0.7-1.4,2-1,3.1l2.3,7.3c0.1,0.4-0.1,0.9-0.6,1c-0.2,0.1-0.5,0-0.7-0.1
				l-6.2-4.4c-1-0.7-2.3-0.7-3.3,0l-6.2,4.5c-0.4,0.2-0.9,0.2-1.1-0.2c-0.1-0.2-0.2-0.4-0.1-0.7l2.4-7.4c0.4-1.1-0.1-2.4-1-3.1
				l-6.2-4.6c-0.4-0.3-0.4-0.8-0.2-1.1c0.1-0.2,0.4-0.3,0.6-0.3h7.7c0.5-0.1,0.9-0.5,0.9-1.1c0-0.5-0.4-0.8-0.9-0.9H2.8
				C1.2,9.8,0,11,0,12.6c0,0.9,0.4,1.7,1.1,2.2l6.2,4.6c0.3,0.2,0.4,0.5,0.3,0.9l-2.3,7.3c-0.4,1.1,0,2.4,1,3.1
				c0.5,0.3,1,0.5,1.6,0.5c0.6,0,1.1-0.2,1.6-0.5l6.2-4.5c0.3-0.2,0.7-0.2,0.9,0l6.3,4.5c1.3,0.9,3,0.6,3.9-0.7
				c0.5-0.7,0.6-1.6,0.4-2.4L24.9,20.3z"/>
		</g>
		<path id="Rectangle_32" class="st0" d="M2.2,10.1L2.2,10.1c0.2-0.2,0.6-0.2,0.8,0l4.3,4.3c0.2,0.2,0.2,0.6,0,0.8l0,0
			c-0.2,0.2-0.6,0.2-0.8,0l-4.3-4.3C2,10.6,2,10.3,2.2,10.1z"/>
		<path id="Rectangle_33" class="st0" d="M16.1,0L16.1,0c0.3,0,0.5,0.2,0.5,0.5v6c0,0.3-0.2,0.5-0.5,0.5l0,0c-0.3,0-0.5-0.2-0.5-0.5
			v-6C15.6,0.2,15.8,0,16.1,0z"/>
		<path id="Rectangle_34" class="st0" d="M32.1,10.1L32.1,10.1c0.2,0.2,0.2,0.6,0,0.8l-4.3,4.3c-0.2,0.2-0.6,0.2-0.8,0l0,0
			c-0.2-0.2-0.2-0.6,0-0.8l4.3-4.3C31.5,9.9,31.9,9.9,32.1,10.1z"/>
	</g>
</g>
</svg>
