<svg xmlns="http://www.w3.org/2000/svg" width="51.38" height="57.467" viewBox="0 0 51.38 57.467">
    <defs>
        <style>
            .cls-1{fill:#cecece}
        </style>
    </defs>
    <g id="tap" transform="rotate(45 74.998 52.305)">
        <g id="Group_877" data-name="Group 877" transform="translate(5.387 56.553)">
            <g id="Group_876" data-name="Group 876">
                <path id="Path_977" d="M92.631 96.074l-7.831-8.61a3.989 3.989 0 0 0-5.641.013 3.9 3.9 0 0 0-1.013 1.723 3.992 3.992 0 0 0-6.254 2.082 3.993 3.993 0 0 0-5.241.363 3.944 3.944 0 0 0-1 1.682l-3.693-3.693a3.989 3.989 0 0 0-5.641 5.641L70.5 109.461l-8.415 1.321a4.668 4.668 0 0 0-3.988 4.6 3.13 3.13 0 0 0 3.126 3.126h19.653a11.385 11.385 0 0 0 8.1-3.357l3.278-3.278a11.447 11.447 0 0 0 .373-15.8zM90.784 110.4l-3.278 3.278a9.316 9.316 0 0 1-6.631 2.746H61.227a1.042 1.042 0 0 1-1.042-1.042 2.578 2.578 0 0 1 2.215-2.538l10.45-1.642a1.041 1.041 0 0 0 .575-1.765L57.791 93.8a1.905 1.905 0 0 1 2.695-2.694l10.425 10.425a1.042 1.042 0 1 0 1.471-1.475L68.125 95.8a1.905 1.905 0 0 1 2.694-2.694l4.259 4.259a1.042 1.042 0 1 0 1.471-1.475l-2.173-2.173a1.905 1.905 0 0 1 2.694-2.694l2.185 2.177a1.042 1.042 0 0 0 1.452-1.494l-.09-.09a1.906 1.906 0 0 1 2.659-2.73l7.8 8.575a9.366 9.366 0 0 1-.306 12.922z" class="cls-1" data-name="Path 977" transform="translate(-55.153 -86.302)"/>
            </g>
        </g>
        <g id="Group_879" data-name="Group 879" transform="translate(0 53.333)">
            <g id="Group_878" data-name="Group 878">
                <path id="Path_978" d="M17.913 58.861A9.368 9.368 0 1 0 5.528 71.248a1.043 1.043 0 0 0 .859-1.9 7.284 7.284 0 1 1 9.627-9.627 1.042 1.042 0 1 0 1.9-.858z" class="cls-1" data-name="Path 978" transform="translate(0 -53.333)"/>
            </g>
        </g>
    </g>
</svg>
