<svg xmlns="http://www.w3.org/2000/svg" id="team_1_" width="78.281" height="78.281" data-name="team (1)" viewBox="0 0 78.281 78.281">
    <defs>
        <style>
            .cls-1{fill:#3073ea}
        </style>
    </defs>
    <g id="Group_818" data-name="Group 818">
        <path id="Path_929" d="M69.549 65.805l-1.286-.516A39.142 39.142 0 0 0 71.5 17.122a1.225 1.225 0 0 0-.2-.281 39.249 39.249 0 0 0-6.819-7.526 1.236 1.236 0 0 0-1.6 1.883 36.806 36.806 0 0 1 5.594 5.948 54.522 54.522 0 0 1-9.263 2.573 44.158 44.158 0 0 0-3.556-8 28.313 28.313 0 0 0-6.415-7.839 36.454 36.454 0 0 1 10.4 4.854 1.236 1.236 0 1 0 1.384-2.048 39.141 39.141 0 0 0-50.992 58.62l-1.27.5a7.022 7.022 0 0 0-4.445 6.812v4.429a1.237 1.237 0 0 0 1.236 1.237h18.194a1.226 1.226 0 0 0 .175-.014 1.228 1.228 0 0 0 .175.014h5.029a1.236 1.236 0 1 0 0-2.472h-3.792V71.5a6.041 6.041 0 0 1 3.711-5.9l.057-.021 6.019-2.357c.013.014.025.029.039.042l3.2 3.116a1.237 1.237 0 0 0 .862.351h.019a1.234 1.234 0 0 0 .87-.378l3.071-3.187 6.011 2.411.059.022a6.042 6.042 0 0 1 3.72 5.9v4.3H32.991a1.236 1.236 0 0 0 0 2.472h39.761a1.243 1.243 0 0 0 1.236-1.245v-4.411a7.022 7.022 0 0 0-4.439-6.81zm-3.74-1.5l-1.218-.489v-.7a6.463 6.463 0 0 0 2.873-3.563 3.491 3.491 0 0 0 1.931-6.189v-2.2A8.34 8.34 0 0 0 62.12 42.9a66.1 66.1 0 0 0 .094-2.528h13.572a36.495 36.495 0 0 1-9.977 23.934zm-4.462-2.783H60.22a3.965 3.965 0 0 1-3.961-3.961v-3.27a12.778 12.778 0 0 0 6.659-2.573 5.56 5.56 0 0 0 2.39 2.29v3.553a3.965 3.965 0 0 1-3.961 3.962zm.772 2.424v.685l-1.377 1.429-1.294-1.26v-.854a6.468 6.468 0 0 0 .772.048h1.127a6.437 6.437 0 0 0 .772-.047zM55.027 51.9c-.043 0-.085 0-.126.006l-.04.006c-.028 0-.056.007-.083.013l-.055.014-.063.016-.039.014v-.806a5.864 5.864 0 0 1 5.858-5.858h.591a5.864 5.864 0 0 1 5.857 5.858v.8l-.071-.019-.034-.01c-1.723-.392-2.287-2.692-2.291-2.709a1.236 1.236 0 0 0-2.207-.451c-2.242 3.091-7.232 3.126-7.297 3.126zm12.753 5v-1.664a1.02 1.02 0 0 1 0 1.666zm2.151-37.676A36.6 36.6 0 0 1 75.786 37.9H62.214a62.389 62.389 0 0 0-2.264-15.812 55.156 55.156 0 0 0 9.981-2.862zM59.742 37.9H47.088a10.088 10.088 0 0 0-6.711-3.3V23.975a111.442 111.442 0 0 0 17.133-1.441A59.757 59.757 0 0 1 59.742 37.9zm-10.9 12.907a1.591 1.591 0 0 1-1.162 1.533v-3.057a1.592 1.592 0 0 1 1.159 1.529zM40.377 2.541c4.919.525 9.546 4.175 13.143 10.415a41.454 41.454 0 0 1 3.24 7.2A109.527 109.527 0 0 1 40.376 21.5V2.541zm-.784 34.5a7.644 7.644 0 0 1 7.635 7.636v1.51l-.028-.017-.055-.041-.045-.029a1.674 1.674 0 0 0-.056-.034l-.054-.028-.052-.025c-.022-.01-.044-.018-.066-.026l-.046-.017a1.075 1.075 0 0 0-.076-.021l-.034-.01c-2.348-.534-3.092-3.6-3.1-3.622a1.236 1.236 0 0 0-2.207-.451c-2.894 4-9.288 4.042-9.373 4.042-.043 0-.085 0-.126.006l-.039.006c-.028 0-.056.007-.084.013l-.052.013c-.022.006-.044.01-.066.017s-.039.014-.059.022l-.054.02-.066.031-.042.02c-.022.012-.043.026-.065.039l-.037.023c-.02.013-.039.028-.058.043l-.037.028-.033.03v-1.54a7.644 7.644 0 0 1 7.635-7.636h.739zm-21.054.859a59.76 59.76 0 0 1 2.232-15.373A111.56 111.56 0 0 0 37.9 23.975v10.642a10.091 10.091 0 0 0-6.553 3.3 1.265 1.265 0 0 0-.137-.008H18.539zM30.8 49.27v3.083a1.587 1.587 0 0 1 0-3.083zm7.1-46.729V21.5a109.591 109.591 0 0 1-16.382-1.348 41.472 41.472 0 0 1 3.238-7.2c3.602-6.236 8.23-9.886 13.144-10.411zm-8.879 1.352a28.335 28.335 0 0 0-6.4 7.828 44.156 44.156 0 0 0-3.555 8 54.638 54.638 0 0 1-9.249-2.571A36.791 36.791 0 0 1 29.021 3.893zM8.362 19.232a55.273 55.273 0 0 0 9.97 2.853A62.382 62.382 0 0 0 16.067 37.9H2.5a36.439 36.439 0 0 1 5.862-18.668zm7.965 44.715A6.466 6.466 0 0 0 17.1 64h1.127a6.429 6.429 0 0 0 .773-.053v.685l-1.377 1.429-1.297-1.261v-.854zm1.9-2.424H17.1a3.965 3.965 0 0 1-3.961-3.961v-3.268A12.773 12.773 0 0 0 19.8 51.72a5.561 5.561 0 0 0 2.39 2.29v3.552a3.965 3.965 0 0 1-3.964 3.961zm3.18-12.3a1.236 1.236 0 0 0-2.207-.451c-2.24 3.1-7.233 3.13-7.294 3.13-.043 0-.085 0-.126.006l-.039.006c-.028 0-.056.007-.084.013l-.052.013c-.022.006-.044.01-.066.017l-.039.014v-.806a5.864 5.864 0 0 1 5.858-5.858h.591a5.864 5.864 0 0 1 5.851 5.858v.8c-.024-.008-.048-.014-.072-.02l-.032-.009c-1.722-.397-2.286-2.697-2.29-2.714zM2.5 40.377h13.567c.015.851.048 1.7.1 2.545a8.341 8.341 0 0 0-7.138 8.243v2.187a3.49 3.49 0 0 0 1.959 6.2 6.461 6.461 0 0 0 2.872 3.561v.7l-1.35.529A36.48 36.48 0 0 1 2.5 40.377zm8.17 14.832v1.72a1.021 1.021 0 0 1 0-1.72zm12.2 16.3v4.3H6.791v-3.194a4.6 4.6 0 0 1 2.8-4.482l.057-.021 4.662-1.826 2.476 2.414a1.236 1.236 0 0 0 .862.351h.02a1.234 1.234 0 0 0 .87-.378l2.34-2.428L23.77 67.4a9.231 9.231 0 0 0-.908 4.1zM34.788 60.7l-6.56 2.569a7.881 7.881 0 0 0-3.017 2.044l-3.741-1.5v-.7a6.463 6.463 0 0 0 2.873-3.564 3.491 3.491 0 0 0 1.931-6.189v-2.2a8.339 8.339 0 0 0-7.639-8.3 75.771 75.771 0 0 1-.1-2.489H29.71a10.044 10.044 0 0 0-.964 4.3v2.884a4.06 4.06 0 0 0 2.372 7.309 7.769 7.769 0 0 0 3.67 4.571V60.7zm-10.13-3.8v-1.664a1.02 1.02 0 0 1 0 1.666zm16.562 4.667v.079l-2.025 2.1-1.935-1.883v-1.555a7.741 7.741 0 0 0 1.275.107h1.41a7.773 7.773 0 0 0 1.275-.107zm-1.275-3.624h-1.41a5.269 5.269 0 0 1-5.263-5.263v-4.364a15.562 15.562 0 0 0 8.722-3.425 6.738 6.738 0 0 0 3.214 3.144v4.644a5.269 5.269 0 0 1-5.263 5.264zM53.1 65.326a7.887 7.887 0 0 0-3.02-2.051l-6.393-2.564v-1.268a7.768 7.768 0 0 0 3.67-4.573 4.059 4.059 0 0 0 2.338-7.3v-2.9a10.042 10.042 0 0 0-.964-4.3h11.011a59.2 59.2 0 0 1-.1 2.5 8.341 8.341 0 0 0-7.5 8.288v2.187a3.49 3.49 0 0 0 1.959 6.2 6.462 6.462 0 0 0 2.872 3.561v.7zm.682-10.117v1.72a1.021 1.021 0 0 1 0-1.72zm17.73 20.6H55.445V71.5a9.23 9.23 0 0 0-.9-4.088l2.886-1.13 2.476 2.418a1.236 1.236 0 0 0 .862.351h.019a1.235 1.235 0 0 0 .87-.378L64 66.243l4.652 1.865.056.021a4.6 4.6 0 0 1 2.809 4.486v3.194z" class="cls-1" data-name="Path 929"/>
    </g>
</svg>
