<svg xmlns="http://www.w3.org/2000/svg" xmlns:xlink="http://www.w3.org/1999/xlink" width="2476.326" height="2096.039" viewBox="0 0 2476.326 2096.039">
    <defs>
        <style>
            .cls-1,.cls-15{opacity:.1}.cls-2{fill:url(#linear-gradient)}.cls-13,.cls-14,.cls-15,.cls-3{fill:url(#linear-gradient-2)}.cls-4{fill:url(#linear-gradient-3)}.cls-5{fill:url(#linear-gradient-4)}.cls-6{fill:url(#linear-gradient-5)}.cls-7{fill:#4775d0;opacity:.06}.cls-8{opacity:.71}.cls-9{opacity:.17}.cls-10{fill:#204ea7}.cls-11{opacity:.11}.cls-12{fill:#395a9b;stroke:rgba(0,0,0,0);stroke-miterlimit:10}.cls-13{opacity:.05}.cls-14{opacity:.2}.cls-16{filter:url(#Ellipse_18-4)}.cls-17{filter:url(#Ellipse_19-4)}.cls-18{filter:url(#Ellipse_18-3)}.cls-19{filter:url(#Ellipse_19-3)}.cls-20{filter:url(#Ellipse_18-2)}.cls-21{filter:url(#Ellipse_19-2)}.cls-22{filter:url(#Ellipse_18)}.cls-23{filter:url(#Ellipse_19)}
        </style>
        <linearGradient id="linear-gradient" x1="-.862" x2="6.504" y1="1.364" y2="-3.31" gradientUnits="objectBoundingBox">
            <stop offset="0" stop-color="#1764b5"/>
            <stop offset="1" stop-color="#aad9ff"/>
        </linearGradient>
        <linearGradient id="linear-gradient-2" x1="-.435" x2="3.877" y1="1.094" y2="-1.643" xlink:href="#linear-gradient"/>
        <linearGradient id="linear-gradient-3" x1="-1.729" x2="3.804" y1="1.915" y2="-1.597" xlink:href="#linear-gradient"/>
        <linearGradient id="linear-gradient-4" x1="-2.004" x2="3.835" y1="2.089" y2="-1.616" xlink:href="#linear-gradient"/>
        <linearGradient id="linear-gradient-5" x1="-1.118" x2="4.721" y1="1.527" y2="-2.178" xlink:href="#linear-gradient"/>
        <filter id="Ellipse_19" width="210.959" height="210.959" x="373.675" y="933.976" filterUnits="userSpaceOnUse">
            <feOffset dy="10"/>
            <feGaussianBlur result="blur" stdDeviation="15"/>
            <feFlood flood-opacity=".129"/>
            <feComposite in2="blur" operator="in"/>
            <feComposite in="SourceGraphic"/>
        </filter>
        <filter id="Ellipse_18" width="162.599" height="162.598" x="397.855" y="958.156" filterUnits="userSpaceOnUse">
            <feOffset dy="10"/>
            <feGaussianBlur result="blur-2" stdDeviation="15"/>
            <feFlood flood-opacity=".129"/>
            <feComposite in2="blur-2" operator="in"/>
            <feComposite in="SourceGraphic"/>
        </filter>
        <filter id="Ellipse_19-2" width="182.786" height="182.785" x="661.675" y="1511.148" filterUnits="userSpaceOnUse">
            <feOffset dy="10"/>
            <feGaussianBlur result="blur-3" stdDeviation="15"/>
            <feFlood flood-opacity=".129"/>
            <feComposite in2="blur-3" operator="in"/>
            <feComposite in="SourceGraphic"/>
        </filter>
        <filter id="Ellipse_18-2" width="145.689" height="145.689" x="680.223" y="1529.696" filterUnits="userSpaceOnUse">
            <feOffset dy="10"/>
            <feGaussianBlur result="blur-4" stdDeviation="15"/>
            <feFlood flood-opacity=".129"/>
            <feComposite in2="blur-4" operator="in"/>
            <feComposite in="SourceGraphic"/>
        </filter>
        <filter id="Ellipse_19-3" width="210.959" height="210.959" x="1538.675" y="467.976" filterUnits="userSpaceOnUse">
            <feOffset dy="10"/>
            <feGaussianBlur result="blur-5" stdDeviation="15"/>
            <feFlood flood-opacity=".129"/>
            <feComposite in2="blur-5" operator="in"/>
            <feComposite in="SourceGraphic"/>
        </filter>
        <filter id="Ellipse_18-3" width="162.599" height="162.599" x="1562.855" y="492.156" filterUnits="userSpaceOnUse">
            <feOffset dy="10"/>
            <feGaussianBlur result="blur-6" stdDeviation="15"/>
            <feFlood flood-opacity=".129"/>
            <feComposite in2="blur-6" operator="in"/>
            <feComposite in="SourceGraphic"/>
        </filter>
        <filter id="Ellipse_19-4" width="252.526" height="252.525" x="965.675" y="877.976" filterUnits="userSpaceOnUse">
            <feOffset dy="10"/>
            <feGaussianBlur result="blur-7" stdDeviation="15"/>
            <feFlood flood-opacity=".129"/>
            <feComposite in2="blur-7" operator="in"/>
            <feComposite in="SourceGraphic"/>
        </filter>
        <filter id="Ellipse_18-4" width="187.546" height="187.547" x="998.164" y="910.465" filterUnits="userSpaceOnUse">
            <feOffset dy="10"/>
            <feGaussianBlur result="blur-8" stdDeviation="15"/>
            <feFlood flood-opacity=".129"/>
            <feComposite in2="blur-8" operator="in"/>
            <feComposite in="SourceGraphic"/>
        </filter>
    </defs>
    <g id="Group_665" data-name="Group 665" transform="translate(304.757 -3718.078)">
        <g id="Group_657" class="cls-1" data-name="Group 657" transform="translate(-7136.664 548.061)">
            <path id="Path_848" d="M7189.067 3490.836a19.83 19.83 0 0 0 14.065-5.827L7334.54 3353.6a19.89 19.89 0 1 0-28.13-28.128L7175 3456.881a19.891 19.891 0 0 0 14.063 33.955z" class="cls-2" data-name="Path 848" transform="translate(37.333 48.782)"/>
            <path id="Path_849" d="M7116.444 3527.593a19.021 19.021 0 0 0 13.493-5.589l254.2-254.2a19.082 19.082 0 0 0-26.986-26.986l-254.2 254.2a19.082 19.082 0 0 0 13.493 32.575z" class="cls-3" data-name="Path 849" transform="translate(13.921 21.261)"/>
            <path id="Path_850" d="M7147.223 3397.892a7.928 7.928 0 0 0 5.625-2.331l211.963-211.961a7.956 7.956 0 0 0-11.251-11.251L7141.6 3384.31a7.957 7.957 0 0 0 5.627 13.582z" class="cls-4" data-name="Path 850" transform="translate(27.581)"/>
            <path id="Path_851" d="M7232.142 3471.882a1.978 1.978 0 0 0 1.406-.582l211.963-211.962a1.989 1.989 0 0 0-2.812-2.814l-211.964 211.962a1.989 1.989 0 0 0 1.407 3.4z" class="cls-5" data-name="Path 851" transform="translate(57.213 28.013)"/>
            <path id="Path_852" d="M7056.652 3514.266a1.986 1.986 0 0 0 1.407-.582l211.962-211.962a1.989 1.989 0 0 0-2.812-2.812l-211.962 211.962a1.989 1.989 0 0 0 1.405 3.4z" class="cls-6" data-name="Path 852" transform="translate(0 41.83)"/>
        </g>
        <g id="Group_658" class="cls-1" data-name="Group 658" transform="translate(-5467.664 1445.061)">
            <path id="Path_848-2" d="M7189.067 3490.836a19.83 19.83 0 0 0 14.065-5.827L7334.54 3353.6a19.89 19.89 0 1 0-28.13-28.128L7175 3456.881a19.891 19.891 0 0 0 14.063 33.955z" class="cls-2" data-name="Path 848" transform="translate(37.333 48.782)"/>
            <path id="Path_849-2" d="M7116.444 3527.593a19.021 19.021 0 0 0 13.493-5.589l254.2-254.2a19.082 19.082 0 0 0-26.986-26.986l-254.2 254.2a19.082 19.082 0 0 0 13.493 32.575z" class="cls-3" data-name="Path 849" transform="translate(13.921 21.261)"/>
            <path id="Path_850-2" d="M7147.223 3397.892a7.928 7.928 0 0 0 5.625-2.331l211.963-211.961a7.956 7.956 0 0 0-11.251-11.251L7141.6 3384.31a7.957 7.957 0 0 0 5.627 13.582z" class="cls-4" data-name="Path 850" transform="translate(27.581)"/>
            <path id="Path_851-2" d="M7232.142 3471.882a1.978 1.978 0 0 0 1.406-.582l211.963-211.962a1.989 1.989 0 0 0-2.812-2.814l-211.964 211.962a1.989 1.989 0 0 0 1.407 3.4z" class="cls-5" data-name="Path 851" transform="translate(57.213 28.013)"/>
            <path id="Path_852-2" d="M7056.652 3514.266a1.986 1.986 0 0 0 1.407-.582l211.962-211.962a1.989 1.989 0 0 0-2.812-2.812l-211.962 211.962a1.989 1.989 0 0 0 1.405 3.4z" class="cls-6" data-name="Path 852" transform="translate(0 41.83)"/>
        </g>
        <g id="Group_659" data-name="Group 659">
            <g class="cls-23" transform="translate(-304.757 3718.074)">
                <circle id="Ellipse_19-5" cx="42.765" cy="42.765" r="42.765" class="cls-7" data-name="Ellipse 19" transform="rotate(-45 1452.003 9.35)"/>
            </g>
            <g class="cls-22" transform="translate(-304.757 3718.074)">
                <circle id="Ellipse_18-5" cx="25.667" cy="25.667" r="25.667" class="cls-7" data-name="Ellipse 18" transform="rotate(-45 1464.098 -19.85)"/>
            </g>
        </g>
        <g id="Group_734" data-name="Group 734">
            <g class="cls-21" transform="translate(-304.757 3718.077)">
                <circle id="Ellipse_19-6" cx="32.805" cy="32.805" r="32.805" class="cls-7" data-name="Ellipse 19" transform="rotate(-45 2275.7 -56.756)"/>
            </g>
            <g class="cls-20" transform="translate(-304.757 3718.077)">
                <circle id="Ellipse_18-6" cx="19.689" cy="19.689" r="19.689" class="cls-7" data-name="Ellipse 18" transform="rotate(-45 2284.976 -79.148)"/>
            </g>
        </g>
        <g id="Group_663" data-name="Group 663">
            <g class="cls-19" transform="translate(-304.757 3718.074)">
                <circle id="Ellipse_19-7" cx="42.765" cy="42.765" r="42.765" class="cls-7" data-name="Ellipse 19" transform="rotate(-45 1471.991 -1629.929)"/>
            </g>
            <g class="cls-18" transform="translate(-304.757 3718.074)">
                <circle id="Ellipse_18-7" cx="25.667" cy="25.667" r="25.667" class="cls-7" data-name="Ellipse 18" transform="rotate(-45 1484.086 -1659.129)"/>
            </g>
        </g>
        <g id="Group_666" class="cls-8" data-name="Group 666">
            <g class="cls-17" transform="translate(-304.757 3718.074)">
                <circle id="Ellipse_19-8" cx="57.461" cy="57.461" r="57.461" class="cls-7" data-name="Ellipse 19" transform="rotate(-45 1705.489 -722.867)"/>
            </g>
            <g class="cls-16" transform="translate(-304.757 3718.074)">
                <circle id="Ellipse_18-8" cx="34.488" cy="34.488" r="34.488" class="cls-7" data-name="Ellipse 18" transform="rotate(-45 1721.734 -762.086)"/>
            </g>
        </g>
        <g id="Group_660" class="cls-9" data-name="Group 660" transform="rotate(52 -2612.46 1391.865)">
            <g id="Group_536" data-name="Group 536" transform="translate(1742.744 1414.906)">
                <g id="Group_530" data-name="Group 530">
                    <path id="Path_789" d="M2026.606 815.919a4.781 4.781 0 1 1-5.474-3.972 4.781 4.781 0 0 1 5.474 3.972z" class="cls-10" data-name="Path 789" transform="translate(-2017.102 -792.603)"/>
                    <path id="Path_790" d="M2057.943 810.94a4.781 4.781 0 1 1-5.473-3.972 4.781 4.781 0 0 1 5.473 3.972z" class="cls-10" data-name="Path 790" transform="translate(-2002.089 -791.481)"/>
                    <path id="Path_791" d="M2089.281 805.962a4.78 4.78 0 1 1-5.471-3.973 4.782 4.782 0 0 1 5.471 3.973z" class="cls-10" data-name="Path 791" transform="translate(-1987.076 -790.359)"/>
                    <path id="Path_792" d="M2120.618 800.984a4.78 4.78 0 1 1-5.473-3.972 4.782 4.782 0 0 1 5.473 3.972z" class="cls-10" data-name="Path 792" transform="translate(-1972.064 -789.238)"/>
                    <path id="Path_793" d="M2151.955 796a4.781 4.781 0 1 1-5.473-3.972 4.78 4.78 0 0 1 5.473 3.972z" class="cls-10" data-name="Path 793" transform="translate(-1957.052 -788.116)"/>
                    <path id="Path_794" d="M2183.293 791.026a4.782 4.782 0 1 1-5.473-3.971 4.782 4.782 0 0 1 5.473 3.971z" class="cls-10" data-name="Path 794" transform="translate(-1942.039 -786.995)"/>
                </g>
                <g id="Group_531" data-name="Group 531" transform="translate(3.857 43.346)">
                    <path id="Path_795" d="M2031.584 847.257a4.782 4.782 0 1 1-5.474-3.971 4.781 4.781 0 0 1 5.474 3.971z" class="cls-10" data-name="Path 795" transform="translate(-2022.08 -823.94)"/>
                    <path id="Path_796" d="M2062.922 842.278a4.782 4.782 0 1 1-5.473-3.971 4.782 4.782 0 0 1 5.473 3.971z" class="cls-10" data-name="Path 796" transform="translate(-2007.067 -822.818)"/>
                    <path id="Path_797" d="M2094.259 837.3a4.78 4.78 0 1 1-5.47-3.972 4.78 4.78 0 0 1 5.47 3.972z" class="cls-10" data-name="Path 797" transform="translate(-1992.055 -821.697)"/>
                    <path id="Path_798" d="M2125.6 832.321a4.78 4.78 0 1 1-5.473-3.971 4.782 4.782 0 0 1 5.473 3.971z" class="cls-10" data-name="Path 798" transform="translate(-1977.042 -820.575)"/>
                    <path id="Path_799" d="M2156.934 827.342a4.781 4.781 0 1 1-5.473-3.971 4.781 4.781 0 0 1 5.473 3.971z" class="cls-10" data-name="Path 799" transform="translate(-1962.03 -819.453)"/>
                    <path id="Path_800" d="M2188.271 822.364a4.781 4.781 0 1 1-5.472-3.972 4.78 4.78 0 0 1 5.472 3.972z" class="cls-10" data-name="Path 800" transform="translate(-1947.017 -818.332)"/>
                </g>
                <g id="Group_532" data-name="Group 532" transform="translate(7.714 86.691)">
                    <path id="Path_801" d="M2036.563 878.594a4.781 4.781 0 1 1-5.474-3.973 4.781 4.781 0 0 1 5.474 3.973z" class="cls-10" data-name="Path 801" transform="translate(-2027.058 -855.276)"/>
                    <path id="Path_802" d="M2067.9 873.615a4.782 4.782 0 1 1-5.474-3.973 4.782 4.782 0 0 1 5.474 3.973z" class="cls-10" data-name="Path 802" transform="translate(-2012.046 -854.154)"/>
                    <path id="Path_803" d="M2099.238 868.636a4.78 4.78 0 1 1-5.471-3.973 4.781 4.781 0 0 1 5.471 3.973z" class="cls-10" data-name="Path 803" transform="translate(-1997.033 -853.032)"/>
                    <path id="Path_804" d="M2130.576 863.658a4.781 4.781 0 1 1-5.474-3.973 4.783 4.783 0 0 1 5.474 3.973z" class="cls-10" data-name="Path 804" transform="translate(-1982.021 -851.911)"/>
                    <path id="Path_805" d="M2161.912 858.679a4.781 4.781 0 1 1-5.473-3.973 4.78 4.78 0 0 1 5.473 3.973z" class="cls-10" data-name="Path 805" transform="translate(-1967.009 -850.789)"/>
                    <path id="Path_806" d="M2193.25 853.7a4.781 4.781 0 1 1-5.474-3.973 4.781 4.781 0 0 1 5.474 3.973z" class="cls-10" data-name="Path 806" transform="translate(-1951.996 -849.668)"/>
                </g>
                <g id="Group_533" data-name="Group 533" transform="translate(11.571 130.038)">
                    <path id="Path_807" d="M2041.542 909.93a4.781 4.781 0 1 1-5.474-3.97 4.783 4.783 0 0 1 5.474 3.97z" class="cls-10" data-name="Path 807" transform="translate(-2032.038 -886.614)"/>
                    <path id="Path_808" d="M2072.879 904.952a4.782 4.782 0 1 1-5.473-3.972 4.783 4.783 0 0 1 5.473 3.972z" class="cls-10" data-name="Path 808" transform="translate(-2017.025 -885.492)"/>
                    <path id="Path_809" d="M2104.216 899.973a4.78 4.78 0 1 1-5.47-3.971 4.782 4.782 0 0 1 5.47 3.971z" class="cls-10" data-name="Path 809" transform="translate(-2002.013 -884.371)"/>
                    <path id="Path_810" d="M2135.554 894.994a4.78 4.78 0 1 1-5.472-3.971 4.783 4.783 0 0 1 5.472 3.971z" class="cls-10" data-name="Path 810" transform="translate(-1987 -883.249)"/>
                    <path id="Path_811" d="M2166.892 890.016a4.782 4.782 0 1 1-5.473-3.971 4.782 4.782 0 0 1 5.473 3.971z" class="cls-10" data-name="Path 811" transform="translate(-1971.987 -882.127)"/>
                    <path id="Path_812" d="M2198.228 885.037a4.781 4.781 0 1 1-5.473-3.971 4.782 4.782 0 0 1 5.473 3.971z" class="cls-10" data-name="Path 812" transform="translate(-1956.975 -881.006)"/>
                </g>
                <g id="Group_534" data-name="Group 534" transform="translate(15.428 173.383)">
                    <path id="Path_813" d="M2046.52 941.268a4.781 4.781 0 1 1-5.474-3.972 4.78 4.78 0 0 1 5.474 3.972z" class="cls-10" data-name="Path 813" transform="translate(-2037.016 -917.951)"/>
                    <path id="Path_814" d="M2077.858 936.289a4.782 4.782 0 1 1-5.474-3.971 4.783 4.783 0 0 1 5.474 3.971z" class="cls-10" data-name="Path 814" transform="translate(-2022.003 -916.829)"/>
                    <path id="Path_815" d="M2109.195 931.311a4.78 4.78 0 1 1-5.471-3.972 4.78 4.78 0 0 1 5.471 3.972z" class="cls-10" data-name="Path 815" transform="translate(-2006.99 -915.707)"/>
                    <path id="Path_816" d="M2140.533 926.332a4.781 4.781 0 1 1-5.474-3.972 4.781 4.781 0 0 1 5.474 3.972z" class="cls-10" data-name="Path 816" transform="translate(-1991.977 -914.586)"/>
                    <path id="Path_817" d="M2171.87 921.354a4.781 4.781 0 1 1-5.473-3.972 4.779 4.779 0 0 1 5.473 3.972z" class="cls-10" data-name="Path 817" transform="translate(-1976.966 -913.464)"/>
                    <path id="Path_818" d="M2203.207 916.375a4.781 4.781 0 1 1-5.472-3.972 4.781 4.781 0 0 1 5.472 3.972z" class="cls-10" data-name="Path 818" transform="translate(-1961.953 -912.343)"/>
                </g>
                <g id="Group_535" data-name="Group 535" transform="translate(19.285 216.73)">
                    <path id="Path_819" d="M2051.5 972.6a4.782 4.782 0 1 1-5.474-3.971 4.781 4.781 0 0 1 5.474 3.971z" class="cls-10" data-name="Path 819" transform="translate(-2041.994 -949.289)"/>
                    <path id="Path_820" d="M2082.836 967.626a4.781 4.781 0 1 1-5.473-3.971 4.781 4.781 0 0 1 5.473 3.971z" class="cls-10" data-name="Path 820" transform="translate(-2026.982 -948.167)"/>
                    <path id="Path_821" d="M2114.174 962.647a4.78 4.78 0 1 1-5.471-3.972 4.78 4.78 0 0 1 5.471 3.972z" class="cls-10" data-name="Path 821" transform="translate(-2011.969 -947.045)"/>
                    <path id="Path_822" d="M2145.511 957.669a4.78 4.78 0 1 1-5.473-3.971 4.781 4.781 0 0 1 5.473 3.971z" class="cls-10" data-name="Path 822" transform="translate(-1996.958 -945.924)"/>
                    <path id="Path_823" d="M2176.848 952.69a4.781 4.781 0 1 1-5.472-3.971 4.78 4.78 0 0 1 5.472 3.971z" class="cls-10" data-name="Path 823" transform="translate(-1981.945 -944.802)"/>
                    <path id="Path_824" d="M2208.186 947.712a4.782 4.782 0 1 1-5.473-3.971 4.783 4.783 0 0 1 5.473 3.971z" class="cls-10" data-name="Path 824" transform="translate(-1966.932 -943.68)"/>
                </g>
            </g>
        </g>
        <g id="Group_662" class="cls-11" data-name="Group 662" transform="rotate(-40 6348.656 2942.937)">
            <g id="Group_536-2" data-name="Group 536" transform="translate(2017.102 786.995)">
                <g id="Group_530-2" data-name="Group 530">
                    <path id="Path_789-2" d="M2026.45 815.853a4.7 4.7 0 1 1-5.384-3.907 4.7 4.7 0 0 1 5.384 3.907z" class="cls-12" data-name="Path 789" transform="translate(-2017.101 -792.92)"/>
                    <path id="Path_790-2" d="M2057.787 810.874a4.7 4.7 0 1 1-5.383-3.907 4.7 4.7 0 0 1 5.383 3.907z" class="cls-12" data-name="Path 790" transform="translate(-2002.85 -791.735)"/>
                    <path id="Path_791-2" d="M2089.125 805.9a4.7 4.7 0 1 1-5.381-3.907 4.7 4.7 0 0 1 5.381 3.907z" class="cls-12" data-name="Path 791" transform="translate(-1988.6 -790.549)"/>
                    <path id="Path_792-2" d="M2120.462 800.917a4.7 4.7 0 1 1-5.383-3.907 4.7 4.7 0 0 1 5.383 3.907z" class="cls-12" data-name="Path 792" transform="translate(-1974.35 -789.365)"/>
                    <path id="Path_793-2" d="M2151.8 795.938a4.7 4.7 0 1 1-5.383-3.907 4.7 4.7 0 0 1 5.383 3.907z" class="cls-12" data-name="Path 793" transform="translate(-1960.099 -788.18)"/>
                    <path id="Path_794-2" d="M2183.137 790.959a4.7 4.7 0 1 1-5.383-3.906 4.7 4.7 0 0 1 5.383 3.906z" class="cls-12" data-name="Path 794" transform="translate(-1945.849 -786.995)"/>
                </g>
                <g id="Group_531-2" data-name="Group 531" transform="translate(3.793 42.633)">
                    <path id="Path_795-2" d="M2031.428 847.19a4.7 4.7 0 1 1-5.383-3.906 4.7 4.7 0 0 1 5.383 3.906z" class="cls-12" data-name="Path 795" transform="translate(-2022.08 -824.257)"/>
                    <path id="Path_796-2" d="M2062.766 842.211a4.7 4.7 0 1 1-5.383-3.906 4.7 4.7 0 0 1 5.383 3.906z" class="cls-12" data-name="Path 796" transform="translate(-2007.829 -823.072)"/>
                    <path id="Path_797-2" d="M2094.1 837.233a4.7 4.7 0 1 1-5.38-3.907 4.7 4.7 0 0 1 5.38 3.907z" class="cls-12" data-name="Path 797" transform="translate(-1993.578 -821.887)"/>
                    <path id="Path_798-2" d="M2125.441 832.254a4.7 4.7 0 1 1-5.383-3.906 4.7 4.7 0 0 1 5.383 3.906z" class="cls-12" data-name="Path 798" transform="translate(-1979.328 -820.702)"/>
                    <path id="Path_799-2" d="M2156.778 827.276a4.7 4.7 0 1 1-5.383-3.906 4.7 4.7 0 0 1 5.383 3.906z" class="cls-12" data-name="Path 799" transform="translate(-1965.077 -819.517)"/>
                    <path id="Path_800-2" d="M2188.115 822.3a4.7 4.7 0 1 1-5.383-3.907 4.7 4.7 0 0 1 5.383 3.907z" class="cls-12" data-name="Path 800" transform="translate(-1950.827 -818.332)"/>
                </g>
                <g id="Group_532-2" data-name="Group 532" transform="translate(7.587 85.266)">
                    <path id="Path_801-2" d="M2036.407 878.528a4.7 4.7 0 1 1-5.384-3.907 4.7 4.7 0 0 1 5.384 3.907z" class="cls-12" data-name="Path 801" transform="translate(-2027.059 -855.593)"/>
                    <path id="Path_802-2" d="M2067.745 873.549a4.7 4.7 0 1 1-5.383-3.907 4.7 4.7 0 0 1 5.383 3.907z" class="cls-12" data-name="Path 802" transform="translate(-2012.807 -854.408)"/>
                    <path id="Path_803-2" d="M2099.082 868.57a4.7 4.7 0 1 1-5.381-3.907 4.7 4.7 0 0 1 5.381 3.907z" class="cls-12" data-name="Path 803" transform="translate(-1998.557 -853.223)"/>
                    <path id="Path_804-2" d="M2130.419 863.592a4.7 4.7 0 1 1-5.384-3.907 4.7 4.7 0 0 1 5.384 3.907z" class="cls-12" data-name="Path 804" transform="translate(-1984.307 -852.038)"/>
                    <path id="Path_805-2" d="M2161.756 858.613a4.7 4.7 0 1 1-5.383-3.907 4.7 4.7 0 0 1 5.383 3.907z" class="cls-12" data-name="Path 805" transform="translate(-1970.056 -850.853)"/>
                    <path id="Path_806-2" d="M2193.094 853.634a4.7 4.7 0 1 1-5.383-3.907 4.7 4.7 0 0 1 5.383 3.907z" class="cls-12" data-name="Path 806" transform="translate(-1955.806 -849.668)"/>
                </g>
                <g id="Group_533-2" data-name="Group 533" transform="translate(11.381 127.9)">
                    <path id="Path_807-2" d="M2041.385 909.864a4.7 4.7 0 1 1-5.384-3.905 4.7 4.7 0 0 1 5.384 3.905z" class="cls-12" data-name="Path 807" transform="translate(-2032.037 -886.931)"/>
                    <path id="Path_808-2" d="M2072.723 904.885a4.7 4.7 0 1 1-5.383-3.907 4.7 4.7 0 0 1 5.383 3.907z" class="cls-12" data-name="Path 808" transform="translate(-2017.787 -885.746)"/>
                    <path id="Path_809-2" d="M2104.06 899.906a4.7 4.7 0 1 1-5.38-3.906 4.7 4.7 0 0 1 5.38 3.906z" class="cls-12" data-name="Path 809" transform="translate(-2003.536 -884.561)"/>
                    <path id="Path_810-2" d="M2135.4 894.927a4.7 4.7 0 1 1-5.383-3.906 4.7 4.7 0 0 1 5.383 3.906z" class="cls-12" data-name="Path 810" transform="translate(-1989.286 -883.376)"/>
                    <path id="Path_811-2" d="M2166.735 889.949a4.7 4.7 0 1 1-5.382-3.906 4.7 4.7 0 0 1 5.382 3.906z" class="cls-12" data-name="Path 811" transform="translate(-1975.035 -882.191)"/>
                    <path id="Path_812-2" d="M2198.072 884.971a4.7 4.7 0 1 1-5.383-3.906 4.7 4.7 0 0 1 5.383 3.906z" class="cls-12" data-name="Path 812" transform="translate(-1960.785 -881.006)"/>
                </g>
                <g id="Group_534-2" data-name="Group 534" transform="translate(15.174 170.533)">
                    <path id="Path_813-2" d="M2046.364 941.2a4.7 4.7 0 1 1-5.384-3.907 4.7 4.7 0 0 1 5.384 3.907z" class="cls-12" data-name="Path 813" transform="translate(-2037.016 -918.268)"/>
                    <path id="Path_814-2" d="M2077.7 936.222a4.7 4.7 0 1 1-5.384-3.906 4.7 4.7 0 0 1 5.384 3.906z" class="cls-12" data-name="Path 814" transform="translate(-2022.765 -917.083)"/>
                    <path id="Path_815-2" d="M2109.039 931.244a4.7 4.7 0 1 1-5.381-3.907 4.7 4.7 0 0 1 5.381 3.907z" class="cls-12" data-name="Path 815" transform="translate(-2008.514 -915.898)"/>
                    <path id="Path_816-2" d="M2140.376 926.265a4.7 4.7 0 1 1-5.383-3.907 4.7 4.7 0 0 1 5.383 3.907z" class="cls-12" data-name="Path 816" transform="translate(-1994.263 -914.713)"/>
                    <path id="Path_817-2" d="M2171.713 921.287a4.7 4.7 0 1 1-5.383-3.907 4.7 4.7 0 0 1 5.383 3.907z" class="cls-12" data-name="Path 817" transform="translate(-1980.013 -913.528)"/>
                    <path id="Path_818-2" d="M2203.051 916.308a4.7 4.7 0 1 1-5.383-3.907 4.7 4.7 0 0 1 5.383 3.907z" class="cls-12" data-name="Path 818" transform="translate(-1965.763 -912.343)"/>
                </g>
                <g id="Group_535-2" data-name="Group 535" transform="translate(18.968 213.167)">
                    <path id="Path_819-2" d="M2051.343 972.538a4.7 4.7 0 1 1-5.384-3.906 4.7 4.7 0 0 1 5.384 3.906z" class="cls-12" data-name="Path 819" transform="translate(-2041.995 -949.606)"/>
                    <path id="Path_820-2" d="M2082.68 967.559a4.7 4.7 0 1 1-5.383-3.906 4.7 4.7 0 0 1 5.383 3.906z" class="cls-12" data-name="Path 820" transform="translate(-2027.744 -948.42)"/>
                    <path id="Path_821-2" d="M2114.018 962.581a4.7 4.7 0 1 1-5.381-3.907 4.7 4.7 0 0 1 5.381 3.907z" class="cls-12" data-name="Path 821" transform="translate(-2013.493 -947.235)"/>
                    <path id="Path_822-2" d="M2145.354 957.6a4.7 4.7 0 1 1-5.383-3.906 4.7 4.7 0 0 1 5.383 3.906z" class="cls-12" data-name="Path 822" transform="translate(-1999.243 -946.051)"/>
                    <path id="Path_823-2" d="M2176.692 952.623a4.7 4.7 0 1 1-5.383-3.906 4.7 4.7 0 0 1 5.383 3.906z" class="cls-12" data-name="Path 823" transform="translate(-1984.992 -944.865)"/>
                    <path id="Path_824-2" d="M2208.03 947.645a4.7 4.7 0 1 1-5.383-3.906 4.7 4.7 0 0 1 5.383 3.906z" class="cls-12" data-name="Path 824" transform="translate(-1970.742 -943.681)"/>
                </g>
            </g>
        </g>
        <g id="Group_664" class="cls-11" data-name="Group 664" transform="rotate(30 -5185.504 -63.146)">
            <g id="Group_536-3" data-name="Group 536" transform="translate(2017.102 786.995)">
                <g id="Group_530-3" data-name="Group 530">
                    <path id="Path_789-3" d="M2023.83 814.742a3.385 3.385 0 1 1-3.875-2.812 3.385 3.385 0 0 1 3.875 2.812z" class="cls-12" data-name="Path 789" transform="translate(-2017.101 -798.236)"/>
                    <path id="Path_790-3" d="M2055.167 809.763a3.385 3.385 0 1 1-3.874-2.812 3.384 3.384 0 0 1 3.874 2.812z" class="cls-12" data-name="Path 790" transform="translate(-2015.628 -795.987)"/>
                    <path id="Path_791-3" d="M2086.505 804.784a3.384 3.384 0 1 1-3.873-2.812 3.385 3.385 0 0 1 3.873 2.812z" class="cls-12" data-name="Path 791" transform="translate(-2014.155 -793.739)"/>
                    <path id="Path_792-3" d="M2117.842 799.806a3.384 3.384 0 1 1-3.874-2.812 3.385 3.385 0 0 1 3.874 2.812z" class="cls-12" data-name="Path 792" transform="translate(-2012.682 -791.491)"/>
                    <path id="Path_793-3" d="M2149.179 794.827a3.385 3.385 0 1 1-3.874-2.812 3.384 3.384 0 0 1 3.874 2.812z" class="cls-12" data-name="Path 793" transform="translate(-2011.207 -789.243)"/>
                    <path id="Path_794-3" d="M2180.517 789.848a3.385 3.385 0 1 1-3.874-2.811 3.385 3.385 0 0 1 3.874 2.811z" class="cls-12" data-name="Path 794" transform="translate(-2009.734 -786.995)"/>
                </g>
                <g id="Group_531-3" data-name="Group 531" transform="translate(2.73 30.684)">
                    <path id="Path_795-3" d="M2028.808 846.079a3.385 3.385 0 1 1-3.875-2.811 3.384 3.384 0 0 1 3.875 2.811z" class="cls-12" data-name="Path 795" transform="translate(-2022.08 -829.573)"/>
                    <path id="Path_796-3" d="M2060.146 841.1a3.385 3.385 0 1 1-3.874-2.811 3.384 3.384 0 0 1 3.874 2.811z" class="cls-12" data-name="Path 796" transform="translate(-2020.606 -827.325)"/>
                    <path id="Path_797-3" d="M2091.483 836.122a3.384 3.384 0 1 1-3.872-2.812 3.384 3.384 0 0 1 3.872 2.812z" class="cls-12" data-name="Path 797" transform="translate(-2019.133 -825.077)"/>
                    <path id="Path_798-3" d="M2122.821 831.143a3.384 3.384 0 1 1-3.874-2.811 3.384 3.384 0 0 1 3.874 2.811z" class="cls-12" data-name="Path 798" transform="translate(-2017.66 -822.828)"/>
                    <path id="Path_799-3" d="M2154.158 826.164a3.385 3.385 0 1 1-3.875-2.811 3.384 3.384 0 0 1 3.875 2.811z" class="cls-12" data-name="Path 799" transform="translate(-2016.185 -820.58)"/>
                    <path id="Path_800-3" d="M2185.5 821.186a3.384 3.384 0 1 1-3.874-2.812 3.384 3.384 0 0 1 3.874 2.812z" class="cls-12" data-name="Path 800" transform="translate(-2014.712 -818.332)"/>
                </g>
                <g id="Group_532-3" data-name="Group 532" transform="translate(5.461 61.368)">
                    <path id="Path_801-3" d="M2033.787 877.416a3.385 3.385 0 1 1-3.875-2.812 3.385 3.385 0 0 1 3.875 2.812z" class="cls-12" data-name="Path 801" transform="translate(-2027.059 -860.909)"/>
                    <path id="Path_802-3" d="M2065.125 872.437a3.385 3.385 0 1 1-3.875-2.812 3.385 3.385 0 0 1 3.875 2.812z" class="cls-12" data-name="Path 802" transform="translate(-2025.585 -858.661)"/>
                    <path id="Path_803-3" d="M2096.462 867.458a3.384 3.384 0 1 1-3.873-2.812 3.384 3.384 0 0 1 3.873 2.812z" class="cls-12" data-name="Path 803" transform="translate(-2024.112 -856.412)"/>
                    <path id="Path_804-3" d="M2127.8 862.48a3.384 3.384 0 1 1-3.875-2.812 3.385 3.385 0 0 1 3.875 2.812z" class="cls-12" data-name="Path 804" transform="translate(-2022.639 -854.164)"/>
                    <path id="Path_805-3" d="M2159.136 857.5a3.384 3.384 0 1 1-3.874-2.812 3.384 3.384 0 0 1 3.874 2.812z" class="cls-12" data-name="Path 805" transform="translate(-2021.165 -851.916)"/>
                    <path id="Path_806-3" d="M2190.474 852.522a3.384 3.384 0 1 1-3.875-2.812 3.384 3.384 0 0 1 3.875 2.812z" class="cls-12" data-name="Path 806" transform="translate(-2019.691 -849.668)"/>
                </g>
                <g id="Group_533-3" data-name="Group 533" transform="translate(8.191 92.053)">
                    <path id="Path_807-3" d="M2038.765 908.753a3.385 3.385 0 1 1-3.875-2.811 3.386 3.386 0 0 1 3.875 2.811z" class="cls-12" data-name="Path 807" transform="translate(-2032.037 -892.247)"/>
                    <path id="Path_808-3" d="M2070.1 903.774a3.385 3.385 0 1 1-3.874-2.812 3.385 3.385 0 0 1 3.874 2.812z" class="cls-12" data-name="Path 808" transform="translate(-2030.564 -889.998)"/>
                    <path id="Path_809-3" d="M2101.44 898.8a3.384 3.384 0 1 1-3.872-2.811 3.385 3.385 0 0 1 3.872 2.811z" class="cls-12" data-name="Path 809" transform="translate(-2029.091 -887.75)"/>
                    <path id="Path_810-3" d="M2132.778 893.816a3.384 3.384 0 1 1-3.874-2.811 3.385 3.385 0 0 1 3.874 2.811z" class="cls-12" data-name="Path 810" transform="translate(-2027.617 -885.502)"/>
                    <path id="Path_811-3" d="M2164.115 888.838a3.385 3.385 0 1 1-3.874-2.811 3.385 3.385 0 0 1 3.874 2.811z" class="cls-12" data-name="Path 811" transform="translate(-2026.143 -883.254)"/>
                    <path id="Path_812-3" d="M2195.452 883.859a3.384 3.384 0 1 1-3.874-2.811 3.385 3.385 0 0 1 3.874 2.811z" class="cls-12" data-name="Path 812" transform="translate(-2024.67 -881.006)"/>
                </g>
                <g id="Group_534-3" data-name="Group 534" transform="translate(10.921 122.737)">
                    <path id="Path_813-3" d="M2043.744 940.09a3.385 3.385 0 1 1-3.875-2.812 3.384 3.384 0 0 1 3.875 2.812z" class="cls-12" data-name="Path 813" transform="translate(-2037.016 -923.584)"/>
                    <path id="Path_814-3" d="M2075.082 935.111a3.385 3.385 0 1 1-3.875-2.811 3.386 3.386 0 0 1 3.875 2.811z" class="cls-12" data-name="Path 814" transform="translate(-2035.542 -921.336)"/>
                    <path id="Path_815-3" d="M2106.419 930.133a3.384 3.384 0 1 1-3.873-2.812 3.384 3.384 0 0 1 3.873 2.812z" class="cls-12" data-name="Path 815" transform="translate(-2034.069 -919.087)"/>
                    <path id="Path_816-3" d="M2137.757 925.154a3.384 3.384 0 1 1-3.875-2.812 3.384 3.384 0 0 1 3.875 2.812z" class="cls-12" data-name="Path 816" transform="translate(-2032.595 -916.839)"/>
                    <path id="Path_817-3" d="M2169.093 920.176a3.385 3.385 0 1 1-3.874-2.812 3.383 3.383 0 0 1 3.874 2.812z" class="cls-12" data-name="Path 817" transform="translate(-2031.122 -914.591)"/>
                    <path id="Path_818-3" d="M2200.431 915.2a3.384 3.384 0 1 1-3.874-2.812 3.385 3.385 0 0 1 3.874 2.812z" class="cls-12" data-name="Path 818" transform="translate(-2029.648 -912.343)"/>
                </g>
                <g id="Group_535-3" data-name="Group 535" transform="translate(13.652 153.422)">
                    <path id="Path_819-3" d="M2048.723 971.427a3.385 3.385 0 1 1-3.875-2.811 3.385 3.385 0 0 1 3.875 2.811z" class="cls-12" data-name="Path 819" transform="translate(-2041.995 -954.922)"/>
                    <path id="Path_820-3" d="M2080.06 966.448a3.385 3.385 0 1 1-3.874-2.811 3.384 3.384 0 0 1 3.874 2.811z" class="cls-12" data-name="Path 820" transform="translate(-2040.521 -952.673)"/>
                    <path id="Path_821-3" d="M2111.4 961.47a3.384 3.384 0 1 1-3.873-2.812 3.384 3.384 0 0 1 3.873 2.812z" class="cls-12" data-name="Path 821" transform="translate(-2039.048 -950.425)"/>
                    <path id="Path_822-3" d="M2142.735 956.491a3.384 3.384 0 1 1-3.874-2.811 3.384 3.384 0 0 1 3.874 2.811z" class="cls-12" data-name="Path 822" transform="translate(-2037.575 -948.177)"/>
                    <path id="Path_823-3" d="M2174.072 951.512a3.384 3.384 0 1 1-3.874-2.811 3.384 3.384 0 0 1 3.874 2.811z" class="cls-12" data-name="Path 823" transform="translate(-2036.101 -945.928)"/>
                    <path id="Path_824-3" d="M2205.41 946.534a3.385 3.385 0 1 1-3.874-2.811 3.385 3.385 0 0 1 3.874 2.811z" class="cls-12" data-name="Path 824" transform="translate(-2034.627 -943.681)"/>
                </g>
            </g>
        </g>
        <path id="Path_854" d="M7120.269 3586.182a22.832 22.832 0 0 0 16.2-6.709l305.131-305.136a22.906 22.906 0 1 0-32.395-32.394l-305.136 305.136a22.906 22.906 0 0 0 16.2 39.1z" class="cls-13" data-name="Path 854" transform="translate(-7280.743 2227.936)"/>
        <path id="Path_865" d="M7120.269 3586.182a22.832 22.832 0 0 0 16.2-6.709l305.131-305.136a22.906 22.906 0 1 0-32.395-32.394l-305.136 305.136a22.906 22.906 0 0 0 16.2 39.1z" class="cls-14" data-name="Path 865" transform="translate(-5276.743 1888.936)"/>
        <path id="Path_853" d="M7121.922 3611.532a24.481 24.481 0 0 0 17.367-7.194l327.178-327.177a24.56 24.56 0 0 0-34.734-34.734L7104.555 3569.6a24.561 24.561 0 0 0 17.367 41.927z" class="cls-15" data-name="Path 853" transform="rotate(3 -22582.27 -137045.91)"/>
    </g>
</svg>
