<?xml version="1.0" encoding="utf-8"?>
<!-- Generator: Adobe Illustrator 23.0.4, SVG Export Plug-In . SVG Version: 6.00 Build 0)  -->
<svg version="1.1" id="Layer_1" xmlns="http://www.w3.org/2000/svg" xmlns:xlink="http://www.w3.org/1999/xlink" x="0px" y="0px"
	 viewBox="0 0 392 387.7" style="enable-background:new 0 0 392 387.7;" xml:space="preserve">
<style type="text/css">
	.st0{opacity:7.000000e-02;}
	.st1{fill:url(#Path_848_1_);}
	.st2{fill:url(#Path_849_1_);}
	.st3{fill:url(#Path_851_1_);}
	.st4{fill:url(#Path_852_1_);}
</style>
<g id="Group_831" transform="translate(-7111.282 -3161.158)" class="st0">
	
		<linearGradient id="Path_848_1_" gradientUnits="userSpaceOnUse" x1="7002.0571" y1="3749.6196" x2="7009.4229" y2="3754.2937" gradientTransform="matrix(171.1904 0 0 -171.1902 -1191626.25 645500.0625)">
		<stop  offset="0" style="stop-color:#1764B5"/>
		<stop  offset="1" style="stop-color:#AAD9FF"/>
	</linearGradient>
	<path id="Path_848" class="st1" d="M7226.4,3539.6c5.3,0,10.3-2.1,14.1-5.8l131.4-131.4c7.8-7.8,7.8-20.4,0-28.1s-20.4-7.8-28.1,0
		l-131.4,131.4c-7.8,7.8-7.8,20.4,0,28.1C7216.1,3537.5,7221.1,3539.6,7226.4,3539.6L7226.4,3539.6z"/>
	
		<linearGradient id="Path_849_1_" gradientUnits="userSpaceOnUse" x1="7002.2197" y1="3750.3767" x2="7006.5317" y2="3753.1138" gradientTransform="matrix(292.3354 0 0 -292.3352 -2040013 1099943.375)">
		<stop  offset="0" style="stop-color:#1764B5"/>
		<stop  offset="1" style="stop-color:#AAD9FF"/>
	</linearGradient>
	<path id="Path_849" class="st2" d="M7130.4,3548.9c5.1,0,9.9-2,13.5-5.6l254.2-254.2c7.4-7.5,7.4-19.6-0.1-27
		c-7.4-7.4-19.5-7.4-26.9,0l-254.2,254.2c-7.5,7.5-7.5,19.5,0,27C7120.5,3546.8,7125.3,3548.9,7130.4,3548.9L7130.4,3548.9z"/>
	
		<linearGradient id="Path_851_1_" gradientUnits="userSpaceOnUse" x1="7000.7827" y1="3749.1382" x2="7006.6221" y2="3752.8433" gradientTransform="matrix(215.9458 0 0 -215.9441 -1504935.125 813339.3125)">
		<stop  offset="0" style="stop-color:#1764B5"/>
		<stop  offset="1" style="stop-color:#AAD9FF"/>
	</linearGradient>
	<path id="Path_851" class="st3" d="M7289.4,3499.9c0.5,0,1-0.2,1.4-0.6l212-212c0.8-0.8,0.8-2,0-2.8s-2-0.8-2.8,0l-212,212
		c-0.8,0.8-0.8,2,0,2.8C7288.3,3499.7,7288.8,3499.9,7289.4,3499.9L7289.4,3499.9z"/>
	
		<linearGradient id="Path_852_1_" gradientUnits="userSpaceOnUse" x1="7001.6689" y1="3749.7002" x2="7007.5078" y2="3753.4053" gradientTransform="matrix(215.9092 0 0 -215.9102 -1504736.375 813089.1875)">
		<stop  offset="0" style="stop-color:#1764B5"/>
		<stop  offset="1" style="stop-color:#AAD9FF"/>
	</linearGradient>
	<path id="Path_852" class="st4" d="M7231.7,3377.1c0.5,0,1-0.2,1.4-0.6l212-212c0.8-0.8,0.7-2.1-0.1-2.8c-0.8-0.7-2-0.7-2.7,0
		l-212,212c-0.8,0.8-0.8,2,0,2.8C7230.6,3376.9,7231.1,3377.1,7231.7,3377.1L7231.7,3377.1z"/>
</g>
</svg>
