<?xml version="1.0" encoding="utf-8"?>
<!-- Generator: Adobe Illustrator 23.0.4, SVG Export Plug-In . SVG Version: 6.00 Build 0)  -->
<svg version="1.1"
	 id="svg2" xmlns:cc="http://creativecommons.org/ns#" xmlns:dc="http://purl.org/dc/elements/1.1/" xmlns:rdf="http://www.w3.org/1999/02/22-rdf-syntax-ns#" xmlns:svg="http://www.w3.org/2000/svg"
	 xmlns="http://www.w3.org/2000/svg" xmlns:xlink="http://www.w3.org/1999/xlink" x="0px" y="0px" viewBox="0 0 341.6 378"
	 style="enable-background:new 0 0 341.6 378;" xml:space="preserve">
<style type="text/css">
	.st0{fill:#1A64B7;}
</style>
<g id="g10" transform="matrix(1.3333333,0,0,-1.3333333,0,377.94667)">
	<g id="g12" transform="scale(0.1)">
		<path id="path14" class="st0" d="M1029,70.5c22,0,59.9,7.1,89.7,54.9c-17.1,37.9-29.2,114.4-30.9,142.3
			c-8.8,142.5,46.2,276.6,106.2,280.3c44.1,2.7,79.3-39.1,83.4-106.6c10.8-177.6-48.3-251.8-77.9-315.7c5-24.8,47-67,86.7-67
			c14.7,0,32.4,7.3,36.8,13.3c-3,10.2-5.9,23.5-5.9,42.6c0,102.9,66.2,189.7,123.5,189.7c45.6,0,72.1-60.3,72.1-100.1
			c0-47-39.7-85.3-98.5-122c10.3-10.2,29.4-17.7,45.6-17.7c83.8,0,127.8,101.5,160.2,194.1c5.9,17.7,16.2,42.6,36.7,42.6
			c35.3,0,50.1-232.3,108.7-232.3c25.1,0,45.6,51.5,45.6,91.1c0,29.4-10.3,32.4-10.3,75c0,47,25,86.7,58.9,86.7
			c20.6,0,28-20.5,28-45.4c0-94.1-67.7-269.1-167.6-269.1c-75.1,0-69.2,129.4-95.7,129.4c-29.5,0-70.7-130.9-216.1-130.9
			c-23.7,0-48.6,11.7-69.1,35.3c-35.2-23.6-64.8-33.8-98.6-33.8c-54.3,0-77.9,55.9-99.9,55.9c-26.5,0-55.8-57.4-144.1-57.4
			c-70.6,0-82.3,94-107.3,94c-22.1,0-55.9-94-92.6-94c-61.8,0-75,163.2-129.4,163.2C624.7,168.9,490,3.2,453.5,7
			c-14.7,1.5-20.9,12.5-19.3,27.2c2.1,20.3,19.6,74.8,26.7,100.5c11.9,44.7,22.8,93.7,28.9,109.4c6.1,15.8,22.4,27,35.5,25.8
			c6.6-0.6,8.6-12.9,10.6-23.1c7.4-36.4,17.8-73.4,29.5-73.4c20.6,0,88.9,130.9,128.5,130.9c48.6,0,54.4-205.9,120.5-205.9
			c22.1,0,38.3,26.4,53,58.8c1.5,54.5,16.2,132.2,60.3,132.2c30.9,0,45.6-69,23.5-129.4C951.1,88.1,998.1,70.5,1029,70.5L1029,70.5z
			 M2205.1,246.9c-18.2-75.6-73.4-186.8-155.9-186.8c-19.1,0-52.9,7.4-52.9,26.5c0,20.6,129.5,23.4,129.5,122
			c0,36.7-33.8,88.2-83.8,88.2c-66.2,0-130.7-72.1-130.7-172.1c0-89.6,55.7-119,111.5-119c97.1,0,155.9,79.5,186.7,145.6
			c14.8-44.1,23.5-145.6,60.3-145.6c14.7,0,25,7.4,42.7,47c44,98.6,86.6,211.7,145.5,211.7c22,0,8.8-39.8,61.7-39.8
			c24.9,0,42.5,20.6,42.5,44.2c0,33.8-30.8,60.2-77.8,60.2c-138.2,0-167.5-207.3-189.6-207.3c-36.8,0-25,166.1-51.5,166.1
			C2219.8,288,2208.3,260,2205.1,246.9z M1229.9,401.7c-2.5,41.1-12.5,59.6-34.6,58.1c-29.3-1.8-42.8-93.9-36.8-190.7
			c3.8-63.2,13.2-72.9,22-72.3C1196.7,197.8,1235.5,310.6,1229.9,401.7L1229.9,401.7z M990.8,488c-2.1,23.5-20.5,39.6-45.6,39.6
			c-27.9,0-54.2-29.3-51.4-66.1c1.8-24.2,16.1-44.2,44.2-44.2C970.3,417.4,993.7,454.1,990.8,488z M1448.1,188.1
			c0,24.9-13.3,45.5-29.4,45.5c-13.3,0-44.1-14.6-44.1-61.7c0-36.9,13.1-54.4,19.1-61.8C1436.3,123.3,1448.1,158.7,1448.1,188.1z
			 M2022.8,237.9c30.9,0,39.8-36.6,32.4-58.7c-7.4-22-33.8-47.1-75-54.5C1971.4,146.9,1967,237.9,2022.8,237.9L2022.8,237.9z
			 M330,342.4c-4.2,13.4-16.4,43.4-19.8,65.6c-7.4,49.1,18.3,81.5,41.9,88.9c26.5,7.4,36.8-5.9,47-36.8
			c13.3-47,14.7-108.7,10.3-196.9C403.6,142.5,343.3-3.1,193.4,0C64,2.8,6.7,86.6,0.7,214.5c-2.8,60.3,1.5,120.5,26.5,205.8
			c13.2,45.6,25.1,61.9,66.1,70.6c32.3,5.9,29.4-27.9,22.1-67.7c-16.1-88.2-23.6-130.8-17.6-230.8c5.8-105.8,54.4-147,107.3-147
			c79.4-1.5,114.6,64.6,129.4,160.3C346.2,282.1,337.4,318.9,330,342.4"/>
		<path id="path16" class="st0" d="M2064,2255c10.2-74.1,122.4-173.9,152.9-171.6c20.3,1.7,28.1,96.7,28.1,171.6
			c0,42.9,2.3,76.5-20.3,84.3C2188.8,2266.7,2094.5,2251.9,2064,2255L2064,2255z M2070.2,2287.8c81.1,0,155.3,64.7,155.3,121.7
			c0,26.6-12.5,48.4-44.5,52.3c5.5-7,7.8-12.5,7.8-24.9c0-42.9-65.4-90.5-136.5-90.5c-25.8,0-33.6-17.9-33.6-27.3
			C2018.7,2297.1,2039.8,2287.8,2070.2,2287.8L2070.2,2287.8z M2053.1,2376c-10.9,0-26.5,0-35.1,17.1c-7.1,14.1-4.7,36.7-17.9,46.8
			c13.3-3.9,27.3-3.9,38.2-3.9c35.2,0,68.7,24.2,94.5,24.2c17,0,22.5-10.9,22.5-21.8C2155.2,2404,2085.9,2376,2053.1,2376"/>
		<path id="path18" class="st0" d="M308.1,1764.3c26.5,0,21,162.3,63.9,162.3c10.1,0,13.3-10.2,13.3-22.6c0-36.7-18-90.5-18-120.1
			c0-14.8,3.9-19.5,10.9-19.5c18.8,0,51.5,178.7,83.5,178.7c10.2,0,14.8-10.2,14.8-20.3c0-37.4-47.6-145.1-47.6-175.5
			c0-4.7,1.6-8.6,5.5-8.6c19.5,0,58.5,84.2,71,126.4c7,21.9,16.4,33.6,25,33.6c7.8,0,14.8-8.6,14.8-26.5c0-42.1-39-141.2-73.3-207.5
			c-26.5-51.5-67.9-125.6-67.9-166.9c0-21.1,3.9-42.9,34.3-69.4c-49.9,3.1-70.2,7.8-88.9,46.8c-83.5-166.2,153.7-149.8,72.5-297.2
			c-14.8,26.5-131.8,53.8-131.8,208.3c0,133.4,117,211.4,117,266.8c0,10.9-3.9,20.3-14,28.8c-25.8,21.9-26.6,39.8-46.8,39.8
			c-14.8,0-32.8-34.3-14.1-64.7c6.3-10.1,11.7-16.4,11.7-25.8c0-21.8-34.3-80.3-58.5-80.3c-24.2,0-42.9,60-42.9,156.8
			c0,85.8,19.5,172.4,43.7,172.4c7,0,9.4-4.7,9.4-10.9c0-10.1-3.1-30.4-3.1-64.7C292.5,1767.5,301,1764.3,308.1,1764.3"/>
		<path id="path20" class="st0" d="M507,1535.8c32.8,0,60.1,24.2,60.1,78v79.6c0,30.4,2.3,64.7,22.6,88.9
			c-2.3-10.2-2.3-21.1-2.3-31.2c0-67.1,37.4-113.2,37.4-177.9c0-24.2-7-37.4-25.7-37.4c-18,0-16.4,16.4-20.3,16.4
			c-3.1,0-7.8-10.1-7.8-21.1c0-16.4,11.7-42.1,44.5-42.1c28.1,0,50.7,25.7,50.7,54.6c0,70.2-54.6,148.2-54.6,223.1
			c0,32.8,8.6,54.6,15.6,71.8c0-155.2,131.8-268.4,131.8-333.1c0-14.8-10.9-26.6-27.3-26.6c-18,0-26.6,14.1-26.6,25
			c0,5.5-0.8,7-3.1,7c-4.6,0-18.7-15.6-18.7-35.9c0-25.7,21-57,60.1-57c44.4,0,68.6,37.5,68.6,71c0,81.9-159.9,205.9-159.9,338.5
			c0,22.7,3.9,59.3,20.3,87.4c-103-66.3-134.9-154.5-134.9-231.7c0-67.1-2.3-100.6-36.7-100.6c-17.9,0-22.6,16.4-28.9,16.4
			c-4.7,0-7-14-7-17.9C464.8,1552.2,485.9,1535.8,507,1535.8"/>
		<path id="path22" class="st0" d="M1858.9,2315.1c34.4,0,60.1,15.6,60.1,25c0,3.1-4.7,5.4-14.8,5.4c-10.2,0-30.4,0.8-68.7,7
			c-32.8,5.5-57.8,17.9-67.2,17.9c-3.1,0-4.7-1.6-4.7-3.9C1763.6,2346.3,1801.1,2315.1,1858.9,2315.1L1858.9,2315.1z M1688.8,2414.2
			c9.9,6.6,53.9-3.9,110.7,24.2c7,3.9,14,5.4,20.3,5.4c27.3,0,20.3-31.2,45.3-31.2c19.5,0,44.5,16.4,59.4,16.4
			c23.2,0,56.8-73.4,56.8-107.7c0-39.8-59.9-64-131-64c-103.7,0-166.2,90.5-166.2,149C1684.1,2411,1686.5,2412.6,1688.8,2414.2"/>
		<path id="path24" class="st0" d="M523.4,1241.7c-25.7-6.3-67.1-46.8-67.1-110.8c0-76.4,81.9-194.2,216.9-194.2
			c113.9,0,142,78.8,142,131.9c0,117.8-72.5,200.5-166.9,200.5c-51.5,0-97.5-37.5-97.5-92.8c0-51.5,39-128.8,131.8-128.8
			c43.7,0,69.4,31.2,69.4,67.1c0,35.1-32,83.5-78.8,83.5c-14,0-24.1-9.3-24.1-24.1c0-18.7,25.7-37.5,57.7-37.5
			c7.8,0,14,1.6,17.2,3.1c1.6-2.3,2.3-6.2,2.3-9.4c0-18-17.2-28.9-43.7-28.9c-39.8,0-78,29.7-78,76.5c0,28,24.2,48.3,59.3,48.3
			c69.4,0,110.8-61.6,110.8-123.3c0-55.3-30.4-87.4-92.8-87.4C556.9,1015.4,496.1,1127.8,523.4,1241.7"/>
		<path id="path26" class="st0" d="M1353.4,940.5c0-17.2,14.1-31.2,31.2-31.2c17.2,0,31.2,14,31.2,31.2c0,17.2-14.1,31.2-31.2,31.2
			C1367.4,971.8,1353.4,957.7,1353.4,940.5z M1413.8,784.6c37.4,0,35.5,3.1,47.2,3.1c11.7,0,12.5-7,12.5-11.7
			c0-17.2-38.3-38.3-106.1-38.3c-39.8,0-64,21.1-71,44.5c-39-25-98.3-47.6-156.8-47.6c-159.9,0-200.5,69.5-250.4,92
			c-38.2,17.2-96.7-16.4-178.6,74.9c10.9-2.3,25.8-3.1,37.5-3.1c71.7,0,109.9,35.1,109.9,91.3c0,7-0.8,14.7-1.6,21.7
			c21.9-8.6,71.8-46,83.5-112.2c1.6-7.8,33.5-14.8,53.8-14.8c28.1,0,64,11.7,69.4,57.7c93.6,7.8,156.8,63.2,170.1,133.4
			c33.5-10.9,71.7-41.4,81.1-57c13.3,4.7,28.8,7,46.8,7c24.9,0,53.1-4.7,86.6-14.8c1.6,10.2,3.1,22.7,18.8,22.7
			c23.4,0,17.1-25.8,24.9-40.5c3.9-7.8,23.5-12.5,23.5-28.1c0-14.9-12.6-20.3-20.3-20.3c-3.1,0-7,0.8-9.4,1.6
			c-15.6-5.5-16.3-117.8-81.9-117.8c-48.4,0-92.8,39.8-112.3,89.7c-5.5,14.8-17.1,24.2-28.1,24.2c-12.5,0-19.5-2.3-34.3-18.8
			c-42.1-46-112.3-85.7-198.9-85.7c-26.5,0-47.6,2.3-53.1,2.3c-3.1,0-3.1-0.8-3.1-1.5c0-5.5,26.5-26.6,84.3-26.6
			c137.3,0,170.9,77.2,192.7,77.2c3.1,0,12.5,0,17.9-12.5C1300.3,801.8,1370.1,784.6,1413.8,784.6"/>
		<path id="path28" class="st0" d="M1887,1281.5c-16.4,0-107-120.9-165.4-120.9c-14,0-25.7,26.5-25.7,46.7c0,10.9,7,18.8,32,24.2
			c134.1,30.4,104.4,131.1,219,131.1c63.2,0,133.5-42.9,133.5-139.7c0-103-146.6-230.9-168.4-230.9c-18,0-37.5,25.7-37.5,42.9
			c0,5.4,2.3,12.5,18,18.7c74.8,29.7,117.7,98.3,117.7,133.5c0,7.8-3.9,15.5-14.1,15.5c-13.2,0-70-129.5-133.3-129.5
			c-43.8,0-88.2,39.7-88.2,58.5c0,31.2,126.5,88.9,126.5,132.7C1901,1280.8,1893.2,1281.5,1887,1281.5z M1971.1,1329.9
			c-10.9,0-22.6-8.6-22.6-29.7c0-23.3,17.9-38.2,28.1-42.8c5.5-3.1,14.1-6.3,22.6-6.3c22.7,0,40.6,6.3,40.6,25
			C2039.8,1300.2,2004.7,1329.9,1971.1,1329.9"/>
		<path id="path30" class="st0" d="M514,2233.2c0-17.2,14.1-31.2,31.2-31.2c17.1,0,31.2,14.1,31.2,31.2c0,17.1-14.1,31.2-31.2,31.2
			C528,2264.4,514,2250.3,514,2233.2z M473.4,2303.4c0-17.1,14-31.2,31.2-31.2c17.2,0,31.2,14.1,31.2,31.2c0,17.2-14,31.2-31.2,31.2
			C487.5,2334.6,473.4,2320.6,473.4,2303.4z M445.4,2089.7c-18-4.7-55.4-26.5-55.4-65.5c0-28.1,21.8-46,49.1-46
			c14.1,0,24.2,3.1,30.4,7.8c-21.8,21-29.6,44.5-29.6,67.8C439.9,2070.2,442.2,2080.3,445.4,2089.7z M254.3,2078.7
			c-0.8-3.9-0.8-7.8-0.8-11.7c0-36.7,19.5-57,45.2-57c19.5,0,42.1,11.7,62.4,37.5c-8.6-1.5-18.7-2.3-28.1-2.3
			C304.2,2045.2,273,2053,254.3,2078.7L254.3,2078.7z M226.9,2009.3c0-59.3,17.9-87.4,49.9-87.4c24.9,0,58.5,17.9,98.3,52.3
			c-30.4-7-53.8-11.7-74.9-11.7C272.2,1962.5,250.4,1973.4,226.9,2009.3L226.9,2009.3z M429,2321.3c3.9,12.5,7,28.1,7,45.2
			c0,37.4-17.2,94.4-70.2,94.4c-30.4,0-52.3-24.2-52.3-53.1C313.5,2346.3,375.1,2321.3,429,2321.3L429,2321.3z M362.6,2124.7
			c-25.7,0-53.8,32-53.8,60.9c0,15.6,11.7,35.1,20.3,35.1c3.1,0,4.7-2.4,5.5-7.8c4.7-38.2,29.6-60.1,53.1-71
			c2.3-1.6,3.9-2.3,3.9-3.9C391.5,2132.6,376.7,2124.7,362.6,2124.7L362.6,2124.7z M434.4,2219.9c5.4-7.4,20.3-16.4,20.3-21.9
			c0-10.9-6.2-24.9-18.7-24.9c-27.3,0-49.1,41.4-49.1,64.8c0,14.8,8.6,16.4,20.3,16.4c5.5,0,7.8-0.8,11.7-3.1
			C425.8,2247.2,425.8,2231.6,434.4,2219.9L434.4,2219.9z M251.1,2123.2c-1.5-2.4-2.3-5.5-2.3-8.6c0-7,7.8-14.8,14.8-14.8
			c6.3,0,10.1,1.6,13.3,1.6c18.7,0,39.7-13.2,70.2-13.2c17.9,0,39,5.5,65.5,18.7c56.2,28.1,78,97.5,78,109.2
			c0,14.8-11.9,12.9-21.9,26.6c-9.9,13.6-6.1,25.6-12.5,32c-3.6,3.7-14.8,3.9-28.9,5.5c-4.7,0.5-10.9,0.8-17.2,0.8
			c-25.7,0-56.2-3.2-90.5-25C252.1,2212.6,262,2141.1,251.1,2123.2L251.1,2123.2z M510.1,2154.4c-17.2-20.3-35.1-54.6-35.1-89.7
			c0-42.1,25.8-77.2,65.6-77.2c38.2,0,56.2,32.8,56.2,66.3C596.7,2106,549.1,2142.7,510.1,2154.4L510.1,2154.4z M343.2,2304.2
			c0,0-22.6-17.1-50.7-17.1c-33.5,0-60.1,24.9-60.1,60c0,24.2,12.5,49.1,41.3,61.6c-0.8-4.7-0.8-8.6-0.8-13.3
			C273,2351,297.9,2317.4,343.2,2304.2"/>
		<path id="path32" class="st0" d="M1718.5,2045.2c0-18,14.9-32.8,32.6-32.8c18,0,32.8,14.8,32.8,32.8c0,17.9-14.8,32.7-32.8,32.7
			C1733.4,2077.9,1718.5,2063.1,1718.5,2045.2z M1720.8,1946.9c0-20.3,16.4-36.7,36.5-36.7c20.3,0,36.7,16.4,36.7,36.7
			c0,20.2-16.4,36.6-36.7,36.6C1737.2,1983.6,1720.8,1967.2,1720.8,1946.9z M1608.4,1880.6c0-29.6,24.2-53.8,53.9-53.8
			c29.7,0,53.9,24.2,53.9,53.8c0,29.6-24.2,53.8-53.9,53.8C1632.6,1934.4,1608.4,1910.2,1608.4,1880.6z M1637.3,1990.6
			c0-17.2,14.1-31.2,31.2-31.2c17.2,0,31.2,14.1,31.2,31.2c0,17.1-14,31.2-31.2,31.2C1651.4,2021.8,1637.3,2007.7,1637.3,1990.6z
			 M1535.2,1928.2c0-17.2,14.1-31.2,31.1-31.2c17.2,0,31.2,14,31.2,31.2s-14.1,31.2-31.2,31.2
			C1549.2,1959.4,1535.2,1945.3,1535.2,1928.2z M1615.5,2110.7c0-27.3,22.6-49.9,50-49.9c27.3,0,50,22.6,50,49.9
			c0,27.3-22.6,49.9-50,49.9C1638.1,2160.6,1615.5,2138,1615.5,2110.7z M1674,2206.6c0-16.4,13.3-29.6,29.7-29.6
			c16.4,0,29.7,13.3,29.7,29.6c0,16.4-13.3,29.7-29.7,29.7C1687.3,2236.3,1674,2223,1674,2206.6z M1532.9,2131.8
			c0-16.4,13.3-29.7,29.5-29.7c16.4,0,29.7,13.3,29.7,29.7c0,16.4-13.3,29.6-29.7,29.6C1546.1,2161.4,1532.9,2148.1,1532.9,2131.8z
			 M1528.9,2030.4c0-26.6,21.1-47.6,47.5-47.6c26.6,0,47.7,21,47.7,47.6c0,26.5-21.1,47.6-47.7,47.6
			C1550,2077.9,1528.9,2056.9,1528.9,2030.4z M1430.6,1980.5c0-24.2,20.2-44.4,44.5-44.4c24.2,0,44.5,20.2,44.5,44.4
			c0,24.2-20.3,44.5-44.5,44.5C1450.9,2024.9,1430.6,2004.6,1430.6,1980.5z M1457.1,2090.4c0-17.1,14.1-31.2,31.2-31.2
			c17.2,0,31.3,14.1,31.3,31.2s-14,31.2-31.3,31.2C1471.2,2121.6,1457.1,2107.6,1457.1,2090.4z M1731,1850.2
			c0,15.6,14.1,28.8,29.5,28.8c17.2,0,30.5-13.3,30.5-28.8c0-17.9-13.3-30.4-30.5-30.4C1745.1,1819.7,1731,1832.2,1731,1850.2"/>
		<path id="path34" class="st0" d="M1751.1,953c3.9,0,8.6-2.3,8.6-16.4c0-17.2-7.8-39.7-35.7-57.7c-19.6-13.3-46.1-24.2-85.1-24.9
			c6.2,18.7,10.9,38.2,10.9,56.8c0,6.3-0.8,10.9-1.5,18h10.2C1720.1,928.8,1746.6,953,1751.1,953z M1757.4,1030.3
			c6.3,5.3,7.8,14,7.8,22.6v18c0,22.6-34.2,35.8-81,35.8c-57,0-87.4-25.7-87.4-36.6v-35.9c0-14.8,34.4-29.7,76.5-29.7
			C1706.8,1004.5,1737.2,1013.1,1757.4,1030.3L1757.4,1030.3z M1798,1021.7c-20.3-15.6-67.8-50.7-146.6-50.7
			c-42.2,0-60.9,13.3-67.2,13.3c-7.8,0-16.4-7.8-25-18c-18.6-21.9-42.8-62.5-42.8-106.9c0-31.2,24.2-62.3,69.3-62.3
			c146,0,255.2,91.2,255.2,165.3C1840.9,1004.5,1816,1021.7,1798,1021.7"/>
		<path id="path36" class="st0" d="M1825.3,1677.8c0-19.5,6.3-42.1,25.8-42.1c16.4,0,30.4,24.9,30.4,52.2c0,31.2-5.5,55.4-5.5,67.9
			c0,5.4,2.3,7.8,5.5,7.8c11.7-0.8,22.6-32.8,35.1-32.8c14.1,0,35,25.8,43.6,25.8c2.3,0,3.1-3.1,3.1-3.9c0-11.7-17.9-37.5-17.9-47.6
			c0-8.6,45.3-10.1,45.3-18c0-11.7-47.5-11.7-70.1-21.8c-21.8-9.3-35.2-21.1-35.2-36.7s15.6-18.7,37.5-18.7
			c52.2,0,88.8,28.1,100.5,28.1c2.3,0,3.9-1.6,3.9-3.9c0-7.8-26.5-33.5-26.5-45.2c0-13.2,48.4-28.8,47.6-36.6
			c-0.8-2.3-3.9-3.1-9.4-3.1c-8.6,0-21.9,2.3-32,2.3c-6.2,0-11.7-0.8-14.1-3.9c-5.4-6.3,1.6-47.6-9.3-47.6c-10.2,0-36.7,92-96.6,92
			c-8.6,0-14.8-7-14.8-18.7c0-31.2,30.4-67.1,59.3-84.2c13.1-8.6,35-17.2,35-21.9c0-9.3-49.8-0.8-49.8-16.3
			c0-14.1,6.2-35.2,6.2-47.6c0-3.9-0.8-8.6-5.5-8.6c-9.4,0-32,42.9-42.9,42.9c-9.4,0-29.7-25.7-38.3-25.7c-2.3,0-3.9,2.3-3.9,4.6
			c0,17.9,28.9,58.5,28.9,98.3c0,18.7-2.3,59.3-25,59.3c-18.7,0-39.8-29.6-49.2-59.3c-5.4-17.2-1.5-83.5-14-83.5
			c-11.7,0-8.6,44.5-24.2,44.5c-11.5,0-36.5-21-45.1-21c-1.6,0-3.1,0.8-3.1,2.3c0,9.3,22.6,39.8,22.6,46c0,11.7-51.5,13.2-51.5,22.6
			c0,5.5,20.3,9.4,39,12.5c39.7,7,98.2,35.9,98.2,76.4c0,45.2-43.7,64.8-72.4,83.5c-14.8,9.4-31.2,17.1-31.2,23.4
			c0,6.3,18.8,6.3,26.6,6.3c11.7,0,23.3,0.8,23.3,10.1c0,7-1.6,21.1-1.6,32c0,7.8,0.8,14.1,3.9,14.1c11.7,0,28.1-38.2,35.9-38.2
			c12.5,0,29.7,31.2,41.4,31.2c3.9,0,5.4-2.3,5.4-9.4C1840.1,1738.6,1825.3,1705.9,1825.3,1677.8L1825.3,1677.8z M1453.2,1906.3
			c8.6-66.3,97.6-32.7,97.6-113.1c0-11.7-3.1-28.9-3.1-43.7c0-17.2,1.6-32,14.7-32c13.3,0,16.4,9.4,16.4,21.9s-3.2,28.1-3.2,36.7
			c0,27.3,19.5,33.6,31.2,33.6c29.7,0,52.3-30.4,96.8-30.4c-10.2-49.9-113.2-36.7-113.2-91.3c0-27.3,27.3-33.5,45.3-33.5
			c16.4,0,21.9,2.3,21.9,16.3c0,7.8-1.6,16.4-1.6,21.9c0,3.1,2.4,6.2,6.3,6.2c17.2,0,101.3-64,101.3-83.5
			c0-17.9-88.8-35.8-114.6-35.8c-7.8,0-9.4,5.5-9.4,8.6c0,5.5,13.3,21.9,13.3,31.2c0,7-11.7,11.7-42.9,11.7
			c-14.8,0-25.8-1.6-25.8-13.3c0-21,34.4-46.8,34.4-66.2c0-15.6-9.4-25-34.4-25c-21.1,0-52.9,16.4-52.9,43.7
			c0,21.8,22.5,43.7,22.5,56.9c0,3.9-3,10.2-12.3,10.2c-28.9,0-36.7-76.4-138.9-85c16.4,14.8,30.4,31.2,30.4,64.7
			c0,16.4-3.9,29.7-3.9,47.6c0,23.4,10.9,35.2,26.5,35.2c28.8,0,42.9-40.6,61.7-40.6c10.2,0,21.1,9.3,21.1,23.4
			c0,59.3-114,50.7-114,134.2C1424.4,1839.3,1432.1,1867.3,1453.2,1906.3"/>
		<path id="path38" class="st0" d="M1601.4,1399.3c0-10.9,7.8-19.5,18.8-19.5c12.5,0,20.3,10.9,20.3,23.4c0,16.3-14.8,39-28.9,39
			c-6.3,0-3.9-9.4-5.5-19.5C1605.3,1414.9,1601.4,1405.5,1601.4,1399.3L1601.4,1399.3z M1560.8,1503c82-15.6,126.5-77.2,126.5-135
			c0-39.8-25-76.4-68.7-76.4c-39.8,0-68.6,27.2-68.6,71c0,32.7,25.6,67.1,25.6,100.6C1575.6,1476.5,1571.7,1489.8,1560.8,1503
			L1560.8,1503z M1457.1,1370.4c7.8-7.7,10.2-15.6,10.2-23.4c0-11.7-5.5-24.2-5.5-37.5c0-18.7,14-35.1,34.3-35.1
			c21.9,0,36.8,17.2,36.8,37.4C1532.9,1341.5,1502.3,1370.4,1457.1,1370.4L1457.1,1370.4z M1715.4,1420.3c5.5-8.5,7.8-17.1,7.8-24.9
			c0-21.9-14.8-42.1-14.8-64.8c0-25.8,19.5-46.8,49-46.8c32,0,53.9,25.7,53.9,56.1C1811.3,1381.3,1773.8,1416.4,1715.4,1420.3
			L1715.4,1420.3z M1475.8,1461.7c35.9-4.7,44.5-17.2,44.5-27.3c0-17.2-15.7-22.6-30.5-22.6c-10.9,0-23.4,2.3-36.7,2.3
			c-17.2,0-34.3-3.9-48.4-20.3c10.1-1.6,25-8.6,25-24.2c0-45.2-125.6-7.8-125.6-124c0-61.6,64-128.7,160.7-128.7
			c50,0,82,16.4,82,35.1c0,14.8-26.5,4.7-26.5,17.2c0,5.5,9.3,15.6,9.3,24.2c0,3.8-3.1,10.8-9.3,10.8c-14.1,0-40.6-22.6-94.5-22.6
			c-42.1,0-83.5,24.1-83.5,56.9c0,7,3.1,10.9,7.8,10.9c4.7,0,10.9-3.1,16.4-3.1c4.7,0,5.5,3.1,5.5,11.7c0,8.6,0,32.8,14.8,32.8
			c14.8,0,42.9-54.7,150.7-54.7c35.7,0,105.2,7,131,30.4c-0.8-85.8-67.9-198.9-208.3-198.9c-145.9,0-223.9,117-223.9,224.7
			c0,119.3,97.5,227.7,230.9,227.7c34.3,0,63.2-11.7,63.2-26.5C1530.5,1473.4,1479.7,1485.9,1475.8,1461.7"/>
		<path id="path40" class="st0" d="M971.1,2352.5c51.5,0,74.9-44.5,74.9-94.4c0-21.8-6.2-53.8-16.3-53.8s-8.6,18-10.2,34.4
			c-1.5,21.1-5.5,25.7-12.5,25.7c-13.3,0-21.8-31.2-21.8-60.1c0-17.9,3.1-38.2,17.1-38.2c7.8,0,14.8,3.9,19.5,8.6
			c-3.1-35.9-29.7-67.1-67.1-67.1c-68.6,0-94.4,80.4-102.2,127.2c-41.3-43.7-79.5-75.7-148.2-75.7c-63.9,0-92.8,46.8-92.8,91.3
			c0,13.3,4.7,47.6,21.1,47.6c19.5,0,2.3-63.9,40.5-63.9c9.4,0,26.5,7.8,35.9,33.5c5.5,15.6,8.6,32,8.6,46
			c0,21.1-4.7,34.3-20.2,34.3c-13.3,0-29.7-10.1-35.2-15.6c18.8,56.2,64,85,113.9,85c61.7,0,94.4-54.6,94.4-115.5
			c0-8.6-0.8-17.9-2.3-26.5C894.7,2319,931.4,2352.5,971.1,2352.5L971.1,2352.5z M911,2260.5c0,13.3-3.1,16.4-6.2,16.4
			c-7.8,0-16.4-9.4-28.8-30.4c1.6-28.1,6.3-40.6,14-40.6C898.6,2205.9,911,2233.2,911,2260.5z M804.1,2228.5c8.6,0,19.5,9.4,39.8,32
			c1.6,10.1,1.6,19.5,1.6,31.2c0,15.6-6.2,32.8-15.6,32.8c-23.4,0-35.1-62.4-35.1-78.8C794.8,2236.3,799.5,2228.5,804.1,2228.5z
			 M931.4,2159.1c19.5,0,41.3,74.9,41.3,121.7c0,10.2-1.6,21.1-6.2,21.1c-16.4,0-43.7-77.2-43.7-119.3
			C922.8,2166.1,926.7,2159.1,931.4,2159.1z M740.3,2202c26.5,0,56.9,143.6,56.9,167.8c0,6.2-2.3,10.9-7.8,10.9
			c-24.2,0-57.7-136.5-57.7-167C731.7,2208.2,733.2,2202,740.3,2202"/>
		<path id="path42" class="st0" d="M825.2,2142.7c-33.5,0-35.1-40.6-35.1-122.5c-25,53.8-66.3,111.5-114.7,111.5
			c-32.8,0-45.2-21.9-45.2-60.1c0-7.8,0.8-19.5,2.3-26.5c3.9,13.2,16.4,18.7,32,18.7c33.6,0,74.1-25.7,100.6-60.9
			c-30.4,5.4-60.1,10.9-85,10.9c-15.6,0-29.7-1.6-41.4-7c-22.6-10.1-53.1-43.7-53.1-94.4c0-7.8,0.8-16.3,2.4-25.7
			c27.3,60.8,99.8,88.1,146.7,88.1c9.4,0,16.4-0.8,21.8-1.6c-24.2-21.8-29.6-60.1-31.2-85.8c-0.8-12.5-5.5-13.3-14.1-13.3
			c0-25.7,20.3-64,20.3-83.5c0-7-3.9-13.3-7.8-14.8c0-34.3,34.3-59.3,34.3-81.1c0-5.5-1.6-10.2-3.9-12.5c2.3-14.1,40.1-37.7,45-49.5
			c6-14.4,12.7-16.8,16.6-16.8c13.3,0,34.3,15.6,34.3,29.7c0,4.7-3.9,10.1-7,12.5c-14.8,10.9-22.7,34.3-28.9,49.9
			c-5.5,0-12.5,2.3-15,11.5c-4.3,16.1-4.5,46.2-10.7,64.2c-10.1,2.3-14.8,6.2-14.8,27.3c0,10.2,6.3,49.9,6.3,64
			c-4.7,0-10.9,3.1-10.9,12.5c0,24.9,25,44.5,31.9,76.4c44.5-32.8,55.4-66.3,55.4-96c0-15.6-2.3-30.4-5.5-44.5
			c32.8,16.4,81.9,40.6,81.9,89.7c0,28.9-13.3,60.8-101.4,73.3c27.3,10.2,61.6,15.6,90.5,15.6c49.9,0,78.8-15.6,85-50.7
			c10.2,15.6,18,33.5,18,49.9c0,38.2-32,63.2-72.6,63.2c-47.6,0-89.7-24.9-135-55.4c20.3,42.1,34.3,67.1,59.3,67.1
			c3.9,0,7.8-0.8,11.7-1.6C879.1,2109.1,844,2142.7,825.2,2142.7"/>
		<path id="path44" class="st0" d="M2139.6,1580.3c39,0,70.2-50.7,70.2-110c0-63.2-29.7-131.8-82.6-178.6
			c-0.8,105.3-129.6,71.7-129.6,148.2c0,32.8,23.4,54.6,51.6,54.6c25,0,44.5-7,58.6-21.1c-14.1,13.3-21.1,32-21.1,49.9
			C2086.6,1553,2105.4,1580.3,2139.6,1580.3"/>
		<path id="path46" class="st0" d="M1560.8,2378.3c-6.2,10.1-29.5,15.6-40.4,15.6c-34.4,0-57.8-24.2-62.5-46
			c-3.1,7.8-5.5,17.2-5.5,26.6c0,34.3,23.4,76.4,80.4,76.4c49.8,0,69.3-26.5,76.3-26.5c7.8,0,15.6,7.8,21.9,7.8
			c8.6,0,8.6-13.3,8.6-22.6c0-31.2-14.1-85-49.2-104.6c-6.2,13.3-18.7,28.1-38.9,37.5c-5.4,2.3-7.8,7-7.8,11.7
			C1543.8,2362.7,1551.6,2373.6,1560.8,2378.3z M1443,2321.3c20.3-19.5,38.2-28.1,60.1-28.1c8.6,0,18.8,2.3,24.3,2.3
			c7,0,11.7-3.1,11.7-8.6c0-8.6-7.8-22.6-17.2-30.5c9.4-3.9,19.5-5.5,30.4-5.5c44.3,0,95.1,28.1,95.1,98.3
			c9.4-12.4,14.9-38.2,14.9-49.9c0-85-62.5-117.8-120.1-117.8c-37.5,0-56.3,12.5-61,12.5c-14.8,0-14-29.7-24.1-28.9
			c-18,3.1-34.3,42.9-34.3,85C1422.8,2275.3,1429,2301.8,1443,2321.3"/>
		<path id="path48" class="st0" d="M775.3,2817.5c0,4.7-23.4,9.4-55.4,9.4c-50.7,0-43.7-42.2-82.7-42.2c-40.6,0-30.5,43.7-81.9,43.7
			c-31.2,0-60-5.5-60-12.5c0-9.4,36.6-5.5,36.6-31.2c0-27.3-78.8-35.1-78.8-51.5c0-5.4,6.2-7.8,14-7.8c17.2,0,44.5,7.8,64,7.8
			c10.9,0,21.1-2.3,21.1-12.5c0-19.5-42.1-54.6-42.1-70.2c0-4.7,3.9-6.3,7.8-6.3c15.6,0,42.1,39.8,67.1,39.8
			c41.3,0,14.1-88.1,36.7-88.1c23.4,0,13.3,86.6,46.8,86.6c27.3,0,47.6-60.1,66.3-60.1c4.7,0,8.6,3.9,8.6,9.4
			c0,16.4-23.4,49.9-23.4,71.8c0,13.3,9.4,19.5,21.9,19.5c17.9,0,42.1-10.9,55.3-10.9c4.7,0,9.4,1.6,9.4,7c0,18.7-69.4,39-69.4,63.2
			C737.1,2806.5,775.3,2806.5,775.3,2817.5L775.3,2817.5z M958.6,2737.9c0-14,49.1-44.5,71.8-44.5c13.2,0,17.1,18,17.1,36.7
			c0,23.4-10.1,24.2-30.4,24.2C991.4,2754.3,958.6,2747.2,958.6,2737.9z M1039.8,2583.4c0,46.8-126.6,131.8-128,168.5
			c-0.1,3.4,1.7,6.7,4.5,9.7c21.7,22.9,111.7,39.5,111.7,59c0,10.1-18.7,10.1-28.1,10.1c-72.5,0-178.6-26.5-178.6-52.2
			c0-26.6,95.2-91.3,95.2-123.3c0-8.6-5.5-11.7-14.1-11.7c-26.5,0-84.2,32-111.5,32c-12.5,0-17.2-8.6-17.2-21.1
			c0-37.4,44.5-108.4,44.5-129.4c0-2.4-0.8-5.5-3.9-5.5c-14.1,0-80.3,78-103.7,78c-8.6,0-9.4-11.7-9.4-28.8v-26.5
			c0-17.9-0.8-28.9-9.3-28.9c-20.3,0-29.7,56.9-49.1,56.9c-20.3,0-24.2-101.4-43.7-101.4c-22.6,0-3.1,111.6-25,111.6
			c-24.2,0-51.5-74.1-68.7-74.1c-6.2,0-7.8,6.2-7.8,11.7c0,22.6,13.2,59.3,13.2,81.1c0,10.9-3.1,17.2-12.5,17.2
			c-24.2,0-77.3-39-97.5-39c-3.1,0-7,1.6-7,4.7c0,18.7,85,78,85,104.5c0,25.8-117.1,8.6-117.1,38.3c0,24.9,83.5,50.7,83.5,76.4
			c0,22.6-99.1,32.8-137.3,32.8c-46,0-71-5.4-71-18.7c0-20.3,104.5-26.6,104.5-44.4c0-17.2-108.4-63.2-108.4-89.7
			c0-23.4,152.9-1.6,152.9-25.8c0-26.5-133.4-141.2-133.4-179.4c0-8.6,6.3-12.5,14.8-12.5c40.6,0,145.8,77.2,174.7,77.2
			c10.2,0,10.9-12.4,10.9-23.4c0-20.3-7-51.5-7-74.1c0-17.9,4.7-30.4,20.3-30.4c28.9,0,55.4,49.1,74.9,49.1
			c24.9,0,10.1-144.3,47.6-144.3c32,0,45.2,156,65.5,156c20.3,0,36.7-45.2,55.4-45.2c23.4,0,12.5,78.8,37.5,78.8
			c27.3,0,105.3-93.6,140.4-93.6c10.9,0,14.8,8.6,14.8,19.5c0,41.3-57.7,134.9-57.7,164.5c0,7.8,2.3,10.1,10.9,10.1
			c30.4,0,119.4-42.1,161.5-42.1C1031.2,2565.5,1039.8,2573.3,1039.8,2583.4L1039.8,2583.4z M327.5,2628.7
			c0-15.6-59.3-67.9-80.3-67.9c-7.8,0-10.1,9.4-10.1,17.9c0,15.6,7,37.4,15.6,44.5c10.1,9.4,33.5,14,51.5,14
			C315,2637.2,327.5,2634.9,327.5,2628.7L327.5,2628.7z M900.9,2548.3c0-27.3,97.5-160.7,116.2-160.7c15.6,0,27.3,27.3,27.3,50.7
			c0,6.2-1.6,12.4-4.6,17.1c-14.1,19.5-113.1,97.5-135,97.5C902.4,2553,900.9,2550.7,900.9,2548.3"/>
		<path id="path50" class="st0" d="M2153.6,2784.7c0-10.9,8.6-19.5,19.5-19.5s19.5,8.6,19.5,19.5c0,10.9-8.6,19.5-19.5,19.5
			S2153.6,2795.6,2153.6,2784.7z M2026.5,2612.3c0,55.4-132.5,69.4-132.5,81.9c0,10.1,74,27.3,112.2,28.1
			c-58.5,74.9-141.9,67.1-141.9,80.3c0,7.8,62.4,23.4,120.1,23.4c48.3,0,93.6-10.9,93.6-47.6c0-20.3-16.4-41.4-16.4-72.6
			c0-17.2,8.6-32,31.2-32c24.2,0,29.7,25.7,29.7,53.1c0,22.6-3.9,39.8-3.9,50.7c0,32.8,22.5,54.6,54.5,54.6
			c26.6,0,32.8-11.7,71.8-11.7c-21.1-12.5-28.9-35.1-28.9-46c0-32.8,21.1-55.4,21.1-122.5c0-123.2-115.4-166.9-256.7-166.9
			c-38.8,0-80.3,3.1-120.9,9.3c-6.2,0.8-7.8,2.3-7.8,6.2c0,10.1,55.4,15.6,55.4,65.5c0,19.5-6.3,38.2-6.3,45.2
			c0,3.9,3.1,6.2,6.3,6.2c11.7,0,35.1-45.2,78.7-45.2C1997.6,2572.5,2026.5,2576.4,2026.5,2612.3L2026.5,2612.3z M2158.3,2691.1
			c0-69.4-50.6-122.4-141.9-137.2c10.2-0.8,19.6-0.8,28.9-0.8c106.8,0,145.8,48.3,145.8,88.9
			C2191.1,2664.6,2178.6,2684.8,2158.3,2691.1"/>
		<path id="path52" class="st0" d="M2104.6,1685.6c12.5,39,28.1,66.3,53.7,108.4c-25.6,13.2-93.5,41.3-93.5,87.4
			c0,53.8,67.1,95.9,81,95.9c6.2,0,7.8-5.5,7.8-15.6c0-28.1-13.3-73.3-13.3-97.5c0-21.8,14.1-42.9,26.5-42.9c13.3,0,50,46.8,50,92.8
			c0,82.7-72.6,107.7-95.1,107.7c-21.1,0-59.3-34.3-149.1-34.3c-167.7,0-205.9,166.1-205.9,238.7c0,3.1,0.8,3.9,1.5,3.9
			c3.9,0,20.3-20.3,73.4-20.3c27.3,0,52.3,7,92.1,7c93.4,0,134.9-64.8,192.6-147.4c34.9-21.8,118.5-57,118.5-156
			c0-87.4-92.9-135.7-115.4-229.3c35.7,3.9,56.8,67.9,93.5,67.9c18.8,0,27.4-14.8,27.4-38.3c0-34.3-19.5-85.8-57-117.8
			c0.8,3.1,0.8,7,0.8,11.7c0,21.8-8.6,53-33.6,53c-38.9,0-51.4-42.1-73.2-77.2c-22.6,79.5-53.1,151.3-107.7,195
			c-55.2,44.5-150.5,20.3-150.5,101.4c0,21.9,14.1,53.1,14.1,78c0,8.6-1.6,16.4-6.3,22.6c75-28.1,48.4-78,94.5-129.5
			c28.7-32.8,108.3-64,154.4-198.9c0.8,3.9,1.5,14,1.5,21c0,115.5-152.8,228.6-166.1,275.4c88.8-10.2,104.4-32,146.6-149
			C2076.5,1775.3,2104.6,1715.2,2104.6,1685.6L2104.6,1685.6z M2084.3,2063.9c0,16.4-41.4,17.9-45.3,64c-0.8,7-3.1,19.5-11.7,19.5
			c-14,0-3.1-42.9-18.7-42.9c-35.9,0-47.6,70.2-60.8,70.2c-3.1,0-6.9-2.3-6.9-11.7c0-8.6,1.6-14.1,1.6-24.1
			c0-10.2-2.4-17.2-11.7-17.2c-21.1,0-39.8,49.1-57.8,49.1c-3.9,0-7.8-2.4-7.8-6.2c0-9.4,15.6-26.5,15.6-35.1
			c0-18.7-50.7-8.6-50.7-24.2c0-7,7-9.3,16.4-9.3c16.4,0,42.2,7,55.4,7c7.8,0,19.5-1.6,19.5-11.7c0-10.9-28.1-25-28.1-35.1
			c0-4.7,4.7-7,8.6-7c21.1,0,58.4,36.6,84.9,36.6c4.7,0,16.3-2.3,16.3-9.4c0-10.1-26.5-28-26.5-42.9c0-3.9,2.4-8.6,7-8.6
			c14,0,32.7,36.6,59.3,36.6c10.1,0,25-3.9,32.8-3.9C2082,2057.7,2084.3,2061.6,2084.3,2063.9"/>
		<path id="path54" class="st0" d="M1503.1,2531.2c12.5,0,14.9-30.5,17.2-48.4c1.5-9.4,3.1-10.2,7-10.2c9.4,0,24.2,35.9,34.2,35.9
			c14.8,0,54.7-41.4,121-41.4c94.3,0,183.3,66.3,183.3,183.3c0,113.1-79.7,179.4-189.6,179.4c-52.3,0-90.6-25.7-110.9-25.7
			c-12.3-0.8-31.1,30.4-40.4,30.4c-3.9,0-7.8-7.8-7.8-21c0-8.6,0-35.9-9.4-35.9c-18.8,0-91.3,53.8-91.3,34.3
			c0-18,48.4-72.6,48.4-86.6c0-14.1-47.6-27.3-47.6-36.7c0-17.1,50.7-20.3,50.7-42.1c0-21.8-53.1-39-53.1-55.4
			c0-13.2,53.1-3.9,53.1-20.3c0-16.4-39-71-39-86.6c0-3.9,0.8-3.9,3.9-3.9C1447.7,2480.5,1492.2,2531.2,1503.1,2531.2L1503.1,2531.2
			z M1525.8,2659.1c0,8.6-30.5,25-30.5,34.3c0,1.6,1.6,2.4,3.9,2.4c8.6,0,23.4-3.1,35.2-3.1c10.2,0,11.7,43.7,19.4,43.7
			c5.4,0,14.8-41.3,23.4-41.3c10.1,0,28.8,11.7,36.7,11.7c1.6,0,3.1-0.8,3.1-2.4c0-5.5-19.5-26.5-19.5-32.8c0-7,43.7-15.6,43.7-21.9
			c0-7.8-44.5-7-44.5-14.1c0-5.4,16.4-27.3,16.4-34.3c0-1.6-0.8-2.4-2.3-2.4c-6.2,0-30.4,10.9-37.5,10.9c-8.6,0-22.5-32-29.5-32
			c-2.3,0-3.9,3.1-3.9,7l-1.6,31.2c0,3.1-1.5,6.2-5.4,6.2c-9.4,0-27.3,0.8-32.8,0.8c-3.9,0-5.5,0.8-5.5,2.3
			C1494.6,2631.8,1525.8,2653.6,1525.8,2659.1L1525.8,2659.1z M1677.9,2510.9c-54.7,0-90.6,27.3-90.6,41.4c0,7,4.7,11.7,10.9,11.7
			c17.2,0,54.6-26.5,67.1-26.5c3.1,0,5.5,1.5,5.5,6.2c0,14.1-13.3,37.5-13.3,49.1c0,3.1,2.3,5.5,7,5.5c21.1,0,52.3-8.6,68.7-8.6
			c5.4,0,7,3.1,7,6.3c0,17.2-50.7,50.7-50.7,60.9c0,9.4,63.1,23.4,63.1,38.2c0,15.6-85.7,4.7-85.7,19.5c0,10.9,16.4,29.6,16.4,38.2
			c0,3.9-3.1,5.5-8.6,5.5c-7,0-44.5-14.8-60.1-14.8c-7.8,0-17.2,1.6-17.2,12.5c0,17.9,30.4,37.4,78.1,37.4
			c77.1,0,123.2-53.1,123.2-142C1798.8,2539,1720.1,2510.9,1677.9,2510.9"/>
		<path id="path56" class="st0" d="M1149.8,1161.4c0-7-2.4-14.9-8.6-22.7c-8.5,15.6-32.8,23.4-43.7,23.4
			c-80.3,0-49.9-116.2-135.7-116.2c-35.9,0-39,4.7-52.3,4.7c-5.5,0-8.6-2.4-8.6-7c0-20.3,28.9-70.2,109.2-70.2
			c80.4,0,157.6,49.1,157.6,110c0,10.1-2.3,21-7,31.9c3.1,4.7,10.9,7.8,18,7.8c12.4,0,19.5-14.1,31.2-14.1
			c12.5,0,21.9,9.4,21.9,21.9c0,10.2-5.5,17.2-14.8,21.9c6.2,4.7,10.9,12.5,10.9,21.1c0,13.3-9.4,25.7-25,25.7
			c-7,0-11.7-2.3-17.2-7.7c-1.5,14-9.4,27.2-24.2,27.2c-11.7,0-20.3-8.6-20.3-21.9C1141.2,1184.8,1149.8,1174.6,1149.8,1161.4"/>
		<path id="path58" class="st0" d="M939.9,1131.7c-23.4,0-58.5,25-58.5,39.1c0,11.7,10.9,18,19.5,18c19.5,0,54.6-24.2,54.6-44.5
			C955.5,1138.7,951.6,1131.7,939.9,1131.7z M722.3,1306.4c62.4-15.5,93.6-49.1,99.8-88.9c6.2-38.2,14-69.4,28.8-85
			c19.5-21.9,57.7-41.3,91.3-41.3c28.1,0,50.7,9.3,50.7,35c0,28.1-38.2,91.3-94.4,91.3c-5.4,0-12.5-0.8-20.3-0.8
			c-7,0-17.2,1.6-23.4,7c-12.5,10.9-16.4,69.5-39.8,104.5c-25.7,39-53.8,49.9-92,49.9c-27.3,0-57.7-14.8-57.7-36.7
			C665.3,1328.3,672.4,1318.9,722.3,1306.4"/>
		<path id="path60" class="st0" d="M1113.9,1401.6c0,35.1-72.6,35.8-72.6,88.9c0,13.3,8.6,35.9,25.8,60.1
			c7-40.6,23.4-61.6,58.5-74.9c69.4-25.7,78.8-64.7,78.8-106.1c0-70.2-49.1-157.6-175.5-157.6c-101.4,0-174,90.5-174,166.9
			c0,21.1,5.5,44.5,18.7,44.5c11.7,0,15.6-9.3,25-18.7c35.1-35.1,73.3-44.5,128.7-44.5C1077.2,1360.3,1113.9,1380.6,1113.9,1401.6z
			 M1117,1345.5c-26.8-12.2-37.4-10.2-37.4-37.5c0-10.1-2.3-23.3-2.3-30.4c0-9.4,1.6-14.8,12.5-14.8c28.1,0,72.6,47.6,72.6,88.2
			c0,10.9-6.2,15.6-13.3,15.6C1142.7,1366.5,1135.7,1354,1117,1345.5L1117,1345.5z M868.1,1739.4c0,49.9,118.6,76.4,118.6,138.1
			c0,10.2-3.9,28.1-10.9,41.3c41.3-22.6,71.8-60.9,71.8-92.1c0-53.8-56.1-78.8-56.1-112.4c0-39,60-45.2,60-93.6
			c0-39.8-57-85.8-57-137.3c0-39.8,28.1-72.5,71-78c-14.1-3.1-26.5-5.5-39.8-5.5c-78.8,0-159.9,64.7-159.9,142
			c0,38.2,16.4,71.7,41.3,95.9c21.9-18.7,43.7-31.2,57.7-31.2c12.5,0,18,6.2,18,15.6C982.8,1651.3,868.1,1677.8,868.1,1739.4"/>
		<path id="path62" class="st0" d="M415.7,1354c3.3-26.7,28.1-46.8,56.2-43.7c10.1,1.1,19.5,3.9,25.8,7.8
			c6.2-24.9,27.2-41,55.5-37.3c28.7,3.7,48.3,26.4,45.2,55.2c-0.8,7.8-2.3,12.5-4.7,18c0,0,3.8,0.4,6.7,0.9
			c28.2,5.3,47.2,27.9,44.8,55.2c-3.1,28.1-28.3,48.9-54.6,45.7c-10.2-1.2-19.6-5.1-25.8-10.6c-7,23.4-29,43.7-59.1,38.7
			c-27.1-4.5-45.1-27.5-42.3-56.7c0.4-4.7,1.5-10.2,3.9-15.6c0,0-4.6-0.7-7.8-1.1C436.7,1407.3,412,1384.3,415.7,1354z
			 M561.5,1384.7c1.9-16.3-9.7-31-26-32.9c-16.3-1.9-31.1,9.8-32.9,26c-1.9,16.3,9.7,31.1,26,33
			C544.9,1412.7,559.6,1401,561.5,1384.7"/>
	</g>
</g>
</svg>
