<?xml version="1.0" encoding="utf-8"?>
<!-- Generator: Adobe Illustrator 23.0.4, SVG Export Plug-In . SVG Version: 6.00 Build 0)  -->
<svg version="1.1" id="Layer_1" xmlns="http://www.w3.org/2000/svg" xmlns:xlink="http://www.w3.org/1999/xlink" x="0px" y="0px"
	 viewBox="0 0 436 237" style="enable-background:new 0 0 436 237;" xml:space="preserve">
<style type="text/css">
	.st0{opacity:0.04;}
	.st1{fill:#4976D1;}
	.st2{opacity:0.06;fill:#4775D0;enable-background:new    ;}
	.st3{opacity:0.11;}
	.st4{fill:#395A9B;}
</style>
<g id="Group_542" transform="rotate(-83 155.24 137.345)" class="st0">
	<g id="Group_540">
		<path id="Path_825" class="st1" d="M173.18,408.54l-60.89-21.63l34.32-96.62l60.89,21.63L173.18,408.54z M118.99,383.73
			L170,401.85l30.81-86.74l-51.01-18.12L118.99,383.73z"/>
	</g>
</g>
<g id="Group_545">
	<g>
		<circle id="Ellipse_19-2" class="st2" cx="48.56" cy="200.5" r="20.76"/>
	</g>
	<g>
		<circle id="Ellipse_18-2" class="st2" cx="48.56" cy="200.5" r="12.46"/>
	</g>
</g>
<g id="Group_537" transform="rotate(-40 236.369 106.828)" class="st3">
	<g id="Group_536">
		<g id="Group_530">
			<path id="Path_789" class="st4" d="M57.39-11.97c0.18,1.15-0.6,2.23-1.75,2.42c-1.15,0.18-2.23-0.6-2.42-1.75
				c-0.18-1.15,0.6-2.23,1.75-2.42C56.12-13.91,57.2-13.12,57.39-11.97C57.39-11.97,57.39-11.97,57.39-11.97z"/>
			<path id="Path_790" class="st4" d="M77.85-13.67c0.18,1.15-0.6,2.23-1.75,2.41c-1.15,0.18-2.23-0.6-2.41-1.75
				c-0.18-1.15,0.6-2.23,1.75-2.41C76.58-15.61,77.66-14.83,77.85-13.67C77.85-13.67,77.85-13.67,77.85-13.67z"/>
			<path id="Path_791" class="st4" d="M98.3-15.37c0.18,1.15-0.6,2.23-1.75,2.41s-2.23-0.6-2.41-1.75c-0.18-1.15,0.6-2.23,1.75-2.41
				C97.04-17.31,98.12-16.53,98.3-15.37z"/>
			<path id="Path_792" class="st4" d="M118.76-17.08c0.18,1.15-0.6,2.23-1.75,2.41c-1.15,0.18-2.23-0.6-2.41-1.75
				c-0.18-1.15,0.6-2.23,1.75-2.41C117.5-19.01,118.58-18.23,118.76-17.08C118.76-17.08,118.76-17.08,118.76-17.08z"/>
			<path id="Path_793" class="st4" d="M139.22-18.78c0.18,1.15-0.6,2.23-1.75,2.42c-1.15,0.18-2.23-0.6-2.42-1.75
				c-0.18-1.15,0.6-2.23,1.75-2.42C137.96-20.72,139.04-19.93,139.22-18.78C139.22-18.78,139.22-18.78,139.22-18.78z"/>
			<path id="Path_794" class="st4" d="M159.68-20.48c0.18,1.15-0.6,2.23-1.75,2.42s-2.23-0.6-2.42-1.75
				c-0.18-1.15,0.6-2.23,1.75-2.42C158.41-22.42,159.5-21.63,159.68-20.48C159.68-20.48,159.68-20.48,159.68-20.48z"/>
		</g>
		<g id="Group_531" transform="translate(4.381 49.242)">
			<path id="Path_795" class="st4" d="M54.71-42.08c0.18,1.15-0.6,2.23-1.75,2.42c-1.15,0.18-2.23-0.6-2.42-1.75
				c-0.18-1.15,0.6-2.23,1.75-2.42C53.44-44.02,54.53-43.23,54.71-42.08C54.71-42.08,54.71-42.08,54.71-42.08z"/>
			<path id="Path_796" class="st4" d="M75.17-43.78c0.18,1.15-0.6,2.23-1.75,2.42s-2.23-0.6-2.42-1.75
				c-0.18-1.15,0.6-2.23,1.75-2.42C73.9-45.72,74.98-44.93,75.17-43.78C75.17-43.78,75.17-43.78,75.17-43.78z"/>
			<path id="Path_797" class="st4" d="M95.62-45.48c0.18,1.15-0.6,2.23-1.75,2.42c-1.15,0.18-2.23-0.6-2.42-1.75s0.6-2.23,1.75-2.42
				c0,0,0,0,0,0C94.36-47.42,95.44-46.64,95.62-45.48C95.62-45.48,95.62-45.48,95.62-45.48z"/>
			<path id="Path_798" class="st4" d="M116.08-47.19c0.18,1.15-0.6,2.23-1.75,2.41c-1.15,0.18-2.23-0.6-2.41-1.75
				c-0.18-1.15,0.6-2.23,1.75-2.41C114.82-49.12,115.9-48.34,116.08-47.19C116.08-47.19,116.08-47.19,116.08-47.19z"/>
			<path id="Path_799" class="st4" d="M136.54-48.89c0.18,1.15-0.6,2.23-1.75,2.42c-1.15,0.18-2.23-0.6-2.42-1.75
				c-0.18-1.15,0.6-2.23,1.75-2.42C135.28-50.83,136.36-50.04,136.54-48.89C136.54-48.89,136.54-48.89,136.54-48.89z"/>
			<path id="Path_800" class="st4" d="M157-50.59c0.18,1.15-0.6,2.23-1.75,2.41c-1.15,0.18-2.23-0.6-2.41-1.75
				c-0.18-1.15,0.6-2.23,1.75-2.41C155.74-52.53,156.82-51.75,157-50.59C157-50.59,157-50.59,157-50.59z"/>
		</g>
		<g id="Group_532" transform="translate(8.763 98.483)">
			<path id="Path_801" class="st4" d="M52.03-72.19c0.18,1.15-0.6,2.23-1.75,2.42c-1.15,0.18-2.23-0.6-2.42-1.75
				c-0.18-1.15,0.6-2.23,1.75-2.41C50.76-74.13,51.85-73.34,52.03-72.19C52.03-72.19,52.03-72.19,52.03-72.19z"/>
			<path id="Path_802" class="st4" d="M72.49-73.89c0.18,1.15-0.6,2.23-1.75,2.42c-1.15,0.18-2.23-0.6-2.42-1.75
				c-0.18-1.15,0.6-2.23,1.75-2.41C71.22-75.83,72.31-75.04,72.49-73.89C72.49-73.89,72.49-73.89,72.49-73.89z"/>
			<path id="Path_803" class="st4" d="M92.95-75.59c0.18,1.15-0.6,2.23-1.75,2.41s-2.23-0.6-2.41-1.75
				c-0.18-1.15,0.6-2.23,1.75-2.41C91.68-77.53,92.76-76.74,92.95-75.59C92.95-75.59,92.95-75.59,92.95-75.59z"/>
			<path id="Path_804" class="st4" d="M113.41-77.3c0.18,1.15-0.6,2.23-1.75,2.41c-1.15,0.18-2.23-0.6-2.41-1.75
				c-0.18-1.15,0.6-2.23,1.75-2.41C112.14-79.23,113.22-78.45,113.41-77.3C113.41-77.3,113.41-77.3,113.41-77.3z"/>
			<path id="Path_805" class="st4" d="M133.86-79c0.18,1.15-0.6,2.23-1.75,2.41s-2.23-0.6-2.41-1.75c-0.18-1.15,0.6-2.23,1.75-2.41
				C132.6-80.94,133.68-80.15,133.86-79C133.86-79,133.86-79,133.86-79z"/>
			<path id="Path_806" class="st4" d="M154.32-80.7c0.18,1.15-0.6,2.23-1.75,2.41c-1.15,0.18-2.23-0.6-2.41-1.75
				c-0.18-1.15,0.6-2.23,1.75-2.41C153.06-82.64,154.14-81.85,154.32-80.7C154.32-80.7,154.32-80.7,154.32-80.7z"/>
		</g>
		<g id="Group_533" transform="translate(13.145 147.727)">
			<path id="Path_807" class="st4" d="M49.35-102.3c0.18,1.15-0.6,2.23-1.75,2.42s-2.23-0.6-2.42-1.75
				c-0.18-1.15,0.6-2.23,1.75-2.42C48.08-104.24,49.17-103.45,49.35-102.3C49.35-102.3,49.35-102.3,49.35-102.3z"/>
			<path id="Path_808" class="st4" d="M69.81-104c0.18,1.15-0.6,2.23-1.75,2.42c-1.15,0.18-2.23-0.6-2.42-1.75
				c-0.18-1.15,0.6-2.23,1.75-2.42C68.54-105.94,69.63-105.15,69.81-104z"/>
			<path id="Path_809" class="st4" d="M90.27-105.7c0.18,1.15-0.6,2.23-1.75,2.42s-2.23-0.6-2.42-1.75
				c-0.18-1.15,0.6-2.23,1.75-2.42c0,0,0,0,0,0C89-107.64,90.08-106.86,90.27-105.7z"/>
			<path id="Path_810" class="st4" d="M110.72-107.41c0.18,1.15-0.6,2.23-1.75,2.42c-1.15,0.18-2.23-0.6-2.42-1.75
				c-0.18-1.15,0.6-2.23,1.75-2.42C109.46-109.34,110.54-108.56,110.72-107.41z"/>
			<path id="Path_811" class="st4" d="M131.18-109.11c0.18,1.15-0.6,2.23-1.75,2.42s-2.23-0.6-2.42-1.75
				c-0.18-1.15,0.6-2.23,1.75-2.42C129.92-111.05,131-110.26,131.18-109.11C131.18-109.11,131.18-109.11,131.18-109.11z"/>
			<path id="Path_812" class="st4" d="M151.64-110.81c0.18,1.15-0.6,2.23-1.75,2.42c-1.15,0.18-2.23-0.6-2.42-1.75
				c-0.18-1.15,0.6-2.23,1.75-2.42C150.38-112.75,151.46-111.96,151.64-110.81C151.64-110.81,151.64-110.81,151.64-110.81z"/>
		</g>
		<g id="Group_534" transform="translate(17.526 196.968)">
			<path id="Path_813" class="st4" d="M46.67-132.41c0.18,1.15-0.6,2.23-1.75,2.42c-1.15,0.18-2.23-0.6-2.42-1.75
				c-0.18-1.15,0.6-2.23,1.75-2.42C45.41-134.35,46.49-133.56,46.67-132.41C46.67-132.41,46.67-132.41,46.67-132.41z"/>
			<path id="Path_814" class="st4" d="M67.13-134.11c0.18,1.15-0.6,2.23-1.75,2.42c-1.15,0.18-2.23-0.6-2.42-1.75
				c-0.18-1.15,0.6-2.23,1.75-2.42C65.86-136.05,66.95-135.26,67.13-134.11C67.13-134.11,67.13-134.11,67.13-134.11z"/>
			<path id="Path_815" class="st4" d="M87.59-135.81c0.18,1.15-0.6,2.23-1.75,2.41c-1.15,0.18-2.23-0.6-2.41-1.75
				c-0.18-1.15,0.6-2.23,1.75-2.41C86.32-137.75,87.41-136.96,87.59-135.81C87.59-135.81,87.59-135.81,87.59-135.81z"/>
			<path id="Path_816" class="st4" d="M108.05-137.52c0.18,1.15-0.6,2.23-1.75,2.41c-1.15,0.18-2.23-0.6-2.41-1.75
				c-0.18-1.15,0.6-2.23,1.75-2.41C106.78-139.45,107.86-138.67,108.05-137.52C108.05-137.52,108.05-137.52,108.05-137.52z"/>
			<path id="Path_817" class="st4" d="M128.51-139.22c0.18,1.15-0.6,2.23-1.75,2.41c-1.15,0.18-2.23-0.6-2.41-1.75
				c-0.18-1.15,0.6-2.23,1.75-2.41C127.24-141.16,128.32-140.37,128.51-139.22C128.51-139.22,128.51-139.22,128.51-139.22z"/>
			<path id="Path_818" class="st4" d="M148.96-140.92c0.18,1.15-0.6,2.23-1.75,2.41c-1.15,0.18-2.23-0.6-2.41-1.75
				c-0.18-1.15,0.6-2.23,1.75-2.41C147.7-142.86,148.78-142.07,148.96-140.92C148.96-140.92,148.96-140.92,148.96-140.92z"/>
		</g>
		<g id="Group_535" transform="translate(21.908 246.211)">
			<path id="Path_819" class="st4" d="M43.99-162.52c0.18,1.15-0.6,2.23-1.75,2.42c-1.15,0.18-2.23-0.6-2.42-1.75
				c-0.18-1.15,0.6-2.23,1.75-2.42C42.73-164.46,43.81-163.67,43.99-162.52C43.99-162.52,43.99-162.52,43.99-162.52z"/>
			<path id="Path_820" class="st4" d="M64.45-164.22c0.18,1.15-0.6,2.23-1.75,2.42c-1.15,0.18-2.23-0.6-2.42-1.75
				c-0.18-1.15,0.6-2.23,1.75-2.42C63.18-166.16,64.27-165.37,64.45-164.22C64.45-164.22,64.45-164.22,64.45-164.22z"/>
			<path id="Path_821" class="st4" d="M84.91-165.92c0.18,1.15-0.6,2.23-1.75,2.42c-1.15,0.18-2.23-0.6-2.42-1.75
				s0.6-2.23,1.75-2.42c0,0,0,0,0,0C83.64-167.86,84.73-167.07,84.91-165.92z"/>
			<path id="Path_822" class="st4" d="M105.37-167.63c0.18,1.15-0.6,2.23-1.75,2.41c-1.15,0.18-2.23-0.6-2.41-1.75
				c-0.18-1.15,0.6-2.23,1.75-2.41C104.1-169.56,105.18-168.78,105.37-167.63z"/>
			<path id="Path_823" class="st4" d="M125.83-169.33c0.18,1.15-0.6,2.23-1.75,2.41c-1.15,0.18-2.23-0.6-2.41-1.75
				c-0.18-1.15,0.6-2.23,1.75-2.41C124.56-171.27,125.64-170.48,125.83-169.33C125.83-169.33,125.83-169.33,125.83-169.33z"/>
			<path id="Path_824" class="st4" d="M146.28-171.03c0.18,1.15-0.6,2.23-1.75,2.42c-1.15,0.18-2.23-0.6-2.42-1.75
				c-0.18-1.15,0.6-2.23,1.75-2.42C145.02-172.97,146.1-172.18,146.28-171.03C146.28-171.03,146.28-171.03,146.28-171.03z"/>
		</g>
	</g>
</g>
<g id="Group_537_1_" transform="rotate(-40 236.369 106.828)" class="st3">
	<g id="Group_536_1_">
		<g id="Group_530_1_">
			<path id="Path_789_1_" class="st4" d="M257.74,150.47c0.18,1.15-0.6,2.23-1.75,2.42c-1.15,0.18-2.23-0.6-2.42-1.75
				c-0.18-1.15,0.6-2.23,1.75-2.42C256.47,148.54,257.55,149.32,257.74,150.47C257.74,150.47,257.74,150.47,257.74,150.47z"/>
			<path id="Path_790_1_" class="st4" d="M278.2,148.77c0.18,1.15-0.6,2.23-1.75,2.41c-1.15,0.18-2.23-0.6-2.41-1.75
				c-0.18-1.15,0.6-2.23,1.75-2.41C276.93,146.84,278.01,147.62,278.2,148.77C278.2,148.77,278.2,148.77,278.2,148.77z"/>
			<path id="Path_791_1_" class="st4" d="M298.65,147.07c0.18,1.15-0.6,2.23-1.75,2.41c-1.15,0.18-2.23-0.6-2.41-1.75
				c-0.18-1.15,0.6-2.23,1.75-2.41C297.39,145.13,298.47,145.92,298.65,147.07z"/>
			<path id="Path_792_1_" class="st4" d="M319.11,145.37c0.18,1.15-0.6,2.23-1.75,2.41c-1.15,0.18-2.23-0.6-2.41-1.75
				c-0.18-1.15,0.6-2.23,1.75-2.41C317.85,143.43,318.93,144.22,319.11,145.37C319.11,145.37,319.11,145.37,319.11,145.37z"/>
			<path id="Path_793_1_" class="st4" d="M339.57,143.66c0.18,1.15-0.6,2.23-1.75,2.42s-2.23-0.6-2.42-1.75
				c-0.18-1.15,0.6-2.23,1.75-2.42C338.3,141.73,339.39,142.51,339.57,143.66C339.57,143.66,339.57,143.66,339.57,143.66z"/>
			<path id="Path_794_1_" class="st4" d="M360.03,141.96c0.18,1.15-0.6,2.23-1.75,2.42c-1.15,0.18-2.23-0.6-2.42-1.75
				c-0.18-1.15,0.6-2.23,1.75-2.42C358.76,140.03,359.85,140.81,360.03,141.96C360.03,141.96,360.03,141.96,360.03,141.96z"/>
		</g>
		<g id="Group_531_1_" transform="translate(4.381 49.242)">
			<path id="Path_795_1_" class="st4" d="M255.06,120.37c0.18,1.15-0.6,2.23-1.75,2.42c-1.15,0.18-2.23-0.6-2.42-1.75
				c-0.18-1.15,0.6-2.23,1.75-2.42C253.79,118.43,254.87,119.21,255.06,120.37C255.06,120.36,255.06,120.36,255.06,120.37z"/>
			<path id="Path_796_1_" class="st4" d="M275.52,118.66c0.18,1.15-0.6,2.23-1.75,2.42c-1.15,0.18-2.23-0.6-2.42-1.75
				c-0.18-1.15,0.6-2.23,1.75-2.42C274.25,116.73,275.33,117.51,275.52,118.66C275.52,118.66,275.52,118.66,275.52,118.66z"/>
			<path id="Path_797_1_" class="st4" d="M295.97,116.96c0.18,1.15-0.6,2.23-1.75,2.42s-2.23-0.6-2.42-1.75
				c-0.18-1.15,0.6-2.23,1.75-2.42c0,0,0,0,0,0C294.71,115.02,295.79,115.81,295.97,116.96
				C295.97,116.96,295.97,116.96,295.97,116.96z"/>
			<path id="Path_798_1_" class="st4" d="M316.43,115.26c0.18,1.15-0.6,2.23-1.75,2.41c-1.15,0.18-2.23-0.6-2.41-1.75
				c-0.18-1.15,0.6-2.23,1.75-2.41C315.17,113.32,316.25,114.11,316.43,115.26C316.43,115.26,316.43,115.26,316.43,115.26z"/>
			<path id="Path_799_1_" class="st4" d="M336.89,113.56c0.18,1.15-0.6,2.23-1.75,2.42c-1.15,0.18-2.23-0.6-2.42-1.75
				c-0.18-1.15,0.6-2.23,1.75-2.42C335.63,111.62,336.71,112.4,336.89,113.56C336.89,113.55,336.89,113.55,336.89,113.56z"/>
			<path id="Path_800_1_" class="st4" d="M357.35,111.85c0.18,1.15-0.6,2.23-1.75,2.41c-1.15,0.18-2.23-0.6-2.41-1.75
				c-0.18-1.15,0.6-2.23,1.75-2.41C356.08,109.92,357.17,110.7,357.35,111.85C357.35,111.85,357.35,111.85,357.35,111.85z"/>
		</g>
		<g id="Group_532_1_" transform="translate(8.763 98.483)">
			<path id="Path_801_1_" class="st4" d="M252.38,90.26c0.18,1.15-0.6,2.23-1.75,2.42c-1.15,0.18-2.23-0.6-2.42-1.75
				c-0.18-1.15,0.6-2.23,1.75-2.41C251.11,88.32,252.19,89.1,252.38,90.26C252.38,90.26,252.38,90.26,252.38,90.26z"/>
			<path id="Path_802_1_" class="st4" d="M272.84,88.55c0.18,1.15-0.6,2.23-1.75,2.42c-1.15,0.18-2.23-0.6-2.42-1.75
				c-0.18-1.15,0.6-2.23,1.75-2.41C271.57,86.62,272.65,87.4,272.84,88.55C272.84,88.55,272.84,88.55,272.84,88.55z"/>
			<path id="Path_803_1_" class="st4" d="M293.29,86.85c0.18,1.15-0.6,2.23-1.75,2.41c-1.15,0.18-2.23-0.6-2.41-1.75
				c-0.18-1.15,0.6-2.23,1.75-2.41C292.03,84.92,293.11,85.7,293.29,86.85C293.29,86.85,293.29,86.85,293.29,86.85z"/>
			<path id="Path_804_1_" class="st4" d="M313.75,85.15c0.18,1.15-0.6,2.23-1.75,2.41c-1.15,0.18-2.23-0.6-2.41-1.75
				c-0.18-1.15,0.6-2.23,1.75-2.41C312.49,83.21,313.57,84,313.75,85.15C313.75,85.15,313.75,85.15,313.75,85.15z"/>
			<path id="Path_805_1_" class="st4" d="M334.21,83.45c0.18,1.15-0.6,2.23-1.75,2.41c-1.15,0.18-2.23-0.6-2.41-1.75
				c-0.18-1.15,0.6-2.23,1.75-2.41C332.95,81.51,334.03,82.29,334.21,83.45C334.21,83.45,334.21,83.45,334.21,83.45z"/>
			<path id="Path_806_1_" class="st4" d="M354.67,81.74c0.18,1.15-0.6,2.23-1.75,2.41c-1.15,0.18-2.23-0.6-2.41-1.75
				c-0.18-1.15,0.6-2.23,1.75-2.41C353.4,79.81,354.49,80.59,354.67,81.74C354.67,81.74,354.67,81.74,354.67,81.74z"/>
		</g>
		<g id="Group_533_1_" transform="translate(13.145 147.727)">
			<path id="Path_807_1_" class="st4" d="M249.7,60.15c0.18,1.15-0.6,2.23-1.75,2.42c-1.15,0.18-2.23-0.6-2.42-1.75
				c-0.18-1.15,0.6-2.23,1.75-2.42C248.43,58.21,249.52,58.99,249.7,60.15C249.7,60.14,249.7,60.14,249.7,60.15z"/>
			<path id="Path_808_1_" class="st4" d="M270.16,58.44c0.18,1.15-0.6,2.23-1.75,2.42s-2.23-0.6-2.42-1.75
				c-0.18-1.15,0.6-2.23,1.75-2.42C268.89,56.51,269.97,57.29,270.16,58.44z"/>
			<path id="Path_809_1_" class="st4" d="M290.61,56.74c0.18,1.15-0.6,2.23-1.75,2.42c-1.15,0.18-2.23-0.6-2.42-1.75
				s0.6-2.23,1.75-2.42c0,0,0,0,0,0C289.35,54.8,290.43,55.59,290.61,56.74z"/>
			<path id="Path_810_1_" class="st4" d="M311.07,55.04c0.18,1.15-0.6,2.23-1.75,2.42c-1.15,0.18-2.23-0.6-2.42-1.75
				c-0.18-1.15,0.6-2.23,1.75-2.42C309.81,53.1,310.89,53.89,311.07,55.04z"/>
			<path id="Path_811_1_" class="st4" d="M331.53,53.34c0.18,1.15-0.6,2.23-1.75,2.42c-1.15,0.18-2.23-0.6-2.42-1.75
				c-0.18-1.15,0.6-2.23,1.75-2.42C330.27,51.4,331.35,52.18,331.53,53.34C331.53,53.33,331.53,53.34,331.53,53.34z"/>
			<path id="Path_812_1_" class="st4" d="M351.99,51.63c0.18,1.15-0.6,2.23-1.75,2.42c-1.15,0.18-2.23-0.6-2.42-1.75
				c-0.18-1.15,0.6-2.23,1.75-2.42C350.73,49.7,351.81,50.48,351.99,51.63C351.99,51.63,351.99,51.63,351.99,51.63z"/>
		</g>
		<g id="Group_534_1_" transform="translate(17.526 196.968)">
			<path id="Path_813_1_" class="st4" d="M247.02,30.04c0.18,1.15-0.6,2.23-1.75,2.42c-1.15,0.18-2.23-0.6-2.42-1.75
				c-0.18-1.15,0.6-2.23,1.75-2.42C245.75,28.1,246.84,28.88,247.02,30.04C247.02,30.03,247.02,30.04,247.02,30.04z"/>
			<path id="Path_814_1_" class="st4" d="M267.48,28.33c0.18,1.15-0.6,2.23-1.75,2.42s-2.23-0.6-2.42-1.75
				c-0.18-1.15,0.6-2.23,1.75-2.42C266.21,26.4,267.3,27.18,267.48,28.33C267.48,28.33,267.48,28.33,267.48,28.33z"/>
			<path id="Path_815_1_" class="st4" d="M287.94,26.63c0.18,1.15-0.6,2.23-1.75,2.41c-1.15,0.18-2.23-0.6-2.41-1.75
				c-0.18-1.15,0.6-2.23,1.75-2.41C286.67,24.7,287.75,25.48,287.94,26.63C287.94,26.63,287.94,26.63,287.94,26.63z"/>
			<path id="Path_816_1_" class="st4" d="M308.4,24.93c0.18,1.15-0.6,2.23-1.75,2.41c-1.15,0.18-2.23-0.6-2.41-1.75
				c-0.18-1.15,0.6-2.23,1.75-2.41C307.13,22.99,308.21,23.78,308.4,24.93C308.4,24.93,308.4,24.93,308.4,24.93z"/>
			<path id="Path_817_1_" class="st4" d="M328.85,23.23c0.18,1.15-0.6,2.23-1.75,2.41s-2.23-0.6-2.41-1.75
				c-0.18-1.15,0.6-2.23,1.75-2.41C327.59,21.29,328.67,22.07,328.85,23.23C328.85,23.22,328.85,23.23,328.85,23.23z"/>
			<path id="Path_818_1_" class="st4" d="M349.31,21.52c0.18,1.15-0.6,2.23-1.75,2.41c-1.15,0.18-2.23-0.6-2.41-1.75
				c-0.18-1.15,0.6-2.23,1.75-2.41C348.05,19.59,349.13,20.37,349.31,21.52C349.31,21.52,349.31,21.52,349.31,21.52z"/>
		</g>
		<g id="Group_535_1_" transform="translate(21.908 246.211)">
			<path id="Path_819_1_" class="st4" d="M244.34-0.07c0.18,1.15-0.6,2.23-1.75,2.42c-1.15,0.18-2.23-0.6-2.42-1.75
				c-0.18-1.15,0.6-2.23,1.75-2.42C243.07-2.01,244.16-1.23,244.34-0.07C244.34-0.08,244.34-0.07,244.34-0.07z"/>
			<path id="Path_820_1_" class="st4" d="M264.8-1.78c0.18,1.15-0.6,2.23-1.75,2.42s-2.23-0.6-2.42-1.75
				c-0.18-1.15,0.6-2.23,1.75-2.42C263.53-3.71,264.62-2.93,264.8-1.78C264.8-1.78,264.8-1.78,264.8-1.78z"/>
			<path id="Path_821_1_" class="st4" d="M285.26-3.48c0.18,1.15-0.6,2.23-1.75,2.42c-1.15,0.18-2.23-0.6-2.42-1.75
				c-0.18-1.15,0.6-2.23,1.75-2.42c0,0,0,0,0,0C283.99-5.41,285.07-4.63,285.26-3.48z"/>
			<path id="Path_822_1_" class="st4" d="M305.71-5.18c0.18,1.15-0.6,2.23-1.75,2.41c-1.15,0.18-2.23-0.6-2.41-1.75
				c-0.18-1.15,0.6-2.23,1.75-2.41C304.45-7.12,305.53-6.33,305.71-5.18z"/>
			<path id="Path_823_1_" class="st4" d="M326.17-6.88c0.18,1.15-0.6,2.23-1.75,2.41c-1.15,0.18-2.23-0.6-2.41-1.75
				c-0.18-1.15,0.6-2.23,1.75-2.41C324.91-8.82,325.99-8.04,326.17-6.88C326.17-6.89,326.17-6.88,326.17-6.88z"/>
			<path id="Path_824_1_" class="st4" d="M346.63-8.59c0.18,1.15-0.6,2.23-1.75,2.42s-2.23-0.6-2.42-1.75
				c-0.18-1.15,0.6-2.23,1.75-2.42C345.37-10.52,346.45-9.74,346.63-8.59C346.63-8.59,346.63-8.59,346.63-8.59z"/>
		</g>
	</g>
</g>
</svg>
