<svg xmlns="http://www.w3.org/2000/svg" xmlns:xlink="http://www.w3.org/1999/xlink" viewBox="0 0 706.64 382.48"><defs><style>.cls-1{isolation:isolate;}.cls-2{fill:#f9f9f9;}.cls-3{fill:#c62c3b;}.cls-4{fill:url(#linear-gradient);}.cls-5{fill:url(#linear-gradient-2);}.cls-6{fill:#ff5c5c;mix-blend-mode:color-dodge;}.cls-23,.cls-25,.cls-26,.cls-27,.cls-6{opacity:0.4;}.cls-7{fill:#fefefe;}.cls-8{fill:#ffc89f;}.cls-28,.cls-9{opacity:0.2;}.cls-9{mix-blend-mode:multiply;fill:url(#linear-gradient-3);}.cls-10{fill:#383534;}.cls-11{fill:#f7a57c;}.cls-12{fill:#5b392c;opacity:0.8;}.cls-13{fill:#282626;}.cls-14,.cls-15{fill:#fff;}.cls-14{opacity:0.5;}.cls-16{fill:#494543;}.cls-17{fill:#e28861;}.cls-18{fill:#545150;}.cls-19{fill:#ffe8e1;}.cls-20{fill:url(#linear-gradient-4);}.cls-21{fill:#000101;opacity:0.1;}.cls-22{fill:#4f4d4b;}.cls-23{mix-blend-mode:overlay;fill:url(#linear-gradient-5);}.cls-24{fill:url(#linear-gradient-6);}.cls-25{fill:url(#linear-gradient-7);}.cls-26{fill:url(#linear-gradient-8);}.cls-27{fill:url(#linear-gradient-9);}.cls-29{fill:url(#Degradado_sin_nombre_100);}.cls-30{fill:url(#Degradado_sin_nombre_103);}.cls-31{fill:url(#Degradado_sin_nombre_105);}.cls-32{fill:#ffc8bb;}.cls-33{fill:#ffb3a2;}.cls-34{fill:url(#Degradado_sin_nombre_100-2);}.cls-35{fill:url(#Degradado_sin_nombre_103-2);}.cls-36{fill:url(#Degradado_sin_nombre_105-2);}.cls-37{fill:#d8e2e8;}</style><linearGradient id="linear-gradient" x1="374.67" y1="152.59" x2="507.72" y2="163.54" gradientUnits="userSpaceOnUse"><stop offset="0" stop-color="#c41f1f"/><stop offset="0.07" stop-color="#c72c2c"/><stop offset="0.39" stop-color="#d56568"/><stop offset="0.66" stop-color="#df8e93"/><stop offset="0.87" stop-color="#e6a8ad"/><stop offset="1" stop-color="#e8b1b7"/></linearGradient><linearGradient id="linear-gradient-2" x1="405.39" y1="179.06" x2="433.53" y2="45.22" gradientUnits="userSpaceOnUse"><stop offset="0" stop-color="#f75554"/><stop offset="0.16" stop-color="#f46868"/><stop offset="0.53" stop-color="#ed8f93"/><stop offset="0.83" stop-color="#e9a8ad"/><stop offset="1" stop-color="#e8b1b7"/></linearGradient><linearGradient id="linear-gradient-3" x1="-73.06" y1="309.86" x2="-64.14" y2="226.24" gradientTransform="matrix(-1, 0, 0, 1, 230.3, 0)" gradientUnits="userSpaceOnUse"><stop offset="0" stop-color="#c63900"/><stop offset="1" stop-color="#b33700"/></linearGradient><linearGradient id="linear-gradient-4" x1="-46.39" y1="410.43" x2="-174.81" y2="126.8" gradientTransform="matrix(-1, 0, 0, 1, 230.3, 0)" gradientUnits="userSpaceOnUse"><stop offset="0" stop-color="#39b54a"/><stop offset="1" stop-color="#aaffb1"/></linearGradient><linearGradient id="linear-gradient-5" x1="-75.33" y1="-7.08" x2="-71.76" y2="713.26" gradientTransform="matrix(-1, 0, 0, 1, 230.3, 0)" gradientUnits="userSpaceOnUse"><stop offset="0" stop-color="#ff7915"/><stop offset="1" stop-color="#ff00c7"/></linearGradient><linearGradient id="linear-gradient-6" x1="-76.93" y1="358.68" x2="790.61" y2="362.2" gradientUnits="userSpaceOnUse"><stop offset="0" stop-color="#333"/><stop offset="0.43" stop-color="#5c5c5c"/><stop offset="0.79" stop-color="#767676"/><stop offset="1" stop-color="gray"/></linearGradient><linearGradient id="linear-gradient-7" x1="542.64" y1="323.12" x2="553.95" y2="323.17" gradientTransform="translate(-139.74 27.91) rotate(-7.68)" xlink:href="#linear-gradient-6"/><linearGradient id="linear-gradient-8" x1="791.36" y1="1448.6" x2="798.87" y2="1448.63" gradientTransform="matrix(-0.22, -0.98, 0.98, -0.22, -834.52, 1312.18)" xlink:href="#linear-gradient-6"/><linearGradient id="linear-gradient-9" x1="688.07" y1="410.6" x2="699.38" y2="410.64" gradientTransform="matrix(0.94, -0.33, 0.33, 0.94, -335.64, 104.53)" xlink:href="#linear-gradient-6"/><linearGradient id="Degradado_sin_nombre_100" x1="-4289.4" y1="131.75" x2="-4222.09" y2="131.75" gradientTransform="matrix(-1, 0, 0, 1, -4141.36, 0)" gradientUnits="userSpaceOnUse"><stop offset="0" stop-color="#ffb3a2"/><stop offset="0.37" stop-color="#ffbcad"/><stop offset="1" stop-color="#ffc8bb"/></linearGradient><linearGradient id="Degradado_sin_nombre_103" x1="-4299.6" y1="111.56" x2="-4184.65" y2="111.56" gradientTransform="matrix(-1, 0, 0, 1, -4141.36, 0)" gradientUnits="userSpaceOnUse"><stop offset="0" stop-color="#ff8984"/><stop offset="0.59" stop-color="#ffa598"/><stop offset="1" stop-color="#ffb3a2"/></linearGradient><linearGradient id="Degradado_sin_nombre_105" x1="-4296.1" y1="64.88" x2="-4206.5" y2="64.88" gradientTransform="matrix(-1, 0, 0, 1, -4141.36, 0)" gradientUnits="userSpaceOnUse"><stop offset="0" stop-color="#ffc8bb"/><stop offset="0.29" stop-color="#ffbaae"/><stop offset="0.85" stop-color="#ff948e"/><stop offset="1" stop-color="#ff8984"/></linearGradient><linearGradient id="Degradado_sin_nombre_100-2" x1="-4808.81" y1="199.74" x2="-4764.7" y2="199.74" xlink:href="#Degradado_sin_nombre_100"/><linearGradient id="Degradado_sin_nombre_103-2" x1="-4771.18" y1="216.12" x2="-4695.85" y2="216.12" xlink:href="#Degradado_sin_nombre_103"/><linearGradient id="Degradado_sin_nombre_105-2" x1="-4789.45" y1="209.47" x2="-4730.73" y2="209.47" xlink:href="#Degradado_sin_nombre_105"/></defs><title>Asset 18</title><g class="cls-1"><g id="Layer_2" data-name="Layer 2"><g id="Layer_1-2" data-name="Layer 1"><rect class="cls-2" width="706.64" height="382.48"/><polygon class="cls-3" points="434.65 165.59 382.21 178.98 392.8 162.34 434.65 165.59"/><polygon class="cls-4" points="354.92 164.12 434.65 165.59 434.65 144.37 354.92 164.12"/><polygon class="cls-5" points="354.92 119 475.9 99.57 475.9 143.78 354.92 164.12 354.92 119"/><path class="cls-6" d="M354.92,129.63c31.76-14.91,106.28-16,119.39,14.42l1.59-.27V99.57L354.92,119Z"/><path class="cls-3" d="M377.47,128.54v17.08l-2.94.4v-7l-5.78.85v6.9l-2.94.4V130.45l2.94-.48v6.64l5.78-.89V129Z"/><path class="cls-3" d="M379.94,128.14a2.34,2.34,0,0,1,1.77-2.43c1.05-.17,1.76.59,1.76,1.78a2.35,2.35,0,0,1-1.76,2.5C380.65,130.15,379.94,129.34,379.94,128.14Zm.35,3.91,2.83-.44v13.24l-2.83.39Z"/><path class="cls-3" d="M399.2,142.68l-2.45-4.58-.15,0-2.56.37v4.89l-2.94.39V126.31l5.5-.9c3.4-.56,5.52,1.56,5.52,5.55a7.19,7.19,0,0,1-2.61,6l2.85,5.3Zm-2.76-13.92-2.4.38v6.11l2.4-.35c1.79-.27,2.7-1.57,2.7-3.49S398.23,128.47,396.44,128.76Z"/><path class="cls-3" d="M403.52,135.25c0-4.13,2.27-7.41,5.38-7.9s5.35,2.13,5.35,6.33-2.25,7.47-5.35,7.89S403.52,139.37,403.52,135.25Zm7.87-1.15c0-2.4-1.08-3.68-2.49-3.46s-2.51,1.81-2.51,4.19,1.09,3.65,2.51,3.45S411.39,136.49,411.39,134.1Z"/><path class="cls-3" d="M426.79,131.84c0,4.46-2.13,7.6-4.87,8a2.91,2.91,0,0,1-3.07-1.41V140l-2.7.36V121.12l2.83-.47v6.81a4.06,4.06,0,0,1,2.94-2.16C424.66,124.87,426.79,127.38,426.79,131.84Zm-2.87.42c0-2.44-1.07-3.75-2.49-3.53s-2.49,1.84-2.49,4.26,1.07,3.73,2.49,3.54S423.92,134.71,423.92,132.26Z"/><path class="cls-3" d="M438.2,131.35l-7.39,1.07c.27,1.74,1.3,2.69,2.79,2.48a3.4,3.4,0,0,0,2.45-1.74l1.51,2.2a5.27,5.27,0,0,1-4,2.88c-3.38.46-5.58-2.34-5.58-6.57s2.24-7.67,5.22-8.14,5.08,2,5.08,6.69C438.25,130.54,438.21,131,438.2,131.35ZM430.77,130l4.81-.71c-.2-1.79-1.12-2.82-2.4-2.63S431,128.15,430.77,130Z"/><path class="cls-3" d="M446.21,121.47v3.92c-.24,0-.42,0-.64,0-1.56.24-2.59,1.66-2.59,4.45v6.87l-2.84.38V122.64l2.71-.42v1.92A4.36,4.36,0,0,1,446.21,121.47Z"/><path class="cls-3" d="M454.55,134.47a3.59,3.59,0,0,1-2.31,1.24c-2.31.31-3.65-1.28-3.65-4.77v-6l-1.51.23v-3.27l1.51-.24v-3.57l2.83-.46v3.59l2.44-.38v3.3l-2.44.37v6c0,1.26.46,1.88,1.22,1.78a1.8,1.8,0,0,0,1.14-.71Z"/><path class="cls-3" d="M460.87,132c0-1.42.73-2.57,1.74-2.72s1.75.81,1.75,2.24-.73,2.63-1.75,2.77S460.87,133.41,460.87,132Zm.05-17.14,3.38-.55-.56,12.83-2.25.33Z"/><path class="cls-7" d="M378.68,129.75v17.08l-2.94.4v-7l-5.78.85V148l-2.94.4V131.66l2.94-.48v6.63l5.78-.88v-6.7Z"/><path class="cls-7" d="M381.15,129.35a2.34,2.34,0,0,1,1.77-2.43c1.05-.18,1.76.59,1.76,1.77a2.34,2.34,0,0,1-1.76,2.5C381.86,131.36,381.15,130.55,381.15,129.35Zm.35,3.91,2.83-.45v13.25l-2.83.39Z"/><path class="cls-7" d="M400.41,143.89,398,139.31l-.14,0-2.56.37v4.88l-2.94.4V127.52l5.5-.9c3.39-.56,5.52,1.56,5.52,5.54a7.14,7.14,0,0,1-2.62,6l2.86,5.31ZM397.65,130l-2.4.38v6.11l2.4-.35c1.79-.27,2.7-1.57,2.7-3.49S399.44,129.68,397.65,130Z"/><path class="cls-7" d="M404.73,136.45c0-4.12,2.27-7.4,5.38-7.89s5.35,2.13,5.35,6.32-2.25,7.48-5.35,7.9S404.73,140.58,404.73,136.45Zm7.86-1.15c0-2.39-1.07-3.67-2.48-3.46s-2.51,1.82-2.51,4.19,1.09,3.66,2.51,3.46S412.59,137.7,412.59,135.3Z"/><path class="cls-7" d="M428,133.05c0,4.46-2.13,7.6-4.87,8a2.93,2.93,0,0,1-3.07-1.41v1.61l-2.7.37V122.33l2.83-.47v6.81a4,4,0,0,1,2.94-2.16C425.87,126.08,428,128.59,428,133.05Zm-2.87.42c0-2.44-1.07-3.75-2.49-3.54s-2.49,1.84-2.49,4.27,1.07,3.73,2.49,3.53S425.13,135.91,425.13,133.47Z"/><path class="cls-7" d="M439.4,132.56,432,133.63c.28,1.74,1.31,2.69,2.8,2.48a3.4,3.4,0,0,0,2.45-1.74l1.51,2.2a5.29,5.29,0,0,1-4,2.88c-3.38.46-5.58-2.34-5.58-6.57s2.24-7.67,5.21-8.14,5.09,2,5.09,6.69C439.46,131.75,439.42,132.21,439.4,132.56ZM432,131.22l4.81-.71c-.2-1.79-1.13-2.83-2.4-2.63S432.18,129.36,432,131.22Z"/><path class="cls-7" d="M447.42,122.68v3.92a3.34,3.34,0,0,0-.64,0c-1.56.23-2.6,1.66-2.6,4.45V138l-2.83.38V123.85l2.71-.42v1.92A4.34,4.34,0,0,1,447.42,122.68Z"/><path class="cls-7" d="M455.75,135.67a3.56,3.56,0,0,1-2.3,1.25c-2.31.31-3.65-1.28-3.65-4.77v-6l-1.51.22v-3.26l1.51-.24v-3.57l2.83-.46v3.59l2.43-.38v3.3l-2.43.37v6c0,1.26.46,1.88,1.22,1.78a1.8,1.8,0,0,0,1.14-.71Z"/><path class="cls-7" d="M462.08,133.23c0-1.42.72-2.58,1.74-2.72s1.74.81,1.74,2.24-.72,2.63-1.74,2.77S462.08,134.62,462.08,133.23Zm.05-17.14,3.38-.55L465,128.37l-2.26.33Z"/><path class="cls-8" d="M274.23,295l-4.72-66.51,44.94,33.81,2.45,23.85c3.48-.37,7-.72,10.74-1.07-.69,13.51-34,30.15-62.73,13.86C268,297.44,271.11,296.17,274.23,295Z"/><path class="cls-9" d="M314.75,299.87c-15.08-2.06-29.19-8.74-41.74-22.09l-3-41.65a40.35,40.35,0,0,1,4.32-4l40.08,30.15,2.45,23.85c3.48-.37,7-.72,10.74-1.07C327.38,290.22,322.4,295.81,314.75,299.87Z"/><path class="cls-10" d="M298.52,160.19c6.2-15.54,18.23-25.33,26.88-21.89s10.62,18.84,4.43,34.37S311.6,198,303,194.56,292.33,175.73,298.52,160.19Z"/><path class="cls-11" d="M323,272.45c6.14-14.89,14.4-31.24,16.56-46.39,0,0-12.78-22.14-3.77-37.47,0,0-7.94-30.68-24.91-31s-53.1,6.75-49.7,48.58C267.28,281.84,323,272.45,323,272.45Z"/><path class="cls-8" d="M322.44,269.54c6.78-13.55,14.93-28.33,17.09-43.48,0,0-12.78-22.14-3.77-37.47,0,0-7.94-30.68-24.91-31s-56.42,7.15-49.7,48.58C272.2,274.34,322.44,269.54,322.44,269.54Z"/><path class="cls-11" d="M324.44,190.33c.28,0,.55,0,.83,0a78.92,78.92,0,0,0,10-.66c-7.82,15.26,4.31,36.36,4.31,36.36-2,13.79-9,28.56-14.85,42.33,3.63-11.77,11-30.24,0-38.65C310,218.44,320.47,193,324.44,190.33Z"/><path class="cls-12" d="M327.61,209.49c-.33-3.82-5.83-6.41-5.65.18C322,213.24,327.48,216,327.61,209.49Z"/><path class="cls-13" d="M326,209.54c-.22-2.55-3.89-4.28-3.77.12C322.22,212.05,325.91,213.92,326,209.54Z"/><path class="cls-14" d="M326.55,210.06c-.11.94-.81,1.69-.34,1.74s.94-.67,1.05-1.62-.19-1.75-.66-1.8S326.66,209.11,326.55,210.06Z"/><ellipse class="cls-15" cx="323.43" cy="208.66" rx="0.58" ry="1.16"/><path class="cls-16" d="M339.53,226.06c2,4.73,8.59,21.7-7.51,41.81,0,0-46,36.49-67.09-32C300.71,229.1,313.84,250.27,339.53,226.06Z"/><path class="cls-8" d="M314.26,237.92c8.47,0,22-5.08,21.17-7.9s-18.87-19.54-11-39.69L316,191.91Z"/><path class="cls-17" d="M331.48,228.61c-.82-2.73-16.88-18.32-10.78-37.59l3.74-.69c-7.88,20.15,10.14,36.87,11,39.69s-12.7,7.9-21.17,7.9l.06-1.73C322.46,235.05,332.2,231,331.48,228.61Z"/><path class="cls-16" d="M321,162s13.3-20.88,4.11-24.12-65.93-8.06-80.86,47c0,0,9.7,50.38,28,72.07,0,0,5.51.28,4.84-13.2-.88-18-10.75-50.54-3.93-60.54C285.12,165.75,321,162,321,162Z"/><path class="cls-18" d="M244.28,184.88c4.34-16,12.21-26.92,21.42-34.32C327,138,264,175,244.28,184.88Z"/><path class="cls-11" d="M307.62,207.62c-3.24.24-17.92,2.06-17.92,2.06s7.76-5.56,14.39-6.2Z"/><path class="cls-8" d="M270,219.15c-4.84-4.84-8.26.85-8.47,5.08-.18,3.69,7.41,14.61,10.38,10.16S271.71,220.84,270,219.15Z"/><path class="cls-13" d="M314,259c9.73-.47,15.86-12,14.38-14s-23.92-3.49-27.74.53S309.47,259.19,314,259Z"/><path class="cls-19" d="M327.49,244.45l-1.91,3.38-19.27.11s-3.59-2.33-3.27-3.49C303.93,241.19,322.41,242,327.49,244.45Z"/><path class="cls-17" d="M268.89,222.91c-2.85-2.86-5.09-1.08-6.11,1.4.33-3.31,3-7.36,6.68-3.66,1.25,1.25,3.47,7.58,1.86,11.29C271.6,228.33,269.91,223.93,268.89,222.91Z"/><path class="cls-17" d="M269,225.67c-2.26-1.83-3.73-.39-4.28,1.46,0-2.39,1.6-5.49,4.52-3.12,1,.8,3.05,5.16,2.17,7.93C271.29,229.34,269.76,226.32,269,225.67Z"/><path class="cls-16" d="M304.73,159.87c6.78-7.62,24.14-19.48,12.92-34.3,0,0,23.08,7,4.23,33.45Z"/><path class="cls-16" d="M309.05,152.5c2.92-5.68,11.6-15.58,2.49-22.81,0,0,15.08.63,7.78,19.62Z"/><path class="cls-12" d="M301.59,213.72c-.33-3.82-5.83-6.41-5.65.19C295.94,217.48,301.46,220.28,301.59,213.72Z"/><path class="cls-13" d="M300,213.78c-.22-2.56-3.89-4.28-3.77.12C296.2,216.28,299.89,218.15,300,213.78Z"/><path class="cls-14" d="M300.53,214.29c-.11,1-.81,1.69-.34,1.75s.94-.67,1.05-1.62-.19-1.75-.66-1.81S300.64,213.35,300.53,214.29Z"/><ellipse class="cls-15" cx="296.99" cy="212.59" rx="0.56" ry="1.12"/><path class="cls-20" d="M209.86,364.43l187.72-1.26s-3.27-38.66-15.75-56.52a54.53,54.53,0,0,0-4.29-5.44,47.74,47.74,0,0,0-6.85-6.31c-15.35-11.47-43.35-10.1-43.35-10.1s-10.74,18.71-29.21,19.66a24.54,24.54,0,0,1-24.4-14.64s-9.49-.14-33.54,10.07c-11.55,4.89-18.81,14-23.37,23.07C210.19,336.16,209.86,364.43,209.86,364.43Z"/><path class="cls-21" d="M209.86,364.43l187.72-1.26s-3.27-38.66-15.75-56.52L216.82,323C210.19,336.16,209.86,364.43,209.86,364.43Z"/><path class="cls-22" d="M308.45,186.94c.75-4.26-1.11-5.59-1.36-5.92s-3.53,1.31-4.89,2c-3.53,1.77-9.74,5.5-16.87,14.12l1.23.59S304.8,188.49,308.45,186.94Z"/><path class="cls-22" d="M334.3,192.19s3.14.23,1.82-4.06-10-4.68-10-4.68-3.84-.21-3.77.32a14.07,14.07,0,0,0,2.06,6.46Z"/><path class="cls-23" d="M216.89,323c4.55-9.07,11.82-18.18,23.37-23.07,24.05-10.21,33.54-10.07,33.54-10.07s.05.14.16.38l-2.44-34.26c-17.77-22.21-27.17-71.06-27.17-71.06.26-.94.52-1.86.8-2.76l.27-.82c.2-.63.4-1.25.61-1.87.11-.29.21-.58.32-.88.21-.59.43-1.17.65-1.74.1-.27.21-.54.31-.8.25-.61.5-1.22.76-1.82.09-.2.17-.4.26-.59.33-.74.66-1.45,1-2.16l.07-.15c15.73-32.23,49-36.23,66.2-35a9.73,9.73,0,0,0-4-6.58s7.51.32,9.36,7.18l.34.06c.38-3.55-.55-7.35-3.59-11.36,0,0,12,3.63,11.63,15.55,5.19,6,5.67,18.71.54,31.55-.06.16-.13.32-.19.47a79.05,79.05,0,0,1,5.53,13.39,4.15,4.15,0,0,1,1,1.6c1.32,4.29-1.82,4.06-1.82,4.06l-.15,0c-5.5,15,5.38,33.9,5.38,33.9,2,4.73,8.58,21.7-7.51,41.81A52.19,52.19,0,0,1,315.92,276l1.05,10.2c3.33-.35,6.72-.69,10.25-1l.19-.33s28-1.37,43.35,10.1a47.74,47.74,0,0,1,6.85,6.31,54.53,54.53,0,0,1,4.29,5.44c12.48,17.86,15.75,56.52,15.75,56.52l-187.72,1.26S210.26,336.16,216.89,323Z"/><path class="cls-8" d="M402.94,362.54,374.3,355c3.61-28,7.7-48.52,17.23-82.88q2-7.07,4.14-14.33l8.54-.45v.41C404.15,262.79,405.11,302.3,402.94,362.54Z"/><path class="cls-11" d="M412.16,363.14l-19.76-3.36c.78-41.36-.75-67.41-.87-87.62,0-1.2,0-2.37,0-3.46,1.37-3.63,2.7-7.22,4.16-10.87l8.54-.45s4.31-.27,4.31,0C408.59,262.37,410.9,305.69,412.16,363.14Z"/><path class="cls-11" d="M429.9,239.68c-10.59-6.73-43.14,24.93-37.64,44.91,2.36,8.56,7.66.93,21.93-10.42,13.17-10.46,14.22-11.43,16.18-13.43C442.09,248.75,442.13,247.44,429.9,239.68Z"/><path class="cls-8" d="M431.15,238.12c-10.59-6.73-45.82,9.84-44.13,47.75.45,10,11.71-16.8,33.3-23.44C436.36,257.51,443.38,245.88,431.15,238.12Z"/><path class="cls-8" d="M411.32,245.76c3.31,1.48,12.24-5.64,18.61-15.25,6.13-9.25,9.85-20.92,6.88-23.27s-5.76,11.27-13.57,20C413.18,238.5,409.57,245,411.32,245.76Z"/><path class="cls-8" d="M421.69,249.81c3.24,1.62,12.47-5.1,19.26-14.42,6.52-9,10.74-20.47,7.88-22.95s-6.23,11-14.42,19.4C423.86,242.63,420,249,421.69,249.81Z"/><path class="cls-8" d="M418.17,260.76c2.78,2.33,13.3-2.12,22-9.65,8.39-7.24,15.13-17.47,12.91-20.54s-8.58,9.31-18.47,15.6C421.92,254.28,416.69,259.53,418.17,260.76Z"/><path class="cls-8" d="M392.48,267.14c3.47.19,13.76-11.07,12.64-22.64-1.3-13.48.35-23.81-3.42-25s-5.67,11.9-7.46,24.75C392.64,255.74,390.66,267,392.48,267.14Z"/><rect class="cls-24" x="12.11" y="350.48" width="683.85" height="19.91"/><path class="cls-11" d="M394.65,262.37s5.73-14.72,19.54-16.42Z"/><path class="cls-25" d="M444.56,256.33s14.76,19.17.21,37.71C444.77,294,453.34,270.7,444.56,256.33Z"/><path class="cls-26" d="M390.46,219.22s11.81-10.88,24.92-2.36C415.38,216.86,399.45,212.57,390.46,219.22Z"/><path class="cls-27" d="M448.36,247.84s18.26,15.87,7.68,36.92C456,284.76,459.82,260.19,448.36,247.84Z"/><g class="cls-28"><path class="cls-29" d="M88.55,165.41a7.83,7.83,0,0,0,5.53-2.29l51.67-51.67a7.82,7.82,0,0,0-11.06-11.06L83,152.06a7.82,7.82,0,0,0,5.53,13.35Z"/><path class="cls-30" d="M50.79,169a7.48,7.48,0,0,0,5.31-2.2l100-99.95a7.51,7.51,0,0,0-10.62-10.61l-100,99.95A7.51,7.51,0,0,0,50.79,169Z"/><path class="cls-31" d="M68.26,109.68a3.14,3.14,0,0,0,2.22-.92l83.34-83.34A3.13,3.13,0,1,0,149.4,21L66.05,104.34a3.13,3.13,0,0,0,2.21,5.34Z"/><path class="cls-32" d="M113.31,149.79a.78.78,0,0,0,.55-.23L197.2,66.21a.78.78,0,0,0-1.1-1.1l-83.35,83.34a.79.79,0,0,0,.56,1.34Z"/><path class="cls-33" d="M21.81,171.89a.78.78,0,0,0,.55-.23L105.7,88.31a.78.78,0,1,0-1.1-1.1L21.25,170.55a.8.8,0,0,0,0,1.11A.82.82,0,0,0,21.81,171.89Z"/></g><g class="cls-28"><path class="cls-34" d="M628.46,221.79a5.1,5.1,0,0,0,3.62-1.5l33.86-33.86a5.12,5.12,0,0,0-7.24-7.25L624.84,213a5.13,5.13,0,0,0,3.62,8.75Z"/><path class="cls-35" d="M559.4,253.79a4.91,4.91,0,0,0,3.48-1.44l65.49-65.5a4.91,4.91,0,1,0-7-6.95l-65.5,65.49a4.92,4.92,0,0,0,3.48,8.4Z"/><path class="cls-36" d="M591.42,238.83a2.05,2.05,0,0,0,1.45-.6l54.61-54.62a2.05,2.05,0,0,0-2.9-2.9L590,235.33a2.05,2.05,0,0,0,1.45,3.5Z"/><path class="cls-32" d="M634.26,229a.51.51,0,0,0,.36-.15l54.61-54.62a.51.51,0,1,0-.72-.72l-54.62,54.61a.52.52,0,0,0,0,.73A.51.51,0,0,0,634.26,229Z"/><path class="cls-33" d="M566.05,277.85a.51.51,0,0,0,.36-.15L621,223.08a.51.51,0,0,0,0-.72.52.52,0,0,0-.73,0L565.69,277a.52.52,0,0,0,0,.73A.51.51,0,0,0,566.05,277.85Z"/></g><rect class="cls-37" x="11.99" y="370.39" width="683.97" height="3.81" rx="1.91"/></g></g></g></svg>