<?xml version="1.0" encoding="utf-8"?>
<!-- Generator: Adobe Illustrator 23.0.4, SVG Export Plug-In . SVG Version: 6.00 Build 0)  -->
<svg version="1.1" id="Layer_1" xmlns="http://www.w3.org/2000/svg" xmlns:xlink="http://www.w3.org/1999/xlink" x="0px" y="0px"
	 viewBox="0 0 95.13 73.51" style="enable-background:new 0 0 95.13 73.51;" xml:space="preserve">
<style type="text/css">
	.st0{fill:#276CE6;}
</style>
<g>
	<g id="home" transform="translate(3)">
		<g id="Group_815">
			<g id="Group_814">
				<path id="Path_927" class="st0" d="M91.67,47.25L69.79,31.23c-0.42-0.31-1-0.31-1.42,0L46.49,47.25
					c-0.52,0.41-0.62,1.16-0.22,1.68c0.39,0.5,1.11,0.62,1.63,0.25l21.17-15.5l21.17,15.5c0.55,0.37,1.29,0.23,1.67-0.32
					C92.27,48.35,92.16,47.64,91.67,47.25L91.67,47.25z"/>
			</g>
		</g>
		<g id="Group_817" transform="translate(5.09 18.46)">
			<g id="Group_816">
				<path id="Path_928" class="st0" d="M80.78,31c-0.66,0-1.2,0.54-1.2,1.2v19.09h-9.6V40.87c0-3.31-2.69-6-6-6c-3.31,0-6,2.69-6,6
					v10.42h-9.6V32.2c0-0.66-0.54-1.2-1.2-1.2s-1.2,0.54-1.2,1.2l0,0v20.29c0,0.66,0.54,1.2,1.2,1.2h12.01
					c0.63,0,1.15-0.48,1.19-1.11c0-0.03,0-0.06,0-0.09V40.87c0-1.99,1.61-3.6,3.6-3.6c1.99,0,3.6,1.61,3.6,3.6v11.62
					c0,0.03,0,0.06,0,0.09c0.05,0.62,0.57,1.11,1.19,1.11h12c0.66,0,1.2-0.54,1.2-1.2V32.2C81.98,31.54,81.45,31,80.78,31L80.78,31z
					"/>
			</g>
		</g>
	</g>
	<path id="portfolio" class="st0" d="M39.23,42.74H28.49v-1.18c0-1.96-1.59-3.55-3.55-3.55h-9.47c-1.96,0-3.55,1.59-3.55,3.55v1.18
		H1.18C0.53,42.74,0,43.27,0,43.92v26.04c0,1.96,1.59,3.55,3.55,3.55h33.3c1.96,0,3.55-1.59,3.55-3.55V43.94
		c0.03-0.63-0.46-1.17-1.1-1.2C39.28,42.74,39.25,42.74,39.23,42.74L39.23,42.74z M14.28,41.55c0-0.65,0.53-1.18,1.18-1.18h9.47
		c0.65,0,1.18,0.53,1.18,1.18v1.18H14.28V41.55z M37.58,45.1L33.9,56.13c-0.16,0.48-0.61,0.81-1.12,0.81h-6.66v-1.18
		c0-0.65-0.53-1.18-1.18-1.18h-9.47c-0.65,0-1.18,0.53-1.18,1.18v1.18H7.62c-0.51,0-0.96-0.33-1.12-0.81L2.83,45.1H37.58z
		 M23.75,56.94v2.37h-7.1v-2.37H23.75z M38.04,69.96c0,0.65-0.53,1.18-1.18,1.18H3.55c-0.65,0-1.18-0.53-1.18-1.18V51.21l1.89,5.67
		c0.48,1.45,1.84,2.43,3.37,2.43h6.66v1.18c0,0.65,0.53,1.18,1.18,1.18h9.47c0.65,0,1.18-0.53,1.18-1.18v-1.18h6.66
		c1.53,0,2.89-0.98,3.37-2.43l1.89-5.67L38.04,69.96z"/>
	<path id="heart" class="st0" d="M45.72,38.65c-0.62,0-1.22-0.22-1.68-0.63c-1.64-1.43-3.28-2.84-4.94-4.25l-0.01-0.01
		c-4.38-3.73-8.16-6.95-10.79-10.13C25.37,20.1,24,16.73,24,13.06c-0.06-3.41,1.17-6.73,3.45-9.27c2.23-2.43,5.39-3.81,8.69-3.78
		c2.48-0.01,4.88,0.82,6.83,2.36c1.05,0.82,1.98,1.79,2.76,2.88c0.78-1.09,1.71-2.06,2.76-2.88c1.94-1.54,4.35-2.37,6.83-2.36
		c3.3-0.02,6.46,1.35,8.69,3.78c2.27,2.55,3.5,5.86,3.45,9.27c0,3.67-1.37,7.04-4.31,10.58c-2.63,3.17-6.41,6.39-10.79,10.12
		c-1.5,1.27-3.19,2.72-4.95,4.26C46.94,38.43,46.34,38.65,45.72,38.65L45.72,38.65z M36.14,2.55c-2.59-0.02-5.07,1.06-6.82,2.96
		c-1.84,2.08-2.83,4.77-2.77,7.55c0,3.09,1.15,5.85,3.72,8.96c2.49,3,6.19,6.16,10.48,9.81l0.01,0.01c1.5,1.28,3.2,2.73,4.97,4.27
		c1.78-1.55,3.48-3,4.98-4.28c4.29-3.65,7.99-6.81,10.48-9.81c2.58-3.11,3.72-5.87,3.72-8.96c0.06-2.78-0.93-5.47-2.77-7.55
		c-1.75-1.91-4.23-2.98-6.82-2.96c-1.91-0.01-3.77,0.64-5.27,1.83c-1.18,0.94-2.17,2.1-2.94,3.4c-0.45,0.76-1.44,1.01-2.2,0.56
		C44.67,8.19,44.48,8,44.34,7.77c-0.76-1.3-1.76-2.46-2.94-3.4C39.91,3.18,38.05,2.54,36.14,2.55L36.14,2.55z"/>
</g>
</svg>
