<svg xmlns="http://www.w3.org/2000/svg" xmlns:xlink="http://www.w3.org/1999/xlink" width="132.369" height="88.402" viewBox="0 0 132.369 88.402">
    <defs>
        <style>
            .cls-1{opacity:.4;fill:url(#linear-gradient)}.cls-2{fill:url(#linear-gradient-2)}.cls-3{fill:url(#linear-gradient-3)}.cls-4{fill:url(#linear-gradient-4)}.cls-5{fill:url(#linear-gradient-5)}.cls-6{fill:url(#linear-gradient-6)}.cls-7{fill:#fff}.cls-8{fill:url(#linear-gradient-7)}.cls-9{fill:url(#linear-gradient-8)}
        </style>
        <linearGradient id="linear-gradient" x1=".336" x2=".914" y1=".326" y2=".932" gradientUnits="objectBoundingBox">
            <stop offset="0" stop-color="#cfcfcf" stop-opacity="0"/>
            <stop offset=".15" stop-color="#97badd" stop-opacity=".325"/>
            <stop offset=".442" stop-color="#258ffa"/>
        </linearGradient>
        <linearGradient id="linear-gradient-2" x1="-1.102" x2=".888" y1="-.358" y2=".777" gradientUnits="objectBoundingBox">
            <stop offset="0" stop-color="#00acff"/>
            <stop offset=".231" stop-color="#049df1"/>
            <stop offset=".667" stop-color="#1178ce"/>
            <stop offset="1" stop-color="#1d58b0"/>
        </linearGradient>
        <linearGradient id="linear-gradient-3" x1=".045" x2=".503" y1=".381" y2=".538" xlink:href="#linear-gradient-2"/>
        <linearGradient id="linear-gradient-4" x1="-.066" x2=".984" y1=".228" y2=".841" gradientUnits="objectBoundingBox">
            <stop offset="0" stop-color="#00acff"/>
            <stop offset=".379" stop-color="#0c9dfe"/>
            <stop offset="1" stop-color="#297efc"/>
        </linearGradient>
        <linearGradient id="linear-gradient-5" x1="-.038" x2=".867" y1=".123" y2=".757" xlink:href="#linear-gradient-2"/>
        <linearGradient id="linear-gradient-6" x1=".175" x2=".944" y1=".143" y2=".987" xlink:href="#linear-gradient-4"/>
        <linearGradient id="linear-gradient-7" x1=".874" x2=".241" y1=".688" y2=".267" gradientUnits="objectBoundingBox">
            <stop offset="0" stop-color="#505050"/>
            <stop offset=".38" stop-color="#6f6f6f"/>
            <stop offset=".768" stop-color="#8a8a8a"/>
            <stop offset=".999" stop-color="#949494"/>
        </linearGradient>
        <linearGradient id="linear-gradient-8" x1="-.355" x2="1.065" y1="-.992" y2="1.312" xlink:href="#linear-gradient-2"/>
    </defs>
    <g id="Group_1105" data-name="Group 1105" transform="translate(-468.816 -687.099)">
        <path id="Path_1744" d="M535.86 773.8l-67.043-33.822 44.022-30.091 64.986 33.571z" class="cls-1" data-name="Path 1744"/>
        <g id="Group_1102" data-name="Group 1102">
            <path id="Path_1745" d="M529.729 770.034l6.408 4.794 5.527-4.255-.489-.391-8.266-4.549z" class="cls-2" data-name="Path 1745"/>
            <g id="Group_1101" data-name="Group 1101">
                <path id="Path_1746" d="M574.923 732.124v-14.793c0-12.009-9.006-16.579-19.7-10.4l-1.149.663c-10.694 6.174-19.091 20.791-19.091 32.8v14.7c-3.545 2.167-6.39 7.028-6.39 11v.445c0 4.052 2.95 5.633 6.59 3.531l10.205-5.892s1.4 7.2 9.349 2.606 9.752-13.634 9.752-13.634l9.435-5.447c3.64-2.1 6.59-7.089 6.59-11.141v-.444c0-3.669-2.429-5.281-5.591-3.994z" class="cls-3" data-name="Path 1746"/>
            </g>
        </g>
        <path id="Path_1747" d="M580.92 736.622V721.83c0-12.009-9.005-16.579-19.7-10.405l-1.148.663c-10.7 6.175-19.091 20.792-19.091 32.8v14.7c-3.545 2.167-6.391 7.027-6.391 11v.445c0 4.052 2.951 5.632 6.59 3.531l10.206-5.892s1.4 7.2 9.349 2.6 9.752-13.633 9.752-13.633l9.435-5.447c3.64-2.1 6.589-7.089 6.589-11.141v-.444c0-3.66-2.429-5.271-5.591-3.985z" class="cls-4" data-name="Path 1747"/>
        <g id="Group_1104" data-name="Group 1104">
            <path id="Path_1748" d="M597.186 696.282c0 8.226-5.812 18.25-12.98 22.389s-12.981.826-12.981-7.4 5.812-18.25 12.981-22.389 12.98-.826 12.98 7.4z" class="cls-5" data-name="Path 1748"/>
            <path id="Path_1749" d="M601.186 698.282c0 8.226-5.812 18.25-12.98 22.389s-12.981.826-12.981-7.4 5.812-18.25 12.981-22.389 12.98-.826 12.98 7.4z" class="cls-6" data-name="Path 1749"/>
            <g id="Group_1103" data-name="Group 1103">
                <path id="Path_1750" d="M583.778 703.444a3.729 3.729 0 0 0 1.9-2.667l1.159-.669v12.507l-1.723.995v-9.541l-1.333.77z" class="cls-7" data-name="Path 1750"/>
                <path id="Path_1751" d="M588.778 701.987a5.178 5.178 0 0 1 2.617-4.655c1.693-.978 2.618-.369 2.618 1.633v6.5a5.18 5.18 0 0 1-2.618 4.656c-1.692.977-2.617.368-2.617-1.634zm1.724 5.634c0 .9.345 1.033.893.717a1.836 1.836 0 0 0 .893-1.748v-6.754c0-.893-.344-1.034-.893-.717a1.839 1.839 0 0 0-.893 1.748z" class="cls-7" data-name="Path 1751"/>
            </g>
        </g>
        <path id="Path_1752" d="M551.381 768.678s1.4 7.2 9.35 2.61 9.76-13.64 9.76-13.64z" class="cls-8" data-name="Path 1752"/>
        <path id="Path_1753" d="M570.491 757.648s-1.81 9.05-9.76 13.64-9.35-2.61-9.35-2.61z" class="cls-9" data-name="Path 1753"/>
    </g>
</svg>
