<svg xmlns="http://www.w3.org/2000/svg" width="157" height="32"><title>YOURSTORY</title><desc>Created with Sketch.</desc><g fill="none"><g fill="#EF4136"><path d="M6.24 31.6V21.24L0 .36h5.17L8.9 14.6h.08L12.7.35h4.73l-6.25 20.88V31.6H6.24zM23.27 7.54V24.4c0 2.24.98 3.1 2.56 3.1 1.57 0 2.56-.86 2.56-3.1V7.55c0-2.23-1-3.08-2.57-3.08-1.58 0-2.56.85-2.56 3.08zM18.33 24.1V7.85c0-5 2.65-7.85 7.5-7.85s7.5 2.86 7.5 7.85V24.1c0 5-2.65 7.86-7.5 7.86s-7.5-2.86-7.5-7.86zM36.3.36h4.93v24.1c0 2.23 1 3.03 2.56 3.03 1.57 0 2.55-.8 2.55-3.04V.36h4.68v23.8c0 4.98-2.52 7.84-7.37 7.84s-7.37-2.86-7.37-7.85V.35zM69.75 31.6h-5.04c-.26-.8-.44-1.3-.44-3.84v-4.9c0-2.9-1-3.98-3.24-3.98h-1.7V31.6h-4.95V.36h7.45c5.12 0 7.32 2.36 7.32 7.18V10c0 3.2-1.03 5.26-3.23 6.3v.08c2.47 1.03 3.28 3.35 3.28 6.6v4.82c0 1.52.04 2.64.54 3.8zM61.72 4.82h-2.4v9.6h1.95c1.84 0 2.96-.8 2.96-3.3V8c0-2.22-.76-3.2-2.5-3.2zm10.1 3.03c0-5 2.47-7.85 7.28-7.85 4.8 0 7.27 2.86 7.27 7.85v1H81.7v-1.3c0-2.24-.9-3.1-2.47-3.1-1.57 0-2.47.86-2.47 3.1 0 2.27 1 3.96 4.22 6.78 4.14 3.6 5.44 6.2 5.44 9.77 0 5-2.52 7.86-7.37 7.86S71.7 29.1 71.7 24.1v-1.92h4.66v2.23c0 2.24 1 3.05 2.56 3.05 1.57 0 2.56-.8 2.56-3.04 0-2.26-1-3.96-4.22-6.77-4.14-3.62-5.44-6.2-5.44-9.78zm16-3.03V.36h15.26v4.46h-5.16V31.6h-4.94V4.82H87.8zm21.96 2.72V24.4c0 2.24.98 3.1 2.56 3.1 1.57 0 2.56-.86 2.56-3.1V7.55c0-2.23-1-3.08-2.56-3.08-1.58 0-2.56.85-2.56 3.08zm-4.94 16.56V7.85c0-5 2.65-7.85 7.5-7.85s7.5 2.86 7.5 7.85V24.1c0 5-2.65 7.86-7.5 7.86s-7.5-2.86-7.5-7.86zm33.55 7.5h-5.04c-.27-.8-.45-1.3-.45-3.84v-4.9c0-2.9-.98-3.98-3.23-3.98h-1.7V31.6h-4.94V.36h7.45c5.12 0 7.32 2.36 7.32 7.18V10c0 3.2-1.03 5.26-3.23 6.3v.08c2.47 1.03 3.28 3.35 3.28 6.6v4.82c0 1.52.04 2.64.54 3.8zm-8.05-26.78h-2.38v9.6h1.93c1.84 0 2.96-.8 2.96-3.3V8c0-2.22-.76-3.2-2.5-3.2zm14.9 26.78V21.24L139.03.36h5.16l3.73 14.23h.1L151.73.35h4.7l-6.23 20.88V31.6h-4.94z"/></g></g></svg>